<?xml version="1.0" encoding="utf-8"?>
<!-- Generator: Adobe Illustrator 19.2.0, SVG Export Plug-In . SVG Version: 6.00 Build 0)  -->
<svg version="1.1" baseProfile="tiny" xmlns="http://www.w3.org/2000/svg" xmlns:xlink="http://www.w3.org/1999/xlink" x="0px"
	 y="0px" viewBox="0 0 1280 800" xml:space="preserve">
<g id="Laag_1">
	<g>
		<path d="M384.7,344.7c0.2-2.8,2.2-3.6,3.9-5.3c1.5-1.4,2.6-2.9,4-4.4c2.6-2.7,9.3-10.2,13.4-9.4c-0.1-0.8-0.1-1.4-0.1-1.7
			c1.7-2,3.3-4.7,5.5-6.2c1.8-1.3,2.4-1,3.8-2.6c2-2.2,2.8-3.8,5.4-5.4c2.4-1.6,4.2-2.9,6.2-5.1c1.9-2.1,3.9-3.6,6-5.5
			c1.3-1.1,1.8-2.3,3-3.5c3.4-3.4,8.3-4.6,11.2-8.4c0.7-0.8,0.8-1.9,1.5-2.8c0.4-0.4,1.6-0.3,2-0.7c0.9-0.9,1.1-2,2.1-2.7
			c0.9-0.6,2.1-0.5,3.1-1c3.7-2,8.2-6,10.9-9.3c1.7-2,2.2-3.3,4.6-4.8c2.3-1.5,5.1-2.5,7.1-4.3c1.5-1.4,2.1-3.9,3.6-5
			c1.1-0.9,2.5-0.6,3.8-1.1c1.9-0.8,2.5-1.8,4-3.4c-0.2-0.2-0.5-0.6-1-1.1c2.2-1.8,4.8-4.8,7.4-5.9c1.2-0.5,3.2-0.2,4.3-1.2
			c1.4-1.3,1-3.4,2.5-4.8c1-0.9,3.7-1.4,5.1-2.1c1.8-1,4.3-2.4,5.8-3.8c1.5-1.5,1.4-2.4,2.5-3.9c2.2-3,7.3-4.7,10.9-5.7
			c1.1-4.7,5.5-5.6,9.3-7.6c2.4-6.3,8-7.6,13.7-10c-0.3-0.4-0.9-0.9-1.4-1.5c1.7-3,6.8-3,9-5.5c1.1-1.2,0.9-2.5,2.5-3.5
			c1.5-0.9,5.1-0.9,6.9-1.2c-0.6-0.9-0.9-1.4-1.2-2c2-2.8,5.6-2.7,8.6-4.3c-0.6-0.4-1-0.6-1.6-1c1.3-3.1,5.1-4.3,7.8-6.2
			c3.7-2.7,6.7-5.1,11.3-6.1c-0.8-4.8,9.1-9.8,12.4-11.8c4.6-2.9,9.9-5.4,13.8-9.2c5.2-5.1,9.3-8.8,15.8-12.2
			c2.9-1.5,11.2-13.5,13.6-8.2c0.8-5.5,6-7.5,11.1-9.1c2.5-3.9,6.3-5.7,9.7-8.6c4-3.4,7.7-6.3,12-9.3c2.4-1.7,4.7-3.6,7.1-5.4
			c4-3,6.4-3.6,11.1-4.9c-0.3-0.7-0.5-1.3-0.9-2.1c2.7-2,5.4-4.2,8.2-6c2.2-1.4,4.4-1.3,6.4-2.5c3.5-2,5.3-6.5,8.8-9
			c9.1-6.4,17.8-13.3,27-19.7c9.9-6.9,20.2-14.6,29.2-22.7c3.7-3.4,6.9-6,8.9-10.3c1.6-3.4,7.7-10.4,7.7-2.3
			c10.6,6.3-8.5,19.4-13.3,23.3c-10.1,8.1-20.5,15.9-30.8,23.8c-20.9,16-42,31.7-63.4,46.9c-41.6,29.6-82,60.8-122.6,91.7
			c-21.4,16.4-42.3,33.3-63.4,50.1c-19.6,15.7-39.5,31.7-58,48.8c-38.2,35.4-76.5,70.6-110.1,110.6c-9.2,11-18.1,22.2-25.7,34.4
			c-6.5,10.4-15.1,23.7-15,36.5c0.2,12.2,22.8,9.9,31.1,10.4c7.5,0.4,15,0.7,22.4,1.2c2.2,0.1,5.8-0.2,7.9,0.8
			c2.4,1.2,2.6,3.5,4.1,5.8c-7.3,7.6-24.8,4.9-34,4.1c-10.9-0.9-24.3-0.4-33.7-6.4c-22.5-14.5-4.4-42.6,5.9-59.1
			c12.9-20.7,29-39.3,45.7-57C355,372.4,369,357.4,384.7,344.7z M490.5,253.6c0,0.2,0,0.4,0,0.6c0.5,0,1,0.1,1.5,0.1
			c0-0.3,0-0.5,0-0.8C491.5,253.6,491,253.6,490.5,253.6z"/>
		<path d="M666.9,593.8c-4.5-0.4-6.6,11-7.8,14.2c-1.7,4.5-2.9,13.2-8.7,14c-13.4,1.9-10.7-18-12-25.3c-26.5,5.7-53,17-78.1,27.2
			c-25.8,10.5-51.2,21.8-76.6,33.2c-12.9,5.8-25.7,11.9-38.2,18.6c-6.5,3.5-12.8,7.4-19.4,10.8c-5.1,2.7-10.1,3.7-13.1-2.2
			c-3.1-6.3,1.1-8.1,6.4-10.7c6.7-3.4,13.5-7.6,20.6-10.3c4.9-1.9,10.1-5.3,15-6.7c3.9-1.2,7.6-1.6,11.5-3.7
			c10.3-5.5,20.7-10.9,31.7-15.2c2.6-1,4.8-2.4,7.2-3.7c2.5-1.3,3.2-1.1,5.9-1.6c4.3-0.9,14-3.8,16.3-7.7c3.1-0.8,6.9-2.8,9.8-3.9
			c2.4-0.9,6.2-1.5,8.6-2.7c0.9-2.9,3.5-3,6-3.5c2.7-0.5,4.5-1.8,7-2.5c1.1-0.3,2.5,0.1,3.5-0.3c1.5-0.6,2.3-2.2,3.6-2.9
			c2.7-1.4,6-1.4,8.9-2.1c2.2-0.5,3.7-1.6,5.4-2.4c2.2-1.1,4.7-1.7,7.1-2.7c2.7-1.1,4.8-3,7.8-3.4c2.3-0.3,6.7,1.1,7.8-2
			c6.2-1.3,13.9-3,19-6.7c0.3,0.3,0.6,0.7,1.1,1.2c2.4-2.1,1.6-2.6,4.7-2.8c2.3-0.2,7.4,0.5,9.3-1.8c2.1-2.5,0.6-8.3,0.5-11.3
			c-0.2-4.6-0.7-9.2-0.8-13.8c-0.1-2.9-0.6-5.4,2.8-5.9c2-0.3,7.1,2.5,8.3,3.9c4.6,5.4,1.2,15.2,4.4,21.5c3.6-6,5.9-14.6,7.4-21.5
			c1.4-6.4,2.9-8.8,9.7-6.1c6.3,2.5,6.4,7.4,6.2,13.6c-0.1,3-1.5,6.8,1.8,7.8c2.4,0.7,7.2-1.7,8.6-3.6c3.1,2.1,10.1-1.2,13.7-1.8
			c6.3-1,12.6-3.7,18.7-5.4c11.4-3.1,23.1-5.2,34.4-8.7c8.7-2.6,18.4-3.8,27.6-5.8c11.6-2.5,23.4-4.9,35.1-7.1
			c20.5-3.9,41.1-7.5,61.6-9.8c12-1.3,23.8-4.2,35.8-5.6c5.3-0.6,10.6-1.3,15.8-2c2.2-0.3,5.2-1.3,7.4-1.1c2.9,0.3,4.2,1.9,6.9-0.4
			c0.1,0.2,0.2,0.4,0.3,0.6c-0.8,0.7-1.5,1.5-2.4,2.3c1.8,0.6,3.5,1.1,5.2,1.7c0,0.2,0,0.4,0,0.6c-23.3,6.6-47.9,9.1-71.7,13.5
			c-25.6,4.8-51.3,9.1-76.8,14.2c-26.1,5.2-51.9,11.3-77.7,17.9c-12.2,3.1-24.3,6.3-36.4,9.5c-2.3,0.6-7.5,1-9.1,3.1
			c-0.8,1.1-0.8,4.1-1.3,5.4c-0.5,1.6-1.8,5.7-4.1,5.4C667.3,597.1,667.5,595.1,666.9,593.8z"/>
		<path d="M822.4,426.6c7-13.2,14.8-26.1,21.5-39.5c3.5-7.2,7.3-14.2,11.1-21.3c3.4-6.3,6-9.5,13.1-5c6.7,4.3,2.6,10-0.4,15.4
			c-4.2,7.5-8.4,15-12.7,22.4c-8,14.2-12.7,28.2-16.7,43.9c16.9-0.2,32.6-10,49.7-9.7c6.3,0.1,16.6,0.6,20.5,6.6
			c4.4,6.7-1.1,9.5-7.3,8.4c-17.3-3-34.7,3.6-51.4,7.7c-3.9,1-7.9,2.2-11.9,2.7c-4.4,0.6-4.4,0.2-6,4.1c-2.1,5.1-3.1,14.5-11.3,12
			c-6.3-1.9-6.4-10.2-7.3-15.4c-1.6-9.6-3.3-19.1-4.8-28.8c-2.7-17.4-4.7-34.9-7.4-52.3c-2.6-16.7-4.7-33.7-7.8-50.3
			c-1-5.2-6.3-15.9-2.6-21.1c3.8-5.3,12.8,3.1,14.2,7.3c3,8.9,2.9,20,4.3,29.4c1.4,9.4,3.1,18.8,4.5,28.2c1.4,9.6,2.7,19.2,4.1,28.8
			c0.7,5.1,1.4,10.2,2.2,15.3C820.5,419,820.4,423.5,822.4,426.6z"/>
		<path d="M551.7,494.6c8.5,9.2,17.1,18.3,25.8,27.3c3.1,3.2,6.3,7.4,10.5,9c3.7,1.4,7.9,1.8,7.4,7.3c-0.5,4.9-6.1,6.8-10.4,6.2
			c-5.6-0.7-9.9-5.9-13.7-9.6c-8.5-8.4-16.7-17.1-24.9-25.7c-3.1-3.2-8-6.6-10.1-10.5c-2.8-5.1-1.5-7.5,2-11.2
			c7.3-7.7,11.9-19.6,15-29.6c3.3-10.7,6.8-24.2,3.2-35.2c-1.3-3.8-3.8-8.3-8.3-8.3c-4.8,0-9.1,5.8-11.9,9.2
			c-6.7,7.9-13.3,18.7-15,29.1c-0.9,5.6,0.3,11.9,0.6,17.5c0.5,6.9,0.9,13.9,1.5,20.8c0.9,12.6,1.4,25.5,3.2,38
			c0.7,5,3.2,10.4,2.9,15.5c-0.3,5.1-5.1,8.8-9.7,5.9c-4.2-2.7-5.7-9.3-7.3-13.6c-2.2-6-4-12.1-5.1-18.4
			c-2.2-12.7-3.4-25.4-3.2-38.3c0.2-12.6,2.4-24.9,3.3-37.4c0.3-3.9-0.5-12.2,3.6-14.5c1.5-0.8,3.2,0.3,4.7-0.4
			c1.9-0.8,3.4-4.6,4.4-6.2c5.5-8.7,14-22.4,25.8-22.3c10.6,0.1,19.5,9.4,22.8,18.8C577.6,443.5,563.3,472.5,551.7,494.6z"/>
		<path d="M715.1,469.9c5.2-14.3,8.5-29.2,14-43.4c2.5-6.5,5.4-13.2,9.4-18.9c4-5.7,7.1-8.4,14.1-5.8c12.2,4.5,13.2,23.7,15.4,34.5
			c3.2,15.9,5.6,32.1,10.4,47.6c4.7-0.8,7.2-18.8,8.3-22.9c5.6,0.6,6.1,6.8,7.3,11.2c1.7,5.9,0.9,11.9-1.5,17.5
			c-2,4.7-5.1,10.6-10.5,11.6c-5.6,1.1-9.9-1.9-13-6.3c-7.2-10.5-8.9-24.6-11.2-36.8c-2.5-13.2-4-27.6-8.9-40.1
			c-12.2,23-18.7,49-25.1,74.2c-1.2,4.6-1.5,12-6.5,14.2c-4.9,2.1-9.1-2-11.3-5.9c-5.5-10.3-5.5-25.2-6.5-36.6
			c-1.1-13.1-1.4-26.3-1.3-39.5c0.1-6.8,0.1-13.7,0.7-20.5c0.5-6.1,1.4-10.5,8.2-7.8c6.4,2.6,5.9,5,5.6,11.2
			c-0.4,7.3-0.6,14.7-0.5,22.1c0.1,13.3,0.1,27.1,1.9,40.3C714.6,469.8,714.9,469.8,715.1,469.9z"/>
		<path d="M649.1,498.3c-4.6,13.9-10.6,36.3-28.4,37.5c-16.7,1.2-23.6-21.1-23.9-34.2c-0.4-19,5.5-39.8,12-57.6
			c1.5-4.1,3.1-8.1,5.1-12c1.2-2.4,3.3-8.2,6.1-9.2c2.7-1,8.4,1.8,10.1,4c1.9,2.5,1.5,7.5,1.2,10.7c-1.6,1.5-3.8,1.8-5.3,3.6
			c-1.8,2-2.7,4.8-3.7,7.2c-2.8,6.9-4.9,14-6.6,21.2c-3.1,13.3-7.7,28.8-3.9,42.4c1.2,4.2,3.3,10.9,8.5,8.6
			c5-2.3,8.5-10.6,10.6-15.2c5.8-12.7,8-26.9,8.6-40.7c0.3-6.9,0.1-13.8-0.3-20.7c-0.3-3.7-0.5-7.3-0.7-11c-0.2-3-1.4-8.4-0.5-11.4
			c1.4-4.4,7.4-3.3,10.8-1.4c5.7,3.2,4.4,10.3,4.9,16c1.3,15,3.7,30.1,6.4,44.8c2.2,12.1,5,28.5,15.4,36.7c4.1,3.2,12-0.7,13.2,5.7
			c1.5,7.7-10.3,8.6-15,6.9c-13.4-4.9-19.3-19.7-24.1-32C649.5,498.2,649.3,498.2,649.1,498.3z"/>
		<path d="M430.3,479.1c-1.1,23-3.2,46.1-3.7,69.1c-0.2,11.8-0.4,23.5-0.5,35.3c0,4.7,2.3,24.1-8.9,18.2c-8.2-4.3-5.7-20.9-5.3-28.1
			c0.7-11.9,1.7-23.9-0.1-35.8c-0.7-4.6-2-8.9-3.4-13.3c-1.8-5.2-5.5-11.2-6.6-16.5c-0.8-4.4,1.3-3.1,4.2-0.7
			c3.9,3.2,6.6,7.4,9.6,11.4c2.3-7.1,1.3-16.4,1.6-24c0.4-9.1,0.7-18.2,1-27.4c0.5-17.3,0-35.5-3.2-52.6c-0.7-4-6.2-16.9,1.3-17.3
			c7.1-0.4,9.3,10,10.3,14.8c3.5,17,1.1,34.8,4.2,51.8c9.4-1.4,18.9-7.2,27.7-10.9c3.5-1.5,7.4-4.2,11.3-3.2
			c2.1,0.5,5.3,2.7,5.2,4.8c-0.2,3.7-6.5,6.9-9,8.6c-4,2.7-8,5.6-12.2,7.9C447,474.8,438.1,480.7,430.3,479.1z"/>
	</g>
</g>
</svg>
