<?xml version="1.0" encoding="utf-8"?>
<!-- Generator: Adobe Illustrator 19.2.0, SVG Export Plug-In . SVG Version: 6.00 Build 0)  -->
<svg version="1.2" baseProfile="tiny" xmlns="http://www.w3.org/2000/svg" xmlns:xlink="http://www.w3.org/1999/xlink" x="0px"
	 y="0px" viewBox="0 0 1280 800" xml:space="preserve">
<g id="Laag_1">
	<path fill="#FFFFFF" d="M294.7,411.3c7.4-8.5,12.6-19.7,18.7-29.1c6.5-9.9,13.1-19.8,19.9-29.5c13.8-19.9,28.9-39.4,44.6-57.8
		c7.2-8.4,15.9-15.2,23.5-23.1c3.6-3.7,4.2-5.7,9.7-6.8c4.3-0.9,8.8,0.4,11.6,4.4c2.3,3.2,1.6,7.8,1.9,11.5
		c0.4,5.5,0.4,11.3-0.2,16.9c-1.2,11.5-3.8,23-7,34.1c-3.8,13.4-8.4,26.6-12.2,40c-3.5,12.3-8.6,24.1-11.3,36.6
		c0.1,0.1,0.3,0.1,0.4,0.2c10.7-16.2,19.6-33.7,30.1-50c10.4-16.1,21-32,32.4-47.4c1.3-4,5.4-8.2,8-11.5c2.8-3.6,5.4-7.3,8.3-10.9
		c5.2-6.6,10.2-13.2,15.9-19.5c3.3-3.7,6.9-7,10.3-10.6c2.7-2.9,4.5-7.2,8.6-8.2c8.4-2.2,14,4.3,14.7,11.8c1.8,20,0.5,39.6-4,59.2
		c-4.6,20.4-9.4,41-15.8,60.9c-6.6,20.5-12,41.9-17.1,62.8c-1.4,5.7-2.8,11.4-4,17.2c-1.1,5.5-0.7,9.8-0.5,15.2
		c0.2,3.3-2.3,8.1-5.6,9.8c-3.3,1.7-7.3-0.7-9.9-2.8c-7.6-6.2-2.6-16.7-0.5-25c2.8-11,5.7-21.9,8.7-32.8
		c5.7-21.1,11.6-42.2,17.2-63.4c5.6-21.4,12-42.2,14.5-64.3c0.6-5.5,1.2-11,1.4-16.6c0.2-3.5,1.6-10.3-3.2-6.7
		c-3.6,2.7-6.4,7.5-9.3,11c-3.4,4.1-6.9,8.1-10,12.3c-24.9,33.4-49.1,67.2-69,103.8c-9.4,17.3-18.9,34.6-27.7,52.3
		c-4.8,9.6-9.3,19.3-13.9,29.1c-2.1,4.5-4.3,9-6.3,13.5c-1.8,4.2-2.4,9-5.9,12.2c-5.1,4.7-15.1,0.7-17-6.1c-1.1-4,2.3-6.5,3.9-9.8
		c2.1-4.3,3.1-9.1,4.6-13.5c7.2-20.8,13.9-41.8,20.5-62.8c6.4-20.4,12.8-40.9,19.2-61.4c6.1-19.7,13.1-39.8,14.6-60.5
		c0.2-3,1.7-8.6-1.9-8.1c-2.6,0.4-6.9,6.4-8.7,8.4c-6.3,6.8-12.5,13.8-18.4,21c-12.4,15-24,30.8-35.3,46.7
		c-24.2,34.4-46.6,70.7-66.9,107.5c-19.8,35.9-34.6,73.5-47.8,112.3c-1.8,5.1-2.6,10-3.9,15.2c-0.9,3.7-3.3,8.5-7,10.2
		c-3.6,1.6-6.6,0.8-9.5-1.3c-4.8-3.4-4.5-4.8-2.8-9.8c3.1-8.9,4.7-18.2,7.9-27.1c3.5-9.9,7.6-19.6,11.4-29.4
		c7.6-19.3,17.1-37.6,24.3-57c7.5-20.3,15.5-40.4,23.3-60.7c15.2-39.7,31.4-79,46.5-118.7c3.6-9.4,7-19.1,9.9-28.8
		c0.9-2.9,4.9-13.4,3.4-15.8c-1.8-3-5.9,2.7-7.8,4.5c-14.5,14.1-26.8,30.3-39.6,45.9c-11.6,14.2-22.1,29.6-31.9,45.2
		c-5.6,8.9-11.1,18-16.2,27.1c-4.3,7.7-8.8,20.9-16.8,25.5c-7.9,4.6-17.9-3.8-12.2-11.8c5.2-7.4,10.1-14.5,14.9-22.3
		c10.8-17.6,22.2-34.9,34.2-51.8c11.3-15.9,23.2-31,35.8-45.9c7-8.3,14.3-16.5,22.2-23.9c6.6-6.1,13.9-12.6,23.4-12.2
		c22.3,0.9,5.2,42.9,1.3,54c-7.2,20.6-15.8,40.8-23.9,61.1c-3.9,9.9-8.3,19.5-12,29.4c-1.7,4.4-3.6,8.7-5.2,13.1
		c-1.1,3.1-5,9.4-4.5,12.8C294.4,411.2,294.6,411.3,294.7,411.3z"/>
	<path fill="#FFFFFF" d="M844.7,356.1c8.4-4.5,16.2-12.9,23.2-19.4c7.6-7,14.3-14.8,21.6-22.1c13.6-13.6,26.7-27.9,41.7-40.1
		c8.1-6.6,16-13.5,24.2-20c3.4-2.7,6.7-6.2,11.3-6.4c4.4-0.2,8.8,2,9.7,6.6c1,5-3.5,7.1-7.1,9.7c-4.2,3-8.1,6.3-12,9.6
		c-7.6,6.5-14.9,13.3-22.4,20c-15.8,14.2-30.9,29.1-46.1,43.9c-7.5,7.2-14.5,15.7-20.8,24c-2.9,3.7-5.8,7.3-8.7,11
		c-1.5,2-3.7,4.1-4.8,6.3c-1.6,3.3-0.5,3,2.6,4.6c40.7,21.5,76.6,51.7,111.1,81.9c7.8,6.8,15.9,13.2,23.6,20.1
		c4.8,4.3,18.8,13.8,11.9,21.4c-5.9,6.5-14.8-0.2-18.3-5.6c-5.1-7.8-12.3-14.5-19.3-20.6c-31.9-28.2-64.8-56.3-101.4-78.1
		c-4.9-2.9-10-5.8-15.3-8c-2.5-1-3.9-2-6-0.7c-1.7,1.1-3.5,4.9-4.6,6.6c-6,9.2-12,18.3-17.7,27.7c-5.4,9-10.7,18.9-13.7,29.1
		c-1.3,4.3-0.7,9.6-4.3,13c-3.7,3.5-7.9,1.6-11.8-0.7c-3.7-2.2-5.8-2.5-4.9-6.9c0.8-4.1,3.1-8.2,4.5-12.2c3.5-9.8,8.7-19,12.4-28.8
		c2-5.3,3.9-10.7,5.8-16.1c1.2-3.5,5.5-10.3,5-13.8c-0.4-3.5-5.5-4-4.8-8c0.9-4.7,7.3-5.2,10.1-8c3.4-3.4,4.7-9.8,6.2-14.3
		c2-6,4.3-11.9,6.4-17.8c3.8-10.8,8-21.6,11.8-32.4c7.3-20.8,16-42.1,19.6-64c0.6-3.8,0-9.4,2.9-12.4c2.9-3,9.2-3.1,12.4-0.8
		c3.8,2.7,4.4,6.6,3.3,10.8c-1.5,5.6-2.8,11.2-4.5,16.7c-6.7,21.9-14.4,43.6-22.4,65.1c-1.8,4.8-3.6,9.6-5.5,14.4
		C848.2,344.7,843.1,352.5,844.7,356.1z"/>
	<path fill="#FFFFFF" d="M652.9,264.6c-4,0.7-8.1,6.4-11.1,9.1c-3.6,3.2-7,6.5-10.4,9.9c-5.5,5.4-11.1,10.7-16.3,16.5
		c-6.7,7.5-13.4,15.3-20.7,22.4c-3.2,3.1-6.2,4.7-10.4,3.3c-2.9-1-8-3.7-8.9-7.1c-1.2-4.6,4.1-5.8,7-8c3-2.3,5.7-5.3,8.4-8
		c7.4-7.6,14.4-15.5,22-23c7.4-7.3,15.3-14.2,23-21.2c6.1-5.5,13.7-13.9,21.7-16.2c24.7-7,13,30,9,45.1C661,307,657,315,651,331.4
		c-7.2,19.8-15.1,38.1-22.1,57.9c-3.4,9.6-6.8,19.2-10.1,28.8c-0.4,1.2-2.2,4.4-1.6,5.7c0.5,1,3.8,1.4,4.8,2c3.4,2.2,5.1,6.4,3.1,10
		c-5.6,9.9-17.1,13.9-20.6,25.2c-3.7,11.8-8.9,23.5-12.2,35.4c-1.1,4.1-1.7,8-6.8,9c-3.8,0.7-9.5-1.6-11.5-5
		c-4.6-7.5,7.7-17.4,8.4-25.1c-3.8-0.5-10.1,5.7-13.2,7.6c-5.4,3.3-12,6.1-18.1,7.9c-11.5,3.2-25.1,2.3-34.7-5.4
		c-19.7-15.7-3.8-43.5,6.6-60.1c11.7-18.7,27.2-36.2,43.9-50.5c8.4-7.2,16.9-13.9,27.8-16.7c3.8-1,9.4-1.6,12.6,1.6
		c3.5,3.5,1,7.6-2.7,9.2c-18.5,8.1-32.9,21.8-46.5,36.6c-8.5,9.2-15.6,19.4-22.3,30c-5.8,9.2-12.9,22.7-12,33.9
		c2.2,26.8,46.6-4.2,55.2-10.9c4.2-3.2,9.8-7,12.5-11.6c3.1-5.1,4.5-12,6.6-17.6c4-11,8.3-21.9,12.2-33
		c8.4-23.9,14.7-37.5,23.8-61.1c3.9-10.1,7.9-18.1,11.2-31.5c2.6-10.6,4.3-14.8,5.3-21.2C651.3,278.9,655,267.2,652.9,264.6z"/>
	<path fill="#FFFFFF" d="M698.8,403.3c-1.3,0.9-9,4.9-8.7,6.7c0.4,2.2,8,3.9,9.7,4.6c8.5,3.3,17.1,6.5,25.6,10
		c13.5,5.7,26.6,13.3,38.1,22.4c5.8,4.6,11.7,8.9,17.5,13.5c7.1,5.7,0.6,12.5-7.1,11.5c-7.6,0-10.4-4.8-14.8-10.2
		c-3.7-4.6-9.2-8.8-14-12.3c-12.5-9.1-26.7-14.9-41-20.4c-7-2.6-14.4-4.8-21.1-8.2c-1.6-0.8-7.2-5.7-8.8-5.6
		c-2.4,0.2-3.5,6.8-4.3,8.8c-6,14.9-12.9,29.3-20.3,43.5c-2.9,5.6-4.2,12.9-11.7,12.1c-6-0.6-11.5-4.7-8.4-10.6
		c7-13.7,14.7-26.7,20.9-40.9c12-28,22.9-56.5,33.8-85c5.7-14.9,10.8-30.1,15.4-45.4c2.1-6.9-0.5-13.2,1.8-19.9c1-3,3.2-5.4,4.2-8.4
		c1-3.1,1-6.5,2-9.7c1.6-5.5,2.5-14.8,6.8-18.5c1.8-1.6,4.7-2.4,7.1-2.1c4.4,0.6,5.1,4.5,8.3,5.7c3.6,1.3,13-5.1,16.7-6.3
		c7.3-2.5,15.6-2.5,23.3-1.7c14.7,1.5,29.5,10.8,34.3,25.3c4.9,15.2-1,31.5-8.2,45c-13.9,25.9-36.2,48.8-58.5,67.7 M680.1,398.9
		c0.1,0.1,0.3,0.2,0.4,0.3c4.9-2.3,9.3-6.2,13.8-9.1c5.4-3.5,10.5-7.2,15.7-11c11.3-8.1,22.3-17.2,31.9-27.4
		c16.4-17.4,34.3-36.4,43.4-58.9c4.4-10.9,7.8-25.8-0.2-35.9c-8.3-10.4-24.9-8.8-35.9-4.1c-12.4,5.2-23.6,13.3-27.1,26.8
		c-3.1,12-7.6,23.5-11,35.4C702.9,343.5,689.2,370.5,680.1,398.9z"/>
	<path fill="#FFFFFF" d="M1067.6,491.9c-1.5,10.4-19.5,8.5-18.2-0.6C1050.7,482.2,1068.9,483.5,1067.6,491.9z"/>
</g>
<g id="Laag_2" display="none">
	<rect x="202.5" y="-614.5" display="inline" fill="none" stroke="#FF0000" stroke-miterlimit="10" width="870" height="402"/>
	<rect x="1502.5" y="-614.5" display="inline" fill="none" stroke="#FF0000" stroke-miterlimit="10" width="870" height="402"/>
	<rect x="2802.5" y="-614.5" display="inline" fill="none" stroke="#FF0000" stroke-miterlimit="10" width="870" height="402"/>
	<rect x="202.5" y="205.5" display="inline" fill="none" stroke="#FF0000" stroke-miterlimit="10" width="870" height="402"/>
	<rect x="1502.5" y="205.5" display="inline" fill="none" stroke="#FF0000" stroke-miterlimit="10" width="870" height="402"/>
	<rect x="2802.5" y="205.5" display="inline" fill="none" stroke="#FF0000" stroke-miterlimit="10" width="870" height="402"/>
	<rect x="202.5" y="1025.5" display="inline" fill="none" stroke="#FF0000" stroke-miterlimit="10" width="870" height="402"/>
	<rect x="1502.5" y="1025.5" display="inline" fill="none" stroke="#FF0000" stroke-miterlimit="10" width="870" height="402"/>
	<rect x="2802.5" y="1025.5" display="inline" fill="none" stroke="#FF0000" stroke-miterlimit="10" width="870" height="402"/>
</g>
</svg>
