<?xml version="1.0" encoding="utf-8"?>
<!-- Generator: Adobe Illustrator 19.2.0, SVG Export Plug-In . SVG Version: 6.00 Build 0)  -->
<svg version="1.2" baseProfile="tiny" xmlns="http://www.w3.org/2000/svg" xmlns:xlink="http://www.w3.org/1999/xlink" x="0px"
	 y="0px" viewBox="0 0 1280 800" xml:space="preserve">
<g id="Laag_1">
	<g>
		<path fill="#FFFFFF" d="M341.1,468.3c3.1-2.2,4.5-8.8,5.9-12.2c1.8-4.5,3.5-9.1,5.2-13.7c3.1-8.1,7-16,10.7-23.9
			c8.1-17.4,18.1-35.7,33-48.3c6-5.1,13.2-10.6,21.5-9.1c9.1,1.6,12.4,10.1,14.7,18.1c2.3,8,3.4,16.2,4,24.5
			c0.3,4.9,0.9,9.7,1.3,14.6c0.3,3.9-0.3,10.4,2.3,13.8c3.4-2.8,5.1-8,7-12c2.5-5.3,4.8-10.7,7.2-16c4.6-10,9.7-19.8,15.4-29.2
			c11-18.1,25.3-37.4,47.2-41.5c32.5,2,22,46.8,41.8,62c4.5-4.4,6.2-11,11.4-15.2c2.9-2.3,6-3.6,9.7-4.2c3.1-0.5,6.9,1.1,9.7,0.5
			c5.6-1.2-0.6-11.5-0.8-15.9c-0.3-8.1,6.3-11.6,13.6-11.6c14.3,0,29.7,7.7,42.7,13.3c11.1,4.7,28.4,10.8,33.3,22.9
			c-5.7,7.6-15.4,1.9-23-0.2c-0.8,1,13.3,5.4,14.7,5.7c7.1,1.7,16.7,3.3,23.8,1c0.7-3.8-4.5-10.5-6-14c-1.9-4.4-3.4-8.9-5.2-13.3
			c-1.5-3.6-2.6-7.2-4-10.8c-0.8-2.3-1.9-9.1-3.5-9.8c-7.1-16.4-11.3-34.9-14.9-52.4c-4-19.1-6.6-38.5-5.4-58
			c1-17.4,5.6-35.9,16.4-49.9c5.3-6.9,13.4-5.9,13.8,3.8c0.1,1.7-0.7,8.9-2.3,9.7c-3.1,1.7-3.1-6.1-4-7.6c-4,1.8-7.1,10.2-8.8,14
			c-2.3,5.3-4.4,10.9-5.5,16.7c-2,9.9-3.5,20.9-1.6,30.8c0.8,0.3,1.3,0.9,0.8,2.1c-0.4,0-0.8,0-1.2,0c-0.1,1.2,1.1,1.7,1.2,2.7
			c-2.1,3.1,0.6,6.4,1.2,10c0.6,4.3,1,8.7,1.9,13c-0.3,0.9-1.4,0.7-1.5,1.7c0.5-0.1,0.9-0.1,1.3-0.2c1.8,1.2,2,8.9,2.6,11
			c1.2,4.6,2.2,9.3,3.3,13.9c2.2,9,4.6,17.8,7.4,26.7c2.7,8.4,5.5,16.8,8.5,25.1c1.6,4.5,3.4,8.8,5.2,13.2
			c1.6,3.8,3.2,10.5,6.2,13.5c3-1.7,1.6-7.1,4.8-8.9c4.2-2.4,7.3,1.9,8.2,5.4c2.5,9.8-1.7,20.9,2,30.6c2.1-1.2,1.5-17.4,1.7-20.2
			c0.2-3.6,0.6-19.1,8.4-12.5c5.5,1.1,1.9,12.2,1.5,15.5c-0.7,5.7-1.3,11.3-1.4,17.1c-0.1,6.1,0.5,12.1,1.5,18.1
			c0.4,2.7,1.3,15.5,4.6,16.2c1.1-0.1,1.8-3.3,2.2-4.1c1.2-1.9,3.1-3.8,5-5c1.2-2.7,3.7-5.3,4.8-8c1.1-2.9,0.3-5.5,0-8.5
			c-0.8-6.8-1-13.7-1.9-20.6c-1.8-14.5-2.3-29.3-1.9-43.9c0.2-8.5,1.2-17.3,2.3-25.7c0.6-4,1-15.7,4.4-18.3
			c7.5-5.6,9.3,6.4,9.7,10.4c0.5,4.2,4.3,18.3,1,21.1c0.2,0.4,0.6,0.7,1.1,0.9c0.5,3.4,0.8,6.8,1,10.3c0.1,2-1.1,7.5,0.3,8
			c-0.3,0.8-0.8,1.5-1.3,2.1c0,0.6,0.2,1.1,0.6,1.6c0.1,1.8,1.6,1.7,0.4,3.8c1.4,2.1-0.6,6.4,0.5,9c-0.7,4.4,0.2,9.8,0.4,14.2
			c0.2,3.1-0.6,10.8,1.4,13c3.4-0.2,4.3-3,6.1-5c2.3-2.6,5.1-5.1,7.7-7.5c5.8-5.4,12.2-11.2,19.4-14.6c7.3-3.4,15.5-3.6,18.6,4.9
			c1.3,3.6,1.6,8,1.7,11.9c0.1,3-1.9,8.7-0.6,11.4c3.6,1.5,12.4-7,15.2-9c2.1-1.5,10.7-9.8,13.3-8.3c0.5-3.7,6.5-6.5,9.3-8.5
			c4.1-2.8,8-5.7,12.1-8.5c7.4-5,14.8-10.2,22.5-14.7c16.9-9.7,34.1-20.3,53.8-23.1c9.9-1.4,20-0.3,28.9,4.5
			c8.9,4.8,16.6,11.7,25.4,16.7c19.7,11.2,42.6,11.6,64.6,9.5c5.3-0.5,10.5-1.2,15.8-2c4.2-0.6,10.3-3,14.5-2.3
			c4.4,0.8,6.4,4.2,4.6,7.9c-2.4,4.9-5.1,3.6-9.8,3.7c-10.5,0.2-21.3,2.8-31.9,3.5c-12.1,0.8-24.8,0.8-36.7-1.7
			c-9.9-2-19-5.7-27.6-10.9c-9-5.4-16.9-13.3-26.7-17.2c-18-7.2-38.6,1.9-54.5,10.1c-18.4,9.6-36.3,21.3-52.7,34.1
			c-7.8,6.1-16,11.6-23.8,17.7c-7.1,5.6-16.8,12.4-26.1,8.8c-3-4.9-1.1-8.7-0.4-14c0.4-2.9,1.9-13.7-0.8-16.1
			c-4.7-4.1-18.3,9-21.9,12.2c-3.6,3.2-7,6.3-10.2,10c-3,3.4-8,6.8-8.8,11.4c-0.8,4.6,0.7,10.9,1.2,15.5c0.5,5.2,0.9,10.4,1.2,15.7
			c1.1,19.8,2,39.8,1.4,59.6c-0.3,9.1-1,18.1-1.9,27.1c-0.4,4-0.7,8-1.3,11.9c-0.5,3.4-3,9.7-1.9,12.9c-1.4,5.3-2.7,10.4-3.1,15.9
			c-1.8,5.6-2.9,13.4-6.1,18.4c-1.9,8.7-8.4,17.7-13.7,24.7c-5,6.5-11,12.4-18.6,15.7c-18.8,8.2-34.4-8.6-40.8-24.3
			c-7.2-17.7-8-38.2-4.5-56.8c1.6-8.8,4.2-17.9,7.5-26.2c1.7-4.4,4.1-15.6,8.6-17.7c-0.2-0.4-0.5-0.7-0.7-1.1
			c2.8-9,8.8-18.2,13.6-26.3c2.1-3.6,4.3-7.4,6.7-10.9c2.2-3.1,4.5-7.9,7.9-9.7c0.1-3.1,2.4-5.3,4.4-7.4c1.7-6.2-2.5-14.8-3.8-21.2
			c-0.8-4-1.5-8-2.1-12.1c-0.9-5.5,0.1-3.2-2.7-2.7c-6.7,1-7-3.4-9.5-8.9c-1.5-3.4-3-6.9-4.6-10.2c-1.9-3.8-1.6-3.6-5.7-2.9
			c-12.9,2.5-28.6-0.3-40.6-5.2c-6.5-2.7-12.6-6.5-17.2-11.9c-3.1-3.6-11.1-13.6-0.9-13.6c0.5-1.8-20.2-8.4-22.6-9
			c-3-0.8-8.9-2.7-11.9-1.3c-2.5,1.2-3.1,5.6-1.1,7.7c14.2-10.1,14.6,9.9,14.6,19.1c0,6.3,0.2,12.2,3,18c1.9,4.1,9,10.3,8.1,14.9
			c-9,10.3-16.4-9.8-18.8-15.6c-0.9-2.3-0.5-3-2.5-2.8c-1.3,0.1-4.5,5.3-5.8,6.5c-3.9,3.4-8.6,5.2-13.7,5.7
			c-5.1,0.5-5.3,0.7-8.7,4.3c-3.2,3.4-7.8,7.5-12.6,8c-4.3,0.4-8.9-1.9-9.9-6.4c-1-4.3,3.3-9.4,1.5-13.2c-1.8-3.7-7-3.9-8.9-7.9
			c-1.9-4-4.4-8.4-5.8-12.9c-3.1-9.6-4.9-19.5-9-28.8c-4.2-9.5-10.4-14.1-20.6-10.3c-9.5,3.6-17.5,12.1-23.8,19.7
			c-13.3,16-21.1,36.1-29.7,54.9c-3.3,7.3-7,18.6-15,22c-11.8,5-12.5-13.7-13-20.7c-0.8-12.1-0.7-24.2-3.8-36
			c-2.8-10.6-6.2-17.7-17.6-11.6c-16.8,9.1-27.8,29.6-35.6,46.3c-4.7,10.2-9.4,20.3-13.5,30.7c-3.1,8-6.6,27.9-16.8,30.2
			c-13.4,3-8.7-19-7.4-25.4c2.7-13,6.7-25.9,10.4-38.6c2.2-3,2.9-8.8,3.8-12.4c1-3.7,2-7.4,3.2-11.1c2.2-6.4,3.8-12.7,5.6-19.2
			c4.5-16,8.4-31.6,10.8-48.2c0.5-3.5,3.1-13.8-0.8-15.2c-4.4-1.5-15.5,6.4-18.6,8.6c-10.4,7.3-19.5,15.5-28.7,24.3
			c-41.8,39.8-73.1,89.2-98.8,140.5c-6,12-13.6,24.1-21.2,35.2c-6.6,9.6-21.1,28.8-32.8,13.3c-5.7-7.6,2.4-9.1,7.5-5.6
			c1.1,0.7-1,1.4,1.6,2c1.9,0.4,4.3-2,5.6-3c3.7-3,6.4-6.7,9.2-10.5c10.3-14.1,18.7-29.4,27-44.8c15.2-28.1,31.5-54.7,50.1-80.6
			c17.7-24.6,38.8-48.9,62.5-68.1c7.9-6.4,16-12.9,25.2-17.5c5.7-2.9,16.9-6.3,21,1.3c3.8,7.1,0,21.2-1.3,28.7
			c-1.8,10.3-4.4,20.4-7,30.5c-4.1,16-9.7,31.6-14.2,47.6c-2.8,10-6,19.9-8.5,30C343.4,449.1,338.8,460.9,341.1,468.3z M706.5,493.5
			c0.5,3.1-3.9,7.9-5.3,10.3c-2.5,4.6-4.7,9.9-6.4,14.9c-2.9,8.2-6.3,16.8-9.3,25c-8.2,22.6-8.5,52.2,3.3,73.6
			c6.1,11,18.4,18.5,30.8,12.8c10.3-4.8,17.6-15.8,22.5-25.7c11.1-22.3,13.5-49.3,15.2-73.8c0.9-13.6,1.1-27.2,1-40.8
			c-0.1-5.5-0.8-10.9-1-16.4c-0.3-6.4,0.6-13.2-0.9-19.5c0.6-4.9-0.7-10.1-1-14.9c-0.1-1.5,0.2-12.2-2.1-11.3
			c-2.6,1-0.5,11.4-0.4,13.5c0.3,5.6,0.6,11.3,0.3,16.9c-0.2,4.9-0.3,9.1-4.5,12.2c-4.2,3-9.4,3-13.9,0.5c-2.9-1.6-7-9.2-9.8-7.2
			c-1.3,0.9-2.3,4.4-3.2,5.8c-1.3,2.2-2.7,3.6-4.6,5.3c1.2,2.8-3.5,7.8-5.2,10.4C711,487.1,708.4,492.6,706.5,493.5z M750,416.5
			c5.2,1.4,2.8-8.2,2.6-10.5c-0.5-6.1-0.9-12.2-1.3-18.3c-0.4-6.7-0.8-13.3-1.3-20c-0.3-3.6,1-15.4-2.1-17.5
			c-0.3,0.7-0.7,0.5-1.2,0.3c-0.2,0.8,1,2.9,1,3.6c0,0.9-0.3,4.2-0.4,5.4c-0.1,1.4,0.4,5.2-0.1,6.2c-0.3,0.2-0.7,0.4-1,0.6
			c-0.4,1.1,0.4,1.5,0.8,1.9c0.1,1.3-0.9,1.7-1.3,2.4c0.3,1,0.5,2,0.9,3.2c-1,1.8,0.1,4.3,0.2,6.3c0.1,1.8-0.3,3.7-0.2,5.5
			c0.1,3.6,0.4,7.6,1.6,11.2c-1.6,3.8,2.6,7.6,0.7,10.1c0.9,1.6,0.1,4,0.4,5.8C749.6,415.1,751.2,413.9,750,416.5z M585.9,385
			c-7.3-4.5-18.3,9-19.2,14.7c6.6,2.7,7.1,4.4,11.1-1.5C580.4,394.4,585,389.6,585.9,385z M742.2,464.3c3.3-1.8,2.2-12.9,2.2-15.9
			c0-4.2,1-9.7-3.5-6.1c-2.1,1.7-6.3,7.9-7.1,10.3C732.5,456.6,738.1,463.5,742.2,464.3z M584.8,402.8c4.7,1.7,12.5-9.1,12.8-12.9
			c-4.1-3-4.5-0.9-6.9,3.1C588.7,396.1,586.2,399.3,584.8,402.8z M562,415.2c2.1,0.3,4.8-2.3,5.8-3.8c-1.6-0.8-3.1-1.4-4.8-1.5
			C562.5,411.7,561.7,413.3,562,415.2z M604,381.3c0.6-2,1.1-6-0.6-7.7C600.4,375.8,602.5,378.6,604,381.3z M710.7,479.1
			c0,0-1.6,2.8-0.9,3C711.7,482.8,710.8,479.8,710.7,479.1z M747.3,346.1c-0.1,0-0.2,0-0.2-0.1c-0.7,0.7-0.7,1.3-0.1,1.6
			C747.6,347.5,747.7,347,747.3,346.1z M739.5,440.6c0.2,0.1,0.3,0.2,0.4,0.3C740.4,440.2,740,440,739.5,440.6z M756.7,344.5
			c-0.1-0.1-0.2-0.2-0.3-0.3c-0.3,0.2-0.3,0.4-0.1,0.7C756.5,344.7,756.6,344.6,756.7,344.5z M736.4,444c0,0.1,0,0.1,0,0.2
			c0.3,0,0.4-0.1,0.3-0.3C736.6,443.9,736.5,444,736.4,444z M699.2,503.3c-0.3-0.2-0.4-0.1-0.5,0.2
			C699,503.7,699.2,503.6,699.2,503.3z M722.6,462.3c0.3-0.4,0.2-0.5-0.2-0.3C722.5,462.1,722.5,462.2,722.6,462.3z M718.2,470.1
			c0,0-0.1,0.1-0.1,0.1c0.1,0,0.2,0.1,0.3,0.1C718.5,470.3,718.4,470.2,718.2,470.1z M753,419.7c0-0.1,0-0.1-0.1-0.2
			c-0.1,0.1-0.2,0.1-0.3,0.2c0.1,0.1,0.2,0.1,0.3,0.2C753,419.8,753,419.8,753,419.7z M663.7,269.6l0,0.1l0.1-0.1L663.7,269.6z
			 M663.6,271.5c0-0.1,0-0.2,0.1-0.2c0,0-0.1,0-0.1,0.1C663.6,271.3,663.6,271.4,663.6,271.5z M671,307.9c-0.1,0.1-0.2,0.1-0.3,0.1
			C670.9,308.2,671,308.2,671,307.9z M760.1,469l-0.2,0l0,0.2L760.1,469z M702.7,493.2l-0.1,0.1l0.1,0.1L702.7,493.2z M692.4,517.4
			c0.2,0,0.2-0.1,0.1-0.3c-0.1,0.1-0.2,0.1-0.3,0.2C692.3,517.3,692.3,517.4,692.4,517.4z M742.7,430l0.1-0.1l-0.1,0L742.7,430z"/>
	</g>
</g>
<g id="Laag_2" display="none">
	<rect x="-1097.5" y="-1434.5" display="inline" fill="none" stroke="#FF0000" stroke-miterlimit="10" width="870" height="402"/>
	<rect x="202.5" y="-1434.5" display="inline" fill="none" stroke="#FF0000" stroke-miterlimit="10" width="870" height="402"/>
	<rect x="1502.5" y="-1434.5" display="inline" fill="none" stroke="#FF0000" stroke-miterlimit="10" width="870" height="402"/>
	<rect x="-1097.5" y="-614.5" display="inline" fill="none" stroke="#FF0000" stroke-miterlimit="10" width="870" height="402"/>
	<rect x="202.5" y="-614.5" display="inline" fill="none" stroke="#FF0000" stroke-miterlimit="10" width="870" height="402"/>
	<rect x="1502.5" y="-614.5" display="inline" fill="none" stroke="#FF0000" stroke-miterlimit="10" width="870" height="402"/>
	<rect x="-1097.5" y="205.5" display="inline" fill="none" stroke="#FF0000" stroke-miterlimit="10" width="870" height="402"/>
	<rect x="202.5" y="205.5" display="inline" fill="none" stroke="#FF0000" stroke-miterlimit="10" width="870" height="402"/>
	<rect x="1502.5" y="205.5" display="inline" fill="none" stroke="#FF0000" stroke-miterlimit="10" width="870" height="402"/>
</g>
</svg>
