<?xml version="1.0" encoding="utf-8"?>
<!-- Generator: Adobe Illustrator 19.2.0, SVG Export Plug-In . SVG Version: 6.00 Build 0)  -->
<svg version="1.1" baseProfile="tiny" id="Layer_1" xmlns="http://www.w3.org/2000/svg" xmlns:xlink="http://www.w3.org/1999/xlink"
	 x="0px" y="0px" viewBox="0 0 32 32" xml:space="preserve">
<g>
	<path fill="#FFFFFF" d="M11.9,22.6c-0.7-0.7-1.7-0.7-2.4,0c-0.7,0.7-0.7,1.7,0,2.4c0.7,0.7,1.7,0.7,2.4,0
		C12.5,24.3,12.5,23.3,11.9,22.6L11.9,22.6z M10.2,24.3c-0.3-0.3-0.3-0.7,0-1s0.7-0.3,1,0s0.3,0.7,0,1
		C10.9,24.6,10.5,24.6,10.2,24.3L10.2,24.3z"/>
	<path fill="#FFFFFF" d="M17.8,19.7c0.7,0.7,2,0.7,2.7,0c0.7-0.7,0.7-2,0-2.7c-0.7-0.7-2-0.7-2.7,0C17,17.8,17,19,17.8,19.7
		L17.8,19.7z M19.8,17.7c0.4,0.4,0.4,1,0,1.3c-0.4,0.4-1,0.4-1.3,0c-0.4-0.4-0.4-1,0-1.4C18.8,17.3,19.4,17.3,19.8,17.7L19.8,17.7z"
		/>
	<g>
		<path fill="#FFFFFF" d="M18.1,3.2c0.1,0.1,0.2,0.1,0.3,0.1l1.4,0c0.3,0,0.5-0.2,0.5-0.5s-0.2-0.5-0.5-0.5l-1.4,0
			c-0.3,0-0.5,0.2-0.5,0.5C18,3,18,3.1,18.1,3.2L18.1,3.2z"/>
		<path fill="#FFFFFF" d="M24.3,21.3c0.3-0.3,0.5-0.7,0.5-1.1v-0.4c0.6,0,1.2-0.2,1.6-0.6c0.8-0.8,0.8-2.2,0-3
			c-0.1-0.1-0.1-0.1-0.2-0.2c0.1-0.1,0.1-0.1,0.2-0.2c0.8-0.8,0.8-2.2,0-3c-0.1-0.1-0.1-0.1-0.2-0.2c0.1-0.1,0.1-0.1,0.2-0.2
			c0.8-0.8,0.8-2.2,0-3c-0.1-0.1-0.1-0.1-0.2-0.2c0.1-0.1,0.1-0.1,0.2-0.2c0.8-0.8,0.8-2.2,0-3c-0.4-0.4-1-0.7-1.6-0.6l0-0.5l0-2.5
			c0-0.9-0.7-1.6-1.6-1.6h-8.3c-0.9,0-1.6,0.7-1.6,1.6v5.9c-0.7-0.2-1.5,0-2.1,0.5c-0.5,0.5-0.7,1.3-0.6,1.9c0,0.1,0,0.1,0,0.2
			l0,7.3L10,18.7l-0.7-0.7L5,22.4l8.8,8.8l4.4-4.4l-0.7-0.7l1-1c1.2,0.1,2.3-0.3,3.2-1.2c0.6-0.6,1-1.3,1.1-2.2h0.4
			C23.6,21.8,24,21.6,24.3,21.3L24.3,21.3z M25.7,18.6c-0.3,0.3-0.6,0.4-1,0.3l0-2.4c0.4,0,0.7,0.1,1,0.3
			C26.2,17.3,26.2,18.1,25.7,18.6L25.7,18.6z M25.7,15.2c-0.3,0.3-0.6,0.4-1,0.3l0-2.4c0.4,0,0.7,0.1,1,0.3
			C26.2,13.9,26.2,14.7,25.7,15.2L25.7,15.2z M25.7,11.8c-0.3,0.3-0.6,0.4-1,0.3l0-2.4c0.4,0,0.7,0.1,1,0.3
			C26.2,10.6,26.2,11.3,25.7,11.8L25.7,11.8z M25.7,6.7c0.5,0.5,0.5,1.2,0,1.7c-0.3,0.3-0.6,0.4-1,0.3l0-2.4
			C25.1,6.4,25.5,6.5,25.7,6.7L25.7,6.7z M14.2,2.4c0-0.3,0.3-0.6,0.6-0.6h8.3c0.1,0,0.2,0,0.2,0.1c0,0,0.1,0,0.1,0.1
			c0.1,0,0.1,0.1,0.2,0.2c0,0,0,0.1,0.1,0.1c0,0.1,0,0.2,0.1,0.2v1.6h-9.6L14.2,2.4z M23.8,4.9v15.3c0,0.3-0.3,0.6-0.6,0.6l-0.3,0
			l-8,0c-0.3,0-0.6-0.3-0.6-0.6v-5.4l0.3,0.3c0.8,0.8,2.2,0.8,3,0s0.8-2.2,0-3l-3.4-3.4V4.9L23.8,4.9z M13.4,9.3l0.2,0.1
			c0,0,0,0,0,0l3.4,3.4c0.5,0.5,0.5,1.2,0,1.7c-0.5,0.5-1.2,0.5-1.7,0l-3.4-3.4c-0.5-0.5-0.5-1.2,0-1.7C12.3,9,12.9,9,13.4,9.3
			L13.4,9.3z M6.3,22.4l3-3l2.8,2.8c1,1,1,2.7,0,3.8L11,27.2L6.3,22.4L6.3,22.4z M13.7,29.9l-2-2l1.2-1.2c0.7-0.7,1.1-1.7,1-2.7
			l2.9,2.9L13.7,29.9z M21.8,21.8c-0.1,0.6-0.4,1.1-0.8,1.5c-0.7,0.7-1.7,1-2.6,0.9l-0.2,0l-1.4,1.4l-6.1-6.1l0.9-0.9l0-0.2
			c0,0,0-0.1,0-0.1l0-6l1.7,1.7v6.3c0,0.4,0.2,0.8,0.5,1.1c0.3,0.3,0.7,0.5,1.1,0.5L21.8,21.8z"/>
	</g>
</g>
</svg>
