<?xml version="1.0" encoding="utf-8"?>
<!-- Generator: Adobe Illustrator 19.2.0, SVG Export Plug-In . SVG Version: 6.00 Build 0)  -->
<svg version="1.1" baseProfile="tiny" id="Layer_1" xmlns="http://www.w3.org/2000/svg" xmlns:xlink="http://www.w3.org/1999/xlink"
	 x="0px" y="0px" viewBox="0 0 32 32" xml:space="preserve">
<path fill="#EF7E04" d="M18,31.5h-6.4c-0.4,0-0.5-0.3-0.5-0.7v-13H8.7c-0.4,0-0.5-0.3-0.5-0.7v-5.4c0-0.4,0.1-0.7,0.5-0.7h2.9
	c0-4.3,0.8-7.2,2.3-8.8c1.2-1.1,2.8-1.7,4.5-1.5h4.5c0.4,0,1,0.3,1,0.7v5.9c0,0.4-0.5,0.7-1,0.7h-4v2.9h4c0.4,0,1,0.3,1,0.7v5.4
	c0,0.4-0.5,0.7-1,0.7h-4v13C18.9,31.1,18.4,31.4,18,31.5L18,31.5z M12.6,30h4.9V17c0-0.4,0.1-0.7,0.5-0.7h4.4v-3.9H18
	c-0.4,0-0.5-0.3-0.5-0.7V7.2c0-0.4,0.1-0.7,0.5-0.7h4.4V2h-4c-1.2-0.1-2.5,0.3-3.4,1.1C13.6,4.5,13,7.3,13,11.6
	c0,0.4-0.3,0.7-0.7,0.8c0,0,0,0,0,0H9.6v3.9h2c0.4,0,1,0.3,1,0.7L12.6,30z"/>
</svg>
