<?xml version="1.0" encoding="utf-8"?>
<!-- Generator: Adobe Illustrator 19.2.0, SVG Export Plug-In . SVG Version: 6.00 Build 0)  -->
<svg version="1.1" baseProfile="tiny" id="Layer_1" xmlns="http://www.w3.org/2000/svg" xmlns:xlink="http://www.w3.org/1999/xlink"
	 x="0px" y="0px" viewBox="0 0 473.5 117" xml:space="preserve">
<g id="Layer_2">
</g>
<g id="Layer_3">
</g>
<g>
	<g>
		<g>
			<path fill="#EF7D00" d="M232.3,34.2c-6.9,0-9.5-3.4-10.2-4.5c-0.2-0.3-0.2-0.7,0-1c0.2-0.3,0.5-0.5,0.8-0.5c1.8,0,4-0.2,5.5-0.5
				c-1.4-0.9-3.3-2.5-3.1-5c-0.7-0.7-2.2-2.6-2-5.7c-0.3-1-1.6-6.4,2.6-9.2c0.2-0.1,0.3-0.2,0.5-0.2c0.4,0,0.7,0.2,0.9,0.6
				c0.3,0.7,2.2,4.3,8.9,5.9c0.3-1.5,1.3-4.6,4.8-5.6c0.8-0.3,1.7-0.4,2.4-0.4c2.3,0,3.7,1.1,4.2,1.7c0.5,0,1.7,0,3.3-1
				c0.4-0.2,1-0.1,1.3,0.3c0.2,0.3,0.2,0.6,0.1,0.9l-0.4,1.2l0.7-0.2c0.4-0.1,0.8,0.1,1,0.4c0.2,0.3,0.2,0.6,0.1,0.9
				c-0.2,0.7-0.9,2.1-2.6,3.3l-0.1,0.1c-0.1,0.1-0.6,0.6-0.5,2.6c0.2,2.8-3,13.7-14.6,15.5C234.7,34.2,233.5,34.2,232.3,34.2
				L232.3,34.2z M224,29.8c1.1,1.2,3.5,3,8.3,3c1.1,0,2.3-0.1,3.5-0.3c10.5-1.6,13.5-11.5,13.3-13.8c-0.2-2.9,0.8-3.8,1.3-4
				c0.7-0.5,1.2-1.1,1.5-1.5l-0.6,0.1c-0.4,0.1-0.8-0.1-1-0.4c-0.2-0.3-0.2-0.6-0.1-0.9l0.3-0.9c-1.1,0.5-2.1,0.6-2.7,0.6
				c-0.2,0-0.4,0-0.5,0c-0.2,0-0.5-0.2-0.6-0.3c-0.2-0.2-1.2-1.3-3.2-1.3c-0.6,0-1.3,0.1-2,0.3c-3.1,0.9-3.7,4-3.8,4.9
				c-0.1,0.5-0.5,0.9-1,0.9l-0.2,0c-6.7-1.5-9.3-4.7-10.2-6.3c-2.9,2.4-1.6,6.7-1.5,7.2c0,0.1,0.1,0.3,0,0.4
				c-0.3,2.8,1.3,4.4,1.6,4.7c0.2,0.2,0.4,0.5,0.3,0.8c-0.3,2.4,2.3,3.8,3.4,4.3c0.3,0.2,0.6,0.5,0.6,0.9c0,0.4-0.2,0.7-0.5,0.9
				C228.8,29.5,225.9,29.7,224,29.8L224,29.8z"/>
		</g>
	</g>
	<g>
		<polygon fill="#EF7D00" points="445.8,23.9 451.7,23.9 455.5,16.4 459.5,23.9 465.1,23.9 455.5,5 		"/>
		<polygon fill="#EF7D00" points="469.1,23.9 465.1,23.9 462.4,29.2 459.5,23.9 455.5,23.9 462.4,37 		"/>
	</g>
	<g>
		<path fill="none" stroke="#EF7D00" stroke-linecap="round" stroke-linejoin="round" stroke-miterlimit="10" d="M337.7,9.5
			c1.9,0.4,3.3,2,3.3,3.9v2c0,1.5-1.2,2.9-2.7,2.9h-4c-1.5,0-2.7-1.5-2.7-2.9v-1.3c-4-0.4-8-0.4-12,0v1.3c0,1.5-1.2,2.9-2.7,2.9h-4
			c-1.5,0-2.7-1.5-2.7-2.9v-2c0-1.9,1.5-3.5,3.3-3.9C321.4,8.1,329.6,7.9,337.7,9.5z"/>
		<path fill="none" stroke="#EF7D00" stroke-linejoin="round" stroke-miterlimit="10" d="M335.1,20.3V31c0,1.5-1.2,2.7-2.7,2.7H319
			c-1.5,0-2.7-1.2-2.7-2.7V20.3"/>
		<g>
			<g>
				<g>
					<g>
						<polygon fill="#EF7D00" points="322.4,22.3 321,22.3 321,23.7 322.4,23.7 						"/>
					</g>
				</g>
			</g>
			<g>
				<g>
					<g>
						<polygon fill="#EF7D00" points="326.4,22.3 325,22.3 325,23.7 326.4,23.7 						"/>
					</g>
				</g>
			</g>
			<g>
				<g>
					<g>
						<polygon fill="#EF7D00" points="330.4,22.3 329,22.3 329,23.7 330.4,23.7 						"/>
					</g>
				</g>
			</g>
			<g>
				<g>
					<g>
						<polygon fill="#EF7D00" points="322.4,25 321,25 321,26.3 322.4,26.3 						"/>
					</g>
				</g>
			</g>
			<g>
				<g>
					<g>
						<polygon fill="#EF7D00" points="326.4,25 325,25 325,26.3 326.4,26.3 						"/>
					</g>
				</g>
			</g>
			<g>
				<g>
					<g>
						<polygon fill="#EF7D00" points="330.4,25 329,25 329,26.3 330.4,26.3 						"/>
					</g>
				</g>
			</g>
			<g>
				<g>
					<g>
						<polygon fill="#EF7D00" points="322.4,27.7 321,27.7 321,29 322.4,29 						"/>
					</g>
				</g>
			</g>
			<g>
				<g>
					<g>
						<polygon fill="#EF7D00" points="326.4,27.7 325,27.7 325,29 326.4,29 						"/>
					</g>
				</g>
			</g>
			<g>
				<g>
					<g>
						<polygon fill="#EF7D00" points="330.4,27.7 329,27.7 329,29 330.4,29 						"/>
					</g>
				</g>
			</g>
		</g>
	</g>
	<g>
		<polygon fill="none" stroke="#EF7D00" stroke-linejoin="round" stroke-miterlimit="10" points="297,7.1 266.6,19.7 278.5,24.3 		
			"/>
		<polygon fill="none" stroke="#EF7D00" stroke-linejoin="round" stroke-miterlimit="10" points="297,7.1 291.7,31.6 278.5,24.3 		
			"/>
		<polyline fill="none" stroke="#EF7D00" stroke-linejoin="round" stroke-miterlimit="10" points="278.5,24.3 278.5,34.9 283.1,27 
					"/>
	</g>
	<g>
		<path fill="none" stroke="#EF7D00" stroke-linecap="round" stroke-linejoin="round" stroke-miterlimit="10" d="M404.9,8.5
			c0-1.5,1.2-2.6,2.6-2.6h11.9c1.5,0,2.6,1.2,2.6,2.6v25.1c0,1.5-1.2,2.6-2.6,2.6h-11.9c-1.5,0-2.6-1.2-2.6-2.6
			C404.9,33.6,404.9,8.5,404.9,8.5z"/>
		
			<line fill="none" stroke="#EF7D00" stroke-linecap="round" stroke-linejoin="round" stroke-miterlimit="10" x1="404.9" y1="11.1" x2="422.1" y2="11.1"/>
		
			<line fill="none" stroke="#EF7D00" stroke-linecap="round" stroke-linejoin="round" stroke-miterlimit="10" x1="404.9" y1="30.9" x2="422.1" y2="30.9"/>
		
			<line fill="none" stroke="#EF7D00" stroke-linecap="round" stroke-linejoin="round" stroke-miterlimit="10" x1="416.8" y1="33.6" x2="410.2" y2="33.6"/>
		<path fill="none" stroke="#EF7D00" stroke-linejoin="round" stroke-miterlimit="10" d="M413.5,7.8c0.4,0,0.7,0.3,0.7,0.7l0,0
			c0,0.4-0.3,0.7-0.7,0.7l0,0c-0.4,0-0.7-0.3-0.7-0.7l0,0C412.9,8.1,413.2,7.8,413.5,7.8L413.5,7.8z"/>
	</g>
	<path fill="#EF7D00" d="M371.6,36.5h-6.4c-0.4,0-0.5-0.3-0.5-0.7v-13h-2.4c-0.4,0-0.5-0.3-0.5-0.7v-5.4c0-0.4,0.1-0.7,0.5-0.7h2.9
		c0-4.3,0.8-7.2,2.3-8.8c1.2-1.1,2.8-1.7,4.5-1.5h4.5c0.4,0,1,0.3,1,0.7v5.9c0,0.4-0.5,0.7-1,0.7h-4v2.9h4c0.4,0,1,0.3,1,0.7V22
		c0,0.4-0.5,0.7-1,0.7h-4v13C372.5,36.1,372,36.5,371.6,36.5L371.6,36.5z M366.2,35h4.9V22c0-0.4,0.1-0.7,0.5-0.7h4.4v-3.9h-4.4
		c-0.4,0-0.5-0.3-0.5-0.7v-4.4c0-0.4,0.1-0.7,0.5-0.7h4.4V7.1h-4c-1.2-0.1-2.5,0.3-3.4,1.1c-1.3,1.4-1.9,4.2-1.9,8.5
		c0,0.4-0.3,0.7-0.7,0.8c0,0,0,0,0,0h-2.7v3.9h2c0.4,0,1,0.3,1,0.7L366.2,35z"/>
	<g>
		<path fill="#EF7D00" d="M189.9,27.6c-0.7-0.7-1.7-0.7-2.4,0c-0.7,0.7-0.7,1.7,0,2.4s1.7,0.7,2.4,0S190.5,28.3,189.9,27.6
			L189.9,27.6z M188.2,29.3c-0.3-0.3-0.3-0.7,0-1s0.7-0.3,1,0s0.3,0.7,0,1C188.9,29.6,188.5,29.6,188.2,29.3L188.2,29.3z"/>
		<path fill="#EF7D00" d="M195.8,24.8c0.7,0.7,2,0.7,2.7,0c0.7-0.7,0.7-2,0-2.7c-0.7-0.7-2-0.7-2.7,0
			C195.1,22.8,195.1,24,195.8,24.8L195.8,24.8z M197.8,22.7c0.4,0.4,0.4,1,0,1.3c-0.4,0.4-1,0.4-1.3,0c-0.4-0.4-0.4-1,0-1.4
			C196.8,22.4,197.5,22.4,197.8,22.7L197.8,22.7z"/>
		<g>
			<path fill="#EF7D00" d="M196.1,8.2c0.1,0.1,0.2,0.1,0.3,0.1l1.4,0c0.3,0,0.5-0.2,0.5-0.5c0-0.3-0.2-0.5-0.5-0.5l-1.4,0
				c-0.3,0-0.5,0.2-0.5,0.5C196,8,196,8.1,196.1,8.2L196.1,8.2z"/>
			<path fill="#EF7D00" d="M202.3,26.4c0.3-0.3,0.5-0.7,0.5-1.1v-0.4c0.6,0,1.2-0.2,1.6-0.6c0.8-0.8,0.8-2.2,0-3
				c-0.1-0.1-0.1-0.1-0.2-0.2c0.1-0.1,0.1-0.1,0.2-0.2c0.8-0.8,0.8-2.2,0-3c-0.1-0.1-0.1-0.1-0.2-0.2c0.1-0.1,0.1-0.1,0.2-0.2
				c0.8-0.8,0.8-2.2,0-3c-0.1-0.1-0.1-0.1-0.2-0.2c0.1-0.1,0.1-0.1,0.2-0.2c0.8-0.8,0.8-2.2,0-3c-0.4-0.4-1-0.7-1.6-0.6l0-0.5l0-2.5
				c0-0.9-0.7-1.6-1.6-1.6h-8.3c-0.9,0-1.6,0.7-1.6,1.6v5.9c-0.7-0.2-1.5,0-2.1,0.5c-0.5,0.5-0.7,1.3-0.6,1.9c0,0.1,0,0.1,0,0.2
				l0,7.3l-0.6,0.6l-0.7-0.7l-4.4,4.4l8.8,8.8l4.4-4.4l-0.7-0.7l1-1c1.2,0.1,2.3-0.3,3.2-1.2c0.6-0.6,1-1.3,1.1-2.2h0.4
				C201.6,26.8,202,26.7,202.3,26.4L202.3,26.4z M203.7,23.6c-0.3,0.3-0.6,0.4-1,0.3v-2.4c0.4,0,0.7,0.1,1,0.3
				C204.2,22.4,204.2,23.1,203.7,23.6L203.7,23.6z M203.7,20.2c-0.3,0.3-0.6,0.4-1,0.3v-2.4c0.4,0,0.7,0.1,1,0.3
				C204.2,19,204.2,19.7,203.7,20.2L203.7,20.2z M203.7,16.8c-0.3,0.3-0.6,0.4-1,0.3v-2.4c0.4,0,0.7,0.1,1,0.3
				C204.2,15.6,204.2,16.4,203.7,16.8L203.7,16.8z M203.7,11.8c0.5,0.5,0.5,1.2,0,1.7c-0.3,0.3-0.6,0.4-1,0.3v-2.4
				C203.1,11.4,203.5,11.5,203.7,11.8L203.7,11.8z M192.3,7.4c0-0.3,0.3-0.6,0.6-0.6h8.3c0.1,0,0.2,0,0.2,0.1c0,0,0.1,0,0.1,0.1
				c0.1,0,0.1,0.1,0.2,0.2c0,0,0,0.1,0.1,0.1c0,0.1,0,0.2,0.1,0.2V9h-9.6V7.4z M201.8,9.9v15.3c0,0.3-0.3,0.6-0.6,0.6l-0.3,0l-8,0
				c-0.3,0-0.6-0.3-0.6-0.6v-5.4l0.3,0.3c0.8,0.8,2.2,0.8,3,0c0.8-0.8,0.8-2.2,0-3l-3.4-3.4V9.9L201.8,9.9z M191.4,14.3l0.2,0.1
				c0,0,0,0,0,0l3.4,3.4c0.5,0.5,0.5,1.2,0,1.7c-0.5,0.5-1.2,0.5-1.7,0l-3.4-3.4c-0.5-0.5-0.5-1.2,0-1.7
				C190.3,14.1,190.9,14,191.4,14.3L191.4,14.3z M184.3,27.5l3-3l2.8,2.8c1,1,1,2.7,0,3.8l-1.2,1.2L184.3,27.5L184.3,27.5z
				 M191.7,34.9l-2-2l1.2-1.2c0.7-0.7,1.1-1.7,1-2.7l2.9,2.9L191.7,34.9z M199.8,26.8c-0.1,0.6-0.4,1.1-0.8,1.5
				c-0.7,0.7-1.7,1-2.6,0.9l-0.2,0l-1.4,1.4l-6.1-6.1l0.9-0.9l0-0.2c0,0,0-0.1,0-0.1l0-6l1.7,1.7v6.3c0,0.4,0.2,0.8,0.5,1.1
				c0.3,0.3,0.7,0.5,1.1,0.5L199.8,26.8z"/>
		</g>
	</g>
	<g>
		<g>
			<path fill="#EF7D00" d="M163.8,35.9h-6.7c0.2-0.7,0.3-1.4,0.3-2.2c0-4-3-7.2-6.8-7.5v-9.8l10.8-5.1c0.2-0.1,0.3-0.3,0.3-0.5
				c0-0.2-0.1-0.4-0.3-0.5l-11.1-5.3c-0.2-0.1-0.4-0.1-0.6,0c-0.2,0.1-0.3,0.3-0.3,0.5v10.5c0,0,0,0.1,0,0.1v10
				c-3.7,0.3-6.6,3.6-6.6,7.5c0,0.8,0.1,1.5,0.3,2.2h-6.7c-0.3,0-0.6,0.3-0.6,0.6c0,0.3,0.3,0.6,0.6,0.6h27.4c0.3,0,0.6-0.3,0.6-0.6
				C164.4,36.1,164.1,35.9,163.8,35.9L163.8,35.9z M150.6,6.5l9.2,4.4l-9.2,4.4V6.5z M150.1,27.3c3.4,0,6.1,2.9,6.1,6.4
				c0,0.7-0.1,1.4-0.4,2.1h-11.6c-0.2-0.7-0.4-1.4-0.4-2.1C144,30.2,146.7,27.3,150.1,27.3L150.1,27.3z"/>
		</g>
	</g>
	<g>
		<path fill="#EF7D00" d="M98.4,36.8c-0.2,0-0.3-0.1-0.4-0.1l-6.2,0c0,0,0,0-0.1,0c-0.1,0-0.1,0.1-0.3,0.1c-0.4,0-0.7-0.3-0.7-0.9
			V17.2c0-0.8,0.3-1.7,1.1-1.7H98c0.7,0,1.4,0.7,1.4,1.7v18.6c0,0.1-0.1,0.2-0.2,0.4C99.1,36.6,98.7,36.8,98.4,36.8L98.4,36.8z
			 M92.2,35.1h5.7V17.2c0,0-0.2-0.1-0.2-0.1H92c0,0,0.2,0.1,0.2,0.1C92.2,17.2,92.2,35.1,92.2,35.1z"/>
		<path fill="#EF7D00" d="M95.1,14.9c-2.6,0-4.8-2.2-4.8-4.8s2.1-4.8,4.8-4.8s4.8,2.2,4.8,4.8C99.9,12.7,97.7,14.9,95.1,14.9
			L95.1,14.9z M95.1,6.8c-1.8,0-3.2,1.5-3.2,3.3c0,1.8,1.4,3.3,3.2,3.3c1.8,0,3.2-1.5,3.2-3.3S96.9,6.8,95.1,6.8L95.1,6.8z"/>
		<path fill="#EF7D00" d="M121.1,36.8c-0.1,0-0.3,0-0.4-0.1h-6c-0.1,0-0.2,0-0.3,0c-0.2,0-0.4,0.1-0.6,0.1c-0.9,0-1-0.6-1-0.9V25.6
			c0-1.1-1.2-2-2.3-2c-1.1,0-2.3,0.9-2.3,2v9.8c0,0.2,0.1,0.4,0.1,0.6c0,0.5-0.5,0.8-0.9,0.8c-0.2,0-0.4,0-0.5-0.1h-4.5
			c-0.1,0-0.1,0-0.2,0c-0.1,0-0.2,0.1-0.4,0.1c-0.5,0-0.8-0.4-0.8-0.9V17.2c0-0.7,0.5-1.7,1.4-1.7h5c0.3,0,0.6,0.1,0.8,0.4
			c0.1,0.2,0.2,0.4,0.1,0.6c1.3-0.5,3.3-0.8,5.4-0.8c4.6,0,8.4,3.7,8.4,8.2v11.8c0,0.2,0,0.3-0.1,0.5
			C121.9,36.5,121.5,36.8,121.1,36.8L121.1,36.8z M110.5,22.1c1.8,0,3.9,1.5,3.9,3.6v9.6c0,0-0.1,0,0,0c0.2,0,0.3-0.1,0.4-0.1h5.8
			V23.9c0-3.6-3.2-6.7-6.9-6.7c-2.8,0-5,0.7-6,1.2c-0.2,0.1-0.4,0.1-0.7,0c-0.2-0.1-0.3-0.4-0.3-0.7v-0.6c0,0-0.2-0.1-0.2-0.1h-4
			c0,0,0.1,0.1,0.1,0.2v17.9h-0.2h4.3v-9.5C106.6,23.5,108.6,22.1,110.5,22.1L110.5,22.1z"/>
	</g>
	<g>
		<path fill="#EF7D00" d="M69.7,37H55c-4.8,0-8.6-3.9-8.6-8.6V13.7C46.3,8.9,50.2,5,55,5h14.7c4.8,0,8.6,3.9,8.6,8.6v14.7
			C78.3,33.2,74.4,37,69.7,37z M55,7.6c-3.3,0-6.1,2.7-6.1,6.1v14.7c0,3.3,2.7,6.1,6.1,6.1h14.7c3.3,0,6.1-2.7,6.1-6.1V13.7
			c0-3.3-2.7-6.1-6.1-6.1H55z"/>
		<path fill="#EF7D00" d="M62.4,28.1c-1.5,0-3-0.5-4.3-1.4c-1.5-1.1-2.5-2.8-2.8-4.7c-0.3-1.9,0.2-3.8,1.3-5.3
			c1.1-1.5,2.8-2.5,4.7-2.8c0.7-0.1,1.4-0.1,2.1,0c1.5,0.2,2.9,0.9,4,2s1.8,2.5,2,4l0,0c0.3,1.9-0.2,3.8-1.3,5.3s-2.8,2.5-4.7,2.8
			C63.1,28.1,62.7,28.1,62.4,28.1z M62.4,16.4c-0.2,0-0.5,0-0.7,0.1c-1.2,0.2-2.3,0.8-3,1.8c-0.7,1-1,2.2-0.9,3.4s0.8,2.3,1.8,3
			s2.2,1,3.4,0.9c2.5-0.4,4.2-2.7,3.9-5.2c-0.3-2-1.9-3.6-3.9-3.9C62.8,16.4,62.6,16.4,62.4,16.4z"/>
		<path fill="#EF7D00" d="M70.4,14.2c-0.3,0-0.7-0.1-0.9-0.4c-0.2-0.2-0.4-0.6-0.4-0.9c0-0.3,0.1-0.7,0.4-0.9
			c0.2-0.2,0.6-0.4,0.9-0.4s0.7,0.1,0.9,0.4c0.2,0.2,0.4,0.6,0.4,0.9c0,0.3-0.1,0.7-0.4,0.9C71.1,14.1,70.7,14.2,70.4,14.2z"/>
	</g>
	<path fill="#EF7D00" d="M34.2,9.9c-0.5-0.9-1.6-1.2-2.5-0.7l-8.2,4.5c-0.7,0.4-1.3,1.1-1.5,1.9c-0.2,0.7-0.2,1.4,0.1,2.1h-7.4
		c0.3-0.7,0.3-1.4,0.1-2.1c-0.2-0.8-0.8-1.5-1.5-1.9L5.1,9.1C4.2,8.7,3.1,9,2.6,9.9c-0.5,0.9-0.2,2,0.7,2.5l0.9,0.5
		C4,13,3.8,13.2,3.7,13.5c-0.2,0.4-0.3,0.9-0.2,1.4C3.7,15.3,4,15.7,4.4,16l0.9,0.5c-0.2,0.2-0.4,0.4-0.6,0.6
		c-0.2,0.4-0.3,0.9-0.2,1.4c0.1,0.5,0.5,0.9,0.9,1.1l2.5,1.3v10.6c0,0.9,0.8,1.7,1.7,1.7h17.6c0.9,0,1.7-0.8,1.7-1.7V20.9l2.5-1.3
		c0.4-0.2,0.7-0.6,0.9-1.1c0.1-0.5,0.1-1-0.2-1.4c-0.1-0.3-0.3-0.5-0.6-0.6l0.9-0.5c0.4-0.2,0.7-0.6,0.9-1.1s0.1-1-0.2-1.4
		c-0.1-0.3-0.3-0.5-0.6-0.6l0.9-0.5c0.4-0.2,0.7-0.6,0.9-1.1C34.5,10.8,34.4,10.3,34.2,9.9z M25.8,18.5l-7.4,6.8L11,18.5L25.8,18.5
		L25.8,18.5z M16.2,24.6l-7.3,4.5v-9.9c0-0.4,0.3-0.7,0.6-0.7L16.2,24.6z M7.9,19.2v0.6l-2-1.1c-0.2-0.1-0.3-0.3-0.4-0.5
		s0-0.4,0.1-0.6c0.1-0.2,0.3-0.3,0.5-0.4c0.2-0.1,0.4,0,0.6,0.1l0,0l0.7,0.4c0.1,0,0.2,0.1,0.2,0.1c0.2,0,0.3-0.1,0.4-0.3
		c0.1-0.2,0-0.5-0.2-0.7l-0.7-0.4l0,0l0,0l0,0l-2.3-1.3c-0.2-0.1-0.3-0.3-0.4-0.5s0-0.4,0.1-0.6c0.2-0.4,0.7-0.6,1.1-0.3l0,0
		c0,0,0,0,0,0c0,0,0,0,0,0l3.2,1.6c0.1,0,0.2,0.1,0.2,0.1c0.2,0,0.4-0.1,0.4-0.3c0.1-0.2,0-0.5-0.2-0.7l-3.2-1.6l-2.3-1.3
		c-0.4-0.2-0.6-0.7-0.3-1.1C3.7,10,4.2,9.8,4.6,10l8.2,4.5c0.5,0.3,0.9,0.7,1,1.3c0.2,0.6,0.1,1.1-0.2,1.6l-0.1,0.1h-4
		C8.7,17.5,7.9,18.3,7.9,19.2z M27.9,29.1l-3.3-2C24.4,27,24.2,27,24,27.2l0,0c-0.2,0.2-0.2,0.6,0.1,0.8l3.8,2.3v1.2
		c0,0.4-0.3,0.7-0.7,0.7H9.6c-0.4,0-0.7-0.3-0.7-0.7v-1.2l8-4.9l1.1,1c0.1,0.1,0.2,0.1,0.3,0.1s0.2,0,0.3-0.1l1.1-1l4.8,2.9
		c0.2,0.1,0.5,0.1,0.6-0.1l0,0c0.2-0.2,0.2-0.6-0.1-0.8l-4.5-2.8l6.6-6.1c0.4,0,0.6,0.3,0.6,0.7L27.9,29.1L27.9,29.1z M33.4,11
		c-0.1,0.2-0.2,0.4-0.4,0.5l-2.3,1.3l-3.2,1.6c-0.2,0.1-0.3,0.4-0.2,0.7c0.1,0.2,0.3,0.3,0.4,0.3c0.1,0,0.2,0,0.2-0.1l3.2-1.6
		c0,0,0,0,0,0c0,0,0,0,0,0c0.4-0.2,0.9-0.1,1.1,0.3c0.1,0.2,0.1,0.4,0.1,0.6c-0.1,0.2-0.2,0.4-0.4,0.5l-2.3,1.3l0,0l0,0l0,0
		l-0.7,0.4c-0.2,0.1-0.3,0.4-0.2,0.7c0.1,0.2,0.3,0.3,0.4,0.3c0.1,0,0.2,0,0.2-0.1l0.7-0.4l0,0c0.2-0.1,0.4-0.1,0.6-0.1
		s0.4,0.2,0.5,0.4c0.1,0.2,0.1,0.4,0.1,0.6c-0.1,0.2-0.2,0.4-0.4,0.5l-2,1.1v-0.6c0-0.9-0.8-1.7-1.7-1.7h-4l-0.1-0.1
		c-0.3-0.5-0.3-1.1-0.2-1.6c0.2-0.6,0.5-1,1-1.3l8.2-4.5c0.4-0.2,0.9-0.1,1.1,0.3C33.4,10.5,33.4,10.8,33.4,11z"/>
</g>
<g>
	<g>
		<g>
			<path fill="#FFFFFF" d="M232.3,72.2c-6.9,0-9.5-3.4-10.2-4.5c-0.2-0.3-0.2-0.7,0-1c0.2-0.3,0.5-0.5,0.8-0.5c1.8,0,4-0.2,5.5-0.5
				c-1.4-0.9-3.3-2.5-3.1-5c-0.7-0.7-2.2-2.6-2-5.7c-0.3-1-1.6-6.4,2.6-9.2c0.2-0.1,0.3-0.2,0.5-0.2c0.4,0,0.7,0.2,0.9,0.6
				c0.3,0.7,2.2,4.3,8.9,5.9c0.3-1.5,1.3-4.6,4.8-5.6c0.8-0.3,1.7-0.4,2.4-0.4c2.3,0,3.7,1.1,4.2,1.7c0.5,0,1.7,0,3.3-1
				c0.4-0.2,1-0.1,1.3,0.3c0.2,0.3,0.2,0.6,0.1,0.9l-0.4,1.2l0.7-0.2c0.4-0.1,0.8,0.1,1,0.4c0.2,0.3,0.2,0.6,0.1,0.9
				c-0.2,0.7-0.9,2.1-2.6,3.3l-0.1,0.1c-0.1,0.1-0.6,0.6-0.5,2.6c0.2,2.8-3,13.7-14.6,15.5C234.7,72.1,233.5,72.2,232.3,72.2
				L232.3,72.2z M224,67.7c1.1,1.2,3.5,3,8.3,3c1.1,0,2.3-0.1,3.5-0.3c10.5-1.6,13.5-11.5,13.3-13.8c-0.2-2.9,0.8-3.8,1.3-4
				c0.7-0.5,1.2-1.1,1.5-1.5l-0.6,0.1c-0.4,0.1-0.8-0.1-1-0.4c-0.2-0.3-0.2-0.6-0.1-0.9l0.3-0.9c-1.1,0.5-2.1,0.6-2.7,0.6
				c-0.2,0-0.4,0-0.5,0c-0.2,0-0.5-0.2-0.6-0.3c-0.2-0.2-1.2-1.3-3.2-1.3c-0.6,0-1.3,0.1-2,0.3c-3.1,0.9-3.7,4-3.8,4.9
				c-0.1,0.5-0.5,0.9-1,0.9l-0.2,0c-6.7-1.5-9.3-4.7-10.2-6.3c-2.9,2.4-1.6,6.7-1.5,7.2c0,0.1,0.1,0.3,0,0.4
				c-0.3,2.8,1.3,4.4,1.6,4.7c0.2,0.2,0.4,0.5,0.3,0.8c-0.3,2.4,2.3,3.8,3.4,4.3c0.3,0.2,0.6,0.5,0.6,0.9c0,0.4-0.2,0.7-0.5,0.9
				C228.8,67.4,225.9,67.6,224,67.7L224,67.7z"/>
		</g>
	</g>
	<g>
		<polygon fill="#FFFFFF" points="445.8,61.8 451.7,61.8 455.5,54.3 459.5,61.8 465.1,61.8 455.5,43 		"/>
		<polygon fill="#FFFFFF" points="469.1,61.8 465.1,61.8 462.4,67.1 459.5,61.8 455.5,61.8 462.4,75 		"/>
	</g>
	<g>
		<path fill="none" stroke="#FFFFFF" stroke-linecap="round" stroke-linejoin="round" stroke-miterlimit="10" d="M337.7,47.5
			c1.9,0.4,3.3,2,3.3,3.9v2c0,1.5-1.2,2.9-2.7,2.9h-4c-1.5,0-2.7-1.5-2.7-2.9V52c-4-0.4-8-0.4-12,0v1.3c0,1.5-1.2,2.9-2.7,2.9h-4
			c-1.5,0-2.7-1.5-2.7-2.9v-2c0-1.9,1.5-3.5,3.3-3.9C321.4,46,329.6,45.8,337.7,47.5z"/>
		<path fill="none" stroke="#FFFFFF" stroke-linejoin="round" stroke-miterlimit="10" d="M335.1,58.3v10.7c0,1.5-1.2,2.7-2.7,2.7
			H319c-1.5,0-2.7-1.2-2.7-2.7V58.3"/>
		<g>
			<g>
				<g>
					<g>
						<polygon fill="#FFFFFF" points="322.4,60.3 321,60.3 321,61.6 322.4,61.6 						"/>
					</g>
				</g>
			</g>
			<g>
				<g>
					<g>
						<polygon fill="#FFFFFF" points="326.4,60.3 325,60.3 325,61.6 326.4,61.6 						"/>
					</g>
				</g>
			</g>
			<g>
				<g>
					<g>
						<polygon fill="#FFFFFF" points="330.4,60.3 329,60.3 329,61.6 330.4,61.6 						"/>
					</g>
				</g>
			</g>
			<g>
				<g>
					<g>
						<polygon fill="#FFFFFF" points="322.4,62.9 321,62.9 321,64.3 322.4,64.3 						"/>
					</g>
				</g>
			</g>
			<g>
				<g>
					<g>
						<polygon fill="#FFFFFF" points="326.4,62.9 325,62.9 325,64.3 326.4,64.3 						"/>
					</g>
				</g>
			</g>
			<g>
				<g>
					<g>
						<polygon fill="#FFFFFF" points="330.4,62.9 329,62.9 329,64.3 330.4,64.3 						"/>
					</g>
				</g>
			</g>
			<g>
				<g>
					<g>
						<polygon fill="#FFFFFF" points="322.4,65.6 321,65.6 321,66.9 322.4,66.9 						"/>
					</g>
				</g>
			</g>
			<g>
				<g>
					<g>
						<polygon fill="#FFFFFF" points="326.4,65.6 325,65.6 325,66.9 326.4,66.9 						"/>
					</g>
				</g>
			</g>
			<g>
				<g>
					<g>
						<polygon fill="#FFFFFF" points="330.4,65.6 329,65.6 329,66.9 330.4,66.9 						"/>
					</g>
				</g>
			</g>
		</g>
	</g>
	<g>
		<polygon fill="none" stroke="#FFFFFF" stroke-linejoin="round" stroke-miterlimit="10" points="297,45 266.6,57.6 278.5,62.3 		
			"/>
		<polygon fill="none" stroke="#FFFFFF" stroke-linejoin="round" stroke-miterlimit="10" points="297,45 291.7,69.6 278.5,62.3 		
			"/>
		<polyline fill="none" stroke="#FFFFFF" stroke-linejoin="round" stroke-miterlimit="10" points="278.5,62.3 278.5,72.9 
			283.1,64.9 		"/>
	</g>
	<g>
		<path fill="none" stroke="#FFFFFF" stroke-linecap="round" stroke-linejoin="round" stroke-miterlimit="10" d="M404.9,46.4
			c0-1.5,1.2-2.6,2.6-2.6h11.9c1.5,0,2.6,1.2,2.6,2.6v25.1c0,1.5-1.2,2.6-2.6,2.6h-11.9c-1.5,0-2.6-1.2-2.6-2.6
			C404.9,71.5,404.9,46.4,404.9,46.4z"/>
		
			<line fill="none" stroke="#FFFFFF" stroke-linecap="round" stroke-linejoin="round" stroke-miterlimit="10" x1="404.9" y1="49" x2="422.1" y2="49"/>
		
			<line fill="none" stroke="#FFFFFF" stroke-linecap="round" stroke-linejoin="round" stroke-miterlimit="10" x1="404.9" y1="68.9" x2="422.1" y2="68.9"/>
		
			<line fill="none" stroke="#FFFFFF" stroke-linecap="round" stroke-linejoin="round" stroke-miterlimit="10" x1="416.8" y1="71.5" x2="410.2" y2="71.5"/>
		<path fill="none" stroke="#FFFFFF" stroke-linejoin="round" stroke-miterlimit="10" d="M413.5,45.7c0.4,0,0.7,0.3,0.7,0.7l0,0
			c0,0.4-0.3,0.7-0.7,0.7l0,0c-0.4,0-0.7-0.3-0.7-0.7l0,0C412.9,46,413.2,45.7,413.5,45.7L413.5,45.7z"/>
	</g>
	<path fill="#FFFFFF" d="M371.6,74.4h-6.4c-0.4,0-0.5-0.3-0.5-0.7v-13h-2.4c-0.4,0-0.5-0.3-0.5-0.7v-5.4c0-0.4,0.1-0.7,0.5-0.7h2.9
		c0-4.3,0.8-7.2,2.3-8.8c1.2-1.1,2.8-1.7,4.5-1.5h4.5c0.4,0,1,0.3,1,0.7v5.9c0,0.4-0.5,0.7-1,0.7h-4v2.9h4c0.4,0,1,0.3,1,0.7v5.4
		c0,0.4-0.5,0.7-1,0.7h-4v13C372.5,74.1,372,74.4,371.6,74.4L371.6,74.4z M366.2,73h4.9V60c0-0.4,0.1-0.7,0.5-0.7h4.4v-3.9h-4.4
		c-0.4,0-0.5-0.3-0.5-0.7v-4.4c0-0.4,0.1-0.7,0.5-0.7h4.4V45h-4c-1.2-0.1-2.5,0.3-3.4,1.1c-1.3,1.4-1.9,4.2-1.9,8.5
		c0,0.4-0.3,0.7-0.7,0.8c0,0,0,0,0,0h-2.7v3.9h2c0.4,0,1,0.3,1,0.7L366.2,73z"/>
	<g>
		<path fill="#FFFFFF" d="M189.9,65.6c-0.7-0.7-1.7-0.7-2.4,0s-0.7,1.7,0,2.4c0.7,0.7,1.7,0.7,2.4,0
			C190.5,67.3,190.5,66.2,189.9,65.6L189.9,65.6z M188.2,67.2c-0.3-0.3-0.3-0.7,0-1s0.7-0.3,1,0s0.3,0.7,0,1
			C188.9,67.5,188.5,67.5,188.2,67.2L188.2,67.2z"/>
		<path fill="#FFFFFF" d="M195.8,62.7c0.7,0.7,2,0.7,2.7,0c0.7-0.7,0.7-2,0-2.7c-0.7-0.7-2-0.7-2.7,0
			C195.1,60.7,195.1,61.9,195.8,62.7L195.8,62.7z M197.8,60.7c0.4,0.4,0.4,1,0,1.3c-0.4,0.4-1,0.4-1.3,0c-0.4-0.4-0.4-1,0-1.4
			S197.5,60.3,197.8,60.7L197.8,60.7z"/>
		<g>
			<path fill="#FFFFFF" d="M196.1,46.1c0.1,0.1,0.2,0.1,0.3,0.1h1.4c0.3,0,0.5-0.2,0.5-0.5s-0.2-0.5-0.5-0.5l-1.4,0
				c-0.3,0-0.5,0.2-0.5,0.5C196,45.9,196,46.1,196.1,46.1L196.1,46.1z"/>
			<path fill="#FFFFFF" d="M202.3,64.3c0.3-0.3,0.5-0.7,0.5-1.1v-0.4c0.6,0,1.2-0.2,1.6-0.6c0.8-0.8,0.8-2.2,0-3
				c-0.1-0.1-0.1-0.1-0.2-0.2c0.1-0.1,0.1-0.1,0.2-0.2c0.8-0.8,0.8-2.2,0-3c-0.1-0.1-0.1-0.1-0.2-0.2c0.1-0.1,0.1-0.1,0.2-0.2
				c0.8-0.8,0.8-2.2,0-3c-0.1-0.1-0.1-0.1-0.2-0.2c0.1-0.1,0.1-0.1,0.2-0.2c0.8-0.8,0.8-2.2,0-3c-0.4-0.4-1-0.7-1.6-0.6l0-0.5l0-2.5
				c0-0.9-0.7-1.6-1.6-1.6h-8.3c-0.9,0-1.6,0.7-1.6,1.6v5.9c-0.7-0.2-1.5,0-2.1,0.5c-0.5,0.5-0.7,1.3-0.6,1.9c0,0.1,0,0.1,0,0.2
				l0,7.3l-0.6,0.6l-0.7-0.7l-4.4,4.4l8.8,8.8l4.4-4.4l-0.7-0.7l1-1c1.2,0.1,2.3-0.3,3.2-1.2c0.6-0.6,1-1.3,1.1-2.2h0.4
				C201.6,64.8,202,64.6,202.3,64.3L202.3,64.3z M203.7,61.5c-0.3,0.3-0.6,0.4-1,0.3v-2.4c0.4,0,0.7,0.1,1,0.3
				C204.2,60.3,204.2,61,203.7,61.5L203.7,61.5z M203.7,58.1c-0.3,0.3-0.6,0.4-1,0.3v-2.4c0.4,0,0.7,0.1,1,0.3
				C204.2,56.9,204.2,57.7,203.7,58.1L203.7,58.1z M203.7,54.8c-0.3,0.3-0.6,0.4-1,0.3v-2.4c0.4,0,0.7,0.1,1,0.3
				C204.2,53.5,204.2,54.3,203.7,54.8L203.7,54.8z M203.7,49.7c0.5,0.5,0.5,1.2,0,1.7c-0.3,0.3-0.6,0.4-1,0.3v-2.4
				C203.1,49.3,203.5,49.4,203.7,49.7L203.7,49.7z M192.3,45.3c0-0.3,0.3-0.6,0.6-0.6h8.3c0.1,0,0.2,0,0.2,0.1c0,0,0.1,0,0.1,0.1
				c0.1,0,0.1,0.1,0.2,0.2c0,0,0,0.1,0.1,0.1c0,0.1,0,0.2,0.1,0.2v1.6h-9.6V45.3z M201.8,47.9v15.3c0,0.3-0.3,0.6-0.6,0.6l-0.3,0
				l-8,0c-0.3,0-0.6-0.3-0.6-0.6v-5.4l0.3,0.3c0.8,0.8,2.2,0.8,3,0c0.8-0.8,0.8-2.2,0-3l-3.4-3.4v-3.9L201.8,47.9z M191.4,52.2
				l0.2,0.1c0,0,0,0,0,0l3.4,3.4c0.5,0.5,0.5,1.2,0,1.7c-0.5,0.5-1.2,0.5-1.7,0l-3.4-3.4c-0.5-0.5-0.5-1.2,0-1.7
				C190.3,52,190.9,51.9,191.4,52.2L191.4,52.2z M184.3,65.4l3-3l2.8,2.8c1,1,1,2.7,0,3.8l-1.2,1.2L184.3,65.4L184.3,65.4z
				 M191.7,72.8l-2-2l1.2-1.2c0.7-0.7,1.1-1.7,1-2.7l2.9,2.9L191.7,72.8z M199.8,64.8c-0.1,0.6-0.4,1.1-0.8,1.5
				c-0.7,0.7-1.7,1-2.6,0.9l-0.2,0l-1.4,1.4l-6.1-6.1l0.9-0.9l0-0.2c0,0,0-0.1,0-0.1l0-6l1.7,1.7v6.3c0,0.4,0.2,0.8,0.5,1.1
				c0.3,0.3,0.7,0.5,1.1,0.5L199.8,64.8z"/>
		</g>
	</g>
	<g>
		<g>
			<path fill="#FFFFFF" d="M163.8,73.8h-6.7c0.2-0.7,0.3-1.4,0.3-2.2c0-4-3-7.2-6.8-7.5v-9.8l10.8-5.1c0.2-0.1,0.3-0.3,0.3-0.5
				c0-0.2-0.1-0.4-0.3-0.5L150.3,43c-0.2-0.1-0.4-0.1-0.6,0c-0.2,0.1-0.3,0.3-0.3,0.5V54c0,0,0,0.1,0,0.1v10
				c-3.7,0.3-6.6,3.6-6.6,7.5c0,0.8,0.1,1.5,0.3,2.2h-6.7c-0.3,0-0.6,0.3-0.6,0.6c0,0.3,0.3,0.6,0.6,0.6h27.4c0.3,0,0.6-0.3,0.6-0.6
				C164.4,74.1,164.1,73.8,163.8,73.8L163.8,73.8z M150.6,44.4l9.2,4.4l-9.2,4.4V44.4z M150.1,65.3c3.4,0,6.1,2.9,6.1,6.4
				c0,0.7-0.1,1.4-0.4,2.1h-11.6c-0.2-0.7-0.4-1.4-0.4-2.1C144,68.1,146.7,65.3,150.1,65.3L150.1,65.3z"/>
		</g>
	</g>
	<g>
		<path fill="#FFFFFF" d="M98.4,74.7c-0.2,0-0.3-0.1-0.4-0.1l-6.2,0c0,0,0,0-0.1,0c-0.1,0-0.1,0.1-0.3,0.1c-0.4,0-0.7-0.3-0.7-0.9
			V55.2c0-0.8,0.3-1.7,1.1-1.7H98c0.7,0,1.4,0.7,1.4,1.7v18.6c0,0.1-0.1,0.2-0.2,0.4C99.1,74.5,98.7,74.7,98.4,74.7L98.4,74.7z
			 M92.2,73.1h5.7V55.2c0,0-0.2-0.1-0.2-0.1H92c0,0,0.2,0.1,0.2,0.1C92.2,55.2,92.2,73.1,92.2,73.1z"/>
		<path fill="#FFFFFF" d="M95.1,52.8c-2.6,0-4.8-2.2-4.8-4.8s2.1-4.8,4.8-4.8s4.8,2.2,4.8,4.8C99.9,50.6,97.7,52.8,95.1,52.8
			L95.1,52.8z M95.1,44.7c-1.8,0-3.2,1.5-3.2,3.3c0,1.8,1.4,3.3,3.2,3.3c1.8,0,3.2-1.5,3.2-3.3C98.3,46.2,96.9,44.7,95.1,44.7
			L95.1,44.7z"/>
		<path fill="#FFFFFF" d="M121.1,74.7c-0.1,0-0.3,0-0.4-0.1h-6c-0.1,0-0.2,0-0.3,0c-0.2,0-0.4,0.1-0.6,0.1c-0.9,0-1-0.6-1-0.9V63.6
			c0-1.1-1.2-2-2.3-2c-1.1,0-2.3,0.9-2.3,2v9.8c0,0.2,0.1,0.4,0.1,0.6c0,0.5-0.5,0.8-0.9,0.8c-0.2,0-0.4,0-0.5-0.1h-4.5
			c-0.1,0-0.1,0-0.2,0c-0.1,0-0.2,0.1-0.4,0.1c-0.5,0-0.8-0.4-0.8-0.9V55.2c0-0.7,0.5-1.7,1.4-1.7h5c0.3,0,0.6,0.1,0.8,0.4
			c0.1,0.2,0.2,0.4,0.1,0.6c1.3-0.5,3.3-0.8,5.4-0.8c4.6,0,8.4,3.7,8.4,8.2v11.8c0,0.2,0,0.3-0.1,0.5
			C121.9,74.5,121.5,74.7,121.1,74.7L121.1,74.7z M110.5,60c1.8,0,3.9,1.5,3.9,3.6v9.6c0,0-0.1,0,0,0c0.2,0,0.3-0.1,0.4-0.1h5.8
			V61.8c0-3.6-3.2-6.7-6.9-6.7c-2.8,0-5,0.7-6,1.2c-0.2,0.1-0.4,0.1-0.7,0c-0.2-0.1-0.3-0.4-0.3-0.7v-0.6c0,0-0.2-0.1-0.2-0.1h-4
			c0,0,0.1,0.1,0.1,0.2v17.9h-0.2h4.3v-9.5C106.6,61.5,108.6,60,110.5,60L110.5,60z"/>
	</g>
	<g>
		<path fill="#FFFFFF" d="M69.7,75H55c-4.8,0-8.6-3.9-8.6-8.6V51.6c0-4.8,3.9-8.6,8.6-8.6h14.7c4.8,0,8.6,3.9,8.6,8.6v14.7
			C78.3,71.1,74.4,75,69.7,75z M55,45.5c-3.3,0-6.1,2.7-6.1,6.1v14.7c0,3.3,2.7,6.1,6.1,6.1h14.7c3.3,0,6.1-2.7,6.1-6.1V51.6
			c0-3.3-2.7-6.1-6.1-6.1H55z"/>
		<path fill="#FFFFFF" d="M62.4,66.1c-1.5,0-3-0.5-4.3-1.4c-1.5-1.1-2.5-2.8-2.8-4.7c-0.3-1.9,0.2-3.8,1.3-5.3
			c1.1-1.5,2.8-2.5,4.7-2.8c0.7-0.1,1.4-0.1,2.1,0c1.5,0.2,2.9,0.9,4,2c1.1,1.1,1.8,2.5,2,4l0,0c0.3,1.9-0.2,3.8-1.3,5.3
			s-2.8,2.5-4.7,2.8C63.1,66,62.7,66.1,62.4,66.1z M62.4,54.3c-0.2,0-0.5,0-0.7,0.1c-1.2,0.2-2.3,0.8-3,1.8c-0.7,1-1,2.2-0.9,3.4
			s0.8,2.3,1.8,3c1,0.7,2.2,1,3.4,0.9c2.5-0.4,4.2-2.7,3.9-5.2c-0.3-2-1.9-3.6-3.9-3.9C62.8,54.3,62.6,54.3,62.4,54.3z"/>
		<path fill="#FFFFFF" d="M70.4,52.2c-0.3,0-0.7-0.1-0.9-0.4c-0.2-0.2-0.4-0.6-0.4-0.9s0.1-0.7,0.4-0.9c0.2-0.2,0.6-0.4,0.9-0.4
			s0.7,0.1,0.9,0.4c0.2,0.2,0.4,0.6,0.4,0.9s-0.1,0.7-0.4,0.9C71.1,52,70.7,52.2,70.4,52.2z"/>
	</g>
	<path fill="#FFFFFF" d="M34.2,47.8c-0.5-0.9-1.6-1.2-2.5-0.7l-8.2,4.5c-0.7,0.4-1.3,1.1-1.5,1.9c-0.2,0.7-0.2,1.4,0.1,2.1h-7.4
		c0.3-0.7,0.3-1.4,0.1-2.1c-0.2-0.8-0.8-1.5-1.5-1.9l-8.2-4.5c-0.9-0.5-2-0.2-2.5,0.7c-0.5,0.9-0.2,2,0.7,2.5l0.9,0.5
		c-0.2,0.2-0.4,0.4-0.6,0.6c-0.2,0.4-0.3,0.9-0.2,1.4c0.1,0.5,0.5,0.9,0.9,1.1l0.9,0.5c-0.2,0.2-0.4,0.4-0.6,0.6
		c-0.2,0.4-0.3,0.9-0.2,1.4c0.1,0.5,0.5,0.9,0.9,1.1l2.5,1.3v10.6c0,0.9,0.8,1.7,1.7,1.7h17.6c0.9,0,1.7-0.8,1.7-1.7V58.8l2.5-1.3
		c0.4-0.2,0.7-0.6,0.9-1.1c0.1-0.5,0.1-1-0.2-1.4c-0.1-0.3-0.3-0.5-0.6-0.6l0.9-0.5c0.4-0.2,0.7-0.6,0.9-1.1c0.1-0.5,0.1-1-0.2-1.4
		c-0.1-0.3-0.3-0.5-0.6-0.6l0.9-0.5c0.4-0.2,0.7-0.6,0.9-1.1C34.5,48.7,34.4,48.2,34.2,47.8z M25.8,56.5l-7.4,6.8L11,56.5L25.8,56.5
		L25.8,56.5z M16.2,62.6L8.9,67v-9.9c0-0.4,0.3-0.7,0.6-0.7L16.2,62.6z M7.9,57.1v0.6l-2-1.1c-0.2-0.1-0.3-0.3-0.4-0.5
		s0-0.4,0.1-0.6c0.1-0.2,0.3-0.3,0.5-0.4c0.2-0.1,0.4,0,0.6,0.1l0,0l0.7,0.4c0.1,0,0.2,0.1,0.2,0.1c0.2,0,0.3-0.1,0.4-0.3
		c0.1-0.2,0-0.5-0.2-0.7l-0.7-0.4l0,0l0,0l0,0L4.9,53c-0.2-0.1-0.3-0.3-0.4-0.5s0-0.4,0.1-0.6c0.2-0.4,0.7-0.6,1.1-0.3l0,0
		c0,0,0,0,0,0c0,0,0,0,0,0l3.2,1.6c0.1,0,0.2,0.1,0.2,0.1c0.2,0,0.4-0.1,0.4-0.3c0.1-0.2,0-0.5-0.2-0.7l-3.2-1.6l-2.3-1.3
		c-0.4-0.2-0.6-0.7-0.3-1.1c0.2-0.4,0.7-0.6,1.1-0.3l8.2,4.5c0.5,0.3,0.9,0.7,1,1.3c0.2,0.6,0.1,1.1-0.2,1.6l-0.1,0.1h-4
		C8.7,55.5,7.9,56.2,7.9,57.1z M27.9,67l-3.3-2c-0.2-0.1-0.5-0.1-0.6,0.1l0,0c-0.2,0.2-0.2,0.6,0.1,0.8l3.8,2.3v1.2
		c0,0.4-0.3,0.7-0.7,0.7H9.6c-0.4,0-0.7-0.3-0.7-0.7v-1.2l8-4.9l1.1,1c0.1,0.1,0.2,0.1,0.3,0.1s0.2,0,0.3-0.1l1.1-1l4.8,2.9
		c0.2,0.1,0.5,0.1,0.6-0.1l0,0c0.2-0.2,0.2-0.6-0.1-0.8l-4.5-2.8l6.6-6.1c0.4,0,0.6,0.3,0.6,0.7L27.9,67L27.9,67z M33.4,48.9
		c-0.1,0.2-0.2,0.4-0.4,0.5l-2.3,1.3l-3.2,1.6c-0.2,0.1-0.3,0.4-0.2,0.7c0.1,0.2,0.3,0.3,0.4,0.3c0.1,0,0.2,0,0.2-0.1l3.2-1.6
		c0,0,0,0,0,0c0,0,0,0,0,0c0.4-0.2,0.9-0.1,1.1,0.3c0.1,0.2,0.1,0.4,0.1,0.6c-0.1,0.2-0.2,0.4-0.4,0.5l-2.3,1.3l0,0l0,0l0,0
		l-0.7,0.4c-0.2,0.1-0.3,0.4-0.2,0.7c0.1,0.2,0.3,0.3,0.4,0.3c0.1,0,0.2,0,0.2-0.1l0.7-0.4l0,0c0.2-0.1,0.4-0.1,0.6-0.1
		c0.2,0.1,0.4,0.2,0.5,0.4c0.1,0.2,0.1,0.4,0.1,0.6c-0.1,0.2-0.2,0.4-0.4,0.5l-2,1.1v-0.6c0-0.9-0.8-1.7-1.7-1.7h-4l-0.1-0.1
		c-0.3-0.5-0.3-1.1-0.2-1.6c0.2-0.6,0.5-1,1-1.3l8.2-4.5c0.4-0.2,0.9-0.1,1.1,0.3C33.4,48.5,33.4,48.7,33.4,48.9z"/>
</g>
<path fill="none" stroke="#7D7D7D" stroke-linecap="round" stroke-linejoin="round" stroke-miterlimit="10" d="M337.7,85.4
	c1.9,0.4,3.3,2,3.3,3.9v2c0,1.5-1.2,2.9-2.7,2.9h-4c-1.5,0-2.7-1.5-2.7-2.9v-1.3c-4-0.4-8-0.4-12,0v1.3c0,1.5-1.2,2.9-2.7,2.9h-4
	c-1.5,0-2.7-1.5-2.7-2.9v-2c0-1.9,1.5-3.5,3.3-3.9C321.4,83.9,329.6,83.8,337.7,85.4z"/>
<g>
	<g>
		<g>
			<path fill="#7D7D7D" d="M232.3,110.1c-6.9,0-9.5-3.4-10.2-4.5c-0.2-0.3-0.2-0.7,0-1c0.2-0.3,0.5-0.5,0.8-0.5c1.8,0,4-0.2,5.5-0.5
				c-1.4-0.9-3.3-2.5-3.1-5c-0.7-0.7-2.2-2.6-2-5.7c-0.3-1-1.6-6.4,2.6-9.2c0.2-0.1,0.3-0.2,0.5-0.2c0.4,0,0.7,0.2,0.9,0.6
				c0.3,0.7,2.2,4.3,8.9,5.9c0.3-1.5,1.3-4.6,4.8-5.6c0.8-0.3,1.7-0.4,2.4-0.4c2.3,0,3.7,1.1,4.2,1.7c0.5,0,1.7,0,3.3-1
				c0.4-0.2,1-0.1,1.3,0.3c0.2,0.3,0.2,0.6,0.1,0.9l-0.4,1.2l0.7-0.2c0.4-0.1,0.8,0.1,1,0.4c0.2,0.3,0.2,0.6,0.1,0.9
				c-0.2,0.7-0.9,2.1-2.6,3.3l-0.1,0.1c-0.1,0.1-0.6,0.6-0.5,2.6c0.2,2.8-3,13.7-14.6,15.5C234.7,110,233.5,110.1,232.3,110.1
				L232.3,110.1z M224,105.6c1.1,1.2,3.5,3,8.3,3c1.1,0,2.3-0.1,3.5-0.3c10.5-1.6,13.5-11.5,13.3-13.8c-0.2-2.9,0.8-3.8,1.3-4
				c0.7-0.5,1.2-1.1,1.5-1.5l-0.6,0.1c-0.4,0.1-0.8-0.1-1-0.4c-0.2-0.3-0.2-0.6-0.1-0.9l0.3-0.9c-1.1,0.5-2.1,0.6-2.7,0.6
				c-0.2,0-0.4,0-0.5,0c-0.2,0-0.5-0.2-0.6-0.3c-0.2-0.2-1.2-1.3-3.2-1.3c-0.6,0-1.3,0.1-2,0.3c-3.1,0.9-3.7,4-3.8,4.9
				c-0.1,0.5-0.5,0.9-1,0.9l-0.2,0c-6.7-1.5-9.3-4.7-10.2-6.3c-2.9,2.4-1.6,6.7-1.5,7.2c0,0.1,0.1,0.3,0,0.4
				c-0.3,2.8,1.3,4.4,1.6,4.7c0.2,0.2,0.4,0.5,0.3,0.8c-0.3,2.4,2.3,3.8,3.4,4.3c0.3,0.2,0.6,0.5,0.6,0.9c0,0.4-0.2,0.7-0.5,0.9
				C228.8,105.3,225.9,105.5,224,105.6L224,105.6z"/>
		</g>
	</g>
	<g>
		<polygon fill="#7D7D7D" points="445.8,99.8 451.7,99.8 455.5,92.2 459.5,99.8 465.1,99.8 455.5,80.9 		"/>
		<polygon fill="#7D7D7D" points="469.1,99.8 465.1,99.8 462.4,105.1 459.5,99.8 455.5,99.8 462.4,112.9 		"/>
	</g>
	<path fill="none" stroke="#7D7D7D" stroke-linejoin="round" stroke-miterlimit="10" d="M335.1,96.2v10.7c0,1.5-1.2,2.7-2.7,2.7H319
		c-1.5,0-2.7-1.2-2.7-2.7V96.2"/>
	<g>
		<g>
			<g>
				<g>
					<polygon fill="#7D7D7D" points="322.4,98.2 321,98.2 321,99.5 322.4,99.5 					"/>
				</g>
			</g>
		</g>
		<g>
			<g>
				<g>
					<polygon fill="#7D7D7D" points="326.4,98.2 325,98.2 325,99.5 326.4,99.5 					"/>
				</g>
			</g>
		</g>
		<g>
			<g>
				<g>
					<polygon fill="#7D7D7D" points="330.4,98.2 329,98.2 329,99.5 330.4,99.5 					"/>
				</g>
			</g>
		</g>
		<g>
			<g>
				<g>
					<polygon fill="#7D7D7D" points="322.4,100.9 321,100.9 321,102.2 322.4,102.2 					"/>
				</g>
			</g>
		</g>
		<g>
			<g>
				<g>
					<polygon fill="#7D7D7D" points="326.4,100.9 325,100.9 325,102.2 326.4,102.2 					"/>
				</g>
			</g>
		</g>
		<g>
			<g>
				<g>
					<polygon fill="#7D7D7D" points="330.4,100.9 329,100.9 329,102.2 330.4,102.2 					"/>
				</g>
			</g>
		</g>
		<g>
			<g>
				<g>
					<polygon fill="#7D7D7D" points="322.4,103.5 321,103.5 321,104.9 322.4,104.9 					"/>
				</g>
			</g>
		</g>
		<g>
			<g>
				<g>
					<polygon fill="#7D7D7D" points="326.4,103.5 325,103.5 325,104.9 326.4,104.9 					"/>
				</g>
			</g>
		</g>
		<g>
			<g>
				<g>
					<polygon fill="#7D7D7D" points="330.4,103.5 329,103.5 329,104.9 330.4,104.9 					"/>
				</g>
			</g>
		</g>
	</g>
	<g>
		<polygon fill="none" stroke="#7D7D7D" stroke-linejoin="round" stroke-miterlimit="10" points="297,83 266.6,95.6 278.5,100.2 		
			"/>
		<polygon fill="none" stroke="#7D7D7D" stroke-linejoin="round" stroke-miterlimit="10" points="297,83 291.7,107.5 278.5,100.2 		
			"/>
		<polyline fill="none" stroke="#7D7D7D" stroke-linejoin="round" stroke-miterlimit="10" points="278.5,100.2 278.5,110.8 
			283.1,102.8 		"/>
	</g>
	<g>
		<path fill="none" stroke="#7D7D7D" stroke-linecap="round" stroke-linejoin="round" stroke-miterlimit="10" d="M404.9,84.3
			c0-1.5,1.2-2.6,2.6-2.6h11.9c1.5,0,2.6,1.2,2.6,2.6v25.1c0,1.5-1.2,2.6-2.6,2.6h-11.9c-1.5,0-2.6-1.2-2.6-2.6
			C404.9,109.4,404.9,84.3,404.9,84.3z"/>
		
			<line fill="none" stroke="#7D7D7D" stroke-linecap="round" stroke-linejoin="round" stroke-miterlimit="10" x1="404.9" y1="87" x2="422.1" y2="87"/>
		
			<line fill="none" stroke="#7D7D7D" stroke-linecap="round" stroke-linejoin="round" stroke-miterlimit="10" x1="404.9" y1="106.8" x2="422.1" y2="106.8"/>
		
			<line fill="none" stroke="#7D7D7D" stroke-linecap="round" stroke-linejoin="round" stroke-miterlimit="10" x1="416.8" y1="109.4" x2="410.2" y2="109.4"/>
		<path fill="none" stroke="#7D7D7D" stroke-linejoin="round" stroke-miterlimit="10" d="M413.5,83.7c0.4,0,0.7,0.3,0.7,0.7l0,0
			c0,0.4-0.3,0.7-0.7,0.7l0,0c-0.4,0-0.7-0.3-0.7-0.7l0,0C412.9,83.9,413.2,83.7,413.5,83.7L413.5,83.7z"/>
	</g>
	<path fill="#7D7D7D" d="M371.6,112.4h-6.4c-0.4,0-0.5-0.3-0.5-0.7v-13h-2.4c-0.4,0-0.5-0.3-0.5-0.7v-5.4c0-0.4,0.1-0.7,0.5-0.7h2.9
		c0-4.3,0.8-7.2,2.3-8.8c1.2-1.1,2.8-1.7,4.5-1.5h4.5c0.4,0,1,0.3,1,0.7v5.9c0,0.4-0.5,0.7-1,0.7h-4v2.9h4c0.4,0,1,0.3,1,0.7v5.4
		c0,0.4-0.5,0.7-1,0.7h-4v13C372.5,112,372,112.3,371.6,112.4L371.6,112.4z M366.2,110.9h4.9v-13c0-0.4,0.1-0.7,0.5-0.7h4.4v-3.9
		h-4.4c-0.4,0-0.5-0.3-0.5-0.7v-4.4c0-0.4,0.1-0.7,0.5-0.7h4.4v-4.4h-4c-1.2-0.1-2.5,0.3-3.4,1.1c-1.3,1.4-1.9,4.2-1.9,8.5
		c0,0.4-0.3,0.7-0.7,0.8c0,0,0,0,0,0h-2.7v3.9h2c0.4,0,1,0.3,1,0.7L366.2,110.9z"/>
	<g>
		<path fill="#7D7D7D" d="M189.9,103.5c-0.7-0.7-1.7-0.7-2.4,0s-0.7,1.7,0,2.4c0.7,0.7,1.7,0.7,2.4,0S190.5,104.1,189.9,103.5
			L189.9,103.5z M188.2,105.2c-0.3-0.3-0.3-0.7,0-1s0.7-0.3,1,0s0.3,0.7,0,1C188.9,105.5,188.5,105.5,188.2,105.2L188.2,105.2z"/>
		<path fill="#7D7D7D" d="M195.8,100.6c0.7,0.7,2,0.7,2.7,0c0.7-0.7,0.7-2,0-2.7c-0.7-0.7-2-0.7-2.7,0
			C195.1,98.7,195.1,99.9,195.8,100.6L195.8,100.6z M197.8,98.6c0.4,0.4,0.4,1,0,1.3c-0.4,0.4-1,0.4-1.3,0c-0.4-0.4-0.4-1,0-1.4
			S197.5,98.2,197.8,98.6L197.8,98.6z"/>
		<g>
			<path fill="#7D7D7D" d="M196.1,84.1c0.1,0.1,0.2,0.1,0.3,0.1l1.4,0c0.3,0,0.5-0.2,0.5-0.5c0-0.3-0.2-0.5-0.5-0.5l-1.4,0
				c-0.3,0-0.5,0.2-0.5,0.5C196,83.9,196,84,196.1,84.1L196.1,84.1z"/>
			<path fill="#7D7D7D" d="M202.3,102.2c0.3-0.3,0.5-0.7,0.5-1.1v-0.4c0.6,0,1.2-0.2,1.6-0.6c0.8-0.8,0.8-2.2,0-3
				c-0.1-0.1-0.1-0.1-0.2-0.2c0.1-0.1,0.1-0.1,0.2-0.2c0.8-0.8,0.8-2.2,0-3c-0.1-0.1-0.1-0.1-0.2-0.2c0.1-0.1,0.1-0.1,0.2-0.2
				c0.8-0.8,0.8-2.2,0-3c-0.1-0.1-0.1-0.1-0.2-0.2c0.1-0.1,0.1-0.1,0.2-0.2c0.8-0.8,0.8-2.2,0-3c-0.4-0.4-1-0.7-1.6-0.6l0-0.5l0-2.5
				c0-0.9-0.7-1.6-1.6-1.6h-8.3c-0.9,0-1.6,0.7-1.6,1.6v5.9c-0.7-0.2-1.5,0-2.1,0.5c-0.5,0.5-0.7,1.3-0.6,1.9c0,0.1,0,0.1,0,0.2
				l0,7.3l-0.6,0.6l-0.7-0.7l-4.4,4.4l8.8,8.8l4.4-4.4l-0.7-0.7l1-1c1.2,0.1,2.3-0.3,3.2-1.2c0.6-0.6,1-1.3,1.1-2.2h0.4
				C201.6,102.7,202,102.5,202.3,102.2L202.3,102.2z M203.7,99.4c-0.3,0.3-0.6,0.4-1,0.3v-2.4c0.4,0,0.7,0.1,1,0.3
				C204.2,98.2,204.2,99,203.7,99.4L203.7,99.4z M203.7,96.1c-0.3,0.3-0.6,0.4-1,0.3V94c0.4,0,0.7,0.1,1,0.3
				C204.2,94.8,204.2,95.6,203.7,96.1L203.7,96.1z M203.7,92.7c-0.3,0.3-0.6,0.4-1,0.3v-2.4c0.4,0,0.7,0.1,1,0.3
				C204.2,91.5,204.2,92.2,203.7,92.7L203.7,92.7z M203.7,87.6c0.5,0.5,0.5,1.2,0,1.7c-0.3,0.3-0.6,0.4-1,0.3v-2.4
				C203.1,87.2,203.5,87.4,203.7,87.6L203.7,87.6z M192.3,83.2c0-0.3,0.3-0.6,0.6-0.6h8.3c0.1,0,0.2,0,0.2,0.1c0,0,0.1,0,0.1,0.1
				c0.1,0,0.1,0.1,0.2,0.2c0,0,0,0.1,0.1,0.1c0,0.1,0,0.2,0.1,0.2v1.6h-9.6V83.2z M201.8,85.8v15.3c0,0.3-0.3,0.6-0.6,0.6l-0.3,0h-8
				c-0.3,0-0.6-0.3-0.6-0.6v-5.4l0.3,0.3c0.8,0.8,2.2,0.8,3,0c0.8-0.8,0.8-2.2,0-3l-3.4-3.4v-3.9L201.8,85.8z M191.4,90.2l0.2,0.1
				c0,0,0,0,0,0l3.4,3.4c0.5,0.5,0.5,1.2,0,1.7c-0.5,0.5-1.2,0.5-1.7,0l-3.4-3.4c-0.5-0.5-0.5-1.2,0-1.7
				C190.3,89.9,190.9,89.9,191.4,90.2L191.4,90.2z M184.3,103.3l3-3l2.8,2.8c1,1,1,2.7,0,3.8L189,108L184.3,103.3L184.3,103.3z
				 M191.7,110.7l-2-2l1.2-1.2c0.7-0.7,1.1-1.7,1-2.7l2.9,2.9L191.7,110.7z M199.8,102.7c-0.1,0.6-0.4,1.1-0.8,1.5
				c-0.7,0.7-1.7,1-2.6,0.9l-0.2,0l-1.4,1.4l-6.1-6.1l0.9-0.9l0-0.2c0,0,0-0.1,0-0.1l0-6l1.7,1.7v6.3c0,0.4,0.2,0.8,0.5,1.1
				c0.3,0.3,0.7,0.5,1.1,0.5L199.8,102.7z"/>
		</g>
	</g>
	<g>
		<g>
			<path fill="#7D7D7D" d="M163.8,111.7h-6.7c0.2-0.7,0.3-1.4,0.3-2.2c0-4-3-7.2-6.8-7.5v-9.8l10.8-5.1c0.2-0.1,0.3-0.3,0.3-0.5
				c0-0.2-0.1-0.4-0.3-0.5l-11.1-5.3c-0.2-0.1-0.4-0.1-0.6,0c-0.2,0.1-0.3,0.3-0.3,0.5V92c0,0,0,0.1,0,0.1v10
				c-3.7,0.3-6.6,3.6-6.6,7.5c0,0.8,0.1,1.5,0.3,2.2h-6.7c-0.3,0-0.6,0.3-0.6,0.6c0,0.3,0.3,0.6,0.6,0.6h27.4c0.3,0,0.6-0.3,0.6-0.6
				C164.4,112,164.1,111.7,163.8,111.7L163.8,111.7z M150.6,82.3l9.2,4.4l-9.2,4.4V82.3z M150.1,103.2c3.4,0,6.1,2.9,6.1,6.4
				c0,0.7-0.1,1.4-0.4,2.1h-11.6c-0.2-0.7-0.4-1.4-0.4-2.1C144,106.1,146.7,103.2,150.1,103.2L150.1,103.2z"/>
		</g>
	</g>
	<g>
		<path fill="#7D7D7D" d="M98.4,112.7c-0.2,0-0.3-0.1-0.4-0.1l-6.2,0c0,0,0,0-0.1,0c-0.1,0-0.1,0.1-0.3,0.1c-0.4,0-0.7-0.3-0.7-0.9
			V93.1c0-0.8,0.3-1.7,1.1-1.7H98c0.7,0,1.4,0.7,1.4,1.7v18.6c0,0.1-0.1,0.2-0.2,0.4C99.1,112.4,98.7,112.7,98.4,112.7L98.4,112.7z
			 M92.2,111h5.7V93.1c0,0-0.2-0.1-0.2-0.1H92c0,0,0.2,0.1,0.2,0.1C92.2,93.1,92.2,111,92.2,111z"/>
		<path fill="#7D7D7D" d="M95.1,90.7c-2.6,0-4.8-2.2-4.8-4.8s2.1-4.8,4.8-4.8s4.8,2.2,4.8,4.8C99.9,88.6,97.7,90.7,95.1,90.7
			L95.1,90.7z M95.1,82.6c-1.8,0-3.2,1.5-3.2,3.3c0,1.8,1.4,3.3,3.2,3.3c1.8,0,3.2-1.5,3.2-3.3C98.3,84.1,96.9,82.6,95.1,82.6
			L95.1,82.6z"/>
		<path fill="#7D7D7D" d="M121.1,112.7c-0.1,0-0.3,0-0.4-0.1h-6c-0.1,0-0.2,0-0.3,0c-0.2,0-0.4,0.1-0.6,0.1c-0.9,0-1-0.6-1-0.9
			v-10.2c0-1.1-1.2-2-2.3-2c-1.1,0-2.3,0.9-2.3,2v9.8c0,0.2,0.1,0.4,0.1,0.6c0,0.5-0.5,0.8-0.9,0.8c-0.2,0-0.4,0-0.5-0.1h-4.5
			c-0.1,0-0.1,0-0.2,0c-0.1,0-0.2,0.1-0.4,0.1c-0.5,0-0.8-0.4-0.8-0.9V93.1c0-0.7,0.5-1.7,1.4-1.7h5c0.3,0,0.6,0.1,0.8,0.4
			c0.1,0.2,0.2,0.4,0.1,0.6c1.3-0.5,3.3-0.8,5.4-0.8c4.6,0,8.4,3.7,8.4,8.2v11.8c0,0.2,0,0.3-0.1,0.5
			C121.9,112.4,121.5,112.7,121.1,112.7L121.1,112.7z M110.5,97.9c1.8,0,3.9,1.5,3.9,3.6v9.6c0,0-0.1,0,0,0c0.2,0,0.3-0.1,0.4-0.1
			h5.8V99.8c0-3.6-3.2-6.7-6.9-6.7c-2.8,0-5,0.7-6,1.2c-0.2,0.1-0.4,0.1-0.7,0c-0.2-0.1-0.3-0.4-0.3-0.7v-0.6c0,0-0.2-0.1-0.2-0.1
			h-4c0,0,0.1,0.1,0.1,0.2V111h-0.2h4.3v-9.5C106.6,99.4,108.6,97.9,110.5,97.9L110.5,97.9z"/>
	</g>
	<g>
		<path fill="#7D7D7D" d="M69.7,112.9H55c-4.8,0-8.6-3.9-8.6-8.6V89.5c0-4.8,3.9-8.6,8.6-8.6h14.7c4.8,0,8.6,3.9,8.6,8.6v14.7
			C78.3,109,74.4,112.9,69.7,112.9z M55,83.5c-3.3,0-6.1,2.7-6.1,6.1v14.7c0,3.3,2.7,6.1,6.1,6.1h14.7c3.3,0,6.1-2.7,6.1-6.1V89.5
			c0-3.3-2.7-6.1-6.1-6.1H55z"/>
		<path fill="#7D7D7D" d="M62.4,104c-1.5,0-3-0.5-4.3-1.4c-1.5-1.1-2.5-2.8-2.8-4.7c-0.3-1.9,0.2-3.8,1.3-5.3
			c1.1-1.5,2.8-2.5,4.7-2.8c0.7-0.1,1.4-0.1,2.1,0c1.5,0.2,2.9,0.9,4,2c1.1,1.1,1.8,2.5,2,4l0,0c0.3,1.9-0.2,3.8-1.3,5.3
			c-1.1,1.5-2.8,2.5-4.7,2.8C63.1,104,62.7,104,62.4,104z M62.4,92.2c-0.2,0-0.5,0-0.7,0.1c-1.2,0.2-2.3,0.8-3,1.8
			c-0.7,1-1,2.2-0.9,3.4c0.2,1.2,0.8,2.3,1.8,3c1,0.7,2.2,1,3.4,0.9c2.5-0.4,4.2-2.7,3.9-5.2c-0.3-2-1.9-3.6-3.9-3.9
			C62.8,92.2,62.6,92.2,62.4,92.2z"/>
		<path fill="#7D7D7D" d="M70.4,90.1c-0.3,0-0.7-0.1-0.9-0.4c-0.2-0.2-0.4-0.6-0.4-0.9c0-0.3,0.1-0.7,0.4-0.9
			c0.2-0.2,0.6-0.4,0.9-0.4s0.7,0.1,0.9,0.4c0.2,0.2,0.4,0.6,0.4,0.9c0,0.3-0.1,0.7-0.4,0.9C71.1,89.9,70.7,90.1,70.4,90.1z"/>
	</g>
	<path fill="#7D7D7D" d="M34.2,85.7c-0.5-0.9-1.6-1.2-2.5-0.7l-8.2,4.5c-0.7,0.4-1.3,1.1-1.5,1.9c-0.2,0.7-0.2,1.4,0.1,2.1h-7.4
		c0.3-0.7,0.3-1.4,0.1-2.1c-0.2-0.8-0.8-1.5-1.5-1.9L5.1,85c-0.9-0.5-2-0.2-2.5,0.7c-0.5,0.9-0.2,2,0.7,2.5l0.9,0.5
		c-0.2,0.2-0.4,0.4-0.6,0.6c-0.2,0.4-0.3,0.9-0.2,1.4c0.1,0.5,0.5,0.9,0.9,1.1l0.9,0.5c-0.2,0.2-0.4,0.4-0.6,0.6
		c-0.2,0.4-0.3,0.9-0.2,1.4c0.1,0.5,0.5,0.9,0.9,1.1l2.5,1.3v10.6c0,0.9,0.8,1.7,1.7,1.7h17.6c0.9,0,1.7-0.8,1.7-1.7V96.8l2.5-1.3
		c0.4-0.2,0.7-0.6,0.9-1.1c0.1-0.5,0.1-1-0.2-1.4c-0.1-0.3-0.3-0.5-0.6-0.6l0.9-0.5c0.4-0.2,0.7-0.6,0.9-1.1c0.1-0.5,0.1-1-0.2-1.4
		c-0.1-0.3-0.3-0.5-0.6-0.6l0.9-0.5c0.4-0.2,0.7-0.6,0.9-1.1C34.5,86.7,34.4,86.2,34.2,85.7z M25.8,94.4l-7.4,6.8L11,94.4L25.8,94.4
		L25.8,94.4z M16.2,100.5L8.9,105v-9.9c0-0.4,0.3-0.7,0.6-0.7L16.2,100.5z M7.9,95.1v0.6l-2-1.1c-0.2-0.1-0.3-0.3-0.4-0.5
		c-0.1-0.2,0-0.4,0.1-0.6c0.1-0.2,0.3-0.3,0.5-0.4c0.2-0.1,0.4,0,0.6,0.1l0,0l0.7,0.4c0.1,0,0.2,0.1,0.2,0.1c0.2,0,0.3-0.1,0.4-0.3
		c0.1-0.2,0-0.5-0.2-0.7l-0.7-0.4l0,0l0,0l0,0l-2.3-1.3c-0.2-0.1-0.3-0.3-0.4-0.5c-0.1-0.2,0-0.4,0.1-0.6c0.2-0.4,0.7-0.6,1.1-0.3
		l0,0c0,0,0,0,0,0c0,0,0,0,0,0l3.2,1.6c0.1,0,0.2,0.1,0.2,0.1c0.2,0,0.4-0.1,0.4-0.3c0.1-0.2,0-0.5-0.2-0.7l-3.2-1.6l-2.3-1.3
		c-0.4-0.2-0.6-0.7-0.3-1.1c0.2-0.4,0.7-0.6,1.1-0.3l8.2,4.5c0.5,0.3,0.9,0.7,1,1.3c0.2,0.6,0.1,1.1-0.2,1.6l-0.1,0.1h-4
		C8.7,93.4,7.9,94.2,7.9,95.1z M27.9,105l-3.3-2c-0.2-0.1-0.5-0.1-0.6,0.1l0,0c-0.2,0.2-0.2,0.6,0.1,0.8l3.8,2.3v1.2
		c0,0.4-0.3,0.7-0.7,0.7H9.6c-0.4,0-0.7-0.3-0.7-0.7v-1.2l8-4.9l1.1,1c0.1,0.1,0.2,0.1,0.3,0.1s0.2,0,0.3-0.1l1.1-1l4.8,2.9
		c0.2,0.1,0.5,0.1,0.6-0.1l0,0c0.2-0.2,0.2-0.6-0.1-0.8l-4.5-2.8l6.6-6.1c0.4,0,0.6,0.3,0.6,0.7L27.9,105L27.9,105z M33.4,86.8
		c-0.1,0.2-0.2,0.4-0.4,0.5l-2.3,1.3l-3.2,1.6c-0.2,0.1-0.3,0.4-0.2,0.7c0.1,0.2,0.3,0.3,0.4,0.3c0.1,0,0.2,0,0.2-0.1l3.2-1.6
		c0,0,0,0,0,0c0,0,0,0,0,0c0.4-0.2,0.9-0.1,1.1,0.3c0.1,0.2,0.1,0.4,0.1,0.6c-0.1,0.2-0.2,0.4-0.4,0.5l-2.3,1.3l0,0l0,0l0,0
		l-0.7,0.4c-0.2,0.1-0.3,0.4-0.2,0.7c0.1,0.2,0.3,0.3,0.4,0.3c0.1,0,0.2,0,0.2-0.1l0.7-0.4l0,0c0.2-0.1,0.4-0.1,0.6-0.1
		c0.2,0.1,0.4,0.2,0.5,0.4c0.1,0.2,0.1,0.4,0.1,0.6c-0.1,0.2-0.2,0.4-0.4,0.5l-2,1.1v-0.6c0-0.9-0.8-1.7-1.7-1.7h-4l-0.1-0.1
		c-0.3-0.5-0.3-1.1-0.2-1.6c0.2-0.6,0.5-1,1-1.3l8.2-4.5c0.4-0.2,0.9-0.1,1.1,0.3C33.4,86.4,33.4,86.6,33.4,86.8z"/>
</g>
</svg>
