<?xml version="1.0" encoding="utf-8"?>
<!-- Generator: Adobe Illustrator 19.2.0, SVG Export Plug-In . SVG Version: 6.00 Build 0)  -->
<svg version="1.2" baseProfile="tiny" id="Layer_1" xmlns="http://www.w3.org/2000/svg" xmlns:xlink="http://www.w3.org/1999/xlink"
	 x="0px" y="0px" viewBox="0 0 32 32" xml:space="preserve">
<path fill="#FFFFFF" d="M16,2.8C8.7,2.8,2.8,8.7,2.8,16S8.7,29.2,16,29.2S29.2,23.3,29.2,16S23.3,2.8,16,2.8z M16,4.9
	c6.1,0,11.1,5,11.1,11.1s-5,11.1-11.1,11.1S4.9,22.1,4.9,16S9.9,4.9,16,4.9z M18.2,7.2c-1.1,0-2,0.9-2,2s0.9,2,2,2s2-0.9,2-2
	S19.2,7.2,18.2,7.2z M16.6,12c-1.6,0-3.2,1.1-4.7,3.2l0.5,0.2c0.6-0.8,1.1-1.3,1.6-1.6c0.2-0.1,0.3-0.2,0.5-0.2c0.1,0,0.2,0,0.3,0.1
	c0.1,0.1,0.1,0.2,0.1,0.2c0,0.2-0.1,0.5-0.2,1l-1.2,3.5l-1.3,3.7c-0.2,0.5-0.3,0.8-0.3,1.1c0,0.4,0.2,0.8,0.6,1.1
	c0.4,0.3,0.9,0.4,1.5,0.4c1.6,0,3.2-1.1,4.7-3.2l-0.5-0.2c-0.6,0.8-1.1,1.3-1.6,1.6c-0.2,0.1-0.3,0.2-0.5,0.2c-0.1,0-0.2,0-0.3-0.1
	c-0.1-0.1-0.1-0.2-0.1-0.2c0-0.2,0.1-0.5,0.2-1l1.2-3.5l1.3-3.7c0.2-0.5,0.3-0.8,0.3-1.1c0-0.4-0.2-0.8-0.6-1.1
	C17.7,12.1,17.2,12,16.6,12z"/>
</svg>
