<?xml version="1.0" encoding="utf-8"?>
<!-- Generator: Adobe Illustrator 19.2.0, SVG Export Plug-In . SVG Version: 6.00 Build 0)  -->
<svg version="1.1" baseProfile="tiny" id="Layer_1" xmlns="http://www.w3.org/2000/svg" xmlns:xlink="http://www.w3.org/1999/xlink"
	 x="0px" y="0px" viewBox="0 0 32 32" xml:space="preserve">
<g>
	<path fill="#7D7D7D" d="M23.4,32H8.6C3.9,32,0,28.1,0,23.4V8.6C0,3.9,3.9,0,8.6,0h14.7C28.1,0,32,3.9,32,8.6v14.7
		C32,28.1,28.1,32,23.4,32z M8.6,2.6c-3.3,0-6.1,2.7-6.1,6.1v14.7c0,3.3,2.7,6.1,6.1,6.1h14.7c3.3,0,6.1-2.7,6.1-6.1V8.6
		c0-3.3-2.7-6.1-6.1-6.1H8.6z"/>
	<path fill="#7D7D7D" d="M16.1,23.1c-1.5,0-3-0.5-4.3-1.4C10.3,20.6,9.3,18.9,9,17s0.2-3.8,1.3-5.3c1.1-1.5,2.8-2.5,4.7-2.8
		c0.7-0.1,1.4-0.1,2.1,0c1.5,0.2,2.9,0.9,4,2c1.1,1.1,1.8,2.5,2,4l0,0c0.3,1.9-0.2,3.8-1.3,5.3S19,22.8,17.1,23
		C16.8,23.1,16.4,23.1,16.1,23.1z M16.1,11.3c-0.2,0-0.5,0-0.7,0.1c-1.2,0.2-2.3,0.8-3,1.8c-0.7,1-1,2.2-0.9,3.4
		c0.2,1.2,0.8,2.3,1.8,3s2.2,1,3.4,0.9c2.5-0.4,4.2-2.7,3.9-5.2c-0.3-2-1.9-3.6-3.9-3.9C16.5,11.4,16.3,11.3,16.1,11.3z"/>
	<path fill="#7D7D7D" d="M24.1,9.2c-0.3,0-0.7-0.1-0.9-0.4c-0.2-0.2-0.4-0.6-0.4-0.9c0-0.3,0.1-0.7,0.4-0.9s0.6-0.4,0.9-0.4
		c0.3,0,0.7,0.1,0.9,0.4c0.2,0.2,0.4,0.6,0.4,0.9c0,0.3-0.1,0.7-0.4,0.9C24.8,9.1,24.4,9.2,24.1,9.2z"/>
</g>
</svg>
