<?xml version="1.0" encoding="utf-8"?>
<!-- Generator: Adobe Illustrator 19.2.0, SVG Export Plug-In . SVG Version: 6.00 Build 0)  -->
<svg version="1.1" baseProfile="tiny" id="Layer_1" xmlns="http://www.w3.org/2000/svg" xmlns:xlink="http://www.w3.org/1999/xlink"
	 x="0px" y="0px" viewBox="0 0 32 32" xml:space="preserve">
<g>
	<path fill="#FFFFFF" d="M22.5,30H9.5C5.4,30,2,26.6,2,22.5V9.5C2,5.4,5.4,2,9.5,2h12.9C26.6,2,30,5.4,30,9.5v12.9
		C30,26.6,26.6,30,22.5,30z M9.5,4.3c-2.9,0-5.3,2.4-5.3,5.3v12.9c0,2.9,2.4,5.3,5.3,5.3h12.9c2.9,0,5.3-2.4,5.3-5.3V9.5
		c0-2.9-2.4-5.3-5.3-5.3L9.5,4.3L9.5,4.3z"/>
	<path fill="#FFFFFF" d="M16.1,22.2c-1.3,0-2.6-0.4-3.8-1.2c-1.3-1-2.2-2.5-2.4-4.1s0.2-3.3,1.1-4.6s2.5-2.2,4.1-2.4
		c0.6-0.1,1.2-0.1,1.8,0c1.3,0.2,2.5,0.8,3.5,1.8c1,1,1.6,2.2,1.8,3.5l0,0c0.3,1.7-0.2,3.3-1.1,4.6c-1,1.3-2.5,2.3-4.1,2.4
		C16.7,22.2,16.4,22.2,16.1,22.2z M16.1,11.9c-0.2,0-0.4,0-0.6,0.1c-1,0.2-2,0.7-2.6,1.6c-0.6,0.9-0.9,1.9-0.8,3
		c0.2,1,0.7,2,1.6,2.6c0.9,0.6,1.9,0.9,3,0.8c2.2-0.3,3.7-2.4,3.4-4.5c-0.3-1.8-1.7-3.1-3.4-3.4C16.4,12,16.3,11.9,16.1,11.9z"/>
	<path fill="#FFFFFF" d="M23.1,10c-0.3,0-0.6-0.1-0.8-0.3C22.1,9.5,22,9.2,22,8.9s0.1-0.6,0.4-0.8c0.3-0.2,0.5-0.4,0.8-0.4
		c0.3,0,0.6,0.1,0.8,0.4c0.2,0.2,0.4,0.5,0.4,0.8s-0.1,0.6-0.4,0.8C23.7,10,23.4,10,23.1,10z"/>
</g>
</svg>
