<?xml version="1.0" encoding="utf-8"?>
<!-- Generator: Adobe Illustrator 19.2.0, SVG Export Plug-In . SVG Version: 6.00 Build 0)  -->
<svg version="1.1" baseProfile="tiny" id="Layer_1" xmlns="http://www.w3.org/2000/svg" xmlns:xlink="http://www.w3.org/1999/xlink"
	 x="0px" y="0px" viewBox="0 0 32 32" xml:space="preserve">
<g>
	<path fill="#EF7E04" d="M8.2,31.8c-0.2,0-0.3-0.1-0.4-0.1l-6.2,0c0,0,0,0-0.1,0c-0.1,0-0.1,0.1-0.3,0.1c-0.4,0-0.7-0.3-0.7-0.9
		V12.2c0-0.8,0.3-1.7,1.1-1.7h6.2c0.7,0,1.4,0.7,1.4,1.7v18.6c0,0.1-0.1,0.2-0.2,0.4C8.9,31.5,8.5,31.8,8.2,31.8L8.2,31.8z M2,30.1
		h5.7V12.2c0,0-0.2-0.1-0.2-0.1H1.8c0,0,0.2,0.1,0.2,0.1C2,12.2,2,30.1,2,30.1z"/>
	<path fill="#EF7E04" d="M4.9,9.8C2.3,9.8,0.2,7.7,0.2,5s2.1-4.8,4.8-4.8S9.7,2.4,9.7,5C9.7,7.7,7.5,9.8,4.9,9.8L4.9,9.8z M4.9,1.8
		C3.1,1.8,1.7,3.2,1.7,5c0,1.8,1.4,3.3,3.2,3.3S8.1,6.8,8.1,5S6.7,1.8,4.9,1.8L4.9,1.8z"/>
	<path fill="#EF7E04" d="M30.9,31.8c-0.1,0-0.3,0-0.4-0.1h-6c-0.1,0-0.2,0-0.3,0c-0.2,0-0.4,0.1-0.6,0.1c-0.9,0-1-0.6-1-0.9V20.6
		c0-1.1-1.2-2-2.3-2c-1.1,0-2.3,0.9-2.3,2v9.8c0,0.2,0.1,0.4,0.1,0.6c0,0.5-0.5,0.8-0.9,0.8c-0.2,0-0.4,0-0.5-0.1h-4.5
		c-0.1,0-0.1,0-0.2,0c-0.1,0-0.2,0.1-0.4,0.1c-0.5,0-0.8-0.4-0.8-0.9V12.2c0-0.7,0.5-1.7,1.4-1.7h5c0.3,0,0.6,0.1,0.8,0.4
		c0.1,0.2,0.2,0.4,0.1,0.6c1.3-0.5,3.3-0.8,5.4-0.8c4.6,0,8.4,3.7,8.4,8.2v11.8c0,0.2,0,0.3-0.1,0.5C31.7,31.5,31.3,31.8,30.9,31.8
		L30.9,31.8z M20.3,17c1.8,0,3.9,1.5,3.9,3.6v9.6c0,0-0.1,0,0,0c0.2,0,0.3-0.1,0.4-0.1h5.8V18.9c0-3.6-3.2-6.7-6.9-6.7
		c-2.8,0-5,0.7-6,1.2c-0.2,0.1-0.4,0.1-0.7,0s-0.3-0.4-0.3-0.7v-0.6c0,0-0.2-0.1-0.2-0.1h-4c0,0,0.1,0.1,0.1,0.2v17.9h-0.2h4.3v-9.5
		C16.4,18.5,18.4,17,20.3,17L20.3,17z"/>
</g>
</svg>
