<?xml version="1.0" encoding="utf-8"?>
<!-- Generator: Adobe Illustrator 19.2.0, SVG Export Plug-In . SVG Version: 6.00 Build 0)  -->
<svg version="1.2" baseProfile="tiny" id="Layer_1" xmlns="http://www.w3.org/2000/svg" xmlns:xlink="http://www.w3.org/1999/xlink"
	 x="0px" y="0px" viewBox="0 0 32 32" xml:space="preserve">
<g id="XMLID_720_">
	<g>
		<path fill="#EF7E04" d="M31.6,7c0-1.4-1.1-2.5-2.5-2.5L3,4.5C1.6,4.5,0.4,5.6,0.4,7v18.1c0,1.4,1.1,2.5,2.5,2.5H29
			c1.4,0,2.5-1.1,2.5-2.5L31.6,7z M30,7.1v14.5l-4.8-2.9c-0.1-0.1-0.2-0.1-0.3-0.1l-5.7-3.5l9.9-9C29.5,6.1,30,6.6,30,7.1z M27,6
			L16,16.1L5,6H27z M2,7c0-0.6,0.4-1,1-1l9.8,9L2,21.7V7z M30.2,25.2c0,0.6-0.5,1-1,1H3c-0.6,0-1-0.5-1-1v-1.8l11.8-7.3l1.6,1.6
			c0.2,0.2,0.3,0.2,0.5,0.2c0.2,0,0.3-0.1,0.5-0.2l1.6-1.6l7.1,4.4c0.1,0.1,0.2,0.1,0.3,0.1l4.7,2.9C30.2,23.4,30.2,25.2,30.2,25.2z
			"/>
	</g>
</g>
</svg>
