<?xml version="1.0" encoding="utf-8"?>
<!-- Generator: Adobe Illustrator 19.2.0, SVG Export Plug-In . SVG Version: 6.00 Build 0)  -->
<svg version="1.1" baseProfile="tiny" id="Layer_1" xmlns="http://www.w3.org/2000/svg" xmlns:xlink="http://www.w3.org/1999/xlink"
	 x="0px" y="0px" viewBox="0 0 32 32" xml:space="preserve">
<g id="Layer_2">
</g>
<g id="Layer_3">
</g>
<path fill="#FFFFFF" d="M31.8,4.8c-0.5-0.9-1.6-1.2-2.5-0.7l-8.2,4.5c-0.7,0.4-1.3,1.1-1.5,1.9c-0.2,0.7-0.2,1.4,0.1,2.1h-7.4
	c0.3-0.7,0.3-1.4,0.1-2.1c-0.2-0.8-0.8-1.5-1.5-1.9L2.7,4.1C1.8,3.6,0.7,4,0.2,4.8c-0.5,0.9-0.2,2,0.7,2.5l0.9,0.5
	C1.6,8,1.4,8.2,1.3,8.4C1.1,8.9,1,9.4,1.1,9.8c0.1,0.5,0.5,0.9,0.9,1.1l0.9,0.5c-0.2,0.2-0.4,0.4-0.6,0.6c-0.2,0.4-0.3,0.9-0.2,1.4
	c0.1,0.5,0.5,0.9,0.9,1.1l2.5,1.3v10.6c0,0.9,0.8,1.7,1.7,1.7h17.6c0.9,0,1.7-0.8,1.7-1.7V15.9l2.5-1.3c0.4-0.2,0.7-0.6,0.9-1.1
	c0.1-0.5,0.1-1-0.2-1.4c-0.1-0.3-0.3-0.5-0.6-0.6l0.9-0.5c0.4-0.2,0.7-0.6,0.9-1.1s0.1-1-0.2-1.4c-0.1-0.3-0.3-0.5-0.6-0.6L31,7.3
	c0.4-0.2,0.7-0.6,0.9-1.1C32.1,5.8,32,5.3,31.8,4.8z M23.4,13.5L16,20.3l-7.4-6.8L23.4,13.5L23.4,13.5z M13.8,19.6l-7.3,4.5v-9.9
	c0-0.4,0.3-0.7,0.6-0.7L13.8,19.6z M5.5,14.2v0.6l-2-1.1c-0.2-0.1-0.3-0.3-0.4-0.5s0-0.4,0.1-0.6c0.1-0.2,0.3-0.3,0.5-0.4
	c0.2-0.1,0.4,0,0.6,0.1l0,0L5,12.6c0.1,0,0.2,0.1,0.2,0.1c0.2,0,0.3-0.1,0.4-0.3c0.1-0.2,0-0.5-0.2-0.7l-0.7-0.4l0,0l0,0l0,0
	l-2.3-1.3C2.3,10,2.2,9.8,2.1,9.6C2,9.4,2.1,9.1,2.2,8.9c0.2-0.4,0.7-0.6,1.1-0.3l0,0c0,0,0,0,0,0c0,0,0,0,0,0l3.2,1.6
	c0.1,0,0.2,0.1,0.2,0.1c0.2,0,0.4-0.1,0.4-0.3c0.1-0.2,0-0.5-0.2-0.7L3.8,7.7L1.4,6.5C1,6.2,0.9,5.7,1.1,5.3C1.3,4.9,1.8,4.8,2.2,5
	l8.2,4.5c0.5,0.3,0.9,0.7,1,1.3c0.2,0.6,0.1,1.1-0.2,1.6l-0.1,0.1h-4C6.3,12.5,5.5,13.3,5.5,14.2z M25.5,24.1l-3.3-2
	c-0.2-0.1-0.5-0.1-0.6,0.1l0,0c-0.2,0.2-0.2,0.6,0.1,0.8l3.8,2.3v1.2c0,0.4-0.3,0.7-0.7,0.7H7.2c-0.4,0-0.7-0.3-0.7-0.7v-1.2l8-4.9
	l1.1,1c0.1,0.1,0.2,0.1,0.3,0.1c0.1,0,0.2,0,0.3-0.1l1.1-1l4.8,2.9c0.2,0.1,0.5,0.1,0.6-0.1l0,0c0.2-0.2,0.2-0.6-0.1-0.8l-4.5-2.8
	l6.6-6.1c0.4,0,0.6,0.3,0.6,0.7L25.5,24.1L25.5,24.1z M31,6c-0.1,0.2-0.2,0.4-0.4,0.5l-2.3,1.3l-3.2,1.6c-0.2,0.1-0.3,0.4-0.2,0.7
	c0.1,0.2,0.3,0.3,0.4,0.3c0.1,0,0.2,0,0.2-0.1l3.2-1.6c0,0,0,0,0,0c0,0,0,0,0,0c0.4-0.2,0.9-0.1,1.1,0.3c0.1,0.2,0.1,0.4,0.1,0.6
	c-0.1,0.2-0.2,0.4-0.4,0.5l-2.3,1.3l0,0l0,0l0,0l-0.7,0.4c-0.2,0.1-0.3,0.4-0.2,0.7c0.1,0.2,0.3,0.3,0.4,0.3c0.1,0,0.2,0,0.2-0.1
	l0.7-0.4l0,0c0.2-0.1,0.4-0.1,0.6-0.1c0.2,0.1,0.4,0.2,0.5,0.4c0.1,0.2,0.1,0.4,0.1,0.6c-0.1,0.2-0.2,0.4-0.4,0.5l-2,1.1v-0.6
	c0-0.9-0.8-1.7-1.7-1.7h-4l-0.1-0.1c-0.3-0.5-0.3-1.1-0.2-1.6c0.2-0.6,0.5-1,1-1.3L29.8,5c0.4-0.2,0.9-0.1,1.1,0.3
	C31,5.5,31,5.7,31,6z"/>
</svg>
