<?xml version="1.0" encoding="utf-8"?>
<!-- Generator: Adobe Illustrator 19.2.0, SVG Export Plug-In . SVG Version: 6.00 Build 0)  -->
<svg version="1.1" baseProfile="tiny" id="Layer_1" xmlns="http://www.w3.org/2000/svg" xmlns:xlink="http://www.w3.org/1999/xlink"
	 x="0px" y="0px" viewBox="0 0 32 32" xml:space="preserve">
<g>
	<path fill="none" stroke="#EF7E04" stroke-linecap="round" stroke-linejoin="round" stroke-miterlimit="10" d="M28,4.5
		c1.9,0.4,3.3,2,3.3,3.9v2c0,1.5-1.2,2.9-2.7,2.9h-4c-1.5,0-2.7-1.5-2.7-2.9V9c-4-0.4-8-0.4-12,0v1.3c0,1.5-1.2,2.9-2.7,2.9h-4
		c-1.5,0-2.7-1.5-2.7-2.9v-2c0-1.9,1.5-3.5,3.3-3.9C11.7,3,19.9,2.9,28,4.5z"/>
	<path fill="none" stroke="#EF7E04" stroke-linejoin="round" stroke-miterlimit="10" d="M25.3,15.3V26c0,1.5-1.2,2.7-2.7,2.7H9.3
		c-1.5,0-2.7-1.2-2.7-2.7V15.3"/>
	<g>
		<g>
			<g>
				<g>
					<polygon fill="#EF7E04" points="12.7,17.3 11.3,17.3 11.3,18.6 12.7,18.6 					"/>
				</g>
			</g>
		</g>
		<g>
			<g>
				<g>
					<polygon fill="#EF7E04" points="16.7,17.3 15.3,17.3 15.3,18.6 16.7,18.6 					"/>
				</g>
			</g>
		</g>
		<g>
			<g>
				<g>
					<polygon fill="#EF7E04" points="20.7,17.3 19.3,17.3 19.3,18.6 20.7,18.6 					"/>
				</g>
			</g>
		</g>
		<g>
			<g>
				<g>
					<polygon fill="#EF7E04" points="12.7,20 11.3,20 11.3,21.3 12.7,21.3 					"/>
				</g>
			</g>
		</g>
		<g>
			<g>
				<g>
					<polygon fill="#EF7E04" points="16.7,20 15.3,20 15.3,21.3 16.7,21.3 					"/>
				</g>
			</g>
		</g>
		<g>
			<g>
				<g>
					<polygon fill="#EF7E04" points="20.7,20 19.3,20 19.3,21.3 20.7,21.3 					"/>
				</g>
			</g>
		</g>
		<g>
			<g>
				<g>
					<polygon fill="#EF7E04" points="12.7,22.7 11.3,22.7 11.3,24 12.7,24 					"/>
				</g>
			</g>
		</g>
		<g>
			<g>
				<g>
					<polygon fill="#EF7E04" points="16.7,22.7 15.3,22.7 15.3,24 16.7,24 					"/>
				</g>
			</g>
		</g>
		<g>
			<g>
				<g>
					<polygon fill="#EF7E04" points="20.7,22.7 19.3,22.7 19.3,24 20.7,24 					"/>
				</g>
			</g>
		</g>
	</g>
</g>
</svg>
