<?xml version="1.0" encoding="utf-8"?>
<!-- Generator: Adobe Illustrator 19.2.0, SVG Export Plug-In . SVG Version: 6.00 Build 0)  -->
<svg version="1.1" baseProfile="tiny" id="Layer_1" xmlns="http://www.w3.org/2000/svg" xmlns:xlink="http://www.w3.org/1999/xlink"
	 x="0px" y="0px" viewBox="0 0 32 32" xml:space="preserve">
<path fill="none" stroke="#7D7D7D" stroke-linecap="round" stroke-linejoin="round" stroke-miterlimit="10" d="M28,3.5
	c1.9,0.4,3.3,2,3.3,3.9v2c0,1.5-1.2,2.9-2.7,2.9h-4c-1.5,0-2.7-1.5-2.7-2.9V8c-4-0.4-8-0.4-12,0v1.3c0,1.5-1.2,2.9-2.7,2.9h-4
	c-1.5,0-2.7-1.5-2.7-2.9v-2c0-1.9,1.5-3.5,3.3-3.9C11.7,2,19.9,1.9,28,3.5z"/>
<path fill="none" stroke="#7D7D7D" stroke-linejoin="round" stroke-miterlimit="10" d="M25.3,14.3V25c0,1.5-1.2,2.7-2.7,2.7H9.3
	c-1.5,0-2.7-1.2-2.7-2.7V14.3"/>
<g>
	<g>
		<g>
			<g>
				<polygon fill="#7D7D7D" points="12.7,16.3 11.3,16.3 11.3,17.6 12.7,17.6 				"/>
			</g>
		</g>
	</g>
	<g>
		<g>
			<g>
				<polygon fill="#7D7D7D" points="16.7,16.3 15.3,16.3 15.3,17.6 16.7,17.6 				"/>
			</g>
		</g>
	</g>
	<g>
		<g>
			<g>
				<polygon fill="#7D7D7D" points="20.7,16.3 19.3,16.3 19.3,17.6 20.7,17.6 				"/>
			</g>
		</g>
	</g>
	<g>
		<g>
			<g>
				<polygon fill="#7D7D7D" points="12.7,19 11.3,19 11.3,20.3 12.7,20.3 				"/>
			</g>
		</g>
	</g>
	<g>
		<g>
			<g>
				<polygon fill="#7D7D7D" points="16.7,19 15.3,19 15.3,20.3 16.7,20.3 				"/>
			</g>
		</g>
	</g>
	<g>
		<g>
			<g>
				<polygon fill="#7D7D7D" points="20.7,19 19.3,19 19.3,20.3 20.7,20.3 				"/>
			</g>
		</g>
	</g>
	<g>
		<g>
			<g>
				<polygon fill="#7D7D7D" points="12.7,21.7 11.3,21.7 11.3,23 12.7,23 				"/>
			</g>
		</g>
	</g>
	<g>
		<g>
			<g>
				<polygon fill="#7D7D7D" points="16.7,21.7 15.3,21.7 15.3,23 16.7,23 				"/>
			</g>
		</g>
	</g>
	<g>
		<g>
			<g>
				<polygon fill="#7D7D7D" points="20.7,21.7 19.3,21.7 19.3,23 20.7,23 				"/>
			</g>
		</g>
	</g>
</g>
</svg>
