<?xml version="1.0" encoding="utf-8"?>
<!-- Generator: Adobe Illustrator 19.2.0, SVG Export Plug-In . SVG Version: 6.00 Build 0)  -->
<svg version="1.1" baseProfile="tiny" id="Layer_1" xmlns="http://www.w3.org/2000/svg" xmlns:xlink="http://www.w3.org/1999/xlink"
	 x="0px" y="0px" viewBox="0 0 32 32" xml:space="preserve">
<g>
	<path fill="#F0F6F8" d="M11.7,14.2c1.9,1.3,2.9,3.1,2.9,5.4c0,2.3-0.7,4.2-2.1,5.5c-1.4,1.4-3.1,2-5.2,2c-2.1,0-3.8-0.6-5.2-1.9
		c-1.4-1.3-2.1-3-2.1-5c0-2.1,0.6-4.1,1.9-6.1l6.5-9.4h7.2L11.7,14.2z M28,14.2c1.9,1.3,2.9,3.1,2.9,5.4c0,2.3-0.7,4.2-2.1,5.5
		c-1.4,1.4-3.1,2-5.2,2c-2.1,0-3.8-0.6-5.2-1.9c-1.4-1.3-2.1-3-2.1-5c0-2.1,0.6-4.1,1.9-6.1l6.5-9.4H32L28,14.2z"/>
</g>
</svg>
