<?xml version="1.0" encoding="utf-8"?>
<!-- Generator: Adobe Illustrator 19.2.0, SVG Export Plug-In . SVG Version: 6.00 Build 0)  -->
<svg version="1.1" baseProfile="tiny" id="Layer_1" xmlns="http://www.w3.org/2000/svg" xmlns:xlink="http://www.w3.org/1999/xlink"
	 x="0px" y="0px" viewBox="0 0 32 32" xml:space="preserve">
<g>
	<path fill="#D6DFE2" d="M20.3,17.8c-1.9-1.3-2.9-3.1-2.9-5.4c0-2.3,0.7-4.2,2.1-5.5c1.4-1.4,3.1-2,5.2-2c2.1,0,3.8,0.6,5.2,1.9
		c1.4,1.3,2.1,3,2.1,5c0,2.1-0.6,4.1-1.9,6.1l-6.5,9.4h-7.2L20.3,17.8z M4,17.8c-1.9-1.3-2.9-3.1-2.9-5.4c0-2.3,0.7-4.2,2.1-5.5
		c1.4-1.4,3.1-2,5.2-2c2.1,0,3.8,0.6,5.2,1.9c1.4,1.3,2.1,3,2.1,5c0,2.1-0.6,4.1-1.9,6.1l-6.5,9.4H0L4,17.8z"/>
</g>
</svg>
