<?xml version="1.0" encoding="utf-8"?>
<!-- Generator: Adobe Illustrator 19.2.0, SVG Export Plug-In . SVG Version: 6.00 Build 0)  -->
<svg version="1.1" baseProfile="tiny" id="Layer_1" xmlns="http://www.w3.org/2000/svg" xmlns:xlink="http://www.w3.org/1999/xlink"
	 x="0px" y="0px" viewBox="0 0 32 32" xml:space="preserve">
<g>
	<path fill="none" stroke="#EF7E04" stroke-linecap="round" stroke-linejoin="round" stroke-miterlimit="10" d="M7.4,3.4
		c0-1.5,1.2-2.6,2.6-2.6h11.9c1.5,0,2.6,1.2,2.6,2.6v25.1c0,1.5-1.2,2.6-2.6,2.6H10.1c-1.5,0-2.6-1.2-2.6-2.6
		C7.4,28.6,7.4,3.4,7.4,3.4z"/>
	
		<line fill="none" stroke="#EF7E04" stroke-linecap="round" stroke-linejoin="round" stroke-miterlimit="10" x1="7.4" y1="6.1" x2="24.6" y2="6.1"/>
	
		<line fill="none" stroke="#EF7E04" stroke-linecap="round" stroke-linejoin="round" stroke-miterlimit="10" x1="7.4" y1="25.9" x2="24.6" y2="25.9"/>
	
		<line fill="none" stroke="#EF7E04" stroke-linecap="round" stroke-linejoin="round" stroke-miterlimit="10" x1="19.3" y1="28.6" x2="12.7" y2="28.6"/>
	<path fill="none" stroke="#EF7E04" stroke-linejoin="round" stroke-miterlimit="10" d="M16,2.8c0.4,0,0.7,0.3,0.7,0.7l0,0
		c0,0.4-0.3,0.7-0.7,0.7l0,0c-0.4,0-0.7-0.3-0.7-0.7l0,0C15.3,3,15.7,2.8,16,2.8L16,2.8z"/>
</g>
</svg>
