<?xml version="1.0" encoding="utf-8"?>
<!-- Generator: Adobe Illustrator 19.2.0, SVG Export Plug-In . SVG Version: 6.00 Build 0)  -->
<svg version="1.2" baseProfile="tiny" id="Layer_1" xmlns="http://www.w3.org/2000/svg" xmlns:xlink="http://www.w3.org/1999/xlink"
	 x="0px" y="0px" viewBox="0 0 32 32" xml:space="preserve">
<g>
	<path fill="none" stroke="#FFFFFF" stroke-linecap="round" stroke-linejoin="round" stroke-miterlimit="10" d="M7.5,3.4
		c0-1.4,1.1-2.6,2.6-2.6h11.8c1.4,0,2.6,1.1,2.6,2.6v25.1c0,1.4-1.1,2.6-2.6,2.6H10c-1.4,0-2.6-1.1-2.6-2.6
		C7.4,28.5,7.4,3.3,7.5,3.4z"/>
	
		<line fill="none" stroke="#FFFFFF" stroke-linecap="round" stroke-linejoin="round" stroke-miterlimit="10" x1="24.6" y1="25.8" x2="7.4" y2="25.8"/>
	
		<line fill="none" stroke="#FFFFFF" stroke-linecap="round" stroke-linejoin="round" stroke-miterlimit="10" x1="24.6" y1="6" x2="7.4" y2="6"/>
	
		<line fill="none" stroke="#FFFFFF" stroke-linecap="round" stroke-linejoin="round" stroke-miterlimit="10" x1="12.7" y1="3.3" x2="19.3" y2="3.3"/>
	<path fill="none" stroke="#FFFFFF" stroke-linejoin="round" stroke-miterlimit="10" d="M16,29.1c-0.3,0-0.7-0.2-0.7-0.7l0,0
		c0-0.4,0.3-0.7,0.7-0.7l0,0c0.4,0,0.7,0.3,0.7,0.7l0,0C16.7,28.8,16.4,29.1,16,29.1L16,29.1z"/>
</g>
</svg>
