<?xml version="1.0" encoding="utf-8"?>
<!-- Generator: Adobe Illustrator 19.2.0, SVG Export Plug-In . SVG Version: 6.00 Build 0)  -->
<svg version="1.1" baseProfile="tiny" id="Layer_1" xmlns="http://www.w3.org/2000/svg" xmlns:xlink="http://www.w3.org/1999/xlink"
	 x="0px" y="0px" viewBox="0 0 32 32" xml:space="preserve">
<g>
	<g>
		<path fill="#FFFFFF" d="M10.4,29.2c-6.9,0-9.5-3.4-10.2-4.5c-0.2-0.3-0.2-0.7,0-1c0.2-0.3,0.5-0.5,0.8-0.5c1.8,0,4-0.2,5.5-0.5
			c-1.4-0.9-3.3-2.5-3.1-5c-0.7-0.7-2.2-2.6-2-5.7C1.1,11-0.2,5.7,4,2.9c0.2-0.1,0.3-0.2,0.5-0.2c0.4,0,0.7,0.2,0.9,0.6
			c0.3,0.7,2.2,4.3,8.9,5.9c0.3-1.5,1.3-4.6,4.8-5.6c0.8-0.3,1.7-0.4,2.4-0.4c2.3,0,3.7,1.1,4.2,1.7c0.5,0,1.7,0,3.3-1
			c0.4-0.2,1-0.1,1.3,0.3c0.2,0.3,0.2,0.6,0.1,0.9L30,6.5l0.7-0.2c0.4-0.1,0.8,0.1,1,0.4C32,6.9,32,7.3,31.9,7.6
			c-0.2,0.7-0.9,2.1-2.6,3.3l-0.1,0.1c-0.1,0.1-0.6,0.6-0.5,2.6c0.2,2.8-3,13.7-14.6,15.5C12.8,29.1,11.6,29.2,10.4,29.2L10.4,29.2z
			 M2.1,24.7c1.1,1.2,3.5,3,8.3,3c1.1,0,2.3-0.1,3.5-0.3c10.5-1.6,13.5-11.5,13.3-13.8c-0.2-2.9,0.8-3.8,1.3-4C29.2,9,29.7,8.5,30,8
			l-0.6,0.1c-0.4,0.1-0.8-0.1-1-0.4c-0.2-0.3-0.2-0.6-0.1-0.9L28.6,6c-1.1,0.5-2.1,0.6-2.7,0.6c-0.2,0-0.4,0-0.5,0
			c-0.2,0-0.5-0.2-0.6-0.3c-0.2-0.2-1.2-1.3-3.2-1.3c-0.6,0-1.3,0.1-2,0.3c-3.1,0.9-3.7,4-3.8,4.9c-0.1,0.5-0.5,0.9-1,0.9l-0.2,0
			C7.9,9.4,5.3,6.2,4.4,4.6c-2.9,2.4-1.6,6.7-1.5,7.2c0,0.1,0.1,0.3,0,0.4c-0.3,2.8,1.3,4.4,1.6,4.7c0.2,0.2,0.4,0.5,0.3,0.8
			C4.6,20,7.2,21.5,8.3,22c0.3,0.2,0.6,0.5,0.6,0.9c0,0.4-0.2,0.7-0.5,0.9C6.9,24.4,4,24.7,2.1,24.7L2.1,24.7z"/>
	</g>
</g>
</svg>
