<?xml version="1.0" encoding="utf-8"?>
<!-- Generator: Adobe Illustrator 19.2.0, SVG Export Plug-In . SVG Version: 6.00 Build 0)  -->
<svg version="1.1" baseProfile="tiny" id="Layer_1" xmlns="http://www.w3.org/2000/svg" xmlns:xlink="http://www.w3.org/1999/xlink"
	 x="0px" y="0px" viewBox="0 0 32 32" xml:space="preserve">
<g>
	<g>
		<path fill="#FFFFFF" d="M29.7,30.9h-6.7c0.2-0.7,0.3-1.4,0.3-2.2c0-4-3-7.2-6.8-7.5v-9.8l10.8-5.1c0.2-0.1,0.3-0.3,0.3-0.5
			c0-0.2-0.1-0.4-0.3-0.5L16.2,0.1C16,0,15.8,0,15.6,0.1c-0.2,0.1-0.3,0.3-0.3,0.5v10.5c0,0,0,0.1,0,0.1v10
			c-3.7,0.3-6.6,3.6-6.6,7.5c0,0.8,0.1,1.5,0.3,2.2H2.3c-0.3,0-0.6,0.3-0.6,0.6C1.7,31.7,2,32,2.3,32h27.4c0.3,0,0.6-0.3,0.6-0.6
			C30.3,31.1,30,30.9,29.7,30.9L29.7,30.9z M16.5,1.5l9.2,4.4l-9.2,4.4V1.5z M16,22.3c3.4,0,6.1,2.9,6.1,6.4c0,0.7-0.1,1.4-0.4,2.1
			H10.2c-0.2-0.7-0.4-1.4-0.4-2.1C9.9,25.2,12.6,22.3,16,22.3L16,22.3z"/>
	</g>
</g>
</svg>
