<?xml version="1.0" encoding="utf-8"?>
<!-- Generator: Adobe Illustrator 19.2.0, SVG Export Plug-In . SVG Version: 6.00 Build 0)  -->
<svg version="1.1" baseProfile="tiny" id="Layer_1" xmlns="http://www.w3.org/2000/svg" xmlns:xlink="http://www.w3.org/1999/xlink"
	 x="0px" y="0px" viewBox="0 0 32 32" xml:space="preserve">
<g>
	<path fill="#7D7D7D" d="M14.3,2.1C6.6,2.1,0.4,8.3,0.4,16s6.2,13.8,13.8,13.8c7.6,0,13.8-6.2,13.8-13.8S21.9,2.1,14.3,2.1z
		 M27.6,16c0,0.5,0,0.9-0.1,1.4L25.2,17c0-0.4,0.1-0.7,0.1-1.1c0-0.3,0-0.7,0-1l2.4-0.3C27.6,15.1,27.6,15.5,27.6,16z M1,16
		c0-0.5,0-0.9,0.1-1.3l2.4,0.3c0,0.3-0.1,0.7-0.1,1.1c0,0.4,0,0.7,0.1,1.1L1,17.3C1,16.9,1,16.4,1,16z M24.6,12.4l2.2-0.8
		c0.3,0.8,0.5,1.7,0.6,2.6l-2.3,0.3C25,13.7,24.8,13,24.6,12.4z M24.7,16c0,0.7-0.1,1.4-0.2,2l-2.3-0.5c0.1-0.5,0.1-1,0.1-1.5
		c0-0.5-0.1-1-0.2-1.5l2.3-0.5C24.6,14.6,24.7,15.3,24.7,16z M14.3,23.4c-4.1,0-7.5-3.3-7.5-7.5s3.3-7.5,7.5-7.5
		c4.1,0,7.5,3.3,7.5,7.5S18.4,23.4,14.3,23.4z M14.5,26.4l0-2.4c1.1,0,2.1-0.3,3-0.7l1,2.2C17.3,26,16,26.3,14.5,26.4z M10,25.4
		l1-2.1c0.9,0.4,1.9,0.7,3,0.7l0,2.4C12.6,26.3,11.2,26,10,25.4z M3.9,16c0-0.7,0.1-1.4,0.2-2.1l2.3,0.5c-0.1,0.5-0.2,1-0.2,1.6
		c0,0.5,0,1,0.1,1.5L4.1,18C4,17.3,3.9,16.6,3.9,16z M14,5.6V8c-1,0-2,0.3-2.9,0.7l-1-2.2C11.3,5.9,12.6,5.6,14,5.6z M18.5,6.5
		l-1,2.1c-0.9-0.4-1.9-0.6-3-0.7V5.6C16,5.6,17.3,5.9,18.5,6.5z M24.4,11.9c-0.3-0.6-0.6-1.3-1-1.8l2-1.3c0.5,0.7,0.9,1.5,1.2,2.4
		L24.4,11.9z M24.3,13.4L22,13.9c-0.3-1-0.7-1.9-1.3-2.7l1.9-1.5C23.4,10.8,24,12,24.3,13.4z M20.3,10.8C19.7,10,18.9,9.4,18,8.9
		l1-2.1c1.2,0.6,2.3,1.5,3.2,2.5L20.3,10.8z M19.7,6.5l1.1-2.1c0.8,0.4,1.5,0.9,2.2,1.5l-1.6,1.8C20.8,7.2,20.3,6.8,19.7,6.5z
		 M19.2,6.2c-0.6-0.3-1.3-0.6-2-0.8l0.6-2.3c0.9,0.2,1.7,0.6,2.5,1L19.2,6.2z M16.7,5.3C16,5.2,15.3,5.1,14.6,5V2.7
		c0.9,0,1.8,0.1,2.7,0.3L16.7,5.3z M14,5c-0.7,0-1.4,0.1-2.1,0.2L11.4,3c0.9-0.2,1.7-0.3,2.6-0.3V5z M11.4,5.4
		c-0.7,0.2-1.3,0.4-2,0.7L8.4,4.1c0.8-0.4,1.6-0.7,2.5-0.9L11.4,5.4z M9,6.4C8.4,6.7,7.8,7.1,7.3,7.6L5.7,5.8
		c0.7-0.6,1.4-1.1,2.2-1.5L9,6.4z M9.6,6.7l1,2.2C9.7,9.3,8.9,10,8.2,10.7L6.4,9.3C7.2,8.2,8.3,7.4,9.6,6.7z M6,9.7l1.9,1.5
		c-0.6,0.8-1.1,1.7-1.3,2.7l-2.3-0.5C4.6,12,5.2,10.8,6,9.7z M4.2,11.8L2,11c0.3-0.8,0.8-1.6,1.2-2.4L5.1,10
		C4.8,10.6,4.4,11.2,4.2,11.8z M4,12.3c-0.2,0.7-0.4,1.3-0.5,2l-2.3-0.3c0.1-0.9,0.3-1.8,0.6-2.6L4,12.3z M3.5,17.6
		c0.1,0.7,0.3,1.4,0.5,2l-2.2,0.8c-0.3-0.8-0.5-1.7-0.6-2.6L3.5,17.6z M4.2,20.1c0.3,0.7,0.6,1.3,1,1.9l-1.9,1.3
		c-0.5-0.7-0.9-1.5-1.2-2.4L4.2,20.1z M4.2,18.5L6.5,18c0.3,1,0.7,1.9,1.3,2.7L6,22.2C5.1,21.1,4.5,19.8,4.2,18.5z M8.2,21.1
		c0.7,0.8,1.5,1.4,2.4,1.9l-1,2.1c-1.2-0.6-2.3-1.5-3.2-2.6L8.2,21.1z M9,25.5l-1.1,2.1c-0.8-0.4-1.5-0.9-2.2-1.5l1.6-1.8
		C7.8,24.8,8.4,25.2,9,25.5z M9.5,25.8c0.6,0.3,1.3,0.6,2,0.7l-0.6,2.3c-0.9-0.2-1.7-0.6-2.5-0.9L9.5,25.8z M12,26.6
		c0.7,0.1,1.4,0.2,2.1,0.2l0,2.4c-0.9,0-1.8-0.1-2.6-0.3L12,26.6z M14.6,26.9c0.7,0,1.4-0.1,2.1-0.3l0.6,2.3
		c-0.9,0.2-1.7,0.3-2.6,0.3L14.6,26.9z M17.2,26.5c0.7-0.2,1.3-0.4,2-0.7l1.1,2.1c-0.8,0.4-1.6,0.7-2.5,0.9L17.2,26.5z M19.6,25.5
		c0.6-0.3,1.2-0.7,1.7-1.2l1.6,1.8c-0.7,0.6-1.4,1.1-2.2,1.5L19.6,25.5z M19,25.2l-1-2.2c0.9-0.5,1.7-1.1,2.4-1.9l1.9,1.5
		C21.4,23.7,20.3,24.6,19,25.2z M22.6,22.2l-1.9-1.5c0.6-0.8,1.1-1.7,1.3-2.7l2.3,0.5C24,19.9,23.4,21.1,22.6,22.2z M24.4,20.1
		l2.2,0.8c-0.3,0.8-0.8,1.6-1.2,2.3L23.4,22C23.8,21.4,24.1,20.8,24.4,20.1z M24.6,19.6c0.2-0.6,0.4-1.3,0.5-2l2.3,0.3
		c-0.1,0.9-0.3,1.8-0.6,2.6L24.6,19.6z M25.1,8.2l-1.9,1.3C22.7,9,22.3,8.5,21.8,8l1.6-1.8C24,6.9,24.6,7.5,25.1,8.2z M5.3,6.2
		L6.9,8c-0.5,0.5-1,1-1.4,1.6L3.5,8.2C4,7.5,4.6,6.8,5.3,6.2z M3.5,23.8l1.9-1.3C5.9,23,6.3,23.5,6.9,24l-1.6,1.8
		C4.6,25.1,4,24.5,3.5,23.8z M23.3,25.7L21.7,24c0.5-0.5,1-1,1.4-1.6l1.9,1.3C24.5,24.5,23.9,25.1,23.3,25.7z"/>
	<g>
		<path fill="#7D7D7D" d="M24.5,26.5h2.7v0.6h-1v2.7h-0.7v-2.7h-1C24.5,27.1,24.5,26.5,24.5,26.5z M31.6,26.5v3.3h-0.7v-2.5l-1,2.5
			h-0.5l-1-2.5v2.5h-0.7v-3.3h1.1l0.9,2.2l0.9-2.2H31.6z"/>
	</g>
</g>
</svg>
