<?xml version="1.0" encoding="utf-8"?>
<!-- Generator: Adobe Illustrator 19.2.0, SVG Export Plug-In . SVG Version: 6.00 Build 0)  -->
<svg version="1.1" baseProfile="tiny" id="Layer_1" xmlns="http://www.w3.org/2000/svg" xmlns:xlink="http://www.w3.org/1999/xlink"
	 x="0px" y="0px" viewBox="0 0 32 32" xml:space="preserve">
<path fill="#FFFFFF" d="M31.3,20.4h0.2c0.1,0,0.1,0,0.1,0.1c0,0,0,0.1,0,0.1c0,0.1,0,0.1-0.1,0.1l0.1,0.2h-0.1l-0.1-0.1h-0.1v0.1
	h-0.1V20.4z M31.5,20.6C31.5,20.6,31.6,20.6,31.5,20.6c0.1-0.1,0-0.1,0-0.1h-0.1v0.1L31.5,20.6L31.5,20.6z"/>
<path fill="#FFFFFF" d="M31.5,21.1c-0.3,0-0.5-0.2-0.5-0.5c0-0.3,0.2-0.5,0.5-0.5s0.5,0.2,0.5,0.5C32,20.9,31.8,21.1,31.5,21.1z
	 M31.5,20.1c-0.3,0-0.5,0.2-0.5,0.5c0,0.3,0.2,0.5,0.5,0.5s0.5-0.2,0.5-0.5C31.9,20.3,31.7,20.1,31.5,20.1z M4.1,20.8l-3.7-9.7h2.3
	l2.7,7.4l2.7-7.4h2.3l-3.7,9.7H4.1z M11.7,19.5l1.1-1.6c0.7,0.7,1.7,1.3,3.1,1.3c1.1,0,1.7-0.5,1.7-1.1c0-1.7-5.6-0.5-5.6-4.1
	c0-1.6,1.4-2.9,3.7-2.9c1.5,0,2.8,0.5,3.8,1.4l-1.1,1.5c-0.8-0.7-1.8-1.1-2.8-1.1c-0.9,0-1.4,0.4-1.4,1c0,1.5,5.5,0.5,5.5,4.1
	c0,1.8-1.3,3.1-3.9,3.1C13.9,21,12.6,20.4,11.7,19.5z"/>
<g>
	<path fill="#FFFFFF" d="M27.9,15.6c-0.6,0-1,0.5-1,1.1v0c0,0.6,0.4,1.1,1,1.1c0.6,0,1-0.5,1-1.1v0C28.9,16.1,28.5,15.6,27.9,15.6z"
		/>
	<path fill="#FFFFFF" d="M26.7,10.9c-2.8,0-5.1,2.3-5.1,5.1s2.3,5.1,5.1,5.1s5.1-2.3,5.1-5.1C31.8,13.2,29.5,10.9,26.7,10.9z
		 M29.7,16.7c0,1-0.8,1.8-1.8,1.8c-1,0-1.7-0.6-1.8-1.5c-0.2,0.1-0.4,0.1-0.6,0.1c-1,0-1.8-0.8-1.8-1.8v0c0-1,0.7-1.8,1.8-1.8
		c0.6,0,1,0.2,1.4,0.5l-0.5,0.5c-0.3-0.2-0.5-0.4-0.9-0.4c-0.6,0-1,0.5-1,1.1v0c0,0.6,0.4,1.1,1,1.1c0.3,0,0.5-0.1,0.7-0.2
		c0.2-0.7,0.9-1.2,1.7-1.2C29,14.9,29.7,15.7,29.7,16.7L29.7,16.7z"/>
</g>
</svg>
