<?xml version="1.0" encoding="utf-8"?>
<!-- Generator: Adobe Illustrator 19.2.0, SVG Export Plug-In . SVG Version: 6.00 Build 0)  -->
<svg version="1.1" baseProfile="tiny" id="Layer_1" xmlns="http://www.w3.org/2000/svg" xmlns:xlink="http://www.w3.org/1999/xlink"
	 x="0px" y="0px" viewBox="0 0 32 32" xml:space="preserve">
<path fill="#F07E0D" stroke="#F07E0D" stroke-width="0.5" stroke-miterlimit="10" d="M16.1,0.3c-8.7,0-15.8,7-15.8,15.8
	s7,15.7,15.7,15.7s15.7-7,15.7-15.7S24.7,0.3,16.1,0.3z M31.2,16.1c0,0.6,0,1-0.1,1.6l-2.6-0.5c0-0.5,0.1-0.8,0.1-1.2
	c0-0.3,0-0.8,0-1.1l2.7-0.3C31.2,15,31.2,15.5,31.2,16.1z M1,16.1c0-0.6,0-1,0.1-1.5l2.7,0.3c0,0.3-0.1,0.8-0.1,1.2
	c0,0.5,0,0.8,0.1,1.2L1,17.5C1,17.1,1,16.5,1,16.1z M27.8,12l2.5-0.9c0.3,0.9,0.6,1.9,0.7,3l-2.6,0.3C28.3,13.4,28,12.7,27.8,12z
	 M27.9,16.1c0,0.8-0.1,1.6-0.2,2.3l-2.6-0.6c0.1-0.6,0.1-1.1,0.1-1.7c0-0.6-0.1-1.1-0.2-1.7l2.6-0.6C27.8,14.5,27.9,15.3,27.9,16.1z
	 M16.1,24.5c-4.7,0-8.5-3.7-8.5-8.5s3.7-8.5,8.5-8.5c4.7,0,8.5,3.7,8.5,8.5S20.8,24.5,16.1,24.5z M16.3,27.9v-2.7
	c1.2,0,2.4-0.3,3.4-0.8l1.1,2.5C19.5,27.4,18,27.8,16.3,27.9z M11.2,26.7l1.1-2.4c1,0.5,2.2,0.8,3.4,0.8v2.7
	C14.2,27.8,12.6,27.4,11.2,26.7z M4.3,16.1c0-0.8,0.1-1.6,0.2-2.4l2.6,0.6c-0.1,0.6-0.2,1.1-0.2,1.8c0,0.6,0,1.1,0.1,1.7l-2.5,0.6
	C4.4,17.5,4.3,16.7,4.3,16.1z M15.8,4.3V7c-1.1,0-2.3,0.3-3.3,0.8l-1.1-2.5C12.7,4.6,14.2,4.3,15.8,4.3z M20.9,5.3l-1.1,2.4
	c-1-0.5-2.2-0.7-3.4-0.8V4.3C18,4.3,19.5,4.6,20.9,5.3z M27.6,11.4c-0.3-0.7-0.7-1.5-1.1-2l2.3-1.5c0.6,0.8,1,1.7,1.4,2.7L27.6,11.4
	z M27.5,13.1l-2.6,0.6c-0.3-1.1-0.8-2.2-1.5-3.1l2.2-1.7C26.4,10.2,27.1,11.5,27.5,13.1z M22.9,10.2c-0.7-0.9-1.6-1.6-2.6-2.2
	l1.1-2.4c1.4,0.7,2.6,1.7,3.6,2.8L22.9,10.2z M22.2,5.3l1.2-2.4c0.9,0.5,1.7,1,2.5,1.7l-1.8,2C23.5,6.1,22.9,5.6,22.2,5.3z
	 M21.7,4.9C21,4.6,20.2,4.3,19.4,4l0.7-2.6c1,0.2,1.9,0.7,2.8,1.1L21.7,4.9z M18.8,3.9c-0.8-0.1-1.6-0.2-2.4-0.3V1
	c1,0,2,0.1,3.1,0.3L18.8,3.9z M15.8,3.6c-0.8,0-1.6,0.1-2.4,0.2l-0.6-2.5c1-0.2,1.9-0.3,3-0.3V3.6z M12.8,4
	c-0.8,0.2-1.5,0.5-2.3,0.8L9.4,2.5c0.9-0.5,1.8-0.8,2.8-1L12.8,4z M10.1,5.2C9.4,5.5,8.7,6,8.2,6.5l-1.8-2c0.8-0.7,1.6-1.2,2.5-1.7
	L10.1,5.2z M10.8,5.5L11.9,8c-1,0.5-1.9,1.2-2.7,2l-2-1.6C8.1,7.2,9.3,6.3,10.8,5.5z M6.7,8.9l2.2,1.7c-0.7,0.9-1.2,1.9-1.5,3.1
	l-2.6-0.6C5.1,11.5,5.8,10.2,6.7,8.9z M4.6,11.3l-2.5-0.9c0.3-0.9,0.9-1.8,1.4-2.7l2.2,1.6C5.3,9.9,4.9,10.6,4.6,11.3z M4.4,11.9
	c-0.2,0.8-0.5,1.5-0.6,2.3l-2.6-0.3c0.1-1,0.3-2,0.7-3L4.4,11.9z M3.9,17.9c0.1,0.8,0.3,1.6,0.6,2.3l-2.5,0.9
	c-0.3-0.9-0.6-1.9-0.7-3L3.9,17.9z M4.6,20.7c0.3,0.8,0.7,1.5,1.1,2.2l-2.2,1.5c-0.6-0.8-1-1.7-1.4-2.7L4.6,20.7z M4.6,18.9l2.6-0.6
	c0.3,1.1,0.8,2.2,1.5,3.1l-2,1.7C5.7,21.8,5,20.4,4.6,18.9z M9.2,21.8c0.8,0.9,1.7,1.6,2.7,2.2l-1.1,2.4c-1.4-0.7-2.6-1.7-3.6-3
	L9.2,21.8z M10.1,26.8l-1.2,2.4c-0.9-0.5-1.7-1-2.5-1.7l1.8-2C8.7,26,9.4,26.5,10.1,26.8z M10.7,27.2c0.7,0.3,1.5,0.7,2.3,0.8
	l-0.7,2.6c-1-0.2-1.9-0.7-2.8-1L10.7,27.2z M13.5,28.1c0.8,0.1,1.6,0.2,2.4,0.2V31c-1,0-2-0.1-3-0.3L13.5,28.1z M16.5,28.4
	c0.8,0,1.6-0.1,2.4-0.3l0.7,2.6c-1,0.2-1.9,0.3-3,0.3L16.5,28.4z M19.4,28c0.8-0.2,1.5-0.5,2.3-0.8l1.2,2.4c-0.9,0.5-1.8,0.8-2.8,1
	L19.4,28z M22.1,26.8c0.7-0.3,1.4-0.8,1.9-1.4l1.8,2c-0.8,0.7-1.6,1.2-2.5,1.7L22.1,26.8z M21.4,26.5L20.3,24c1-0.6,1.9-1.2,2.7-2.2
	l2.2,1.7C24.2,24.8,22.9,25.8,21.4,26.5z M25.5,23.1l-2.2-1.7c0.7-0.9,1.2-1.9,1.5-3.1l2.6,0.6C27.1,20.5,26.4,21.8,25.5,23.1z
	 M27.6,20.7l2.5,0.9c-0.3,0.9-0.9,1.8-1.4,2.6l-2.3-1.4C26.9,22.2,27.2,21.5,27.6,20.7z M27.8,20.1c0.2-0.7,0.5-1.5,0.6-2.3l2.6,0.3
	c-0.1,1-0.3,2-0.7,3L27.8,20.1z M28.4,7.2l-2.2,1.5c-0.6-0.6-1-1.1-1.6-1.7l1.8-2C27.1,5.7,27.8,6.4,28.4,7.2z M5.9,4.9l1.8,2
	C7.1,7.5,6.6,8.1,6.1,8.8L3.9,7.2C4.4,6.4,5.1,5.6,5.9,4.9z M3.9,24.9L6,23.4c0.6,0.6,1,1.1,1.7,1.7l-1.8,2
	C5.1,26.4,4.4,25.7,3.9,24.9z M26.3,27.1l-1.8-1.9c0.6-0.6,1.1-1.1,1.6-1.8l2.2,1.5C27.7,25.7,27,26.4,26.3,27.1z"/>
<g>
	<path fill="#F07E0D" d="M25.7,29.1h2.4v0.5h-0.9V32h-0.6v-2.4h-0.9V29.1z M32,29.1V32h-0.6v-2.2L30.5,32H30l-0.9-2.2V32h-0.6v-2.9
		h1l0.8,1.9l0.8-1.9H32z"/>
</g>
</svg>
