<?xml version="1.0" encoding="utf-8"?>
<!-- Generator: Adobe Illustrator 19.2.0, SVG Export Plug-In . SVG Version: 6.00 Build 0)  -->
<svg version="1.1" baseProfile="tiny" id="Layer_1" xmlns="http://www.w3.org/2000/svg" xmlns:xlink="http://www.w3.org/1999/xlink"
	 x="0px" y="0px" viewBox="0 0 32 32" xml:space="preserve">
<path fill="none" stroke="#FFFFFF" stroke-width="2" d="M15.9,1.1C7.7,1.1,1,7.9,1.1,16.1c0,8.2,6.8,14.9,15,14.8s14.9-6.8,14.8-15
	c0-8.1-6.7-14.8-14.8-14.8H15.9z M16,1.1v29.8 M30.9,16H1.1 M4.5,6.9c7,5,16.2,5,23.2,0 M27.5,25.1c-7-5-16.2-5-23.2,0 M14.8,1.5
	c-8,6.9-9.1,18.9-2.3,26.9c0.7,0.8,1.5,1.6,2.3,2.3 M17.2,30.7c8-6.9,9.1-18.9,2.3-26.9C18.8,3,18,2.2,17.2,1.5"/>
</svg>
