<?xml version="1.0" encoding="utf-8"?>
<!-- Generator: Adobe Illustrator 19.2.0, SVG Export Plug-In . SVG Version: 6.00 Build 0)  -->
<svg version="1.1" baseProfile="tiny" id="Layer_1" xmlns="http://www.w3.org/2000/svg" xmlns:xlink="http://www.w3.org/1999/xlink"
	 x="0px" y="0px" viewBox="0 0 32 32" xml:space="preserve">
<path fill="none" stroke="#EF800E" d="M15.9,1C7.6,1,0.9,7.8,1,16.1c0,8.3,6.8,15,15.1,14.9s15-6.8,14.9-15.1C31,7.7,24.3,1,16.1,1
	H15.9z M16,1V31 M31,16H1 M4.4,6.8c7,5,16.3,5,23.3,0 M27.6,25.2c-7-5-16.3-5-23.3,0 M14.8,1.4c-8.1,6.9-9.2,19-2.3,27.1
	c0.7,0.8,1.5,1.6,2.3,2.3 M17.2,30.8c8.1-6.9,9.2-19,2.3-27.1c-0.7-0.8-1.5-1.6-2.3-2.3"/>
</svg>
