<?xml version="1.0" encoding="utf-8"?>
<!-- Generator: Adobe Illustrator 16.0.0, SVG Export Plug-In . SVG Version: 6.00 Build 0)  -->
<!DOCTYPE svg PUBLIC "-//W3C//DTD SVG 1.1//EN" "http://www.w3.org/Graphics/SVG/1.1/DTD/svg11.dtd">
<svg version="1.1" id="Layer_1" xmlns="http://www.w3.org/2000/svg" xmlns:xlink="http://www.w3.org/1999/xlink" x="0px" y="0px"
	 width="323.191px" height="48.764px" viewBox="84.701 2.166 323.191 48.764" enable-background="new 84.701 2.166 323.191 48.764"
	 xml:space="preserve">
<g>
	<path d="M27.747,7.417c0,0,7.936,3.122,9.606-0.112c0,0,1.158-2.089-0.399-3.728c0,0-1.457-1.408,0-2.186
		c0,0,9.457-4.539,6.994,5.993c0,0-0.545,1.839,0.157,1.999c0,0,0.731,0.46,5.723-1.356c0,0,1.749-0.486,2.308,0.729
		c0,0,3.157,8.432-0.116,7.429c0,0-1.113-0.414-2.03-0.782c0,0-6.118-2.594-5.96,2.589c0,0,0.322,4.212,3.892,3.888
		c0,0,1.428-0.162,2.945-0.972c0,0,1.507-0.89,1.982,0.565c0,0,1.429,6.485,0.399,9.716c0,0-0.159,1.138-1.43,1.299
		c0,0-10.132,1.086-9.378-4.211c0,0,0.881-3.694-1.737-3.463c0,0-3.598,0.411-2.71,3.304c0,0,0.554,1.539,0.713,1.778
		c0,0,0.917,1.521-1.985,2.187c0,0-6.404,0.87-9.11-0.106c-1.187-0.457-0.118-2.125-0.257-3.773c0,0-0.026-2.97-0.717-6.491
		c-0.409-2.178-2.137-0.75-2.355-0.777c-3.896,2.079-5.37-0.153-5.612-0.543c-1.398-1.814-1.134-4.605,0.11-5.263
		c2.189-1.542,5.592,0.499,7.394,0.89c0.989-0.079,0.937-0.856,0.993-1.282c0.135-0.904-0.524-3.443-0.891-5.015
		C26.274,9.724,25.062,6.547,27.747,7.417"/>
	<path fill="#F17B22" d="M3.537,6.808c0,0,5.751,3.558,7.453,0.316c0,0,1.181-2.078-0.405-3.721c0,0-1.488-1.407,0-2.19
		c0,0,9.639-4.532,7.124,5.999c0,0-0.558,1.841,0.161,2c0,0,0.744,0.456,5.837-1.356c0,0,1.781-0.484,2.351,0.731
		c0,0,3.213,8.43-0.124,7.427c0,0-1.126-0.412-2.066-0.784c0,0-6.236-2.591-6.073,2.592c0,0,0.324,4.21,3.967,3.885
		c0,0,1.456-0.161,2.996-0.969c0,0,1.539-0.891,2.026,0.563c0,0,1.459,6.483,0.405,9.719c0,0-0.159,1.138-1.455,1.295
		c0,0-10.33,1.084-9.559-4.209c0,0,0.897-3.694-1.771-3.461c0,0-3.675,0.41-2.765,3.301c0,0,0.563,1.539,0.728,1.777
		c0,0,0.931,1.522-2.025,2.188c0,0-9.154,2.353-9.399-5.506c0,0-0.728-8.828,2.025-8.424c0,0,1.01,0.013,2.43,1.297
		c0,0,2.95,2.357,3.742-2.056c0,0,0.554-3.693-2.2-3.048c0,0-6.643,3.321-5.998-2.917C0.942,11.257,1.431,5.917,3.537,6.808"/>
</g>
<g>
	<path d="M87.862,10.229c0,0.887-0.722,1.58-1.581,1.58c-0.859,0-1.58-0.693-1.58-1.58c0-0.859,0.72-1.581,1.58-1.581
		C87.141,8.648,87.862,9.371,87.862,10.229 M87.391,28.161h-2.217V15.136h2.217V28.161z"/>
	<path d="M105.318,16.715h0.055c0.914-1.248,2.106-1.942,3.713-1.942c3.604,0,4.435,2.605,4.435,5.655v7.731h-2.217v-7.342
		c0-2.107-0.167-3.991-2.744-3.991c-3.049,0-3.243,2.825-3.243,5.154v6.179h-2.219V15.135h2.219L105.318,16.715L105.318,16.715z"/>
	<path d="M138.485,26.36h-0.055c-1.08,1.412-2.716,2.164-4.49,2.164c-3.824,0-6.237-3.245-6.237-6.849
		c0-3.711,2.357-6.903,6.265-6.903c1.745,0,3.41,0.833,4.461,2.219h0.055V5.295h2.219v22.866h-2.219L138.485,26.36L138.485,26.36z
		 M129.977,21.512c0,2.549,1.497,4.958,4.269,4.958c2.856,0,4.352-2.299,4.352-4.931c0-2.606-1.636-4.713-4.38-4.713
		C131.641,16.826,129.977,19.07,129.977,21.512"/>
	<path d="M157.989,16.548h0.055c0.777-1.024,1.442-1.775,2.882-1.775c0.75,0,1.358,0.252,1.997,0.611l-1.053,2.023
		c-0.444-0.305-0.748-0.582-1.33-0.582c-2.44,0-2.551,3.13-2.551,4.823v6.513h-2.216V15.135h2.216V16.548z"/>
	<path d="M178.299,22.396c0,2.189,0.249,4.075,2.938,4.075c2.688,0,2.938-1.886,2.938-4.075v-7.26h2.217v7.509
		c0,3.466-1.302,5.876-5.156,5.876s-5.153-2.411-5.153-5.876v-7.509h2.216V22.396z"/>
	<polygon points="203.624,19.957 208.363,15.135 211.328,15.135 205.758,20.678 212.383,28.159 209.441,28.159 204.205,22.229 
		203.624,22.812 203.624,28.159 201.406,28.159 201.406,5.295 203.624,5.295 	"/>
	<polygon fill="#F17B22" points="230.452,23.948 234.497,14.136 238.57,23.948 242.451,15.135 244.977,15.135 238.518,29.075 
		234.497,19.374 230.48,29.075 224.076,15.135 226.602,15.135 	"/>
	<path fill="#F17B22" d="M259.35,22.118c0.029,2.413,1.748,4.352,4.269,4.352c1.887,0,3.106-1.136,3.965-2.687l1.886,1.079
		c-1.248,2.33-3.355,3.66-6.016,3.66c-3.879,0-6.376-2.965-6.376-6.706c0-3.853,2.247-7.042,6.321-7.042
		c4.185,0,6.402,3.467,6.18,7.344H259.35z M267.251,20.236c-0.306-1.885-1.886-3.41-3.825-3.41c-1.914,0-3.688,1.525-3.965,3.41
		H267.251z"/>
	<polygon fill="#F17B22" points="285.811,19.957 290.551,15.135 293.518,15.135 287.943,20.678 294.568,28.159 291.632,28.159 
		286.395,22.229 285.811,22.812 285.811,28.159 283.596,28.159 283.596,5.295 285.811,5.295 	"/>
	<polygon fill="#F17B22" points="309.917,19.957 314.655,15.135 317.621,15.135 312.051,20.678 318.675,28.159 315.736,28.159 
		310.498,22.229 309.917,22.812 309.917,28.159 307.699,28.159 307.699,5.295 309.917,5.295 	"/>
	<path fill="#F17B22" d="M333.025,22.118c0.025,2.413,1.743,4.352,4.266,4.352c1.886,0,3.105-1.136,3.966-2.687l1.884,1.079
		c-1.248,2.33-3.354,3.66-6.015,3.66c-3.88,0-6.375-2.965-6.375-6.706c0-3.853,2.244-7.042,6.317-7.042
		c4.188,0,6.403,3.467,6.183,7.344H333.025z M340.921,20.236c-0.304-1.885-1.883-3.41-3.821-3.41c-1.915,0-3.688,1.525-3.964,3.41
		H340.921z"/>
	<path fill="#F17B22" d="M359.596,16.715h0.056c0.914-1.248,2.106-1.942,3.715-1.942c3.603,0,4.435,2.605,4.435,5.655v7.731h-2.218
		v-7.342c0-2.107-0.167-3.991-2.743-3.991c-3.049,0-3.243,2.825-3.243,5.154v6.179h-2.217V15.135h2.217L359.596,16.715
		L359.596,16.715z"/>
	<path fill="#F17B22" d="M392.764,26.36h-0.055c-1.083,1.412-2.717,2.164-4.493,2.164c-3.822,0-6.232-3.245-6.232-6.849
		c0-3.711,2.354-6.903,6.265-6.903c1.745,0,3.407,0.833,4.462,2.219h0.055V5.295h2.218v22.866h-2.218L392.764,26.36L392.764,26.36z
		 M384.254,21.512c0,2.549,1.496,4.958,4.27,4.958c2.854,0,4.353-2.299,4.353-4.931c0-2.606-1.635-4.713-4.381-4.713
		C385.917,16.826,384.254,19.07,384.254,21.512"/>
	<rect x="201.493" y="42.626" fill="#8A8C8E" width="1.178" height="8.194"/>
	<polygon fill="#8A8C8E" points="218.072,50.82 217.062,50.82 211.584,44.512 211.584,50.82 210.479,50.82 210.479,42.626 
		211.414,42.626 216.966,48.971 216.966,42.626 218.072,42.626 	"/>
	<path fill="#8A8C8E" d="M242.205,44.452c-1.01-0.589-1.875-0.853-2.823-0.853c-1.875,0-3.271,1.332-3.271,3.135
		c0,1.84,1.348,3.113,3.316,3.113c0.928,0,1.936-0.326,2.861-0.927v1.285c-0.807,0.421-1.684,0.722-2.971,0.722
		c-3.073,0-4.42-2.365-4.42-4.085c0-2.5,1.887-4.325,4.494-4.325c0.84,0,1.692,0.205,2.812,0.672L242.205,44.452L242.205,44.452z"/>
	<path fill="#8A8C8E" d="M253.771,42.52c2.703,0,4.41,1.922,4.41,4.205c0,2.209-1.658,4.205-4.435,4.205
		c-2.681,0-4.373-1.984-4.373-4.205C249.375,44.452,251.116,42.52,253.771,42.52 M253.771,49.848c1.838,0,3.197-1.334,3.197-3.123
		c0-1.804-1.359-3.125-3.197-3.125c-1.826,0-3.184,1.321-3.184,3.125C250.589,48.514,251.945,49.848,253.771,49.848"/>
	<polygon fill="#8A8C8E" points="273.245,50.82 272.068,50.82 272.068,44.439 272.045,44.439 269.521,47.611 269.329,47.611 
		266.807,44.439 266.782,44.439 266.782,50.82 265.604,50.82 265.604,42.626 266.71,42.626 269.425,45.991 272.15,42.626 
		273.245,42.626 	"/>
	<polygon fill="#8A8C8E" points="288.634,50.82 287.456,50.82 287.456,44.439 287.434,44.439 284.909,47.611 284.716,47.611 
		282.193,44.439 282.171,44.439 282.171,50.82 280.992,50.82 280.992,42.626 282.096,42.626 284.812,45.991 287.541,42.626 
		288.634,42.626 	"/>
	<path fill="#8A8C8E" d="M303.29,47.602c0,2.006-1.203,3.328-3.642,3.328c-1.729,0-3.412-0.976-3.412-3.209v-5.095h1.177v4.843
		c0,0.924,0.12,1.311,0.493,1.682c0.469,0.47,1.057,0.697,1.767,0.697c0.9,0,1.55-0.287,1.923-0.662
		c0.422-0.42,0.518-1.021,0.518-1.789v-4.771h1.178L303.29,47.602L303.29,47.602z"/>
	<polygon fill="#8A8C8E" points="318.497,50.82 317.488,50.82 312.009,44.512 312.009,50.82 310.903,50.82 310.903,42.626 
		311.841,42.626 317.392,48.971 317.392,42.626 318.497,42.626 	"/>
	<rect x="326.316" y="42.626" fill="#8A8C8E" width="1.177" height="8.194"/>
	<path fill="#8A8C8E" d="M342.294,44.452c-1.01-0.589-1.874-0.853-2.823-0.853c-1.875,0-3.269,1.332-3.269,3.135
		c0,1.84,1.347,3.113,3.313,3.113c0.928,0,1.938-0.326,2.861-0.927v1.285c-0.806,0.421-1.682,0.722-2.967,0.722
		c-3.077,0-4.422-2.365-4.422-4.085c0-2.5,1.886-4.325,4.493-4.325c0.841,0,1.692,0.205,2.812,0.672L342.294,44.452L342.294,44.452z
		"/>
	<polygon fill="#8A8C8E" points="354.474,43.682 351.002,43.682 351.002,46.158 354.354,46.158 354.354,47.215 351.002,47.215 
		351.002,49.764 354.583,49.764 354.583,50.82 349.824,50.82 349.824,42.626 354.474,42.626 	"/>
	<path fill="#8A8C8E" d="M363.928,42.626c1.658,0,2.691,0.877,2.691,2.294c0,0.949-0.493,1.659-1.369,2.008
		c0.745,0.493,1.201,1.25,1.824,2.271c0.35,0.564,0.554,0.842,1.119,1.623h-1.405l-1.083-1.682
		c-1.081-1.684-1.573-1.877-2.173-1.877h-0.493v3.559h-1.178v-8.195L363.928,42.626L363.928,42.626z M363.039,46.207h0.757
		c1.262,0,1.621-0.648,1.609-1.334c-0.013-0.771-0.471-1.238-1.609-1.238h-0.757V46.207z"/>
	<polygon fill="#8A8C8E" points="379.748,43.682 376.276,43.682 376.276,46.158 379.629,46.158 379.629,47.215 376.276,47.215 
		376.276,49.764 379.856,49.764 379.856,50.82 375.099,50.82 375.099,42.626 379.748,42.626 	"/>
	<polygon fill="#8A8C8E" points="394.693,50.82 393.684,50.82 388.205,44.512 388.205,50.82 387.099,50.82 387.099,42.626 
		388.035,42.626 393.587,48.971 393.587,42.626 394.693,42.626 	"/>
	<path d="M404.76,3.388c0.765,0,1.242,0.406,1.242,1.061c0,0.438-0.226,0.766-0.633,0.927c0.245,0.18,0.428,0.589,0.556,0.93
		c0.128,0.34,0.239,0.629,0.345,0.868h-0.614c0,0-0.123-0.302-0.339-0.778c-0.28-0.621-0.465-0.865-0.74-0.865h-0.496v1.643h-0.543
		V3.388H404.76z M404.079,5.043h0.619c0.582,0,0.749-0.3,0.744-0.616c-0.009-0.354-0.218-0.572-0.744-0.572h-0.619V5.043z"/>
	<path d="M404.772,8.41c-1.723,0-3.123-1.4-3.123-3.123c0-1.72,1.4-3.121,3.123-3.121c1.721,0,3.12,1.4,3.12,3.121
		C407.894,7.01,406.493,8.41,404.772,8.41 M404.772,2.576c-1.497,0-2.715,1.216-2.715,2.711c0,1.496,1.218,2.713,2.715,2.713
		c1.494,0,2.712-1.217,2.712-2.713C407.484,3.792,406.268,2.576,404.772,2.576"/>
</g>
</svg>
