<?xml version="1.0" encoding="utf-8"?>
<!-- Generator: Adobe Illustrator 19.2.0, SVG Export Plug-In . SVG Version: 6.00 Build 0)  -->
<svg version="1.1" xmlns="http://www.w3.org/2000/svg" xmlns:xlink="http://www.w3.org/1999/xlink" x="0px" y="0px"
	 viewBox="0 0 31.9 30.1" style="enable-background:new 0 0 31.9 30.1;" xml:space="preserve">
<style type="text/css">
	.st0{fill:none;stroke:#FFFFFF;stroke-linecap:round;stroke-linejoin:round;stroke-miterlimit:10;}
	.st1{fill:none;stroke:#FFFFFF;stroke-linejoin:round;stroke-miterlimit:10;}
	.st2{fill:#FFFFFF;}
	.st3{fill:#EA5B27;}
	.st4{fill:#F4A377;}
</style>
<g id="Outline_Icons">
	<g>
		<path class="st0" d="M-16.6-19.3c1.4,0.3,2.5,1.5,2.5,2.9v1.5c0,1.1-0.9,2.2-2,2.2h-3c-1.1,0-2-1.1-2-2.2v-1c-3-0.3-6-0.3-9,0v1
			c0,1.1-0.9,2.2-2,2.2h-3c-1.1,0-2-1.1-2-2.2v-1.5c0-1.4,1.1-2.6,2.5-2.9C-28.8-20.4-22.7-20.5-16.6-19.3z"/>
		<path class="st1" d="M-19.1-11.2v8c0,1.1-0.9,2-2,2h-10c-1.1,0-2-0.9-2-2v-8"/>
		<g>
			<g>
				<g>
					<g>
						<polygon class="st2" points="-28.6,-9.7 -29.6,-9.7 -29.6,-8.7 -28.6,-8.7 -28.6,-9.7 						"/>
					</g>
				</g>
			</g>
			<g>
				<g>
					<g>
						<polygon class="st2" points="-25.6,-9.7 -26.6,-9.7 -26.6,-8.7 -25.6,-8.7 -25.6,-9.7 						"/>
					</g>
				</g>
			</g>
			<g>
				<g>
					<g>
						<polygon class="st2" points="-22.6,-9.7 -23.6,-9.7 -23.6,-8.7 -22.6,-8.7 -22.6,-9.7 						"/>
					</g>
				</g>
			</g>
			<g>
				<g>
					<g>
						<polygon class="st2" points="-28.6,-7.7 -29.6,-7.7 -29.6,-6.7 -28.6,-6.7 -28.6,-7.7 						"/>
					</g>
				</g>
			</g>
			<g>
				<g>
					<g>
						<polygon class="st2" points="-25.6,-7.7 -26.6,-7.7 -26.6,-6.7 -25.6,-6.7 -25.6,-7.7 						"/>
					</g>
				</g>
			</g>
			<g>
				<g>
					<g>
						<polygon class="st2" points="-22.6,-7.7 -23.6,-7.7 -23.6,-6.7 -22.6,-6.7 -22.6,-7.7 						"/>
					</g>
				</g>
			</g>
			<g>
				<g>
					<g>
						<polygon class="st2" points="-28.6,-5.7 -29.6,-5.7 -29.6,-4.7 -28.6,-4.7 -28.6,-5.7 						"/>
					</g>
				</g>
			</g>
			<g>
				<g>
					<g>
						<polygon class="st2" points="-25.6,-5.7 -26.6,-5.7 -26.6,-4.7 -25.6,-4.7 -25.6,-5.7 						"/>
					</g>
				</g>
			</g>
			<g>
				<g>
					<g>
						<polygon class="st2" points="-22.6,-5.7 -23.6,-5.7 -23.6,-4.7 -22.6,-4.7 -22.6,-5.7 						"/>
					</g>
				</g>
			</g>
		</g>
	</g>
	<g>
		<polygon class="st3" points="51.5,-20.6 55.4,-20.6 58,-25.7 60.8,-20.6 64.6,-20.6 58,-33.4 		"/>
		<polygon class="st4" points="67.3,-20.6 64.5,-20.6 62.7,-17.1 60.8,-20.6 58.1,-20.6 62.7,-11.7 		"/>
	</g>
	<g>
		<polygon class="st1" points="27.4,4.6 4.4,14.1 13.4,17.6 		"/>
		<polygon class="st1" points="27.4,4.6 23.4,23.1 13.4,17.6 		"/>
		<polyline class="st1" points="13.4,17.6 13.4,25.6 16.9,19.6 		"/>
	</g>
	<g>
		<path class="st0" d="M32.1-25.6c0-1.1,0.9-2,2-2h9c1.1,0,2,0.9,2,2v19c0,1.1-0.9,2-2,2h-9c-1.1,0-2-0.9-2-2V-25.6z"/>
		<line class="st0" x1="32.1" y1="-23.6" x2="45.1" y2="-23.6"/>
		<line class="st0" x1="32.1" y1="-8.6" x2="45.1" y2="-8.6"/>
		<line class="st0" x1="41.1" y1="-6.6" x2="36.1" y2="-6.6"/>
		<path class="st1" d="M38.6-26.1c0.3,0,0.5,0.2,0.5,0.5l0,0c0,0.3-0.2,0.5-0.5,0.5l0,0c-0.3,0-0.5-0.2-0.5-0.5l0,0
			C38.1-25.9,38.3-26.1,38.6-26.1L38.6-26.1z"/>
	</g>
</g>
<g id="Layer_2">
</g>
<g id="Layer_3">
</g>
</svg>
