<?xml version="1.0" encoding="utf-8"?>
<!-- Generator: Adobe Illustrator 19.2.0, SVG Export Plug-In . SVG Version: 6.00 Build 0)  -->
<svg version="1.1" baseProfile="basic" id="Layer_1"
	 xmlns="http://www.w3.org/2000/svg" xmlns:xlink="http://www.w3.org/1999/xlink" x="0px" y="0px" viewBox="-49 141 512 512"
	 xml:space="preserve">
<style type="text/css">
	.st0{fill:#909090;}
	.st1{fill:#8E8F8F;}
	.st2{fill:#7D7D7D;}
</style>
<g>
	<path class="st0" d="M1183.7,1085H948.3c-76.3,0-138.3-62.1-138.3-138.3V711.3c0-76.3,62.1-138.3,138.3-138.3h235.3
		c76.3,0,138.3,62.1,138.3,138.3v235.3C1322,1022.9,1259.9,1085,1183.7,1085z M948.3,614.4c-53.5,0-97,43.5-97,97v235.3
		c0,53.5,43.5,97,97,97h235.3c53.5,0,97-43.5,97-97V711.3c0-53.5-43.5-97-97-97H948.3z"/>
	<path class="st0" d="M1066.8,942.8c-24.4,0-48.2-7.8-68.2-22.6c-24.6-18.3-40.7-45-45.2-75.4c-4.5-30.3,3.1-60.6,21.4-85.2
		c18.3-24.6,45-40.7,75.4-45.2c11.2-1.7,22.5-1.7,33.7,0c24.5,3.6,46.8,14.8,64.3,32.4c17.5,17.5,28.7,39.8,32.4,64.3l0,0
		c4.5,30.3-3.1,60.6-21.4,85.2c-18.3,24.6-45,40.7-75.4,45.2C1078.2,942.4,1072.4,942.8,1066.8,942.8z M1067,754.5
		c-3.6,0-7.2,0.3-10.8,0.8c-19.4,2.9-36.5,13.1-48.2,28.9c-11.7,15.8-16.5,35.1-13.7,54.5c2.9,19.4,13.1,36.5,28.9,48.2
		c15.8,11.7,35.1,16.5,54.5,13.7c40.1-5.9,67.8-43.4,61.9-83.4c-4.8-32.2-29.6-57.1-61.9-61.9C1074.2,754.8,1070.6,754.5,1067,754.5
		z"/>
	<path class="st0" d="M1195.4,720.3c-5.4,0-10.8-2.2-14.6-6.1c-3.9-3.9-6.1-9.2-6.1-14.6c0-5.5,2.2-10.8,6.1-14.6
		c3.9-3.9,9.2-6.1,14.6-6.1c5.4,0,10.8,2.2,14.6,6.1c3.9,3.9,6.1,9.2,6.1,14.6c0,5.4-2.2,10.8-6.1,14.6
		C1206.2,718.1,1200.9,720.3,1195.4,720.3z"/>
</g>
<path class="st1" d="M-60.6-239c-7.7-14.1-25.5-19.4-39.7-11.7l-130.6,71.3c-11.8,6.5-20.5,17.1-24.3,30.1c-3.2,11-2.6,22.5,1.6,33
	h-118.9c4.2-10.5,4.8-22,1.6-33c-3.8-12.9-12.4-23.6-24.3-30.1l-130.6-71.3c-14.1-7.7-31.9-2.5-39.7,11.7
	c-7.7,14.1-2.5,31.9,11.7,39.7l14.5,7.9c-3.7,2.5-6.9,5.9-9.2,10.1c-3.7,6.9-4.6,14.8-2.4,22.2c2.2,7.5,7.2,13.7,14,17.4l14.5,7.9
	c-3.8,2.6-6.9,6-9.2,10.1c-3.7,6.9-4.6,14.8-2.4,22.2c2.2,7.5,7.2,13.7,14,17.4l39.4,21.5v169c0,14.8,12.1,26.9,26.9,26.9h281
	c14.8,0,26.9-12.1,26.9-26.9v-169l39.4-21.5c6.9-3.7,11.8-9.9,14-17.4c2.2-7.5,1.4-15.4-2.4-22.2c-2.2-4.1-5.4-7.6-9.2-10.1
	l14.5-7.9c6.9-3.7,11.8-9.9,14-17.4c2.2-7.5,1.4-15.4-2.4-22.2c-2.2-4.1-5.4-7.6-9.2-10.1l14.5-7.9c6.9-3.7,11.8-9.9,14-17.4
	C-56-224.3-56.8-232.2-60.6-239z M-195.2-100.4L-313,8.3l-117.8-108.7H-195.2z M-348.5-2.7l-116,71.4V-89.5
	c0-5.8,4.5-10.5,10.2-10.9L-348.5-2.7z M-480.4-89.5v8.8L-512.2-98c-3.1-1.7-5.4-4.5-6.4-7.9c-1-3.4-0.6-7,1.1-10.1
	c1.7-3.1,4.5-5.4,7.9-6.4c3.4-1,7-0.6,10.1,1.1l0,0l10.4,5.8c1.2,0.7,2.6,1,3.9,1c2.8,0,5.5-1.5,7-4.1c2.1-3.8,0.7-8.7-3.1-10.8
	l-10.4-5.8c0,0,0,0,0,0c0,0,0,0,0,0l0,0l-37.3-20.4c-3.1-1.7-5.4-4.5-6.4-7.9s-0.6-7,1.1-10.1c3.5-6.4,11.6-8.8,18-5.3l0,0
	c0,0,0.1,0,0.1,0.1c0,0,0.1,0,0.1,0.1l50.8,25.6c1.1,0.6,2.4,0.9,3.6,0.9c2.9,0,5.7-1.6,7.1-4.4c2-3.9,0.4-8.7-3.5-10.7l-50.7-25.5
	l-37.2-20.3c-6.4-3.5-8.8-11.6-5.3-18c3.5-6.4,11.6-8.8,18-5.3l130.6,71.3c8.1,4.4,14,11.7,16.6,20.6c2.6,8.9,1.6,18.2-2.8,26.3
	l-1.2,2.2h-63.3C-468.4-116.4-480.4-104.3-480.4-89.5z M-161.5,68.7l-52.2-32.1c-3.1-1.9-7.2-1.5-9.8,1.2l0,0
	c-3.6,3.6-2.9,9.7,1.5,12.4l60.5,37.3v19.1c0,6-4.9,11-11,11h-281c-6,0-11-4.9-11-11V87.4l128.2-78.9l17.9,16.5
	c1.5,1.4,3.5,2.1,5.4,2.1s3.9-0.7,5.4-2.1l17.9-16.5l76,46.7c3.1,1.9,7.2,1.5,9.8-1.2l0,0c3.6-3.6,2.9-9.7-1.5-12.4l-72.1-44.4
	l105.8-97.7c5.7,0.4,10.2,5.1,10.2,10.9L-161.5,68.7L-161.5,68.7z M-73.5-221.3c-1,3.4-3.3,6.2-6.4,7.9l-37.2,20.3l-50.7,25.5
	c-3.9,2-5.5,6.8-3.5,10.7c1.4,2.8,4.2,4.4,7.1,4.4c1.2,0,2.4-0.3,3.6-0.9l50.8-25.6c0,0,0.1,0,0.1-0.1c0,0,0.1,0,0.1-0.1
	c6.4-3.5,14.5-1.1,18,5.3c1.7,3.1,2.1,6.7,1.1,10.1c-1,3.4-3.3,6.2-6.4,7.9l-37.3,20.3c0,0,0,0,0,0c0,0,0,0,0,0c0,0,0,0,0,0
	l-10.4,5.8c-3.8,2.1-5.2,7-3.1,10.8c1.5,2.6,4.2,4.1,7,4.1c1.3,0,2.6-0.3,3.9-1l10.4-5.8l0,0c3.1-1.7,6.7-2.1,10.1-1.1
	c3.4,1,6.2,3.3,7.9,6.4c1.7,3.1,2.1,6.7,1.1,10.1c-1,3.4-3.3,6.2-6.4,7.9l-31.8,17.3v-8.8c0-14.8-12.1-26.9-26.9-26.9h-63.3
	l-1.2-2.2c-4.4-8.1-5.4-17.4-2.8-26.3c2.6-8.9,8.5-16.2,16.6-20.6l130.6-71.3c6.4-3.5,14.5-1.1,18,5.3
	C-72.9-228.3-72.5-224.7-73.5-221.3z"/>
<g>
	<path class="st0" d="M1324.7,461.9c-3.1,0-5.5-1.1-6.7-1.7l-100.1-0.1c-0.1,0.1-0.5,0.3-0.8,0.4c-1.5,0.6-2,1.5-4.8,1.5
		c-6.8,0-12-5.2-12-15.2v-301c0-12.9,4.6-26.7,17.7-26.7h100.3c11.7,0,23.4,11,23.4,26.7v301c0,1.7-1.9,3.9-2.6,6.1
		C1337.1,458.3,1330.5,461.9,1324.7,461.9L1324.7,461.9z M1225.2,435.1h91.5V145.7c0-0.6-3.6-1.2-3.7-1.8h-91.1
		c-0.1,0.6,3.3,1.3,3.3,1.8V435.1z M1225.2,435.1"/>
	<path class="st0" d="M1272.2,107.3c-42.3,0-76.8-34.8-76.8-77.6c0-42.8,34.4-77.6,76.8-77.6c42.3,0,76.7,34.8,76.7,77.6
		C1349,72.5,1314.5,107.3,1272.2,107.3L1272.2,107.3z M1272.2-23c-28.6,0-51.8,23.6-51.8,52.7c0,29.1,23.3,52.7,51.8,52.7
		c28.6,0,51.8-23.6,51.8-52.7C1324,0.6,1300.8-23,1272.2-23L1272.2-23z M1272.2-23"/>
	<path class="st0" d="M1692.2,461.9c-2.2,0-4.5-0.6-6.5-1.8h-96.7c-1.1,0-2.9,0.3-4.8,0.6c-3.8,0.6-6.2,1.2-10.1,1.2
		c-14.2,0-16.2-9.6-16.2-15.2V281.4c0-18.4-20.1-32.6-37.4-32.6c-17.3,0-37.4,14.2-37.4,32.6v157.8c0,2.5,2,5.8,2,9.2
		c0,7.5-7.3,13.5-15.1,13.5c-2.6,0-5.8-0.7-7.9-1.8h-73.5c-0.8,0.1-1.8,0.4-2.8,0.6c-2.2,0.6-3,1.2-5.8,1.2
		c-8.7,0-13.3-6.4-13.3-15.2v-301c0-11.7,8.7-26.7,21.8-26.7h80.2c5.1,0,9.6,2.3,12.2,6.3c2,3,2.5,6.1,2.3,9
		c21.5-7.3,53-13.2,87.8-13.2c74.3,0,136.5,59.6,136.5,132.8v190.3c0,2.5-0.5,5.2-1.1,7.9C1705,457.7,1698,461.9,1692.2,461.9
		L1692.2,461.9z M1520.4,223.8c29.5,0,62.4,23.6,62.4,57.6v154.8c0-0.1-0.9-0.1-0.5-0.2c3.2-0.5,4.2-0.9,6.7-0.9h93.6V253.8
		c0-58.4-52.1-107.8-111.6-107.8c-44.4,0-80.5,10.5-97.2,19.6c-3.9,2.1-7.2,2-11-0.2c-3.8-2.3-4.8-6.3-4.8-10.7v-8.9
		c0-0.6-3.5-1.2-3.5-1.8H1390c-0.8,0.7,1.5,1.8,1.5,2.6v288.6h-3.1h69.6V281.4C1458,247.5,1490.9,223.8,1520.4,223.8L1520.4,223.8z
		 M1520.4,223.8"/>
</g>
<g>
	<g>
		<path class="st0" d="M-117.9,1204.9c-110,0-152.3-55-162.7-71.8c-2.9-4.8-3.1-10.8-0.4-15.7c2.7-4.9,7.9-8,13.5-8.1
			c29.5-0.5,64.4-2.8,87.8-7.9c-22.4-13.9-52.3-39.9-50.2-79.5c-10.6-10.7-35.9-41.7-31.3-90.4c-4.9-16.7-26.3-102.5,41.8-146.3
			c2.5-1.6,5.5-2.5,8.5-2.5c6.3,0,11.9,3.7,14.4,9.4c4.9,11.5,34.5,68.5,142.3,94.5c4.5-24.6,20.4-72.8,76.3-89.6
			c13.4-4,26.5-6.1,38.8-6.1c37.5,0,59,18.3,67.4,27.3c7.6,0.3,26.4-0.6,53-15.2c6.9-3.8,16-1.6,20.4,4.8c2.9,4.2,3.6,9.5,1.8,14.3
			l-7.1,19.3l11.3-2.7c6.1-1.4,12.7,1,16.3,6.1c3,4.1,3.8,9.4,2.2,14.2c-3.8,11.3-14.1,33.2-41.2,52.3l-1.6,1
			c-1.4,1.2-9.6,9.7-7.4,40.9c3.1,44.3-47.5,218.5-233.7,246.9C-78.8,1203.3-99,1204.9-117.9,1204.9L-117.9,1204.9z M-250.3,1133
			c17.2,19.1,55.8,47.5,132.3,47.5c17.7,0,36.7-1.5,56.6-4.6c167.1-25.5,215.8-183.2,213.1-221.2c-3.3-46.6,13.5-60.4,20-64
			c11.5-8.2,19-16.9,23.9-24.3l-9.1,2.2c-6.2,1.5-12.9-1.1-16.5-6.3c-2.9-4.2-3.6-9.6-1.9-14.4l5.3-14.5c-18.2,7.2-32.9,9-42.8,9
			c-3.9,0-6.9-0.3-8.7-0.5c-3.9-0.5-7.5-2.5-9.9-5.6c-2.9-3.6-18.9-21.3-51.1-21.3c-9.9,0-20.6,1.7-31.8,5
			c-50.2,15.1-59,63.8-60.5,78.4c-0.9,8.1-7.6,14.1-15.7,14.1l-3.3-0.3C-158,889-199.6,836.9-214,811.2
			c-46.1,37.8-26,106.6-23.4,114.7c0.6,2,0.8,4.1,0.6,6.2c-4.9,44.4,21.1,70,26.3,74.6c3.7,3.3,5.7,8.3,5.1,13.4
			c-4.2,38.2,36.4,60.9,54.1,68.8c5.6,2.5,9.2,8.1,9.3,14.1c0.1,6.1-3.2,11.5-8.7,14.2C-173.3,1128.3-220,1131.9-250.3,1133
			L-250.3,1133z M-250.3,1133"/>
	</g>
</g>
<path class="st0" d="M240,653.1H134.5c-6.7,0-8.8-5.4-8.8-12.2V425.6h-40c-6.7,0-8.6-5.4-8.6-12.2V324c0-6.7,1.9-12.2,8.6-12.2h48
	c0-71.2,12.5-118.6,38.4-145c20-18.7,46.9-28,74.2-25.6h74.7c6.7,0,16,5.4,16,12.2V251c0,6.7-9,12.2-16,12.2h-65.6v48h65.6
	c6.7,0,16,5.4,16,12.2v89.4c0,6.7-9,12.2-16,12.2h-65.6v215.4c0,6.7-9,12.2-16,12.2L240,653.1z M150.2,628.8h81.2V413.4
	c0-6.7,1.9-12.2,8.6-12.2h72.4v-64.9H240c-6.7,0-8.6-5.4-8.6-12.2v-73.1c0-6.7,1.9-12.2,8.6-12.2h72.4v-73.1h-65.9
	c-20.6-2.2-41.2,4.4-56.8,18.2c-22.2,22.5-32,69.7-32,139.9c0.2,6.7-5.1,12.3-11.8,12.5c-0.1,0-0.2,0-0.3,0h-44.3v65.1h33.1
	c6.7,0,16,5.4,16,12.2L150.2,628.8z"/>
<g>
	<g>
		<path class="st0" d="M1243.9,420.1h-107.8c3.2-11,5.2-22.6,5.2-34.8c0-63.7-48-115.8-108.6-119.9v-156l172.9-81.6
			c3.2-1.5,5.2-4.7,5.2-8.3c0-3.5-2.1-6.7-5.2-8.2l-178-84c-2.8-1.3-6.1-1.2-8.8,0.5c-2.6,1.7-4.2,4.6-4.2,7.7v168.1
			c0,0.4,0.1,0.9,0.2,1.3v160.6c-59.5,5.3-106.1,56.9-106.1,119.8c0,12.2,1.9,23.7,5.2,34.8H806.1c-5,0-9.1,4-9.1,9.1
			c0,5,4.1,9.1,9.1,9.1h437.9c5,0,9.1-4.1,9.1-9.1C1253,424.2,1249,420.1,1243.9,420.1L1243.9,420.1z M1032.9-50.1l147.5,69.7
			l-147.5,69.7V-50.1z M1025,283.3c54,0,98,45.8,98,102.1c0,11.5-1.9,22.9-5.6,33.7h-185c-3.7-10.9-5.6-22.2-5.6-33.7
			C926.9,329.1,971,283.3,1025,283.3L1025,283.3z M1025,283.3"/>
	</g>
</g>
<g>
	<path class="st2" d="M661.6-24.9c0-15.2-12.4-27.6-27.6-27.6c-15.2,0-27.6,12.4-27.6,27.6c0,15.2,12.4,27.6,27.6,27.6
		C649.2,2.7,661.6-9.7,661.6-24.9L661.6-24.9z M622.1-24.9c0-6.5,5.3-11.8,11.8-11.8c6.5,0,11.8,5.3,11.8,11.8s-5.3,11.8-11.8,11.8
		C627.4-13.1,622.1-18.4,622.1-24.9L622.1-24.9z M622.1-24.9"/>
	<path class="st2" d="M764.1,10.6c0,17.4,14.2,31.5,31.6,31.5c17.4,0,31.5-14.2,31.5-31.5c0-17.4-14.2-31.6-31.5-31.6
		C778.3-21,764.1-6.8,764.1,10.6L764.1,10.6z M811.4,10.6c0,8.7-7.1,15.7-15.8,15.7c-8.7,0-15.8-7.1-15.8-15.7
		c0-8.7,7.1-15.8,15.8-15.8C804.4-5.2,811.4,1.9,811.4,10.6L811.4,10.6z M811.4,10.6"/>
	<g>
		<path class="st2" d="M961.3-178.8c0,2.1,0.8,4.1,2.3,5.6l15.8,15.8c3.1,3.1,8.1,3.1,11.2,0c3.1-3.1,3.1-8.1,0-11.2l-15.8-15.8
			c-3.1-3.1-8-3.1-11.2,0C962.1-182.8,961.3-180.8,961.3-178.8L961.3-178.8z M961.3-178.8"/>
		<path class="st2" d="M821.3,105.3c6.9,0,13.4-2.7,18.4-7.6l4.4-4.4c6.6,7.5,16.2,12,26.5,12c19.6,0,35.5-15.9,35.5-35.5
			c0-1.4-0.1-2.8-0.3-4.2c1.4,0.2,2.8,0.3,4.2,0.3c19.6,0,35.5-15.9,35.5-35.5c0-1.4-0.1-2.9-0.3-4.2c1.4,0.2,2.8,0.3,4.2,0.3
			c19.6,0,35.5-15.9,35.5-35.5c0-1.4-0.1-2.8-0.3-4.2c1.4,0.2,2.8,0.3,4.2,0.3c19.6,0,35.5-15.9,35.5-35.5c0-10.3-4.5-19.9-12-26.5
			l6.3-6.3l29.7-29.7c10.1-10.2,10.1-26.7,0-36.8l-97.1-97.1c-10.1-10.1-26.6-10.1-36.8,0l-68.4,68.4c-6.1-10.7-17.5-18-30.7-18
			c-12.3,0-23.2,6.3-29.6,15.9c-0.7,0.5-1.3,1-1.9,1.8L699.4-92h-14.2v-15.7H582.7V97.4h102.5V81.6h23.9
			c12.8,15.1,31.2,23.6,51,23.6c13.7,0,27.1-4.3,38.3-12.1l4.5,4.5C807.9,102.6,814.4,105.3,821.3,105.3L821.3,105.3z M870.6,89.5
			c-6,0-11.7-2.8-15.3-7.4L883,54.4c4.6,3.7,7.4,9.3,7.4,15.3C890.3,80.6,881.5,89.5,870.6,89.5L870.6,89.5z M910,50.1
			c-6,0-11.7-2.8-15.3-7.4L922.4,15c4.6,3.7,7.4,9.3,7.4,15.3C929.8,41.2,920.9,50.1,910,50.1L910,50.1z M949.5,10.6
			c-6,0-11.7-2.8-15.3-7.4l27.7-27.7c4.6,3.7,7.4,9.3,7.4,15.3C969.2,1.8,960.4,10.6,949.5,10.6L949.5,10.6z M1008.7-48.5
			c0,10.9-8.8,19.7-19.7,19.7c-6,0-11.7-2.8-15.3-7.4l27.7-27.7C1005.9-60.3,1008.7-54.6,1008.7-48.5L1008.7-48.5z M925.6-233.8
			c4-4,10.5-4,14.4,0l97.1,97.1c1,1,1.7,2.2,2.2,3.4c0.2,0.6,0.2,1.2,0.3,1.8c0.3,1.4,0.3,2.8,0,4.2c-0.2,0.6-0.1,1.2-0.3,1.8
			c-0.5,1.2-1.3,2.3-2.2,3.4l-18.5,18.5L907.1-215.2L925.6-233.8z M1007.5-92.5l-179,179c-4,4-10.4,4-14.4,0l-3.4-3.5L717-10.7
			c-4-4-4-10.4,0-14.4L779.9-88v7.8c0,19.6,15.9,35.5,35.5,35.5c19.6,0,35.5-15.9,35.5-35.5V-159l45.1-45.1L1007.5-92.5z
			 M834.6-163.3l0.4,3.3c0,0.3,0.1,0.7,0.1,1v78.9c0,10.9-8.9,19.7-19.7,19.7c-10.9,0-19.7-8.8-19.7-19.7V-159
			c0-10.9,8.8-19.7,19.7-19.7C824.8-178.8,832.7-172.1,834.6-163.3L834.6-163.3z M598.5-92h71v66.5c0,24.2-19.7,44-44,44h-27V-92z
			 M598.5,81.6V34.3h27c17.4,0,33.1-7.5,44-19.5v66.8H598.5z M787.1,81.8c-8,5-17.4,7.7-26.9,7.7c-16.2,0-31.1-7.5-41-20.5l-2.4-3.2
			h-31.6v-142h21.5L709-79c0.3-0.4,0.6-0.7,1.1-1.4l69.8-70v40.1l-74.1,74.1c-5,5-7.6,11.7-7.6,18.4c0,6.6,2.5,13.3,7.6,18.4
			L787.1,81.8z M787.1,81.8"/>
	</g>
</g>
</svg>
