<?xml version="1.0" encoding="utf-8"?>
<!-- Generator: Adobe Illustrator 19.2.0, SVG Export Plug-In . SVG Version: 6.00 Build 0)  -->
<svg version="1.1" id="Layer_1" xmlns="http://www.w3.org/2000/svg" xmlns:xlink="http://www.w3.org/1999/xlink" x="0px" y="0px"
	 viewBox="0 0 512 512" style="enable-background:new 0 0 512 512;" xml:space="preserve">
<style type="text/css">
	.st0{fill:#F17B22;}
</style>
<g>
	<path class="st0" d="M369.2,504h-228c-73.9,0-134-60.1-134-134V142c0-73.9,60.1-134,134-134h228c73.9,0,134,60.1,134,134v228
		C503.2,443.9,443.1,504,369.2,504z M141.2,48.1c-51.8,0-93.9,42.1-93.9,93.9v228c0,51.8,42.1,93.9,93.9,93.9h228
		c51.8,0,93.9-42.1,93.9-93.9V142c0-51.8-42.1-93.9-93.9-93.9H141.2z"/>
	<path class="st0" d="M256,366.3c-23.7,0-46.7-7.5-66-21.9c-23.9-17.7-39.4-43.6-43.8-73s3-58.7,20.7-82.6
		c17.7-23.9,43.6-39.4,73-43.8c10.8-1.6,21.8-1.6,32.6,0c23.8,3.5,45.3,14.4,62.3,31.4s27.8,38.6,31.4,62.3l0,0
		c4.4,29.4-3,58.7-20.7,82.6s-43.6,39.4-73,43.8C267,365.9,261.5,366.3,256,366.3z M256.2,183.9c-3.5,0-7,0.3-10.4,0.8
		c-18.8,2.8-35.4,12.7-46.7,28c-11.3,15.3-16,34-13.2,52.8s12.7,35.4,28,46.7c15.3,11.3,34,16,52.8,13.2c38.8-5.8,65.7-42,59.9-80.8
		c-4.6-31.2-28.7-55.3-59.9-59.9C263.2,184.1,259.7,183.9,256.2,183.9z"/>
	<path class="st0" d="M380.6,150.7c-5.3,0-10.4-2.1-14.2-5.9c-3.7-3.7-5.9-8.9-5.9-14.2s2.1-10.4,5.9-14.2s8.9-5.9,14.2-5.9
		c5.3,0,10.4,2.1,14.2,5.9c3.7,3.7,5.9,8.9,5.9,14.2s-2.1,10.4-5.9,14.2C391,148.5,385.9,150.7,380.6,150.7z"/>
</g>
<g>
	<path class="st0" d="M49.7-313.4c-3,0-5.3-1.1-6.6-1.6l-97.6-0.1c-0.1,0.1-0.5,0.3-0.8,0.4c-1.5,0.6-1.9,1.4-4.7,1.4
		c-6.7,0-11.7-5.1-11.7-14.8v-293.6c0-12.5,4.4-26.1,17.2-26.1h97.8c11.4,0,22.8,10.7,22.8,26.1v293.6c0,1.6-1.8,3.8-2.6,6
		C61.8-316.9,55.3-313.4,49.7-313.4L49.7-313.4z M-47.4-339.5h89.2v-282.3c0-0.6-3.5-1.2-3.6-1.7h-88.8c-0.1,0.6,3.2,1.2,3.2,1.7
		C-47.4-621.8-47.4-339.5-47.4-339.5z"/>
	<path class="st0" d="M-1.5-659.2c-41.3,0-74.9-34-74.9-75.7s33.6-75.7,74.9-75.7s74.9,34,74.9,75.7
		C73.3-693.2,39.7-659.2-1.5-659.2L-1.5-659.2z M-1.5-786.3c-27.9,0-50.6,23-50.6,51.4c0,28.3,22.7,51.4,50.6,51.4
		s50.5-23,50.5-51.4S26.3-786.3-1.5-786.3L-1.5-786.3z"/>
	<path class="st0" d="M408.1-313.4c-2.1,0-4.3-0.6-6.4-1.8h-94.3c-1.1,0-2.8,0.3-4.7,0.6c-3.7,0.5-6.1,1.2-9.9,1.2
		c-13.9,0-15.8-9.3-15.8-14.8v-161.2c0-17.9-19.6-31.8-36.5-31.8S204-507.3,204-489.4v153.9c0,2.4,1.9,5.7,1.9,8.9
		c0,7.3-7.1,13.2-14.8,13.2c-2.5,0-5.7-0.6-7.7-1.8h-71.7c-0.8,0.1-1.8,0.4-2.7,0.6c-2.2,0.5-2.9,1.2-5.6,1.2c-8.5,0-13-6.2-13-14.8
		v-293.6c0-11.4,8.5-26.1,21.3-26.1H190c5,0,9.3,2.2,11.9,6.1c2,3,2.5,6,2.3,8.8c21-7.1,51.7-12.9,85.6-12.9
		c72.5,0,133.1,58.1,133.1,129.5v185.6c0,2.4-0.5,5.1-1.1,7.7C420.6-317.5,413.7-313.4,408.1-313.4L408.1-313.4z M240.5-545.6
		c28.8,0,60.8,23.1,60.8,56.1v151c0-0.1-0.9-0.1-0.5-0.2c3.1-0.5,4.1-0.9,6.5-0.9h91.3v-176.8c0-57-50.8-105.2-108.8-105.2
		c-43.4,0-78.5,10.3-94.8,19.1c-3.8,2-7,2-10.7-0.2s-4.6-6.2-4.6-10.5v-8.7c0-0.6-3.4-1.2-3.4-1.7h-62.9c-0.7,0.6,1.4,1.8,1.4,2.6
		v281.5h-3h67.9v-149.9C179.7-522.5,211.7-545.6,240.5-545.6L240.5-545.6z"/>
</g>
<g>
	<g>
		<path class="st0" d="M2032.1-365.4c-106.3,0-147.2-53.1-157.2-69.4c-2.8-4.6-3-10.4-0.4-15.2c2.6-4.8,7.6-7.8,13-7.9
			c28.5-0.4,62.2-2.7,84.8-7.7c-21.6-13.4-50.5-38.6-48.5-76.8c-10.2-10.3-34.7-40.3-30.2-87.4c-4.8-16.1-25.4-99,40.4-141.3
			c2.4-1.6,5.3-2.4,8.2-2.4c6.1,0,11.5,3.6,13.9,9.1c4.8,11.1,33.4,66.2,137.5,91.3c4.3-23.7,19.7-70.4,73.7-86.6
			c13-3.9,25.6-5.9,37.4-5.9c36.2,0,57,17.7,65.1,26.4c7.4,0.3,25.5-0.6,51.2-14.7c6.6-3.7,15.5-1.6,19.8,4.6
			c2.8,4,3.5,9.2,1.8,13.9l-6.9,18.6l10.9-2.6c5.9-1.4,12.2,1,15.8,5.9c2.9,3.9,3.6,9.1,2.1,13.7c-3.6,11-13.7,32.1-39.8,50.5
			l-1.5,1c-1.4,1.2-9.3,9.4-7.2,39.5c3,42.8-45.9,211.1-225.7,238.6C2069.9-366.9,2050.3-365.4,2032.1-365.4L2032.1-365.4z
			 M1904.2-434.8c16.7,18.4,53.9,45.9,127.9,45.9c17.1,0,35.5-1.5,54.6-4.4c161.4-24.7,208.4-177,205.9-213.7
			c-3.1-45.1,13-58.4,19.3-61.8c11.1-8,18.4-16.3,23.1-23.5l-8.8,2.1c-6,1.4-12.4-1-15.9-6.1c-2.8-4.1-3.5-9.2-1.8-13.9l5.2-14
			c-17.6,7-31.7,8.7-41.4,8.7c-3.8,0-6.7-0.3-8.4-0.5c-3.8-0.5-7.2-2.4-9.6-5.4c-2.8-3.5-18.2-20.6-49.4-20.6
			c-9.6,0-19.9,1.6-30.7,4.9c-48.5,14.5-57,61.6-58.5,75.7c-0.8,7.8-7.3,13.6-15.1,13.6l-3.2-0.3c-103.9-22.5-144.2-72.9-158.1-97.7
			c-44.6,36.5-25.1,103-22.6,110.8c0.6,1.9,0.8,4,0.6,6c-4.7,42.9,20.4,67.6,25.4,72.1c3.6,3.2,5.5,8,4.9,13
			c-4.1,36.9,35.2,58.8,52.3,66.5c5.4,2.4,8.9,7.8,9,13.7c0.1,5.9-3.1,11.1-8.4,13.7C1978.6-439.3,1933.5-435.9,1904.2-434.8
			L1904.2-434.8z"/>
	</g>
</g>
<path class="st0" d="M1659.8-324.2h-105.5c-6.7,0-8.8-5.4-8.8-12.2v-215.4h-40c-6.7,0-8.6-5.4-8.6-12.2v-89.4
	c0-6.7,1.9-12.2,8.6-12.2h48c0-71.2,12.5-118.6,38.4-145c20-18.7,46.9-28,74.2-25.6h74.7c6.7,0,16,5.4,16,12.2v97.5
	c0,6.7-9,12.2-16,12.2h-65.6v48h65.6c6.7,0,16,5.4,16,12.2v89.4c0,6.7-9,12.2-16,12.2h-65.6v215.4c0,6.7-9,12.2-16,12.2
	L1659.8-324.2z M1570-348.5h81.2v-215.4c0-6.7,1.9-12.2,8.6-12.2h72.4V-641h-72.4c-6.7,0-8.6-5.4-8.6-12.2v-73.1
	c0-6.7,1.9-12.2,8.6-12.2h72.4v-73.1h-65.9c-20.6-2.2-41.2,4.4-56.8,18.2c-22.2,22.5-32,69.7-32,139.9c0.2,6.7-5.1,12.3-11.8,12.5
	c-0.1,0-0.2,0-0.3,0h-44.3v65.1h33.1c6.7,0,16,5.4,16,12.2L1570-348.5z"/>
</svg>
