<?xml version="1.0" encoding="utf-8"?>
<!-- Generator: Adobe Illustrator 19.2.0, SVG Export Plug-In . SVG Version: 6.00 Build 0)  -->
<svg version="1.1" baseProfile="basic" id="Layer_1"
	 xmlns="http://www.w3.org/2000/svg" xmlns:xlink="http://www.w3.org/1999/xlink" x="0px" y="0px" viewBox="-49 141 512 512"
	 xml:space="preserve">
<style type="text/css">
	.st0{fill:#909090;}
	.st1{fill:#8E8F8F;}
	.st2{fill:#7D7D7D;}
</style>
<g>
	<path class="st0" d="M-257.2,488.2h-228c-73.9,0-134-60.1-134-134v-228c0-73.9,60.1-134,134-134h228c73.9,0,134,60.1,134,134v228
		C-123.2,428-183.3,488.2-257.2,488.2z M-485.2,32.2c-51.8,0-93.9,42.1-93.9,93.9v228c0,51.8,42.1,93.9,93.9,93.9h228
		c51.8,0,93.9-42.1,93.9-93.9v-228c0-51.8-42.1-93.9-93.9-93.9H-485.2z"/>
	<path class="st0" d="M-370.4,350.4c-23.7,0-46.7-7.5-66-21.9c-23.9-17.7-39.4-43.6-43.8-73s3-58.7,20.7-82.6
		c17.7-23.9,43.6-39.4,73-43.8c10.8-1.6,21.8-1.6,32.6,0c23.8,3.5,45.3,14.4,62.3,31.4c17,17,27.8,38.6,31.4,62.3l0,0
		c4.4,29.4-3,58.7-20.7,82.6c-17.7,23.9-43.6,39.4-73,43.8C-359.4,350-364.9,350.4-370.4,350.4z M-370.2,168c-3.5,0-7,0.3-10.4,0.8
		c-18.8,2.8-35.4,12.7-46.7,28s-16,34-13.2,52.8c2.8,18.8,12.7,35.4,28,46.7c15.3,11.3,34,16,52.8,13.2c38.8-5.8,65.7-42,59.9-80.8
		c-4.6-31.2-28.7-55.3-59.9-59.9C-363.2,168.3-366.7,168-370.2,168z"/>
	<path class="st0" d="M-245.8,134.8c-5.3,0-10.4-2.1-14.2-5.9c-3.7-3.7-5.9-8.9-5.9-14.2c0-5.3,2.1-10.4,5.9-14.2
		c3.7-3.7,8.9-5.9,14.2-5.9s10.4,2.1,14.2,5.9c3.7,3.7,5.9,8.9,5.9,14.2s-2.1,10.4-5.9,14.2C-235.4,132.7-240.5,134.8-245.8,134.8z"
		/>
</g>
<path class="st1" d="M-60.6-239c-7.7-14.1-25.5-19.4-39.7-11.7l-130.6,71.3c-11.8,6.5-20.5,17.1-24.3,30.1c-3.2,11-2.6,22.5,1.6,33
	h-118.9c4.2-10.5,4.8-22,1.6-33c-3.8-12.9-12.4-23.6-24.3-30.1l-130.6-71.3c-14.1-7.7-31.9-2.5-39.7,11.7
	c-7.7,14.1-2.5,31.9,11.7,39.7l14.5,7.9c-3.7,2.5-6.9,5.9-9.2,10.1c-3.7,6.9-4.6,14.8-2.4,22.2c2.2,7.5,7.2,13.7,14,17.4l14.5,7.9
	c-3.8,2.6-6.9,6-9.2,10.1c-3.7,6.9-4.6,14.8-2.4,22.2c2.2,7.5,7.2,13.7,14,17.4l39.4,21.5v169c0,14.8,12.1,26.9,26.9,26.9h281
	c14.8,0,26.9-12.1,26.9-26.9v-169l39.4-21.5c6.9-3.7,11.8-9.9,14-17.4c2.2-7.5,1.4-15.4-2.4-22.2c-2.2-4.1-5.4-7.6-9.2-10.1
	l14.5-7.9c6.9-3.7,11.8-9.9,14-17.4c2.2-7.5,1.4-15.4-2.4-22.2c-2.2-4.1-5.4-7.6-9.2-10.1l14.5-7.9c6.9-3.7,11.8-9.9,14-17.4
	C-56-224.3-56.8-232.2-60.6-239z M-195.2-100.4L-313,8.3l-117.8-108.7H-195.2z M-348.5-2.7l-116,71.4V-89.5
	c0-5.8,4.5-10.5,10.2-10.9L-348.5-2.7z M-480.4-89.5v8.8L-512.2-98c-3.1-1.7-5.4-4.5-6.4-7.9c-1-3.4-0.6-7,1.1-10.1
	c1.7-3.1,4.5-5.4,7.9-6.4c3.4-1,7-0.6,10.1,1.1l0,0l10.4,5.8c1.2,0.7,2.6,1,3.9,1c2.8,0,5.5-1.5,7-4.1c2.1-3.8,0.7-8.7-3.1-10.8
	l-10.4-5.8c0,0,0,0,0,0c0,0,0,0,0,0l0,0l-37.3-20.4c-3.1-1.7-5.4-4.5-6.4-7.9s-0.6-7,1.1-10.1c3.5-6.4,11.6-8.8,18-5.3l0,0
	c0,0,0.1,0,0.1,0.1c0,0,0.1,0,0.1,0.1l50.8,25.6c1.1,0.6,2.4,0.9,3.6,0.9c2.9,0,5.7-1.6,7.1-4.4c2-3.9,0.4-8.7-3.5-10.7l-50.7-25.5
	l-37.2-20.3c-6.4-3.5-8.8-11.6-5.3-18c3.5-6.4,11.6-8.8,18-5.3l130.6,71.3c8.1,4.4,14,11.7,16.6,20.6c2.6,8.9,1.6,18.2-2.8,26.3
	l-1.2,2.2h-63.3C-468.4-116.4-480.4-104.3-480.4-89.5z M-161.5,68.7l-52.2-32.1c-3.1-1.9-7.2-1.5-9.8,1.2l0,0
	c-3.6,3.6-2.9,9.7,1.5,12.4l60.5,37.3v19.1c0,6-4.9,11-11,11h-281c-6,0-11-4.9-11-11V87.4l128.2-78.9l17.9,16.5
	c1.5,1.4,3.5,2.1,5.4,2.1s3.9-0.7,5.4-2.1l17.9-16.5l76,46.7c3.1,1.9,7.2,1.5,9.8-1.2l0,0c3.6-3.6,2.9-9.7-1.5-12.4l-72.1-44.4
	l105.8-97.7c5.7,0.4,10.2,5.1,10.2,10.9L-161.5,68.7L-161.5,68.7z M-73.5-221.3c-1,3.4-3.3,6.2-6.4,7.9l-37.2,20.3l-50.7,25.5
	c-3.9,2-5.5,6.8-3.5,10.7c1.4,2.8,4.2,4.4,7.1,4.4c1.2,0,2.4-0.3,3.6-0.9l50.8-25.6c0,0,0.1,0,0.1-0.1c0,0,0.1,0,0.1-0.1
	c6.4-3.5,14.5-1.1,18,5.3c1.7,3.1,2.1,6.7,1.1,10.1c-1,3.4-3.3,6.2-6.4,7.9l-37.3,20.3c0,0,0,0,0,0c0,0,0,0,0,0c0,0,0,0,0,0
	l-10.4,5.8c-3.8,2.1-5.2,7-3.1,10.8c1.5,2.6,4.2,4.1,7,4.1c1.3,0,2.6-0.3,3.9-1l10.4-5.8l0,0c3.1-1.7,6.7-2.1,10.1-1.1
	c3.4,1,6.2,3.3,7.9,6.4c1.7,3.1,2.1,6.7,1.1,10.1c-1,3.4-3.3,6.2-6.4,7.9l-31.8,17.3v-8.8c0-14.8-12.1-26.9-26.9-26.9h-63.3
	l-1.2-2.2c-4.4-8.1-5.4-17.4-2.8-26.3c2.6-8.9,8.5-16.2,16.6-20.6l130.6-71.3c6.4-3.5,14.5-1.1,18,5.3
	C-72.9-228.3-72.5-224.7-73.5-221.3z"/>
<g>
	<path class="st0" d="M83.4,645.6c-3,0-5.3-1.1-6.6-1.6l-97.6-0.1c-0.1,0.1-0.5,0.3-0.8,0.4c-1.5,0.6-1.9,1.4-4.7,1.4
		c-6.7,0-11.7-5.1-11.7-14.8V337.2c0-12.5,4.4-26.1,17.2-26.1H77c11.4,0,22.8,10.7,22.8,26.1v293.6c0,1.6-1.8,3.8-2.6,6
		C95.5,642.2,89,645.6,83.4,645.6L83.4,645.6z M-13.6,619.5h89.2V337.2c0-0.6-3.5-1.2-3.6-1.7h-88.8c-0.1,0.6,3.2,1.2,3.2,1.7V619.5
		z M-13.6,619.5"/>
	<path class="st0" d="M32.2,299.8c-41.3,0-74.9-34-74.9-75.7c0-41.7,33.6-75.7,74.9-75.7c41.3,0,74.9,34,74.9,75.7
		C107.1,265.8,73.5,299.8,32.2,299.8L32.2,299.8z M32.2,172.7c-27.9,0-50.6,23-50.6,51.4c0,28.3,22.7,51.4,50.6,51.4
		c27.9,0,50.5-23,50.5-51.4C82.7,195.7,60.1,172.7,32.2,172.7L32.2,172.7z M32.2,172.7"/>
	<path class="st0" d="M441.8,645.6c-2.1,0-4.3-0.6-6.4-1.8h-94.3c-1.1,0-2.8,0.3-4.7,0.6c-3.7,0.5-6.1,1.2-9.9,1.2
		c-13.9,0-15.8-9.3-15.8-14.8V469.6c0-17.9-19.6-31.8-36.5-31.8c-16.9,0-36.5,13.9-36.5,31.8v153.9c0,2.4,1.9,5.7,1.9,8.9
		c0,7.3-7.1,13.2-14.8,13.2c-2.5,0-5.7-0.6-7.7-1.8h-71.7c-0.8,0.1-1.8,0.4-2.7,0.6c-2.2,0.5-2.9,1.2-5.6,1.2c-8.5,0-13-6.2-13-14.8
		V337.2c0-11.4,8.5-26.1,21.3-26.1h78.2c5,0,9.3,2.2,11.9,6.1c2,3,2.5,6,2.3,8.8c21-7.1,51.7-12.9,85.6-12.9
		c72.5,0,133.1,58.1,133.1,129.5v185.6c0,2.4-0.5,5.1-1.1,7.7C454.3,641.5,447.5,645.6,441.8,645.6L441.8,645.6z M274.2,413.4
		c28.8,0,60.8,23.1,60.8,56.1v151c0-0.1-0.9-0.1-0.5-0.2c3.1-0.5,4.1-0.9,6.5-0.9h91.3V442.7c0-57-50.8-105.2-108.8-105.2
		c-43.4,0-78.5,10.3-94.8,19.1c-3.8,2-7,2-10.7-0.2c-3.7-2.2-4.6-6.2-4.6-10.5v-8.7c0-0.6-3.4-1.2-3.4-1.7h-62.9
		c-0.7,0.6,1.4,1.8,1.4,2.6v281.5h-3h67.9V469.6C213.4,436.5,245.5,413.4,274.2,413.4L274.2,413.4z M274.2,413.4"/>
</g>
<g>
	<g>
		<path class="st0" d="M-117.9,1204.9c-110,0-152.3-55-162.7-71.8c-2.9-4.8-3.1-10.8-0.4-15.7c2.7-4.9,7.9-8,13.5-8.1
			c29.5-0.5,64.4-2.8,87.8-7.9c-22.4-13.9-52.3-39.9-50.2-79.5c-10.6-10.7-35.9-41.7-31.3-90.4c-4.9-16.7-26.3-102.5,41.8-146.3
			c2.5-1.6,5.5-2.5,8.5-2.5c6.3,0,11.9,3.7,14.4,9.4c4.9,11.5,34.5,68.5,142.3,94.5c4.5-24.6,20.4-72.8,76.3-89.6
			c13.4-4,26.5-6.1,38.8-6.1c37.5,0,59,18.3,67.4,27.3c7.6,0.3,26.4-0.6,53-15.2c6.9-3.8,16-1.6,20.4,4.8c2.9,4.2,3.6,9.5,1.8,14.3
			l-7.1,19.3l11.3-2.7c6.1-1.4,12.7,1,16.3,6.1c3,4.1,3.8,9.4,2.2,14.2c-3.8,11.3-14.1,33.2-41.2,52.3l-1.6,1
			c-1.4,1.2-9.6,9.7-7.4,40.9c3.1,44.3-47.5,218.5-233.7,246.9C-78.8,1203.3-99,1204.9-117.9,1204.9L-117.9,1204.9z M-250.3,1133
			c17.2,19.1,55.8,47.5,132.3,47.5c17.7,0,36.7-1.5,56.6-4.6c167.1-25.5,215.8-183.2,213.1-221.2c-3.3-46.6,13.5-60.4,20-64
			c11.5-8.2,19-16.9,23.9-24.3l-9.1,2.2c-6.2,1.5-12.9-1.1-16.5-6.3c-2.9-4.2-3.6-9.6-1.9-14.4l5.3-14.5c-18.2,7.2-32.9,9-42.8,9
			c-3.9,0-6.9-0.3-8.7-0.5c-3.9-0.5-7.5-2.5-9.9-5.6c-2.9-3.6-18.9-21.3-51.1-21.3c-9.9,0-20.6,1.7-31.8,5
			c-50.2,15.1-59,63.8-60.5,78.4c-0.9,8.1-7.6,14.1-15.7,14.1l-3.3-0.3C-158,889-199.6,836.9-214,811.2
			c-46.1,37.8-26,106.6-23.4,114.7c0.6,2,0.8,4.1,0.6,6.2c-4.9,44.4,21.1,70,26.3,74.6c3.7,3.3,5.7,8.3,5.1,13.4
			c-4.2,38.2,36.4,60.9,54.1,68.8c5.6,2.5,9.2,8.1,9.3,14.1c0.1,6.1-3.2,11.5-8.7,14.2C-173.3,1128.3-220,1131.9-250.3,1133
			L-250.3,1133z M-250.3,1133"/>
	</g>
</g>
<path class="st0" d="M-338.2,720.3h-105.5c-6.7,0-8.8-5.4-8.8-12.2V492.7h-40c-6.7,0-8.6-5.4-8.6-12.2v-89.4
	c0-6.7,1.9-12.2,8.6-12.2h48c0-71.2,12.5-118.6,38.4-145c20-18.7,46.9-28,74.2-25.6h74.7c6.7,0,16,5.4,16,12.2v97.5
	c0,6.7-9,12.2-16,12.2h-65.6v48h65.6c6.7,0,16,5.4,16,12.2v89.4c0,6.7-9,12.2-16,12.2h-65.6v215.4c0,6.7-9,12.2-16,12.2
	L-338.2,720.3z M-428,696h81.2V480.6c0-6.7,1.9-12.2,8.6-12.2h72.4v-64.9h-72.4c-6.7,0-8.6-5.4-8.6-12.2v-73.1
	c0-6.7,1.9-12.2,8.6-12.2h72.4V233h-65.9c-20.6-2.2-41.2,4.4-56.8,18.2c-22.2,22.5-32,69.7-32,139.9c0.2,6.7-5.1,12.3-11.8,12.5
	c-0.1,0-0.2,0-0.3,0h-44.3v65.1h33.1c6.7,0,16,5.4,16,12.2L-428,696z"/>
<g>
	<g>
		<path class="st0" d="M-129.5,408.8h-107.8c3.2-11,5.2-22.6,5.2-34.8c0-63.7-48-115.8-108.6-119.9v-156l172.9-81.6
			c3.2-1.5,5.2-4.7,5.2-8.3c0-3.5-2.1-6.7-5.2-8.2l-178-84c-2.8-1.3-6.1-1.2-8.8,0.5c-2.6,1.7-4.2,4.6-4.2,7.7V92.3
			c0,0.4,0.1,0.9,0.2,1.3v160.6c-59.5,5.3-106.1,56.9-106.1,119.8c0,12.2,1.9,23.7,5.2,34.8h-107.8c-5,0-9.1,4-9.1,9.1
			c0,5,4.1,9.1,9.1,9.1h437.9c5,0,9.1-4.1,9.1-9.1C-120.4,412.8-124.5,408.8-129.5,408.8L-129.5,408.8z M-340.6-61.5L-193,8.2
			l-147.5,69.7V-61.5z M-348.4,271.9c54,0,98,45.8,98,102.1c0,11.5-1.9,22.9-5.6,33.7h-185c-3.7-10.9-5.6-22.2-5.6-33.7
			C-446.5,317.7-402.5,271.9-348.4,271.9L-348.4,271.9z M-348.4,271.9"/>
	</g>
</g>
<g>
	<path class="st2" d="M-556,272.6c0-15.2-12.4-27.6-27.6-27.6c-15.2,0-27.6,12.4-27.6,27.6c0,15.2,12.4,27.6,27.6,27.6
		C-568.3,300.2-556,287.8-556,272.6L-556,272.6z M-595.4,272.6c0-6.5,5.3-11.8,11.8-11.8c6.5,0,11.8,5.3,11.8,11.8
		s-5.3,11.8-11.8,11.8C-590.1,284.4-595.4,279.1-595.4,272.6L-595.4,272.6z M-595.4,272.6"/>
	<path class="st2" d="M-453.4,308.1c0,17.4,14.2,31.5,31.6,31.5c17.4,0,31.5-14.2,31.5-31.5c0-17.4-14.2-31.6-31.5-31.6
		C-439.3,276.5-453.4,290.7-453.4,308.1L-453.4,308.1z M-406.1,308.1c0,8.7-7.1,15.7-15.8,15.7c-8.7,0-15.8-7.1-15.8-15.7
		c0-8.7,7.1-15.8,15.8-15.8C-413.2,292.3-406.1,299.4-406.1,308.1L-406.1,308.1z M-406.1,308.1"/>
	<g>
		<path class="st2" d="M-256.2,118.7c0,2.1,0.8,4.1,2.3,5.6l15.8,15.8c3.1,3.1,8.1,3.1,11.2,0c3.1-3.1,3.1-8.1,0-11.2l-15.8-15.8
			c-3.1-3.1-8-3.1-11.2,0C-255.4,114.7-256.2,116.7-256.2,118.7L-256.2,118.7z M-256.2,118.7"/>
		<path class="st2" d="M-396.2,402.7c6.9,0,13.4-2.7,18.4-7.6l4.4-4.4c6.6,7.5,16.2,12,26.5,12c19.6,0,35.5-15.9,35.5-35.5
			c0-1.4-0.1-2.8-0.3-4.2c1.4,0.2,2.8,0.3,4.2,0.3c19.6,0,35.5-15.9,35.5-35.5c0-1.4-0.1-2.9-0.3-4.2c1.4,0.2,2.8,0.3,4.2,0.3
			c19.6,0,35.5-15.9,35.5-35.5c0-1.4-0.1-2.8-0.3-4.2c1.4,0.2,2.8,0.3,4.2,0.3c19.6,0,35.5-15.9,35.5-35.5c0-10.3-4.5-19.9-12-26.5
			l6.3-6.3l29.7-29.7c10.1-10.2,10.1-26.7,0-36.8l-97.1-97.1c-10.1-10.1-26.6-10.1-36.8,0l-68.4,68.4c-6.1-10.7-17.5-18-30.7-18
			c-12.3,0-23.2,6.3-29.6,15.9c-0.7,0.5-1.3,1-1.9,1.8l-84.5,84.9h-14.2v-15.7h-102.5v205.1h102.5v-15.7h23.9
			c12.8,15.1,31.2,23.6,51,23.6c13.7,0,27.1-4.3,38.3-12.1l4.5,4.5C-409.7,400-403.2,402.7-396.2,402.7L-396.2,402.7z M-346.9,387
			c-6,0-11.7-2.8-15.3-7.4l27.7-27.7c4.6,3.7,7.4,9.3,7.4,15.3C-327.2,378.1-336,387-346.9,387L-346.9,387z M-307.5,347.5
			c-6,0-11.7-2.8-15.3-7.4l27.7-27.7c4.6,3.7,7.4,9.3,7.4,15.3C-287.8,338.7-296.6,347.5-307.5,347.5L-307.5,347.5z M-268.1,308.1
			c-6,0-11.7-2.8-15.3-7.4l27.7-27.7c4.6,3.7,7.4,9.3,7.4,15.3C-248.3,299.2-257.2,308.1-268.1,308.1L-268.1,308.1z M-208.9,248.9
			c0,10.9-8.8,19.7-19.7,19.7c-6,0-11.7-2.8-15.3-7.4l27.7-27.7C-211.7,237.2-208.9,242.8-208.9,248.9L-208.9,248.9z M-291.9,63.7
			c4-4,10.5-4,14.4,0l97.1,97.1c1,1,1.7,2.2,2.2,3.4c0.2,0.6,0.2,1.2,0.3,1.8c0.3,1.4,0.3,2.8,0,4.2c-0.2,0.6-0.1,1.2-0.3,1.8
			c-0.5,1.2-1.3,2.3-2.2,3.4l-18.5,18.5L-310.4,82.2L-291.9,63.7z M-210,205l-179,179c-4,4-10.4,4-14.4,0l-3.4-3.5l-93.7-93.7
			c-4-4-4-10.4,0-14.4l62.9-62.9v7.8c0,19.6,15.9,35.5,35.5,35.5c19.6,0,35.5-15.9,35.5-35.5v-78.8l45.1-45.1L-210,205z
			 M-382.9,134.2l0.4,3.3c0,0.3,0.1,0.7,0.1,1v78.9c0,10.9-8.9,19.7-19.7,19.7c-10.9,0-19.7-8.8-19.7-19.7v-78.9
			c0-10.9,8.8-19.7,19.7-19.7C-392.7,118.7-384.9,125.4-382.9,134.2L-382.9,134.2z M-619.1,205.5h71V272c0,24.2-19.7,44-44,44h-27
			V205.5z M-619.1,379.1v-47.3h27c17.4,0,33.1-7.5,44-19.5v66.8H-619.1z M-430.5,379.3c-8,5-17.4,7.7-26.9,7.7
			c-16.2,0-31.1-7.5-41-20.5l-2.4-3.2h-31.6v-142h21.5l2.3-2.8c0.3-0.4,0.6-0.7,1.1-1.4l69.8-70v40.1l-74.1,74.1
			c-5,5-7.6,11.7-7.6,18.4c0,6.6,2.5,13.3,7.6,18.4L-430.5,379.3z M-430.5,379.3"/>
	</g>
</g>
</svg>
