<?xml version="1.0" encoding="utf-8"?>
<!-- Generator: Adobe Illustrator 19.2.0, SVG Export Plug-In . SVG Version: 6.00 Build 0)  -->
<svg version="1.1" id="Layer_1" xmlns="http://www.w3.org/2000/svg" xmlns:xlink="http://www.w3.org/1999/xlink" x="0px" y="0px"
	 viewBox="0 0 512 512" style="enable-background:new 0 0 512 512;" xml:space="preserve">
<style type="text/css">
	.st0{fill:#909090;}
	.st1{fill:#8E8F8F;}
	.st2{fill:#7D7D7D;}
	.st3{fill:#EA5B27;}
	.st4{fill:#F4A377;}
</style>
<g>
	<path class="st0" d="M1070,117.6H842c-73.9,0-134-60.1-134-134v-228c0-73.9,60.1-134,134-134h228c73.9,0,134,60.1,134,134v228
		C1204,57.5,1143.9,117.6,1070,117.6z M842-338.3c-51.8,0-93.9,42.1-93.9,93.9v228c0,51.8,42.1,93.9,93.9,93.9h228
		c51.8,0,93.9-42.1,93.9-93.9v-228c0-51.8-42.1-93.9-93.9-93.9H842z"/>
	<path class="st0" d="M956.8-20.1c-23.7,0-46.7-7.5-66-21.9c-23.9-17.7-39.4-43.6-43.8-73s3-58.7,20.7-82.6s43.6-39.4,73-43.8
		c10.8-1.6,21.8-1.6,32.6,0c23.8,3.5,45.3,14.4,62.3,31.4s27.8,38.6,31.4,62.3l0,0c4.4,29.4-3,58.7-20.7,82.6
		c-17.7,23.9-43.6,39.4-73,43.8C967.8-20.5,962.2-20.1,956.8-20.1z M957-202.5c-3.5,0-7,0.3-10.4,0.8c-18.8,2.8-35.4,12.7-46.7,28
		c-11.3,15.3-16,34-13.2,52.8s12.7,35.4,28,46.7c15.3,11.3,34,16,52.8,13.2c38.8-5.8,65.7-42,59.9-80.8
		c-4.6-31.2-28.7-55.3-59.9-59.9C964-202.3,960.5-202.5,957-202.5z"/>
	<path class="st0" d="M1081.4-235.7c-5.3,0-10.4-2.1-14.2-5.9c-3.7-3.7-5.9-8.9-5.9-14.2s2.1-10.4,5.9-14.2
		c3.7-3.7,8.9-5.9,14.2-5.9c5.3,0,10.4,2.1,14.2,5.9c3.7,3.7,5.9,8.9,5.9,14.2s-2.1,10.4-5.9,14.2
		C1091.8-237.8,1086.7-235.7,1081.4-235.7z"/>
</g>
<path class="st1" d="M-60.6-239c-7.7-14.1-25.5-19.4-39.7-11.7l-130.6,71.3c-11.8,6.5-20.5,17.1-24.3,30.1c-3.2,11-2.6,22.5,1.6,33
	h-118.9c4.2-10.5,4.8-22,1.6-33c-3.8-12.9-12.4-23.6-24.3-30.1l-130.6-71.3c-14.1-7.7-31.9-2.5-39.7,11.7
	c-7.7,14.1-2.5,31.9,11.7,39.7l14.5,7.9c-3.7,2.5-6.9,5.9-9.2,10.1c-3.7,6.9-4.6,14.8-2.4,22.2c2.2,7.5,7.2,13.7,14,17.4l14.5,7.9
	c-3.8,2.6-6.9,6-9.2,10.1c-3.7,6.9-4.6,14.8-2.4,22.2c2.2,7.5,7.2,13.7,14,17.4l39.4,21.5v169c0,14.8,12.1,26.9,26.9,26.9h281
	c14.8,0,26.9-12.1,26.9-26.9v-169l39.4-21.5c6.9-3.7,11.8-9.9,14-17.4s1.4-15.4-2.4-22.2c-2.2-4.1-5.4-7.6-9.2-10.1l14.5-7.9
	c6.9-3.7,11.8-9.9,14-17.4s1.4-15.4-2.4-22.2c-2.2-4.1-5.4-7.6-9.2-10.1l14.5-7.9c6.9-3.7,11.8-9.9,14-17.4
	C-56-224.3-56.8-232.2-60.6-239z M-195.2-100.4L-313,8.3l-117.8-108.7C-430.8-100.4-195.2-100.4-195.2-100.4z M-348.5-2.7l-116,71.4
	V-89.5c0-5.8,4.5-10.5,10.2-10.9L-348.5-2.7z M-480.4-89.5v8.8L-512.2-98c-3.1-1.7-5.4-4.5-6.4-7.9s-0.6-7,1.1-10.1
	c1.7-3.1,4.5-5.4,7.9-6.4s7-0.6,10.1,1.1l0,0l10.4,5.8c1.2,0.7,2.6,1,3.9,1c2.8,0,5.5-1.5,7-4.1c2.1-3.8,0.7-8.7-3.1-10.8l-10.4-5.8
	l0,0l0,0l0,0l-37.3-20.4c-3.1-1.7-5.4-4.5-6.4-7.9s-0.6-7,1.1-10.1c3.5-6.4,11.6-8.8,18-5.3l0,0c0,0,0.1,0,0.1,0.1
	c0,0,0.1,0,0.1,0.1l50.8,25.6c1.1,0.6,2.4,0.9,3.6,0.9c2.9,0,5.7-1.6,7.1-4.4c2-3.9,0.4-8.7-3.5-10.7l-50.7-25.5l-37.2-20.3
	c-6.4-3.5-8.8-11.6-5.3-18s11.6-8.8,18-5.3l130.6,71.3c8.1,4.4,14,11.7,16.6,20.6c2.6,8.9,1.6,18.2-2.8,26.3l-1.2,2.2h-63.3
	C-468.4-116.4-480.4-104.3-480.4-89.5z M-161.5,68.7l-52.2-32.1c-3.1-1.9-7.2-1.5-9.8,1.2l0,0c-3.6,3.6-2.9,9.7,1.5,12.4l60.5,37.3
	v19.1c0,6-4.9,11-11,11h-281c-6,0-11-4.9-11-11V87.4l128.2-78.9l17.9,16.5c1.5,1.4,3.5,2.1,5.4,2.1s3.9-0.7,5.4-2.1l17.9-16.5
	l76,46.7c3.1,1.9,7.2,1.5,9.8-1.2l0,0c3.6-3.6,2.9-9.7-1.5-12.4l-72.1-44.4l105.8-97.7c5.7,0.4,10.2,5.1,10.2,10.9V68.7L-161.5,68.7
	z M-73.5-221.3c-1,3.4-3.3,6.2-6.4,7.9l-37.2,20.3l-50.7,25.5c-3.9,2-5.5,6.8-3.5,10.7c1.4,2.8,4.2,4.4,7.1,4.4
	c1.2,0,2.4-0.3,3.6-0.9l50.8-25.6c0,0,0.1,0,0.1-0.1c0,0,0.1,0,0.1-0.1c6.4-3.5,14.5-1.1,18,5.3c1.7,3.1,2.1,6.7,1.1,10.1
	c-1,3.4-3.3,6.2-6.4,7.9l-37.3,20.3l0,0l0,0l0,0l-10.4,5.8c-3.8,2.1-5.2,7-3.1,10.8c1.5,2.6,4.2,4.1,7,4.1c1.3,0,2.6-0.3,3.9-1
	l10.4-5.8l0,0c3.1-1.7,6.7-2.1,10.1-1.1s6.2,3.3,7.9,6.4c1.7,3.1,2.1,6.7,1.1,10.1s-3.3,6.2-6.4,7.9l-31.8,17.3v-8.8
	c0-14.8-12.1-26.9-26.9-26.9h-63.3l-1.2-2.2c-4.4-8.1-5.4-17.4-2.8-26.3c2.6-8.9,8.5-16.2,16.6-20.6l130.6-71.3
	c6.4-3.5,14.5-1.1,18,5.3C-72.9-228.3-72.5-224.7-73.5-221.3z"/>
<g>
	<path class="st0" d="M1324.7,461.9c-3.1,0-5.5-1.1-6.7-1.7l-100.1-0.1c-0.1,0.1-0.5,0.3-0.8,0.4c-1.5,0.6-2,1.5-4.8,1.5
		c-6.8,0-12-5.2-12-15.2v-301c0-12.9,4.6-26.7,17.7-26.7h100.3c11.7,0,23.4,11,23.4,26.7v301c0,1.7-1.9,3.9-2.6,6.1
		C1337.1,458.3,1330.5,461.9,1324.7,461.9L1324.7,461.9z M1225.2,435.1h91.5V145.7c0-0.6-3.6-1.2-3.7-1.8h-91.1
		c-0.1,0.6,3.3,1.3,3.3,1.8L1225.2,435.1L1225.2,435.1z"/>
	<path class="st0" d="M1272.2,107.3c-42.3,0-76.8-34.8-76.8-77.6s34.4-77.6,76.8-77.6c42.3,0,76.7,34.8,76.7,77.6
		C1349,72.5,1314.5,107.3,1272.2,107.3L1272.2,107.3z M1272.2-23c-28.6,0-51.8,23.6-51.8,52.7s23.3,52.7,51.8,52.7
		c28.6,0,51.8-23.6,51.8-52.7S1300.8-23,1272.2-23L1272.2-23z"/>
	<path class="st0" d="M1692.2,461.9c-2.2,0-4.5-0.6-6.5-1.8H1589c-1.1,0-2.9,0.3-4.8,0.6c-3.8,0.6-6.2,1.2-10.1,1.2
		c-14.2,0-16.2-9.6-16.2-15.2V281.4c0-18.4-20.1-32.6-37.4-32.6s-37.4,14.2-37.4,32.6v157.8c0,2.5,2,5.8,2,9.2
		c0,7.5-7.3,13.5-15.1,13.5c-2.6,0-5.8-0.7-7.9-1.8h-73.5c-0.8,0.1-1.8,0.4-2.8,0.6c-2.2,0.6-3,1.2-5.8,1.2
		c-8.7,0-13.3-6.4-13.3-15.2v-301c0-11.7,8.7-26.7,21.8-26.7h80.2c5.1,0,9.6,2.3,12.2,6.3c2,3,2.5,6.1,2.3,9
		c21.5-7.3,53-13.2,87.8-13.2c74.3,0,136.5,59.6,136.5,132.8v190.3c0,2.5-0.5,5.2-1.1,7.9C1705,457.7,1698,461.9,1692.2,461.9
		L1692.2,461.9z M1520.4,223.8c29.5,0,62.4,23.6,62.4,57.6v154.8c0-0.1-0.9-0.1-0.5-0.2c3.2-0.5,4.2-0.9,6.7-0.9h93.6V253.8
		c0-58.4-52.1-107.8-111.6-107.8c-44.4,0-80.5,10.5-97.2,19.6c-3.9,2.1-7.2,2-11-0.2c-3.8-2.3-4.8-6.3-4.8-10.7v-8.9
		c0-0.6-3.5-1.2-3.5-1.8H1390c-0.8,0.7,1.5,1.8,1.5,2.6v288.6h-3.1h69.6V281.4C1458,247.5,1490.9,223.8,1520.4,223.8L1520.4,223.8z"
		/>
</g>
<g>
	<g>
		<path class="st0" d="M-117.9,1204.9c-110,0-152.3-55-162.7-71.8c-2.9-4.8-3.1-10.8-0.4-15.7c2.7-4.9,7.9-8,13.5-8.1
			c29.5-0.5,64.4-2.8,87.8-7.9c-22.4-13.9-52.3-39.9-50.2-79.5c-10.6-10.7-35.9-41.7-31.3-90.4c-4.9-16.7-26.3-102.5,41.8-146.3
			c2.5-1.6,5.5-2.5,8.5-2.5c6.3,0,11.9,3.7,14.4,9.4c4.9,11.5,34.5,68.5,142.3,94.5c4.5-24.6,20.4-72.8,76.3-89.6
			c13.4-4,26.5-6.1,38.8-6.1c37.5,0,59,18.3,67.4,27.3c7.6,0.3,26.4-0.6,53-15.2c6.9-3.8,16-1.6,20.4,4.8c2.9,4.2,3.6,9.5,1.8,14.3
			l-7.1,19.3l11.3-2.7c6.1-1.4,12.7,1,16.3,6.1c3,4.1,3.8,9.4,2.2,14.2c-3.8,11.3-14.1,33.2-41.2,52.3l-1.6,1
			c-1.4,1.2-9.6,9.7-7.4,40.9c3.1,44.3-47.5,218.5-233.7,246.9C-78.8,1203.3-99,1204.9-117.9,1204.9L-117.9,1204.9z M-250.3,1133
			c17.2,19.1,55.8,47.5,132.3,47.5c17.7,0,36.7-1.5,56.6-4.6c167.1-25.5,215.8-183.2,213.1-221.2c-3.3-46.6,13.5-60.4,20-64
			c11.5-8.2,19-16.9,23.9-24.3l-9.1,2.2c-6.2,1.5-12.9-1.1-16.5-6.3c-2.9-4.2-3.6-9.6-1.9-14.4l5.3-14.5c-18.2,7.2-32.9,9-42.8,9
			c-3.9,0-6.9-0.3-8.7-0.5c-3.9-0.5-7.5-2.5-9.9-5.6c-2.9-3.6-18.9-21.3-51.1-21.3c-9.9,0-20.6,1.7-31.8,5
			c-50.2,15.1-59,63.8-60.5,78.4c-0.9,8.1-7.6,14.1-15.7,14.1l-3.3-0.3C-158,889-199.6,836.9-214,811.2
			c-46.1,37.8-26,106.6-23.4,114.7c0.6,2,0.8,4.1,0.6,6.2c-4.9,44.4,21.1,70,26.3,74.6c3.7,3.3,5.7,8.3,5.1,13.4
			c-4.2,38.2,36.4,60.9,54.1,68.8c5.6,2.5,9.2,8.1,9.3,14.1c0.1,6.1-3.2,11.5-8.7,14.2C-173.3,1128.3-220,1131.9-250.3,1133
			L-250.3,1133z"/>
	</g>
</g>
<path class="st0" d="M-338.2,720.3h-105.5c-6.7,0-8.8-5.4-8.8-12.2V492.7h-40c-6.7,0-8.6-5.4-8.6-12.2v-89.4
	c0-6.7,1.9-12.2,8.6-12.2h48c0-71.2,12.5-118.6,38.4-145c20-18.7,46.9-28,74.2-25.6h74.7c6.7,0,16,5.4,16,12.2V318
	c0,6.7-9,12.2-16,12.2h-65.6v48h65.6c6.7,0,16,5.4,16,12.2v89.4c0,6.7-9,12.2-16,12.2h-65.6v215.4c0,6.7-9,12.2-16,12.2
	L-338.2,720.3z M-428,696h81.2V480.6c0-6.7,1.9-12.2,8.6-12.2h72.4v-64.9h-72.4c-6.7,0-8.6-5.4-8.6-12.2v-73.1
	c0-6.7,1.9-12.2,8.6-12.2h72.4v-73h-65.9c-20.6-2.2-41.2,4.4-56.8,18.2c-22.2,22.5-32,69.7-32,139.9c0.2,6.7-5.1,12.3-11.8,12.5
	c-0.1,0-0.2,0-0.3,0h-44.3v65.1h33.1c6.7,0,16,5.4,16,12.2L-428,696z"/>
<g>
	<g>
		<path class="st0" d="M-129.5,408.8h-107.8c3.2-11,5.2-22.6,5.2-34.8c0-63.7-48-115.8-108.6-119.9v-156l172.9-81.6
			c3.2-1.5,5.2-4.7,5.2-8.3c0-3.5-2.1-6.7-5.2-8.2l-178-84c-2.8-1.3-6.1-1.2-8.8,0.5c-2.6,1.7-4.2,4.6-4.2,7.7V92.3
			c0,0.4,0.1,0.9,0.2,1.3v160.6c-59.5,5.3-106.1,56.9-106.1,119.8c0,12.2,1.9,23.7,5.2,34.8h-107.8c-5,0-9.1,4-9.1,9.1
			c0,5,4.1,9.1,9.1,9.1h437.9c5,0,9.1-4.1,9.1-9.1C-120.4,412.8-124.5,408.8-129.5,408.8L-129.5,408.8z M-340.6-61.5L-193,8.2
			l-147.5,69.7V-61.5H-340.6z M-348.4,271.9c54,0,98,45.8,98,102.1c0,11.5-1.9,22.9-5.6,33.7h-185c-3.7-10.9-5.6-22.2-5.6-33.7
			C-446.5,317.7-402.5,271.9-348.4,271.9L-348.4,271.9z"/>
	</g>
</g>
<g>
	<path class="st2" d="M-556,272.6c0-15.2-12.4-27.6-27.6-27.6c-15.2,0-27.6,12.4-27.6,27.6s12.4,27.6,27.6,27.6
		C-568.3,300.2-556,287.8-556,272.6L-556,272.6z M-595.4,272.6c0-6.5,5.3-11.8,11.8-11.8s11.8,5.3,11.8,11.8s-5.3,11.8-11.8,11.8
		C-590.1,284.4-595.4,279.1-595.4,272.6L-595.4,272.6z"/>
	<path class="st2" d="M-453.4,308.1c0,17.4,14.2,31.5,31.6,31.5s31.5-14.2,31.5-31.5c0-17.4-14.2-31.6-31.5-31.6
		C-439.3,276.5-453.4,290.7-453.4,308.1L-453.4,308.1z M-406.1,308.1c0,8.7-7.1,15.7-15.8,15.7c-8.7,0-15.8-7.1-15.8-15.7
		c0-8.7,7.1-15.8,15.8-15.8C-413.2,292.3-406.1,299.4-406.1,308.1L-406.1,308.1z"/>
	<g>
		<path class="st2" d="M-256.2,118.7c0,2.1,0.8,4.1,2.3,5.6l15.8,15.8c3.1,3.1,8.1,3.1,11.2,0c3.1-3.1,3.1-8.1,0-11.2l-15.8-15.8
			c-3.1-3.1-8-3.1-11.2,0C-255.4,114.7-256.2,116.7-256.2,118.7L-256.2,118.7z"/>
		<path class="st2" d="M-396.2,402.7c6.9,0,13.4-2.7,18.4-7.6l4.4-4.4c6.6,7.5,16.2,12,26.5,12c19.6,0,35.5-15.9,35.5-35.5
			c0-1.4-0.1-2.8-0.3-4.2c1.4,0.2,2.8,0.3,4.2,0.3c19.6,0,35.5-15.9,35.5-35.5c0-1.4-0.1-2.9-0.3-4.2c1.4,0.2,2.8,0.3,4.2,0.3
			c19.6,0,35.5-15.9,35.5-35.5c0-1.4-0.1-2.8-0.3-4.2c1.4,0.2,2.8,0.3,4.2,0.3c19.6,0,35.5-15.9,35.5-35.5c0-10.3-4.5-19.9-12-26.5
			l6.3-6.3l29.7-29.7c10.1-10.2,10.1-26.7,0-36.8l-97.1-97.1c-10.1-10.1-26.6-10.1-36.8,0l-68.4,68.4c-6.1-10.7-17.5-18-30.7-18
			c-12.3,0-23.2,6.3-29.6,15.9c-0.7,0.5-1.3,1-1.9,1.8l-84.5,84.9h-14.2v-15.7h-102.5V395h102.5v-15.7h23.9
			c12.8,15.1,31.2,23.6,51,23.6c13.7,0,27.1-4.3,38.3-12.1l4.5,4.5C-409.7,400-403.2,402.7-396.2,402.7L-396.2,402.7z M-346.9,387
			c-6,0-11.7-2.8-15.3-7.4l27.7-27.7c4.6,3.7,7.4,9.3,7.4,15.3C-327.2,378.1-336,387-346.9,387L-346.9,387z M-307.5,347.5
			c-6,0-11.7-2.8-15.3-7.4l27.7-27.7c4.6,3.7,7.4,9.3,7.4,15.3C-287.8,338.7-296.6,347.5-307.5,347.5L-307.5,347.5z M-268.1,308.1
			c-6,0-11.7-2.8-15.3-7.4l27.7-27.7c4.6,3.7,7.4,9.3,7.4,15.3C-248.3,299.2-257.2,308.1-268.1,308.1L-268.1,308.1z M-208.9,248.9
			c0,10.9-8.8,19.7-19.7,19.7c-6,0-11.7-2.8-15.3-7.4l27.7-27.7C-211.7,237.2-208.9,242.8-208.9,248.9L-208.9,248.9z M-291.9,63.7
			c4-4,10.5-4,14.4,0l97.1,97.1c1,1,1.7,2.2,2.2,3.4c0.2,0.6,0.2,1.2,0.3,1.8c0.3,1.4,0.3,2.8,0,4.2c-0.2,0.6-0.1,1.2-0.3,1.8
			c-0.5,1.2-1.3,2.3-2.2,3.4l-18.5,18.5L-310.4,82.2L-291.9,63.7z M-210,205l-179,179c-4,4-10.4,4-14.4,0l-3.4-3.5l-93.7-93.7
			c-4-4-4-10.4,0-14.4l62.9-62.9v7.8c0,19.6,15.9,35.5,35.5,35.5s35.5-15.9,35.5-35.5v-78.8l45.1-45.1L-210,205z M-382.9,134.2
			l0.4,3.3c0,0.3,0.1,0.7,0.1,1v78.9c0,10.9-8.9,19.7-19.7,19.7c-10.9,0-19.7-8.8-19.7-19.7v-78.9c0-10.9,8.8-19.7,19.7-19.7
			C-392.7,118.7-384.9,125.4-382.9,134.2L-382.9,134.2z M-619.1,205.5h71V272c0,24.2-19.7,44-44,44h-27V205.5z M-619.1,379.1v-47.3
			h27c17.4,0,33.1-7.5,44-19.5v66.8L-619.1,379.1L-619.1,379.1z M-430.5,379.3c-8,5-17.4,7.7-26.9,7.7c-16.2,0-31.1-7.5-41-20.5
			l-2.4-3.2h-31.6v-142h21.5l2.3-2.8c0.3-0.4,0.6-0.7,1.1-1.4l69.8-70v40.1l-74.1,74.1c-5,5-7.6,11.7-7.6,18.4
			c0,6.6,2.5,13.3,7.6,18.4L-430.5,379.3z"/>
	</g>
</g>
<g>
	<polygon class="st3" points="70.5,302.1 164.9,302.1 226.2,181.7 289.9,302.1 379.6,302.1 226.2,0.1 	"/>
	<polygon class="st4" points="443.3,302.1 379.6,302.1 337.1,387 289.9,302.1 226.2,302.1 337.1,512 	"/>
</g>
</svg>
