<?xml version="1.0" encoding="utf-8"?>
<!-- Generator: Adobe Illustrator 19.2.0, SVG Export Plug-In . SVG Version: 6.00 Build 0)  -->
<svg version="1.1" baseProfile="basic" id="Layer_1"
	 xmlns="http://www.w3.org/2000/svg" xmlns:xlink="http://www.w3.org/1999/xlink" x="0px" y="0px" viewBox="-49 141 512 512"
	 xml:space="preserve">
<style type="text/css">
	.st0{fill:#909090;}
	.st1{fill:#8E8F8F;}
	.st2{fill:#7D7D7D;}
</style>
<g>
	<path class="st0" d="M-257.3-294.3h-228c-73.9,0-134-60.1-134-134v-228c0-73.9,60.1-134,134-134h228c73.9,0,134,60.1,134,134v228
		C-123.3-354.4-183.4-294.3-257.3-294.3z M-485.3-750.2c-51.8,0-93.9,42.1-93.9,93.9v228c0,51.8,42.1,93.9,93.9,93.9h228
		c51.8,0,93.9-42.1,93.9-93.9v-228c0-51.8-42.1-93.9-93.9-93.9H-485.3z"/>
	<path class="st0" d="M-370.5-432c-23.7,0-46.7-7.5-66-21.9c-23.9-17.7-39.4-43.6-43.8-73c-4.4-29.4,3-58.7,20.7-82.6
		c17.7-23.9,43.6-39.4,73-43.8c10.8-1.6,21.8-1.6,32.6,0c23.8,3.5,45.3,14.4,62.3,31.4c17,17,27.8,38.6,31.4,62.3l0,0
		c4.4,29.4-3,58.7-20.7,82.6c-17.7,23.9-43.6,39.4-73,43.8C-359.5-432.4-365-432-370.5-432z M-370.3-614.4c-3.5,0-7,0.3-10.4,0.8
		c-18.8,2.8-35.4,12.7-46.7,28c-11.3,15.3-16,34-13.2,52.8c2.8,18.8,12.7,35.4,28,46.7c15.3,11.3,34,16,52.8,13.2
		c38.8-5.8,65.7-42,59.9-80.8c-4.6-31.2-28.7-55.3-59.9-59.9C-363.3-614.2-366.8-614.4-370.3-614.4z"/>
	<path class="st0" d="M-245.9-647.6c-5.3,0-10.4-2.1-14.2-5.9c-3.7-3.7-5.9-8.9-5.9-14.2c0-5.3,2.1-10.4,5.9-14.2s8.9-5.9,14.2-5.9
		s10.4,2.1,14.2,5.9c3.7,3.7,5.9,8.9,5.9,14.2s-2.1,10.4-5.9,14.2C-235.5-649.8-240.6-647.6-245.9-647.6z"/>
</g>
<path class="st1" d="M-664.6-700.7c-7.7-14.1-25.5-19.4-39.7-11.7l-130.6,71.3c-11.8,6.5-20.5,17.1-24.3,30.1
	c-3.2,11-2.6,22.5,1.6,33h-118.9c4.2-10.5,4.8-22,1.6-33c-3.8-12.9-12.4-23.6-24.3-30.1l-130.6-71.3c-14.1-7.7-31.9-2.5-39.7,11.7
	c-7.7,14.1-2.5,31.9,11.7,39.7l14.5,7.9c-3.7,2.5-6.9,5.9-9.2,10.1c-3.7,6.9-4.6,14.8-2.4,22.2c2.2,7.5,7.2,13.7,14,17.4l14.5,7.9
	c-3.8,2.6-6.9,6-9.2,10.1c-3.7,6.9-4.6,14.8-2.4,22.2c2.2,7.5,7.2,13.7,14,17.4l39.4,21.5v169c0,14.8,12.1,26.9,26.9,26.9h281
	c14.8,0,26.9-12.1,26.9-26.9v-169l39.4-21.5c6.9-3.7,11.8-9.9,14-17.4c2.2-7.5,1.4-15.4-2.4-22.2c-2.2-4.1-5.4-7.6-9.2-10.1
	l14.5-7.9c6.9-3.7,11.8-9.9,14-17.4c2.2-7.5,1.4-15.4-2.4-22.2c-2.2-4.1-5.4-7.6-9.2-10.1l14.5-7.9c6.9-3.7,11.8-9.9,14-17.4
	C-660-685.9-660.8-693.8-664.6-700.7z M-799.2-562.1L-917-453.3l-117.8-108.7H-799.2z M-952.5-464.4l-116,71.4v-158.1
	c0-5.8,4.5-10.5,10.2-10.9L-952.5-464.4z M-1084.4-551.1v8.8l-31.8-17.3c-3.1-1.7-5.4-4.5-6.4-7.9c-1-3.4-0.6-7,1.1-10.1
	c1.7-3.1,4.5-5.4,7.9-6.4c3.4-1,7-0.6,10.1,1.1l0,0l10.4,5.8c1.2,0.7,2.6,1,3.9,1c2.8,0,5.5-1.5,7-4.1c2.1-3.8,0.7-8.7-3.1-10.8
	l-10.4-5.8c0,0,0,0,0,0c0,0,0,0,0,0l0,0l-37.3-20.4c-3.1-1.7-5.4-4.5-6.4-7.9c-1-3.4-0.6-7,1.1-10.1c3.5-6.4,11.6-8.8,18-5.3l0,0
	c0,0,0.1,0,0.1,0.1c0,0,0.1,0,0.1,0.1l50.8,25.6c1.1,0.6,2.4,0.9,3.6,0.9c2.9,0,5.7-1.6,7.1-4.4c2-3.9,0.4-8.7-3.5-10.7l-50.7-25.5
	l-37.2-20.3c-6.4-3.5-8.8-11.6-5.3-18c3.5-6.4,11.6-8.8,18-5.3l130.6,71.3c8.1,4.4,14,11.7,16.6,20.6c2.6,8.9,1.6,18.2-2.8,26.3
	l-1.2,2.2h-63.3C-1072.4-578-1084.4-565.9-1084.4-551.1z M-765.5-393l-52.2-32.1c-3.1-1.9-7.2-1.5-9.8,1.2l0,0
	c-3.6,3.6-2.9,9.7,1.5,12.4l60.5,37.3v19.1c0,6-4.9,11-11,11h-281c-6,0-11-4.9-11-11v-19.1l128.2-78.9l17.9,16.5
	c1.5,1.4,3.5,2.1,5.4,2.1s3.9-0.7,5.4-2.1l17.9-16.5l76,46.7c3.1,1.9,7.2,1.5,9.8-1.2l0,0c3.6-3.6,2.9-9.7-1.5-12.4l-72.1-44.4
	l105.8-97.7c5.7,0.4,10.2,5.1,10.2,10.9L-765.5-393L-765.5-393z M-677.5-682.9c-1,3.4-3.3,6.2-6.4,7.9l-37.2,20.3l-50.7,25.5
	c-3.9,2-5.5,6.8-3.5,10.7c1.4,2.8,4.2,4.4,7.1,4.4c1.2,0,2.4-0.3,3.6-0.9l50.8-25.6c0,0,0.1,0,0.1-0.1c0,0,0.1,0,0.1-0.1
	c6.4-3.5,14.5-1.1,18,5.3c1.7,3.1,2.1,6.7,1.1,10.1c-1,3.4-3.3,6.2-6.4,7.9l-37.3,20.3c0,0,0,0,0,0c0,0,0,0,0,0c0,0,0,0,0,0
	l-10.4,5.8c-3.8,2.1-5.2,7-3.1,10.8c1.5,2.6,4.2,4.1,7,4.1c1.3,0,2.6-0.3,3.9-1l10.4-5.8l0,0c3.1-1.7,6.7-2.1,10.1-1.1
	s6.2,3.3,7.9,6.4c1.7,3.1,2.1,6.7,1.1,10.1c-1,3.4-3.3,6.2-6.4,7.9l-31.8,17.3v-8.8c0-14.8-12.1-26.9-26.9-26.9h-63.3l-1.2-2.2
	c-4.4-8.1-5.4-17.4-2.8-26.3c2.6-8.9,8.5-16.2,16.6-20.6l130.6-71.3c6.4-3.5,14.5-1.1,18,5.3C-676.9-689.9-676.5-686.3-677.5-682.9z
	"/>
<g>
	<path class="st0" d="M49.7-313.4c-3,0-5.3-1.1-6.6-1.6l-97.6-0.1c-0.1,0.1-0.5,0.3-0.8,0.4c-1.5,0.6-1.9,1.4-4.7,1.4
		c-6.7,0-11.7-5.1-11.7-14.8v-293.6c0-12.5,4.4-26.1,17.2-26.1h97.8c11.4,0,22.8,10.7,22.8,26.1v293.6c0,1.6-1.8,3.8-2.6,6
		C61.8-316.9,55.3-313.4,49.7-313.4L49.7-313.4z M-47.4-339.5h89.2v-282.3c0-0.6-3.5-1.2-3.6-1.7h-88.8c-0.1,0.6,3.2,1.2,3.2,1.7
		V-339.5z M-47.4-339.5"/>
	<path class="st0" d="M-1.5-659.2c-41.3,0-74.9-34-74.9-75.7c0-41.7,33.6-75.7,74.9-75.7c41.3,0,74.9,34,74.9,75.7
		C73.3-693.2,39.7-659.2-1.5-659.2L-1.5-659.2z M-1.5-786.3c-27.9,0-50.6,23-50.6,51.4c0,28.3,22.7,51.4,50.6,51.4
		c27.9,0,50.5-23,50.5-51.4C49-763.3,26.3-786.3-1.5-786.3L-1.5-786.3z M-1.5-786.3"/>
	<path class="st0" d="M408.1-313.4c-2.1,0-4.3-0.6-6.4-1.8h-94.3c-1.1,0-2.8,0.3-4.7,0.6c-3.7,0.5-6.1,1.2-9.9,1.2
		c-13.9,0-15.8-9.3-15.8-14.8v-161.2c0-17.9-19.6-31.8-36.5-31.8c-16.9,0-36.5,13.9-36.5,31.8v153.9c0,2.4,1.9,5.7,1.9,8.9
		c0,7.3-7.1,13.2-14.8,13.2c-2.5,0-5.7-0.6-7.7-1.8h-71.7c-0.8,0.1-1.8,0.4-2.7,0.6c-2.2,0.5-2.9,1.2-5.6,1.2c-8.5,0-13-6.2-13-14.8
		v-293.6c0-11.4,8.5-26.1,21.3-26.1H190c5,0,9.3,2.2,11.9,6.1c2,3,2.5,6,2.3,8.8c21-7.1,51.7-12.9,85.6-12.9
		c72.5,0,133.1,58.1,133.1,129.5v185.6c0,2.4-0.5,5.1-1.1,7.7C420.6-317.5,413.7-313.4,408.1-313.4L408.1-313.4z M240.5-545.6
		c28.8,0,60.8,23.1,60.8,56.1v151c0-0.1-0.9-0.1-0.5-0.2c3.1-0.5,4.1-0.9,6.5-0.9h91.3v-176.8c0-57-50.8-105.2-108.8-105.2
		c-43.4,0-78.5,10.3-94.8,19.1c-3.8,2-7,2-10.7-0.2c-3.7-2.2-4.6-6.2-4.6-10.5v-8.7c0-0.6-3.4-1.2-3.4-1.7h-62.9
		c-0.7,0.6,1.4,1.8,1.4,2.6v281.5h-3h67.9v-149.9C179.7-522.5,211.7-545.6,240.5-545.6L240.5-545.6z M240.5-545.6"/>
</g>
<g>
	<g>
		<path class="st0" d="M120.1,601c-106.3,0-147.2-53.1-157.2-69.4c-2.8-4.6-3-10.4-0.4-15.2c2.6-4.8,7.6-7.8,13-7.9
			c28.5-0.4,62.2-2.7,84.8-7.7c-21.6-13.4-50.5-38.6-48.5-76.8c-10.2-10.3-34.7-40.3-30.2-87.4c-4.8-16.1-25.4-99,40.4-141.3
			c2.4-1.6,5.3-2.4,8.2-2.4c6.1,0,11.5,3.6,13.9,9.1c4.8,11.1,33.4,66.2,137.5,91.3c4.3-23.7,19.7-70.4,73.7-86.6
			c13-3.9,25.6-5.9,37.4-5.9c36.2,0,57,17.7,65.1,26.4c7.4,0.3,25.5-0.6,51.2-14.7c6.6-3.7,15.5-1.6,19.8,4.6
			c2.8,4,3.5,9.2,1.8,13.9l-6.9,18.6l10.9-2.6c5.9-1.4,12.2,1,15.8,5.9c2.9,3.9,3.6,9.1,2.1,13.7c-3.6,11-13.7,32.1-39.8,50.5
			l-1.5,1c-1.4,1.2-9.3,9.4-7.2,39.5c3,42.8-45.9,211.1-225.7,238.6C157.9,599.4,138.3,601,120.1,601L120.1,601z M-7.8,531.6
			c16.7,18.4,53.9,45.9,127.9,45.9c17.1,0,35.5-1.5,54.6-4.4c161.4-24.7,208.4-177,205.9-213.7c-3.1-45.1,13-58.4,19.3-61.8
			c11.1-8,18.4-16.3,23.1-23.5l-8.8,2.1c-6,1.4-12.4-1-15.9-6.1c-2.8-4.1-3.5-9.2-1.8-13.9l5.2-14c-17.6,7-31.7,8.7-41.4,8.7
			c-3.8,0-6.7-0.3-8.4-0.5c-3.8-0.5-7.2-2.4-9.6-5.4c-2.8-3.5-18.2-20.6-49.4-20.6c-9.6,0-19.9,1.6-30.7,4.9
			c-48.5,14.5-57,61.6-58.5,75.7c-0.8,7.8-7.3,13.6-15.1,13.6l-3.2-0.3C81.4,295.8,41.2,245.5,27.2,220.6
			c-44.6,36.5-25.1,103-22.6,110.8c0.6,1.9,0.8,4,0.6,6c-4.7,42.9,20.4,67.6,25.4,72.1c3.6,3.2,5.5,8,4.9,13
			c-4.1,36.9,35.2,58.8,52.3,66.5c5.4,2.4,8.9,7.8,9,13.7c0.1,5.9-3.1,11.1-8.4,13.7C66.6,527,21.5,530.5-7.8,531.6L-7.8,531.6z
			 M-7.8,531.6"/>
	</g>
</g>
<path class="st0" d="M1659.8-324.2h-105.5c-6.7,0-8.8-5.4-8.8-12.2v-215.4h-40c-6.7,0-8.6-5.4-8.6-12.2v-89.4
	c0-6.7,1.9-12.2,8.6-12.2h48c0-71.2,12.5-118.6,38.4-145c20-18.7,46.9-28,74.2-25.6h74.7c6.7,0,16,5.4,16,12.2v97.5
	c0,6.7-9,12.2-16,12.2h-65.6v48h65.6c6.7,0,16,5.4,16,12.2v89.4c0,6.7-9,12.2-16,12.2h-65.6v215.4c0,6.7-9,12.2-16,12.2
	L1659.8-324.2z M1570-348.5h81.2v-215.4c0-6.7,1.9-12.2,8.6-12.2h72.4V-641h-72.4c-6.7,0-8.6-5.4-8.6-12.2v-73.1
	c0-6.7,1.9-12.2,8.6-12.2h72.4v-73.1h-65.9c-20.6-2.2-41.2,4.4-56.8,18.2c-22.2,22.5-32,69.7-32,139.9c0.2,6.7-5.1,12.3-11.8,12.5
	c-0.1,0-0.2,0-0.3,0h-44.3v65.1h33.1c6.7,0,16,5.4,16,12.2L1570-348.5z"/>
<g>
	<g>
		<path class="st0" d="M889.7-331.6H781.9c3.2-11,5.2-22.6,5.2-34.8c0-63.7-48-115.8-108.6-119.9v-156l172.9-81.6
			c3.2-1.5,5.2-4.7,5.2-8.3c0-3.5-2.1-6.7-5.2-8.2l-178-84c-2.8-1.3-6.1-1.2-8.8,0.5c-2.6,1.7-4.2,4.6-4.2,7.7v168.1
			c0,0.4,0.1,0.9,0.2,1.3v160.6c-59.5,5.3-106.1,56.9-106.1,119.8c0,12.2,1.9,23.7,5.2,34.8H451.9c-5,0-9.1,4-9.1,9.1
			c0,5,4.1,9.1,9.1,9.1h437.9c5,0,9.1-4.1,9.1-9.1C898.8-327.5,894.8-331.6,889.7-331.6L889.7-331.6z M678.7-801.9l147.5,69.7
			l-147.5,69.7V-801.9z M670.8-468.5c54,0,98,45.8,98,102.1c0,11.5-1.9,22.9-5.6,33.7h-185c-3.7-10.9-5.6-22.2-5.6-33.7
			C572.7-422.6,616.7-468.5,670.8-468.5L670.8-468.5z M670.8-468.5"/>
	</g>
</g>
<g>
	<path class="st2" d="M1035.9-513.3c0-15.2-12.4-27.6-27.6-27.6c-15.2,0-27.6,12.4-27.6,27.6c0,15.2,12.4,27.6,27.6,27.6
		C1023.5-485.7,1035.9-498.1,1035.9-513.3L1035.9-513.3z M996.4-513.3c0-6.5,5.3-11.8,11.8-11.8c6.5,0,11.8,5.3,11.8,11.8
		c0,6.5-5.3,11.8-11.8,11.8C1001.8-501.5,996.4-506.8,996.4-513.3L996.4-513.3z M996.4-513.3"/>
	<path class="st2" d="M1138.4-477.8c0,17.4,14.2,31.5,31.6,31.5c17.4,0,31.5-14.2,31.5-31.5c0-17.4-14.2-31.6-31.5-31.6
		C1152.6-509.4,1138.4-495.2,1138.4-477.8L1138.4-477.8z M1185.8-477.8c0,8.7-7.1,15.7-15.8,15.7c-8.7,0-15.8-7.1-15.8-15.7
		c0-8.7,7.1-15.8,15.8-15.8C1178.7-493.6,1185.8-486.5,1185.8-477.8L1185.8-477.8z M1185.8-477.8"/>
	<g>
		<path class="st2" d="M1335.6-667.1c0,2.1,0.8,4.1,2.3,5.6l15.8,15.8c3.1,3.1,8.1,3.1,11.2,0c3.1-3.1,3.1-8.1,0-11.2l-15.8-15.8
			c-3.1-3.1-8-3.1-11.2,0C1336.4-671.2,1335.6-669.1,1335.6-667.1L1335.6-667.1z M1335.6-667.1"/>
		<path class="st2" d="M1195.7-383.1c6.9,0,13.4-2.7,18.4-7.6l4.4-4.4c6.6,7.5,16.2,12,26.5,12c19.6,0,35.5-15.9,35.5-35.5
			c0-1.4-0.1-2.8-0.3-4.2c1.4,0.2,2.8,0.3,4.2,0.3c19.6,0,35.5-15.9,35.5-35.5c0-1.4-0.1-2.9-0.3-4.2c1.4,0.2,2.8,0.3,4.2,0.3
			c19.6,0,35.5-15.9,35.5-35.5c0-1.4-0.1-2.8-0.3-4.2c1.4,0.2,2.8,0.3,4.2,0.3c19.6,0,35.5-15.9,35.5-35.5c0-10.3-4.5-19.9-12-26.5
			l6.3-6.3l29.7-29.7c10.1-10.2,10.1-26.7,0-36.8l-97.1-97.1c-10.1-10.1-26.6-10.1-36.8,0l-68.4,68.4c-6.1-10.7-17.5-18-30.7-18
			c-12.3,0-23.2,6.3-29.6,15.9c-0.7,0.5-1.3,1-1.9,1.8l-84.5,84.9h-14.2v-15.7H957V-391h102.5v-15.7h23.9
			c12.8,15.1,31.2,23.6,51,23.6c13.7,0,27.1-4.3,38.3-12.1l4.5,4.5C1182.2-385.8,1188.7-383.1,1195.7-383.1L1195.7-383.1z
			 M1244.9-398.9c-6,0-11.7-2.8-15.3-7.4l27.7-27.7c4.6,3.7,7.4,9.3,7.4,15.3C1264.6-407.7,1255.8-398.9,1244.9-398.9L1244.9-398.9z
			 M1284.4-438.3c-6,0-11.7-2.8-15.3-7.4l27.7-27.7c4.6,3.7,7.4,9.3,7.4,15.3C1304.1-447.2,1295.3-438.3,1284.4-438.3L1284.4-438.3z
			 M1323.8-477.8c-6,0-11.7-2.8-15.3-7.4l27.7-27.7c4.6,3.7,7.4,9.3,7.4,15.3C1343.5-486.6,1334.7-477.8,1323.8-477.8L1323.8-477.8z
			 M1383-536.9c0,10.9-8.8,19.7-19.7,19.7c-6,0-11.7-2.8-15.3-7.4l27.7-27.7C1380.2-548.6,1383-543,1383-536.9L1383-536.9z
			 M1300-722.1c4-4,10.5-4,14.4,0l97.1,97.1c1,1,1.7,2.2,2.2,3.4c0.2,0.6,0.2,1.2,0.3,1.8c0.3,1.4,0.3,2.8,0,4.2
			c-0.2,0.6-0.1,1.2-0.3,1.8c-0.5,1.2-1.3,2.3-2.2,3.4l-18.5,18.5l-111.6-111.6L1300-722.1z M1381.9-580.9l-179,179
			c-4,4-10.4,4-14.4,0l-3.4-3.5l-93.7-93.7c-4-4-4-10.4,0-14.4l62.9-62.9v7.8c0,19.6,15.9,35.5,35.5,35.5
			c19.6,0,35.5-15.9,35.5-35.5v-78.8l45.1-45.1L1381.9-580.9z M1208.9-651.6l0.4,3.3c0,0.3,0.1,0.7,0.1,1v78.9
			c0,10.9-8.9,19.7-19.7,19.7c-10.9,0-19.7-8.8-19.7-19.7v-78.9c0-10.9,8.8-19.7,19.7-19.7C1199.1-667.1,1207-660.5,1208.9-651.6
			L1208.9-651.6z M972.8-580.4h71v66.5c0,24.2-19.7,44-44,44h-27V-580.4z M972.8-406.8v-47.3h27c17.4,0,33.1-7.5,44-19.5v66.8H972.8
			z M1161.4-406.6c-8,5-17.4,7.7-26.9,7.7c-16.2,0-31.1-7.5-41-20.5l-2.4-3.2h-31.6v-142h21.5l2.3-2.8c0.3-0.4,0.6-0.7,1.1-1.4
			l69.8-70v40.1l-74.1,74.1c-5,5-7.6,11.7-7.6,18.4c0,6.6,2.5,13.3,7.6,18.4L1161.4-406.6z M1161.4-406.6"/>
	</g>
</g>
</svg>
