<?xml version="1.0" encoding="utf-8"?>
<!-- Generator: Adobe Illustrator 19.2.0, SVG Export Plug-In . SVG Version: 6.00 Build 0)  -->
<svg version="1.2" baseProfile="tiny" id="Layer_1" xmlns="http://www.w3.org/2000/svg" xmlns:xlink="http://www.w3.org/1999/xlink"
	 x="0px" y="0px" viewBox="0 0 1280 800" xml:space="preserve">
<g id="Laag_1">
	<g>
		<path fill="#EF7B31" d="M433.9,483.3c-3.3-0.2-1.9,1.8-2,4.2c-0.1,2.2-1.2,3.9-1.7,5.9c-0.8,3.2-1.7,6.4-3.2,9.5
			c-3.2,6.4-5.2,13.3-9.1,20.3c-9.9,17.9-23.9,35.7-42.9,44.4c-21.1,9.6-43.4,11.5-65.5,3.5c-9.2-3.3-19.1-7.8-27-13.7
			c-4.2-3.1-9.4-6.8-13-10.5c-0.3-0.8-0.5-1.6-0.7-2.4c-0.5-0.3-1-0.5-1.5-0.7c-1-1.9-2.6-0.7-1.2-3.6c2.1,0.8,5.3,5.4,7.3,2.7
			c-1.6-1.1-1.2-2-2.1-2.9c-1.4-1.4-0.8-0.4-3-2c-2-1.4-6.6-5.1-6-8c4.2,2.4,3.5-5.7,3.9-8.4c0.8-6,1.4-12.1,2-18.1
			c1-11.1,1.9-22.3,2.5-33.4c1.2-23.2,1.3-46.5,0.1-69.7c-1.2-23.5-3.2-46.9-5.4-70.3c-1.1-11.6-2.3-23.1-3.6-34.7
			c-0.6-5.3-1-10.8-2.1-16c-1-5-3.5-9.6-3.6-14.8c0-10.1,9.8-19.3,17.6-24.2c8.8-5.5,19.8-8.1,30.2-7.9
			c19.9,0.5,38.6,13.4,52.9,26.3c13.7,12.4,25.9,26.9,38,40.4c13.5,15,20.8,36.3,28.1,54.7c8.2,20.6,10.9,42.5,14.3,64.2
			C440.4,439.5,438.1,462.2,433.9,483.3z M284.9,547.4c2.2,2.8,5.1,3.1,8.3,4.9c4.9,2.8,11,5.4,16.4,6.9c11.4,3.2,23.5,6,35.4,4.3
			c27.1-4,45.6-21.4,58.4-44.6c27.2-49.4,23.2-115.6,2.2-166.5c-10.5-25.4-23.6-46.6-42.1-66.9c-8.1-8.8-16.7-17-25.9-24.6
			c-8.6-7-19.2-15.4-30.6-16.5c-12-1.2-26.5,5.2-31.9,16.5c-2.4,4.9,0.8,9.7,1.6,15c1,6.9,1.8,13.8,2.5,20.8
			c2.9,28.9,5.7,57.8,7.7,86.7c2.1,30.5,2.2,61.7-0.1,92.1c-0.9,11.7-2.4,23.6-3,35.3c-0.2,3.6-0.7,7.2-1,10.8
			c-0.2,2.8,0.7,9.2-0.9,11.7c-0.9,1.3-1,0.8-1.7,1.7c0.5-0.6-2.7,2.6-2.1,2.3c-2.1,1-3.8-0.9-5.8,1.6
			C274.4,540.7,282.1,548.2,284.9,547.4z M267.9,270.3c-1.4-1-1.4-1-2.1,0.3C266.5,271,267.1,271.1,267.9,270.3z M281.6,457.9
			c-0.2-0.3-0.4-0.5-0.5-0.7c-0.2,0.2-0.4,0.4-0.6,0.6C280.1,458.9,282,457.7,281.6,457.9z"/>
		<path fill="#EF7B31" d="M856.1,512.5c2.3,1.9-2.6,6.6-3.9,8.7c-2.4,3.9-4.1,5-8.5,6.1c-8.2,2-15.7,2.4-21.5-4.7
			c-11.1-13.7-9.1-38.1-8.8-54.7c0.1-7.5-0.3-15-0.6-22.6c-0.2-4.3-0.9-8.6-1.5-12.8c-0.3-2.7-0.7-13.3-3.5-14.8
			c-3.4-1.7-12,12.5-13.5,15c-4.1,6.6-7.2,13.7-10,21c-6.7,17-12.8,34.5-17.4,52.2c-3.3,12.7-2.9,44.4-23.7,38.2
			c-6.9-2-6.8-9.6-7.3-15.6c-0.9-10.3-1.1-20.8-0.9-31.1c0.4-18.3,3.2-38.1,0.4-56.3c-1.2-8.1-6.8-19.2,5.9-19.2
			c3.6,0,5.9-0.2,8.5,2.4c3,3,2.6,7.5,2.9,11.6c0.6,11,0.2,22-0.3,33.1c-0.2,4.6-0.6,9.3-0.7,13.9c-0.1,4.3-0.7,10,0.3,14.2
			c2.7-0.8,4.3-10,5.2-12.7c1.7-5,3.3-10.2,4.9-15.3c3.2-10.2,7.2-20,11.1-29.9c4-10.1,10.4-21.6,17.7-29.6
			c6.5-7,17.2-15.2,26.9-8.1c7.5,5.5,9,18.9,10.3,27.3c0.8,5,1.1,10.2,1.1,15.2c0,4.5-0.6,9.3,0.2,13.6c1.6,9.2-0.7,19.5,0.9,28.6
			c0.7,4.3,1,26.4,7.7,26.7c4.3,0.2,8.9-10.1,10.6-13c3-5.3,5.8-10.7,8.5-16.1c2.1-4.2,4.6-7.9,6.7-12c0.9-1.7,2.2-4.5,3.6-5.8
			c0.4-0.4,0.6-1.3,1.1-1.6c1.8-1.1,3.1,1.3,5.2-0.5c1.1,3-1.7,10.7-3.4,13.3c-1.4,2.2-6.3,7.4-3.7,10.2c-0.7,0.4-1.3,0.7-1.9,1
			c-0.3,2.1-0.5,4.1-0.8,6.3c0.6-0.1,1.1-0.1,1.9-0.2c-0.5,1.1-0.9,2.1-1.3,3.2c-0.7-0.3-1.2-0.5-1.9-0.7c-1.6,3.7-3.7,6-4.9,10
			c2.7-1.5,2.4-4.8,5.1-5.8c-1,2.5-2.9,4.5-3.6,7.1C858.3,510.9,859.7,511.4,856.1,512.5z M863.2,478.5c0,0.2,0.1,0.3,0.1,0.5
			c0.4,0,0.8-0.1,1.1-0.1c-0.1-0.2-0.1-0.4-0.2-0.7C863.9,478.3,863.6,478.4,863.2,478.5z M826.8,512.8c-0.7-0.5-1.1-0.3-1.4,0.4
			C825.9,513.7,826.3,513.6,826.8,512.8z M856.2,508.1c-0.4,0.3-0.5,0.6-0.2,1C856.6,508.8,856.7,508.5,856.2,508.1z"/>
		<path fill="#EF7B31" d="M607.9,504.3c5.1-6.7,6.8-17.4,9.6-25.2c3.2-8.9,7.2-17.8,11.6-26.2c4-7.6,9.3-15.9,15-22.3
			c5.3-6,11.8-13.3,19.3-16.4c7.4-3,19-1.1,24.6,4.6c7.2,7.2,8.1,20.2,9.7,29.7c1.4,8.2,1.4,16.7,1.6,25c0.1,3.3-0.3,6.7-0.1,10.1
			c0.3,4.2,1.7,9.1,0.1,13.1c2.3,4.6,0.1,9.9,0.8,14.4c0.7,4.9,1,10.6,2.2,15.4c0.2,0.8,1.8,5.5,2.5,5.7c1.5,0.4,4-3.5,4.8-4.5
			c1.9-2.4,4.2-7,6.9-8.4c2.4-1.2,3.5,0.3,5.5,2c-0.9,3.8-1.3,6.9-2.6,10.7c0.9,1.5,0.9,1.5-0.4,3.2c1.7,2.1-1.6,6-3.8,5.6
			c-1.1,3.6-1.9,6.4-6.1,7.4c-3.3,0.9-9.1,0.4-12.4-0.6c-9-2.7-11.2-14.2-12.2-22.2c-2.3-18.5-0.9-37.7-1.4-56.4
			c-0.2-8.7-1.1-18.2-3-26.6c-0.8-3.8-2.5-8.2-4.5-11.5c-3.4-5.4-7.4-0.5-11,2.8c-11.8,10.6-19.8,23.1-26.5,37.3
			c-7.1,15-11.3,30.5-16.1,46.3c-2.7,8.8-4,17.8-6,26.7c-0.9,3.9-2.9,8.5-7.2,10c-2.9,1-10.3,0.3-12.8-1.8c-3.2-2.8-3-8.7-3.5-12.5
			c-0.6-4.6-1.1-9.1-1.1-13.8c-0.1-10.8-0.3-21.6-0.2-32.3c0.3-19.9,2.8-40.3-0.3-60.1c-0.6-3.7-2.3-9.6,2.7-11.6
			c2.1-0.9,10.1-0.7,12.1,0.5c4.3,2.5,3.4,9.5,3.4,13.4c0,6.1,0.4,12.2,0.2,18.3c-0.4,8.4-0.3,16.9-0.9,25.1
			C608,487.3,607.3,495.9,607.9,504.3z M600.8,510.9c-0.5,0.6-0.4,1.1,0.3,1.3C601.6,511.7,601.5,511.3,600.8,510.9z"/>
		<path fill="#EF7B31" d="M559.6,510.4c0.9-2.1,1.5-2.2,3.5-3c-0.2-0.5-0.5-0.8-0.7-1.3c2.3-3,5.3-5.2,7.7-7.5
			c1.9-1.8,2.2-4.7,4.3-6.5c1.1-1,2.7-0.8,4.1-2c1.2-1,1.3-2.1,2.2-3.1c2.4-2.9,3.5-3.8,7.2-2.8c-1.1,2.3-2.7,3.8-4.1,5.9
			c-0.8,1.2-1.1,2.8-1.8,3.9c-1.1,1.8-3.4,6.3-5.8,6.8c0.1,1.3,0.2,2.5,0.3,3.9c-3.9,0.3-5.5,3.1-7,6.7c-0.7,0-1.4,0.1-2,0.2
			c1.1,1.9-0.4,2.9-1.3,4.2c-2.3,0.8-2.4,0.3-1.2,3.1c-4.2,2-4.9,5.9-7.6,9.5c-1.5,2-3,4-4.5,6c-1.3,1.7-3.4,2.4-4.5,3.9
			c-2,2.5-3.2,5.4-5.5,7.9c-3.4,3.6-6.8,7.5-9.9,11.4c-3,0.3-3.3,0.5-3.9,3.3c-16,12.7-38.4,19.1-58.1,12.1
			c-21.9-7.7-29.1-34.8-31.8-55.3c-5.5-42,10.2-90.5,51.3-108.6c19.2-8.4,47.7-2.5,55.2,19.4c3.6,10.7,0.6,17.7-5.5,26.6
			c-6.7,9.6-14.6,18.2-23.6,25.5c-8.5,6.9-18.5,13.7-29.4,16.2c-4.4,1-22.9,3.2-21.6-6c0.7-4.9,6.9-5.8,10.6-6.7
			c6.1-1.6,11-4.4,16.4-7.5c10.3-6,18.5-13.4,26.2-22.5c3.9-4.6,7.9-8.9,10-14.8c2.1-6.1-1.8-11.6-6.2-15.6
			c-4.1-3.8-8.7-7.3-14.6-6.5c-6.2,0.8-12.2,4.5-17.3,8c-8.8,6.1-16.3,14.8-22,23.8c-3.2,5-5.7,10.5-7.5,16.1
			c-1.6,4.9-2.3,10.4-4.4,15c1.9,1.3,0,8.1-0.2,9.8c-0.5,4.7-0.6,9.2-0.7,13.9c-0.2,7.7,0.5,16.4,2.1,24.1c0.2,0.1,0.7,0.3,1.3,0.6
			c-1.7,2,0,1.9-0.4,3.9c-0.3,1.4-0.6,2.2-1.1,3.7c1,1,2.4,1,3.6,2.5c1.7,2,3,5.2,4.4,7.5c3.2,5.4,7.1,11,12.6,14.4
			c10.7,6.8,24.1,1.7,34.2-4c9.9-5.7,18.8-13.6,26.4-22.1c3.7-4.1,7.3-8.2,10.7-12.6C552.5,518,555.9,513.3,559.6,510.4
			c0.6,0.4,0.6,0.4,1-0.1C560.2,510.3,559.9,510.4,559.6,510.4z M583,487.8c-0.6-0.4-1-1.1-1.5,0.2c0.1,0.3,0.3,0.5,0.5,0.6
			C582.4,488.4,582.7,488.1,583,487.8z M560,516.1c-0.1-0.1-0.3-0.2-0.4-0.3c-0.2,0.3-0.5,0.6-0.7,0.9c0.2,0.1,0.4,0.3,0.6,0.4
			C559.6,516.8,559.8,516.4,560,516.1z"/>
		<path fill="#EF7B31" d="M999.4,395.3c-3.9-1.7-11.3,2.5-14.7,4.1c-4.7,2.2-9.6,4.4-14.1,7.2c-9.1,5.6-15.3,14.6-9.3,24.9
			c5,8.5,12.8,13.6,20.6,19.5c9.2,6.9,18.5,13.3,26.7,21.5c7.9,7.9,15.4,15.5,20.2,25.8c3.3,7,5.4,19.6,2.3,26.9
			c-7.5,17.7-29.5,26.4-47.7,25.9c-12.9-0.4-25.3-3.7-36.3-10.4c-4.5-2.7-7-5.8-10.7-9.5c-1.6-1.7-2-2.3-3-4.2
			c-0.7-1.4-1.2-4.6-2.8-4.9c0.2-0.9,0.3-1.6,0.5-2.2c0.7-0.3,6,1.8,6.7,2.1c2.5,1,4.3,2.9,6.6,4.4c1.1,0.7,1.8,1.4,3.2,1.7
			c0.9,0.2,1.6-1,2.4-0.8c2.8,0.7,6.1,3.1,8.9,4.3c13,5.7,30.9,8.7,44,1.3c12.9-7.3,13.4-21.7,7-33.8c-6.2-11.6-16.6-19.9-26.5-28.2
			c-16.1-13.5-60.6-35.2-39.8-62.7c6.6-8.7,16.7-13.3,26.2-18c11.2-5.5,24.7-10.9,37.4-8.6c5.6,1,12.7,3.9,14.3,9.5
			c1.7,6.2-2.1,7.8-6.3,11.5c-5.1,4.5-9.5,8.1-16.9,6C988.4,405.6,997.9,400.2,999.4,395.3z M947.4,414.4c-0.4-0.5-0.8-0.6-1.1-0.1
			C946.6,414.9,947,414.9,947.4,414.4z"/>
		<path fill="#EF7B31" d="M911.2,526.4c-0.6,0.1-1.1,0.2-1.7,0.3c-0.2,0.9-0.4,1.8-0.5,2.5c-5.3,1.2-13.4,4.4-15.9-2.8
			c-2-5.9-0.3-15.1-0.1-21.3c0.4-13.3,0.8-26.5,1.1-39.7c0.3-13.5-1-27.3-2.4-40.8c-0.6-6.3-0.6-13.5-3.1-19.4c-1-2.3-2.7-3.9-2-6.5
			c0.6-2.3,3-3.3,4.5-4.9c6.5,2,10.8,0.2,13.9,6.9c2.7,5.9,3.1,11.9,4.1,18.3c2.1,13.7-0.1,27.5,0.9,41.2
			c0.8,10.8-0.3,20.8-0.3,31.6c0,5.4-0.1,11.3-0.1,17c0,3.5-0.1,6.6,0.6,10C911,521.3,911.9,523.7,911.2,526.4z"/>
		<path fill="#EF7B31" d="M903.1,339.5c0.4,0.7,0.8,1.3,1,1.7c-3.6,3.6-6.3,3.3-10.7,5.4c-3,1.4-4.5,4.7-7.9,5.5
			c-4.8,1.2-16.9-2.2-14-8.7c2.4-5.4,14.5-10.6,20.1-10.8C895.3,332.5,905.8,334.4,903.1,339.5z"/>
		<path fill="#EF7B31" d="M264.4,538.5c-0.1,0.9-0.2,1.8-0.4,3.1c-2.5-1.1-3.5-2.8-4.3-5c-1.3,0.2-4.6-1.1-2.2-2.1
			C259.3,533.8,263,537.5,264.4,538.5z"/>
		<path fill="#EF7B31" d="M580,485.9c-0.4,0.4-0.8,0.8-1.3,1.2c-0.1-0.1-0.2-0.2-0.3-0.3c0.4-0.4,0.8-0.8,1.1-1.3
			C579.7,485.6,579.9,485.8,580,485.9z"/>
		<path fill="#EF7B31" d="M252.4,527.6c-0.7,0.4-1.1,0.2-1.2-0.5C251.7,526.8,252.2,526.9,252.4,527.6z"/>
		<path fill="#EF7B31" d="M255.8,525.6c-0.3-1-0.4-1.7,0.7-0.9C256.4,524.8,256.3,524.9,255.8,525.6z"/>
		<path fill="#EF7B31" d="M249.3,525.6c-0.4-0.4-0.4-0.8,0.1-1.1C249.9,524.8,249.8,525.2,249.3,525.6z"/>
		<path fill="#EF7B31" d="M260.4,530.2c-0.1-0.2-0.1-0.3-0.2-0.5c0.3-0.3,0.5-0.2,0.6,0.3C260.6,530.1,260.5,530.1,260.4,530.2z"/>
		<path fill="#EF7B31" d="M577.7,488.5c-0.2,0.2-0.3,0.3-0.4,0.4C576.9,488.3,577.1,488.1,577.7,488.5z"/>
		<path fill="#EF7B31" d="M258.8,525.7c-0.2,0.2-0.4,0.1-0.5-0.2C258.5,525.3,258.7,525.4,258.8,525.7z"/>
		<path fill="#EF7B31" d="M287.4,549.3c-0.4-0.4-0.4-0.7,0.2-0.8C287.9,548.8,287.9,549.1,287.4,549.3z"/>
	</g>
</g>
<g id="Laag_2" display="none">
	<rect x="202.5" y="205.5" display="inline" fill="none" stroke="#FF0000" stroke-miterlimit="10" width="870" height="402"/>
</g>
</svg>
