<?xml version="1.0" encoding="utf-8"?>
<!-- Generator: Adobe Illustrator 19.2.0, SVG Export Plug-In . SVG Version: 6.00 Build 0)  -->
<svg version="1.2" baseProfile="tiny" xmlns="http://www.w3.org/2000/svg" xmlns:xlink="http://www.w3.org/1999/xlink" x="0px"
	 y="0px" viewBox="0 0 1280 800" xml:space="preserve">
<g id="Laag_1">
	<path fill="#EF7B31" d="M330.4,292.9c-2,0.9-4.5,2.5-6.7,2.2c-1.1-0.2-5.9-2.8-6.4-3.6c0.3-2.6,0.5-5.1,0.9-7.9
		c4.9-3.6,10.3-5.4,16-7.4c7.3-2.6,9.8-5.6,14.2-11.8c3.4-4.8,6.4-9.9,9.9-14.7c4-5.6,6-8.1,13.4-7c-0.1,3.6-4.3,8.3-6.1,11.4
		c-2.1,3.7-5.7,8.1-6.7,12.3c2.9,1,7.4-1.6,10.2-2.4c2.7-0.8,5.4-1.2,8.2-1.9c7-1.8,14.1-2,20.5-4.7c5.4-2.3,10.9-1.8,16.2-3.5
		c2.6-0.8,16.1-5.6,17.6-3.2c2.1-0.2,2.4-1.5,4-2.4c2.2-1.2,4.6-1.2,7.1-1.5c1.9-2.3,4.2-2.6,6.8-1.1c2.1-1.6,4.3-0.9,6.7-1.1
		c3-0.2,6.1-1.3,9-1.6c0.8-0.1,1.4,0.8,2.3,0.4c1-0.5,1.3-1.9,2.3-2.5c2.9-1.7,7.2-1.1,10.3-0.6c2.1-2.1,4.4-3.2,7.1-1.4
		c1.1-0.4,0.4-1.2,0.7-1.7c2.8-0.3,5.8,0.9,9,0.3c3-0.5,5.9-0.6,8.9-0.8c7.4-0.6,13.2-2.6,20.3,0.1c-1.5,2.2-8.2,4.5-10.6,2.9
		c-2.6,1.4-5,2.8-7.9,3.3c-3.1,0.5-6.1,0.3-9.1,1.2c-2.7,0.9-2.4,0.7-5,0.4c-2-0.2-4.6-0.8-2.4,2.5c-3.7,1-7.3,2-10.9,3.1
		c-4.5,1.4-9.2,0.9-13.7,2c-2.8,0.7-5.7,1.5-8.6,2.2c-5,1.4-4.9,3.1-9.3-0.1c-1.1,0.7-0.8,2.4-2.2,3.3c-2.4,1.7-7.7,1.5-10.6,2
		c-6.7,1-12.8,3.9-19.4,5.3c-14.2,2.9-28.5,7.4-42.4,11.3c-7.4,2.1-15.4,3.8-22.4,7c-5.9,2.7-7.1,8.8-9.7,14.2
		c-7.3,15-17.2,28.9-24.4,43.9c-5.9,12.3-13.2,23.9-19.7,35.8c-3.8,6.9-7.7,13.7-11.6,20.6c-1.1,1.9-9.9,15-8.2,16.7
		c1.3,1.3,7.3-0.7,8.8-0.9c4.3-0.8,8.5-1.8,12.7-2.8c9.3-2.2,18.6-4.4,27.8-6.8c15.7-4.1,31.3-8.1,47.1-12.1
		c18.9-4.7,37.6-9.7,56.5-14.6c17.7-4.6,35.3-8.3,53.1-12.3c2.8,3.7,10.7,0.5,8.7,6.2c-1.7,4.9-10.7,6.7-14.9,7.7
		c-4.9,1.2-9.5,2.1-14.2,3.6c-3.8,1.2-14,5.3-17.8,3.9c-7,3-14.3,4-21.5,6c-6.9,1.9-14,3.7-21,5.5c-6.6,1.8-13.1,4.4-20,5
		c-6.7,0.6-14,4-20.6,5.9c-14.4,4.2-28.9,7.2-43.3,11.3c-16,4.5-34.4,11.1-51.1,10.1c-7.8,11.2-13.6,23.9-19.9,36
		c-2.4,4.7-5.1,9-7.5,13.7c-2.9,5.8-5.9,12.3-9.5,17.8c-7.8,11.9-16.6,25.5-21.9,38.7c-1,2.4-3.4,7.8-1.8,10.4
		c1.5,2.4,4.4,1.6,6.8,1.5c8-0.5,15.7-2.3,23.5-4c32-7.1,63.4-17,94.8-26.4c29.1-8.7,58.7-15.7,87.8-24.4c16-4.8,32.8-8.7,49.1-12.3
		c8.3-1.8,16.6-3.7,24.9-5.8c3-0.8,4.2-1.5,6.9-0.2c2.9,1.4,3.1,1.7,6.6,2.6c0.3,4.2-2.8,5.8-5.8,7.7c-1-0.4-2.2-0.9-3.4-1.4
		c-0.6,0.9,1.2,1.6,0.3,2.6c-0.5-0.2-1.1-0.3-1.6-0.5c-2.1,2.6-2.5,2.8-7,3.5c-0.1-0.4-0.1-0.8,0-1.2c-1-0.3-2.5,0.2-3.5,0.4
		c-1.4,6.9-20.7,6.4-26,8.1c-3.8,1.2-7.1,2.5-11.1,3.3c-4.9,0.9-9.4,3.5-14.3,4.3c-16.5,2.5-33,8.6-49.3,12.9
		c-7.4,2-15.5,3.2-22.7,5.7c-4.7,1.6-9,3.2-14,4c-3.5,0.6-5.9,2.2-9.3,3.2c-8.4,2.4-16.8,5.1-25.3,7.7c-3.4,1-6.7,1.5-9.9,2.9
		c-4.1,1.7-8.7,4.1-13.2,2.4c-5.7,2.1-10.3,4.8-16.4,6.3c-2.8,0.7-5.3,1.6-8,1.5c-2.4-0.1-2.7-0.9-5.4,0.1c0.4,1,1.4,0.4,1.8,1
		c-0.7,1.5-8.1,3.3-9.8,3.3c-3.2,0.1-5.3-2.3-7.6,1.1c-0.7-0.2-1.4-0.5-2.2-0.7c-7.3,6.3-24.2,7.2-33.4,6.1
		c-10.9-1.3-21.4-6.7-19.8-19.6c1.5-12,10.9-24,17.1-34c6-9.7,11.2-20.3,17.7-29.6c6.5-9.3,11.4-19.7,16.7-29.7
		c5.2-9.9,11-19.7,16.6-29.5c10.4-18.4,20.9-36.7,31.5-55c7.3-12.6,14.3-25.6,21.1-38.5C317.5,314.8,326,304.8,330.4,292.9z
		 M472.4,249.9c0.7,0.9,4,0.3,3.6-1.1C475.7,247.8,472.5,249.5,472.4,249.9z M486.8,246.2c-0.1,0.1-0.3,0.3-0.4,0.4
		c0.2,0.3,0.4,0.2,0.6-0.2C486.9,246.3,486.9,246.2,486.8,246.2z M397.2,268.3c-0.4-0.5-0.7-0.5-0.5,0.2
		C396.8,268.5,397,268.4,397.2,268.3z M253.1,553.3c-0.1,0.1-0.2,0.3-0.3,0.4c0.3,0.4,0.6,0.3,0.7-0.2
		C253.4,553.4,253.3,553.4,253.1,553.3z M447.4,247.5l0.2-0.1l-0.2-0.1L447.4,247.5z"/>
	<path fill="#EF7B31" d="M1059.9,381.1c-6.3,0.5-13.7,5.8-19.1,8.7c-6.2,3.4-13.3,6.8-18.8,10.9c-4.8,3.5-9.7,7.9-14.4,11.5
		c-2,1.6-5,3.1-6.6,5.1c-1,1.3-1.1,2.4-2.2,3.5c-1,0.9-2.6,1.3-3.6,2.3c-3.8,3.5-6.4,9.3-9.8,13.3c-4.8,5.7-10,10.9-14.7,16.8
		c-4.1,5.1-8.7,11.9-16.3,9.1c-6-2.2-6.3-8.4-7-13.7c-12.6,9.5-28.1,15.7-43.7,18.7c-12.7,2.4-34.5,0.3-36-16.5
		c-1.4-17,12.3-33.4,20.4-47.1c4.5-7.6,10.2-14.8,14.4-22.6c1.5-2.8,2.8-8.1,7.1-5.9c1.7,0.9,0.9,1.9,2.3,3.1c1,0.9,2.2,1.1,3.4,1.9
		c6.3,8.7-8.9,25.7-13.2,32.9c-3.3,5.7-6.8,11.3-10,17c-2.6,4.5-7,11.9-6.6,17.3c0.8,12.4,25.5,1.9,31.9-0.3
		c6.5-2.3,13.1-4.7,19.4-7.5c5.5-2.4,8.9-4.6,15-3.4c2.2-0.8,3.2-5,4.3-6.9c1.7-3,3.7-5.8,5.4-8.8c3.8-6.6,7.4-13.4,10.9-20.2
		c3.3-6.3,6.8-12.6,10.1-18.9c2.3-4.4,4.9-12.7,11.3-10.1c1.8,4.1,3.4,1.7,5.9,4.8c2.8,3.4-1.7,8.9-3.4,11.9
		c-2.5,4.5-5.2,8.9-7.7,13.4c-2.4,4.4-6.4,10.1-7.5,15c1.2,1.8,16.3-13.6,18.4-15.3c7.8-6.7,15.9-14.8,24.9-20
		c9.3-5.3,18.8-10,28.6-14.2c9.3-3.9,20.4-5.5,25.5,5.4c3.6,7.7-4.2,20.3-7.6,27.3c-4.9,10.1-9.9,20.1-13.4,30.8
		c-1.1,3.4-3.6,9.1-1.2,12.5c2.5,3.5,8.9,1.7,12.3,1c5-1,9.8-3.1,14.9-3.5c6.8-0.5,5.1,2.3,0.2,4.8c0.2,0.8,0.3,1.5,0.5,2.4
		c-3.3,2.5-7.5,2.9-11.3,4.2c-3.3,1.2-10.2,5.6-13.7,3c-1.8,0.5-3.7,1.1-5.6,1.6c-1.8-2.2-5-2-7.2-3.6c-2.5-1.8-5-5.3-6.2-8.1
		c-2.9-6.9-0.7-15.3,1.6-22.1c2.4-7,6-13.7,9.4-20.2c1.9-3.6,3.6-7.2,5.3-10.8C1057.5,388.8,1061.1,384.1,1059.9,381.1z M943,449.9
		c-0.2-0.3-0.3-0.4-0.4-0.6C941.7,450,942,450.4,943,449.9z"/>
	<path fill="#EF7B31" d="M694.2,334.2c0-0.5,0-1,0-1.6c-2-0.2-2.3,1.4-2.6,3.1c0.8,0.6,2.1-1,2.8,0.7
		c-10.3,14.3-18.5,29.4-27.6,44.7c-10.3,17.3-21.9,35.2-28.8,54.1c-3.4,9.4-6.8,18.9-8.4,28.9c-0.7,4.7-0.7,8.8,1.4,13.1
		c2.4,5,6.2,8.8-1.3,8.5c-9.5-0.3-15.2-8.2-16.3-17.3c-0.7-5.7,0.7-10.9,2-16.4c0.8-3.4,3.4-11.3,1.4-14.2c-1,0.3-0.3,1.3-1.1,2
		c-4,2-5.9,4.7-6.8,8.9c-3.8,1.4-3.4,3.4-5.5,6.4c-2.1,3-5.3,5.6-8,8c-4.8,4.4-9.1,9.7-14.7,13.2c-6.3,4-10.2,8.2-18.2,8.7
		c-6.7,0.4-15-2.1-18.9-8.2c-4.5-4.1-6.6-11.2-7.2-17c-0.6-6.8,2.7-12.9,5.1-19.1c4.4-11.3,11.1-23.5,18.6-33
		c3.6,0.5,2.2-0.6,1.9-2.7c2.7-4.1,6.9-7.2,9.4-11.3c2.2-3.5,2.4-6.1,6.9-7.6c1.1-0.8,3-3.7,4.1-5c1.6-2,2.8-3.8,4.8-5.7
		c5.3-5.1,11-5.5,17.4-9.2c7.8-4.6,16.6-7.8,25.5-9.6c6-1.2,19.3-2.2,22.8,4.5c-1.9,1.7-2.6,4.5-5.3,5c-2.3,0.4-4.9-1.7-7-2.2
		c-5.3-1.2-10.4,0.4-15.3,2.3c-10.8,4.3-20,11.2-28.4,19.1c-16.9,15.9-31,35.9-40.6,57c-2.1,4.7-4.5,10.5-5.2,15.7
		c-0.5,4.2,0.8,12.9,5.8,14.5c3.9,1.3,9.9-3.1,13-4.9c4.8-2.8,8.7-6.6,12.8-10.2c8.2-7.3,16.7-14.5,24.5-22c3.1-2.9,7.2-6.2,10-9.5
		c2.4-2.9,4.9-7.7,8.4-9.5c1-1.6,2.4-2.4,4.4-2c1.3-5.2,4.4-5.2,7.9-9.1c0.8-4,1.1-5,3.6-8.2c2.7-3.4,3.6-7.7,5.9-11.3
		c1.5-2.3,3.9-3.4,5-5.3c0.5-0.8,0.3-2.6,1-3.8c1-1.7,2.8-2.8,3.8-4.5c4.9-7.5,8.4-15.8,13.9-22.9c5.4-6.9,9.7-14.6,14.6-21.8
		c10.4-15.4,19.9-31.3,30.9-46.3c5.4-7.2,11-14.9,17.1-21.5c5-5.3,13.8-15.4,21.3-7.5c1.2,4.6-3.7,8.1-6.5,10.8
		c-3.3,3.2-6.2,6.7-9.1,10.3c-6.1,7.9-12.3,15.7-18.4,23.6c-4.6,5.9-9.2,12-13.2,18.4c-2.4,3.8-4.9,7.6-7.5,11.2
		C699.6,328.5,695.6,334.6,694.2,334.2z M671,362.4c-0.1,0-2.1,0.2-1.5,1.1c0.8,1.2,2.1-2.5,2.2-2.7
		C670.5,361.2,670.9,361.9,671,362.4z M612.3,436.8c2.3-1,7-5.2,8.9-7.2c2-2,6.8-8.7,1.2-6.6C620.1,423.9,610.9,434.8,612.3,436.8z
		 M682.3,349.4c-1.6,0.3-6.3,6.6-2.6,6.9C679.5,353.5,682.4,352.1,682.3,349.4z M662.6,374.2 M674.8,361.9 M674.4,355.5
		 M664.2,379.8c1.4-0.2,0.2-1.6,0.3-1.7C663.9,378.6,663.8,379.2,664.2,379.8z M705.6,315.7c-0.4-0.4-1.5-0.9-1.6,0.2
		C703.9,317.3,705.5,315.9,705.6,315.7z M683.8,346.7c1,0.1,1.3-0.4,1.7-1.1C684.4,345.5,684.1,346,683.8,346.7z M683.3,340.9
		c0.2-0.1,0.5-0.3,0.7-0.5c-0.4-0.6-0.8-0.6-1.2,0C682.9,340.6,683.1,340.7,683.3,340.9z M695.9,329.9c0.7-0.5,0.7-1,0.2-1.4
		C694.9,328.4,695.5,329.7,695.9,329.9z M670.8,367.8c0.1,0.1,0.2,0.2,0.2,0.3c0.6-0.1,0.8-0.5,0.8-1
		C671.3,366.9,670.9,367.2,670.8,367.8z M650.5,394.9c0-0.5-0.3-0.6-0.7-0.3C649.9,395.1,650.1,395.2,650.5,394.9z M654.9,386.9
		c-0.2,0-0.3-0.1-0.5-0.1C654.4,387.5,654.6,387.4,654.9,386.9z M666.8,368.3c0,0.1-0.1,0.1-0.1,0.2
		C667,368.7,667.1,368.5,666.8,368.3z M690,337.3c-0.2-0.2-0.3-0.1-0.3,0.1C689.8,337.5,689.9,337.5,690,337.3z M627.7,417.6l-0.2,0
		l0.1,0.2L627.7,417.6z M654.3,397.5l0,0.2l0.2-0.1L654.3,397.5z M655.9,384l-0.2,0l0.1,0.2L655.9,384z"/>
	<path fill="#EF7B31" d="M818.7,459.3c0.4,0.6,0.7,1,1,1.6c-2.5,4.9-7,7.9-10.8,11.7c-2.9,2.9-4.4,4.9-8.4,6.1
		c-1.2,0.4-2.9,0.4-4,0.9c-1.2,0.6-1.9,2-3.3,2.5c-3.5,1.3-7.2-0.9-10.4-1.8c-3.3-0.9-5.2-1.5-7.7-3.9c-5.4-5.2-9.1-14-9.5-21.4
		c-0.4-7.7,2.7-16.3,4.5-23.7c0.9-3.7,2-7.3,3-10.9c0.8-2.8,3.6-9.5,2.3-12.2c-2-4.2-3.1-0.4-4.8,1.9c-2.1,2.7-4.7,2.8-6.8,5
		c-1.6,1.7-1.1,5.2-2.3,6.6c-1.5,1.8-4.2,2.5-6.3,3.9c0.3,0.6,0.5,1.3,0.8,1.8c-1,0.9-3.2,1.2-4.5,2.1c-3,1.9-2.7,3.6-4.3,6.4
		c-2.3,4-6.6,6.5-9,10.6c-0.9,0.1-1.7,0.1-2.7,0.2c0.4,1.1,0.7,1.9,1,2.7c-0.5,1-1,0.1-1.5,0.2c-1.6,1-2,2.8-3.3,4.1
		c-1.7,1.8-4.3,3.8-6.4,5.1c-4.6,2.9-11.5,4.7-16.7,2.7c-11-4.1-17.3-18.2-13.8-29.5c0.5-8.9,6.2-18.1,10-25.9
		c4.8-9.7,9.6-19.4,14.7-29.1c2.6-4.9,5.1-9.9,7.9-14.7c1.3-2.2,2.5-4.6,4.2-6.5c1.2-1.3,3.1-2.2,4.1-3.5c1.2-1.5,0.6-3,1.5-4.4
		c1.1-1.8,3.9-3.2,5.8-4.1c4-1.8,8.7-2.2,11.5,1.8c-1.4,6-7.7,12.4-10.9,17.6c-4,6.4-7.6,13.2-10.8,20
		c-6.1,12.9-13.2,25.2-17.9,38.6c-2.1,6-4.4,12.3-4.2,18.8c0.1,3.5,0.2,6.5,4,6.4c3-0.1,7.6-3.8,10-5.6c10.9-8,20.1-18.3,30-27.5
		c8.2-7.6,15.9-16.6,22.8-25.5c3-3.9,6.1-12.3,11.3-11.8c3.8,0.4,8.7,3.2,10.1,7.2c1.7,5.1-2.7,12.7-4.2,17.7
		c-2.2,7.5-5,14.8-7,22.3c-3.1,11.5-9.3,25.4-4.4,37.3c4.1,10.1,11.4,3.4,17.2-2c5.4-5.1,11.7-11.2,16.2-16.9
		c3.5-4.5,6.4-9.9,9.8-14.6c3.1-4.4,5.6-11.4,10.5-13.9c-0.1-3.1,1.9-4.1,3.3-6.5c1.4-2.4,2.3-5.5,3.6-8.1c2.8-5.5,5.7-10.9,8-16.7
		c2.3-5.6,4.6-11.1,6.4-16.9c2-6.1,0-12.8,2.9-18.6c4.8,1.4,9.8,5.5,11.1,10.6c1.3,5.6-1.9,11.5-0.1,17c-0.7,0-1.2,0-1.6,0
		c-0.9,1-1.7,2-2.6,3c0.2,0.5,0.4,1.1,0.7,1.7c-6.1,4.7-8.6,13.7-12.2,20.3c-3.9,7.2-6.9,14.8-10.9,22
		C838,435.1,827.4,446.7,818.7,459.3z M814.2,464.1c1.2-0.1,1.7-0.6,1.7-1.5C815.5,461.6,812.6,463.1,814.2,464.1z M792.5,480
		c0.7-0.5,0.7-1,0-1.4C791.7,479,791.7,479.5,792.5,480z M762.5,410.3c-0.5,0.4-0.4,0.6,0.2,0.5
		C762.7,410.6,762.6,410.5,762.5,410.3z M760.1,420.8c0-0.1,0-0.2-0.1-0.2c-0.2,0-0.3,0.1-0.2,0.3
		C759.9,420.8,760,420.8,760.1,420.8z M768.6,405.3c0,0.1,0,0.2,0,0.3c0.1-0.1,0.3-0.1,0.4-0.2C768.9,405.1,768.8,405.1,768.6,405.3
		z"/>
	<path fill="#EF7B31" d="M950.2,314.4c-2.2,1.3-5.2,1.7-6.7,4.5c1.4,1.5,2.2,2.7,3.1,4.6c-1.5,5.2-3.9,8.4-7.6,12.3
		c-3.5,3.6-6.2,7.9-11.2,9c-10.2,2.3-12.2-10.3-10.1-18.1c1.9-6.9,12.9-19.6,19.7-21.8c2.1-0.7,2-0.3,4,0c0.8,0.6,1.7,1.2,2.7,1.6
		c1.2,0.1,2.3,0.1,3.5,0.1C952.4,307.8,952.2,310.6,950.2,314.4z"/>
	<path d="M765.9,446.3c0.1,0,0.2,0.1,0.3,0.1c-0.1,0.4-0.3,0.5-0.5,0.3C765.7,446.6,765.8,446.4,765.9,446.3z"/>
	<polygon points="826.7,482.4 826.7,482.6 826.6,482.5 	"/>
	<path d="M529.3,236.4c0,0.3-0.2,0.3-0.2,0C529.1,236.4,529.2,236.4,529.3,236.4z"/>
</g>
<g id="Laag_2" display="none">
	<rect x="202.5" y="-1434.5" display="inline" fill="none" stroke="#FF0000" stroke-miterlimit="10" width="870" height="402"/>
	<rect x="1502.5" y="-1434.5" display="inline" fill="none" stroke="#FF0000" stroke-miterlimit="10" width="870" height="402"/>
	<rect x="2802.5" y="-1434.5" display="inline" fill="none" stroke="#FF0000" stroke-miterlimit="10" width="870" height="402"/>
	<rect x="202.5" y="-614.5" display="inline" fill="none" stroke="#FF0000" stroke-miterlimit="10" width="870" height="402"/>
	<rect x="1502.5" y="-614.5" display="inline" fill="none" stroke="#FF0000" stroke-miterlimit="10" width="870" height="402"/>
	<rect x="2802.5" y="-614.5" display="inline" fill="none" stroke="#FF0000" stroke-miterlimit="10" width="870" height="402"/>
	<rect x="202.5" y="205.5" display="inline" fill="none" stroke="#FF0000" stroke-miterlimit="10" width="870" height="402"/>
	<rect x="1502.5" y="205.5" display="inline" fill="none" stroke="#FF0000" stroke-miterlimit="10" width="870" height="402"/>
	<rect x="2802.5" y="205.5" display="inline" fill="none" stroke="#FF0000" stroke-miterlimit="10" width="870" height="402"/>
</g>
</svg>
