<?xml version="1.0" encoding="utf-8"?>
<!-- Generator: Adobe Illustrator 13.0.1, SVG Export Plug-In . SVG Version: 6.00 Build 14948)  -->
<!DOCTYPE svg PUBLIC "-//W3C//DTD SVG 1.1//EN" "http://www.w3.org/Graphics/SVG/1.1/DTD/svg11.dtd">
<svg version="1.1" xmlns="http://www.w3.org/2000/svg" xmlns:xlink="http://www.w3.org/1999/xlink" x="0px" y="0px"
	 width="215.334px" height="110px" viewBox="0 0 215.334 110" enable-background="new 0 0 215.334 110" xml:space="preserve">
<g id="Layer_2">
	<g>
		<g>
			<path fill="#f17b22"  d="M17.615,76.021c-3.122,2.12-9.317,4.134-12.66,1.45C1.75,74.899,6.417,64.583,7.336,61.786
				c3.195-9.728,9.673-18.75,15.982-26.676c4.988-6.266,12.763-16.345,21.387-17.345c9.02-1.046,10.66,18.487,11.157,23.889
				c1.237,13.448-0.601,26.686-3.621,39.766c-1.257,5.444-2.54,10.889-4.062,16.267c-0.229,0.813-2.678,7.988-3.234,7.254
				c-2.589-3.421-0.385-8.906,0.884-12.416c2.038-5.64,5.02-10.911,7.54-16.339c2.501-5.387,5.988-9.928,10.394-13.912
				c1.125-1.018,5.625-5.298,6.777-2.126c0.852,2.343,0.452,5.363,0.219,7.789c-0.214,2.23-2.521,6.644-1.503,8.785
				c1.189,2.504,4.177-0.66,5.167-1.631c2.862-2.809,5.353-5.8,9.19-7.351c6.868-2.775,4.905,8.594,4.333,11.827
				c0.579,0.159,1.157,0.319,1.735,0.479c2.164-12.49,3.865-26.24,8.917-37.936c2.997-6.938,7.785-13.321,12.313-19.311
				c4.78-6.322,10.632-14.27,18.026-17.689c1.053-0.487,0.138-2.039-0.908-1.555c-6.959,3.219-12.302,10.281-16.948,16.113
				c-5.152,6.466-10.097,13.412-13.728,20.863c-3.297,6.766-4.573,14.732-6.126,22.03c-1.201,5.645-2.295,11.318-3.28,17.005
				c-0.197,1.134,1.533,1.621,1.735,0.479c0.742-4.184,2.701-14.196-4.057-14.54c-2.246-0.114-4.58,1.39-6.338,2.593
				c-1.084,0.742-2.086,1.609-3.057,2.491c-0.892,0.811-5.404,4.692-5.347,5.222c-0.155-1.427,0.884-3.281,1.192-4.677
				c0.388-1.756,0.541-3.576,0.66-5.366c0.138-2.067,0.466-7.022-1.822-8.32c-5.568-3.157-14.465,9.786-16.767,13.312
				c-2.701,4.137-4.561,9.098-6.697,13.55c-2.246,4.678-4.443,9.544-5.251,14.704c-0.181,1.152,0.342,10.046,3.775,7.76
				c1.282-0.854,1.83-2.431,2.378-3.801c1.692-4.225,2.669-8.789,3.755-13.194c3.1-12.573,5.713-24.952,5.919-37.946
				c0.122-7.697-0.544-15.519-2.483-22.982c-1.132-4.358-2.987-9.146-6.799-11.827c-8.259-5.808-20.849,9.869-25.059,14.818
				C14.119,43.089,6.453,55.83,2.966,70.255c-0.743,3.074-1.515,7.272,1.687,9.175c3.983,2.366,10.342,0.541,13.871-1.854
				C19.477,76.927,18.578,75.367,17.615,76.021L17.615,76.021z"/>
		</g>
	</g>
	<g>
		<g>
			<path fill="#f17b22" d="M108.157,74.984c-1.117-2.696,1.666-5.909,2.924-8.116c1.458-2.559,2.58-5.366,3.401-8.188
				c0.662-2.271,0.628-5.772-2.632-4.566c-2.02,0.747-6.301,4.573-5.485,7.13c1.16,3.638,7.745,0.319,9.941-0.349
				c7.333-2.231,17.249-5.76,22.072,2.285c0.778,1.461,1.175,3.015,1.188,4.661c0.245,2.167-0.479,2.402-2.172,0.706
				c-0.102-1.992,0.519-4.203,1.09-6.111c1.304-4.352,4.341-8.353,7.355-11.639c2.204-2.402,23.222-21.554,25.258-19.047
				c0.732,0.902,1.998-0.38,1.273-1.272c-3.396-4.181-20.521,12.264-22.933,14.402c-5.128,4.547-9.618,9.591-12.298,15.989
				c-0.735,1.755-3.715,13.393,1.673,11.911c5.623-1.547,1.002-10.969-0.816-13.335c-3.569-4.644-11.223-3.038-16.03-1.971
				c-3.501,0.777-6.91,1.941-10.346,2.957c-7.358,2.174,3.056-8.861,0.814-1.165c-1.206,4.14-3.724,7.502-5.51,11.345
				c-0.625,1.344-1.109,3.394-0.504,4.852C106.859,76.519,108.602,76.056,108.157,74.984L108.157,74.984z"/>
		</g>
	</g>
	<g>
		<g>
			<path fill="#f17b22" d="M158.123,60.537c1.432-1.495,4.329-3.94,4.272-6.222c-0.008-0.29-0.16-0.652-0.446-0.777
				c-3.387-1.481-7.647,7.328-5.022,9.933c1.83,1.817,6.189-0.216,7.883-0.98c3.126-1.412,6.12-3.059,9.136-4.688
				c3.375-1.824,1.828-1.136,1.83,1.411c0.001,2.055,1.182,2.582,3.058,2.323c2.469-0.34,4.981-2.283,7.093-3.448
				c2.008-1.107,5.505-4.059,6.434-0.684c0.506,1.84,3.42,0.695,4.412,0.11c1.854-1.091,3.47-2.571,5.323-3.684
				c1.91-1.146,7.206-2.859,8.805-2.132c0.151-0.559,0.303-1.118,0.454-1.677c0.198,0.143,0.396,0.285,0.594,0.427
				c-0.093-1.149-1.894-1.158-1.801,0c0.061,0.746,0.406,1.308,1.207,1.374c0.871,0.071,1.263-1.31,0.454-1.677
				c-1.847-0.84-4.78,0.134-6.662,0.511c-3.557,0.713-6.399,3.308-9.282,5.305c-3.059,2.119-0.522-1.542-2.706-2.234
				c-3.035-0.962-7.266,2.326-9.685,3.66c-1.512,0.834-6.784,4.401-5.428,0.176c0.172-0.537,0.509-1.466,0.158-2.023
				c-0.748-1.187-2.004-0.834-3.137-0.3c-4.908,2.315-9.427,5.489-14.727,6.899c-2.058-1.49-2.477-2.958-1.258-4.404
				c0.392-0.528,0.783-1.057,1.175-1.585c0.918-0.636,0.857-0.859-0.184-0.67c-0.854,1.378-2.103,2.616-3.224,3.786
				C156.047,60.101,157.318,61.375,158.123,60.537L158.123,60.537z"/>
		</g>
	</g>
</g>
</svg>
