<?xml version="1.0" encoding="utf-8"?>
<!-- Generator: Adobe Illustrator 19.2.0, SVG Export Plug-In . SVG Version: 6.00 Build 0)  -->
<svg version="1.2" baseProfile="tiny" xmlns="http://www.w3.org/2000/svg" xmlns:xlink="http://www.w3.org/1999/xlink" x="0px"
	 y="0px" viewBox="0 0 1280 800" xml:space="preserve">
<g id="Laag_1">
	<g>
		<path fill="#EF7B31" d="M616.6,565.2c1.6-25.1,7.7-49.8,17.5-73c4.7-11.1,11.1-22.3,19.3-31.3c8.7-9.5,19.7-10.9,31.5-6.6
			c8.6-8,20.7,1.8,26.5,9.1c7.5,9.5,12.6,20.3,15.5,32.1c6.2,24.9,6.5,52.7-5.4,76c-10.9,21.2-31.9,36-55.5,39.5
			c-11.6,1.7-24.6-1.3-33.7-9c-4.2-3.6-7.6-8.1-10.1-12.9c-1.4-2.8-2.6-5.7-3.5-8.7c-0.6-2.1-0.5-5.7-2-7.3
			c-1.2,6.8-0.6,14.1-1.2,21c-0.6,7.3-1.6,14.5-2.5,21.8c7.3,1.7,0.6,20.1-7.1,11.5c-3.3-3.7-1.8-10.2-1.4-14.6
			c0.6-5.9,1.5-11.7,2.2-17.5c2.7-23.3,2-47.7-9.8-68.6c-11.4-20.2-29.7-34.3-49.9-45.1c-9.9-5.3-19.8-9.7-30.3-13.9
			c-5.7-2.3-11.4-4.5-17.1-6.6c-4.2-1.5-11.9-5.6-16.3-4.5c-0.7,6.2,0.3,12.9,0.3,19.2c0,6.9-0.1,13.9-0.1,20.8
			c0,13.1-0.2,26.1-0.5,39.2c-0.6,28.5-0.6,57.1-1.2,85.6c-0.1,3.7-0.5,9.6-5.9,6.9c-4.8-2.4-2-12-1.9-16.4
			c0.4-13.7,0.6-27.5,0.6-41.2c-0.2-27.6,1.5-55.2,1.4-82.8c0-6.5,0-13-0.1-19.5c0-5,1.8-12.6-2.5-15.4c-4.5-3-31.8-5.1-28.6-15.5
			c1.2-3.8,12.1-7.1,15.5-8.9c4.2-2.2,12.7-4.5,13.8-9.4c1.3-5.7-0.8-14.1-1.1-19.9c-0.3-6.9-0.7-13.9-1.1-20.8
			c-1.7-27.6-3.1-55.3-4.1-83c-0.6-14.1-1-28.5-0.5-42.6c0.2-6.2,0.2-12.7,1.2-18.9c1-6.2,6.8-5.4,8,0.4c1.3,6.1-1,14-1,20.4
			c0,7.5-0.2,15-0.1,22.5c0.2,15.6,0.8,31.2,1.5,46.9c1.4,30.8,2,61.8,4.5,92.5c6-1.5,12.3-6.9,17.5-10.1
			c5.3-3.2,10.2-6.9,15.4-10.3c10.4-6.6,20.3-13.8,30-21.3c18.6-14.4,36.7-29.1,53.4-45.7c17.8-17.8,35.4-39.4,42.8-63.8
			c7.7-25.4-4.9-47.3-27.6-59.1c-45.2-23.4-106.7-16.2-143.6,18.8c-37.3,35.4-46.7,90.3-34.6,138.7c3,11.8,8.3,23.3,10.1,35.3
			c0.7,4.4,0.7,7.2-2.9,2.4c-3.8-5.1-5.2-11.6-7.1-17.6c-8.3-26.7-15.3-54-11.4-82.2c6.4-46.6,35.8-92.8,81.9-108.1
			c25.9-8.6,53.5-10.4,80.4-4.9c23.7,4.9,49.1,16.7,60.2,39.7c11.5,23.9,1.1,51-12.7,71.5c-13.9,20.6-31.6,38.3-50.1,54.6
			c-19.1,16.9-40,32.1-61,46.5c-10.7,7.3-21.7,14.5-33,20.9c-3.3,1.9-6.3,2.8-7.1,6.6c-0.6,2.7,0.3,6.5,0.5,9.2
			c0.1,2.3-0.7,6.8,0.4,8.9c1.9,3.4,11.5,4.7,15.1,5.8c6.5,2.1,13,4.3,19.4,6.7c12.7,4.9,25.7,10.9,37.4,17.9
			c21.5,12.8,40.2,28.6,51.3,51.4c5.8,11.9,8.3,23.5,10.2,36.4C616.3,565.2,616.4,565.2,616.6,565.2z M691.7,458.4
			c3.1,3.2,5.5,9.5-1.7,7.8c-2.3-0.5-4.2-2.7-6.2-3.8c-3-1.6-6.7-2.6-10.1-2.5c-12.5,0.1-21.4,16.2-26.5,25.7
			c-6.4,12-10.7,24.7-14.6,37.7c-4,13.3-7.8,27.9-7.8,41.9c0,12.3,4.4,26.7,15.9,33c12.2,6.7,24.4,5.6,36.9,0.7
			c25.3-10,41-33.4,44.3-60c2-15.8,0.5-32.1-4.4-47.3c-2.3-7.1-5.1-14-9.4-20.1C704.9,466.8,698.3,457.7,691.7,458.4z M474.9,445.2
			c0.5-2.3-0.1-12.1-0.7-14c-1.5,0.4-14.9,7.7-15.8,8.7C463.7,442.5,469.4,443.4,474.9,445.2z M616.6,571c0,0,0.1,0,0.1,0
			c0-0.3,0-0.6,0-0.9c0,0-0.1,0-0.1,0C616.6,570.4,616.6,570.7,616.6,571z"/>
		<path fill="#EF7B31" d="M761.6,466.6c-5.5,24.4-7.9,48.9-10.7,73.4c3.1-3.8,4-9.8,5.5-14.4c1.8-5.7,3.7-11.5,5.6-17.2
			c3.3-10,7.1-20.1,11.4-29.8c7.5-17.1,18.8-38.9,39.8-40.7c22.2-1.9,35.7,18,41.6,36.7c7,22.1,6.6,46.5,3.6,69.2
			c-1.7,12.6-4.2,25.2-5.4,37.8c-0.4,4.5-2.3,12.3,0.7,16.1c1.4,1.8,3.4,1.3,4,3.7c0.6,2.7-1.2,3.5-3.3,4.6
			c-8.7-2.9-11.7-6.9-11.5-16.4c0.2-9.3,2.2-18.8,3.4-27.9c2.6-19.4,5.3-38.6,4.1-58.2c-1-16.1-3.4-35.7-15.6-47.7
			c-5.2-5.1-14-10.1-21.6-8.9c-7.7,1.1-14.2,7.7-18.8,13.5c-11.3,14.3-17,32.7-23,49.7c-6.3,17.9-12,36-17.8,54
			c-2.8,8.7-6.3,17.2-8,26.2c-0.5,2.8-0.3,5.1-3.3,6.1c-3.5,1.2-6.7-1.6-7.4-4.8c-0.8-3.8,0.8-8.7,1.2-12.4
			c0.6-4.8,1.2-9.6,1.9-14.3c1.4-9.4,2.6-18.9,3.7-28.4c2.6-22.1,5-44.4,9.6-66.2c1-4.7,1.6-9.4,2.4-14.2c0.5-3.1,1.1-6.5,5.4-5.5
			C764.8,451.8,774,470.3,761.6,466.6z"/>
	</g>
</g>
<g id="Laag_2" display="none">
	<rect x="-2396.5" y="-1434.5" display="inline" fill="none" stroke="#FF0000" stroke-miterlimit="10" width="870" height="402"/>
	<rect x="-1096.5" y="-1434.5" display="inline" fill="none" stroke="#FF0000" stroke-miterlimit="10" width="870" height="402"/>
	<rect x="203.5" y="-1434.5" display="inline" fill="none" stroke="#FF0000" stroke-miterlimit="10" width="870" height="402"/>
	<rect x="-2396.5" y="-614.5" display="inline" fill="none" stroke="#FF0000" stroke-miterlimit="10" width="870" height="402"/>
	<rect x="-1096.5" y="-614.5" display="inline" fill="none" stroke="#FF0000" stroke-miterlimit="10" width="870" height="402"/>
	<rect x="203.5" y="-614.5" display="inline" fill="none" stroke="#FF0000" stroke-miterlimit="10" width="870" height="402"/>
	<rect x="-2396.5" y="205.5" display="inline" fill="none" stroke="#FF0000" stroke-miterlimit="10" width="870" height="402"/>
	<rect x="-1096.5" y="205.5" display="inline" fill="none" stroke="#FF0000" stroke-miterlimit="10" width="870" height="402"/>
	<rect x="203.5" y="205.5" display="inline" fill="none" stroke="#FF0000" stroke-miterlimit="10" width="870" height="402"/>
</g>
</svg>
