<?xml version="1.0" encoding="utf-8"?>
<!-- Generator: Adobe Illustrator 19.2.0, SVG Export Plug-In . SVG Version: 6.00 Build 0)  -->
<svg version="1.2" baseProfile="tiny" xmlns="http://www.w3.org/2000/svg" xmlns:xlink="http://www.w3.org/1999/xlink" x="0px"
	 y="0px" viewBox="0 0 1280 800" xml:space="preserve">
<g id="Laag_1">
	<path fill="#FFFFFF" d="M509.4,387.1c-1.2-4.2,2.3-11,3.4-15.1c1.7-6.7,3.4-13.4,5.3-20c2.9-10,5.9-19.8,9.8-29.4
		c2.1-5.3,3.9-10.6,6.6-15.7c2.4-4.5,3.4-8.4-0.3-12.8c-9.2-10.8-15,6-17.4,12.7c-4,11.3-8.1,22.2-11.5,33.7
		c-3.3,11.2-5.7,22.6-8.9,33.9c-1.2,4.3-1.4,12.6-4.3,15.9c-2.9,3.5-12.2,3.8-16.5,5c-10.5,2.9-21.4,5.2-31.6,9.2
		c-1.3,0.5-5.1,2.9-6.7,2.3c-1.4-0.6-2.8-4.2-3.8-5.6c-3.3-4.5-6.9-9-11.2-12.7c-9.1-7.9-19.2-13.7-29.7-19.4
		c-21.2-11.4-44.1-19.9-66.1-29.8c-9.1-4.1-22.3-9.9-27.1-19.2c-5.5-10.7,1.4-21.3,8.3-29.3c14.9-17.4,34.7-30.8,53.8-43.2
		c19.6-12.7,41.5-22.9,63.5-30.5c9.8-3.4,20.1-7,30.4-8c5-0.5,9.7,0.9,14.4,0.5c5.5-0.5,4.5-3.2,1.8-6.7c-6.7-8.6-18.7-7.6-28.5-5.7
		c-12.1,2.3-23.9,6.3-35.4,10.7c-23,8.8-44.9,19.4-65.2,33.3c-18.6,12.8-39.3,26.9-52.3,45.9c-7.4,10.9-7.6,19.8-3.3,31.8
		c4,11.2,9.4,17.8,19.4,24.2c20.6,13.1,44.4,20.9,66.5,31c18.6,8.5,45.7,16.3,52.8,38.3c7,21.8-12.3,43.3-25,58.7
		c-14.2,17.2-31.2,32.3-48.2,46.5c-36.9,30.7-76.8,58.1-119.2,80.7c-5.8,3.1-18.9,7.7-20,14.6c3.2,0.2,6.6,0.8,9.9,0.5
		c5.6-0.4,11.2-3.6,16.2-5.9c4.2-1.9,8.4-3.8,12.5-6c4.6-2.5,9.5-3.7,14.2-6.3c18.8-10.5,36.7-22.2,54.8-33.7
		c16.6-10.5,32.8-23.4,47.7-36.3c15.3-13.3,30.4-27,43.7-42.3c7.6-8.7,14.6-17.7,20.1-27.8c5.4-9.8,8-18.4,9.4-29.5
		c3.6-0.9,5.4-3.5,8.5-5.3c3.8-2.1,8.5-3.6,12.5-5.2c4-1.6,8.2-3,12.3-4.1c3.7-1,8.9-3,12.7-3c0.3,4.3-1.6,8.7-2.5,12.8
		c-1,5-2.2,9.9-3.2,14.9c-1.8,8.7-3.3,17.7-4.4,26.5c-2.4,19.5-4.9,38.9-2.8,58.6c1.8,16.5,8.1,37.1,26.6,41.5
		c20.1,4.8,29.7-20,38-33.3c3.7,1.8,6.1,7.1,9.3,9.8c4.3,3.6,9.9,6.9,15.4,8.2c10.8,2.6,21.5,2.1,31.9-1.3
		c10-3.3,21.2-6.6,30.1-12.5c3.7-2.4,6.2-5.3,8.6-8.9c1.2-1.7,6-8.1,3.7-10.4c-2.7-2.7-21.6,10.1-25,11.6
		c-9.8,4.4-19.6,8.2-30.3,9.6c-9.2,1.2-21.5,1.7-27.9-6.4c-6.8-8.7-4.4-20.3-1.7-30.1c1.1-4,2.2-8.5,5.4-11.1
		c4.2-3.3,9.9-5.3,14.6-8.2c8.5-5.2,17.1-10.8,25.1-16.8c15.6-11.7,31.6-23.4,42.4-40c4.4-6.9,8.7-16.7,7.4-25
		c-1.6-9.4-10.7-16.6-19.9-17.9c-19.7-2.9-36.4,15.5-47.2,29.7c-15.3,20.2-27.3,43-36.6,66.6c-2.4,6.1-6.4,6.9-12.5,9.1
		c-4.3,1.5-11.1,1.3-14.8,3.9c-4.4,3.1-0.1,7.1,3.1,9.2c5.5,3.7,8.3,1.3,14.1,1c-1.2,10.1-7,21.5-12.1,30.2
		c-3.8,6.5-10.7,19.9-19.8,19.9c-9.6,0-12.2-19.7-12.8-26.4c-1.1-11.6-0.8-23.4,0-35c1.6-23,5.9-46,11.1-68.5
		c0.8-3.4,1.3-12.9,3.7-15.4c1.3-1.4,4.8-1.4,6.5-1.8c3.3-0.8,6.6-1.7,9.9-2.6c10.7-2.8,21-5.9,31.4-9.5c2-0.7,5.4-1.1,6.9-2.8
		c0.7-0.9,1.7-4.9,0.8-6c-2.4-2.7-12.2-0.9-15.1-0.4C533.3,382.5,521.4,386.1,509.4,387.1z M696.4,422c4.3,4.5,9.9,9.6,16.3,6
		c7-4,13.9-9.5,19.9-14.9c12.7-11.3,24.9-23,34.5-37.2c19.3-28.5,29.1-59.5,29.3-93.9c0.1-16.4-2.1-33-7.9-48.4
		c-5.3-14-22.9-23.1-36.5-15.4c-13.1,7.3-22.4,21.4-29.5,34.1c-8.2,14.6-12.3,31.7-16.7,47.8c-8.6,31.7-14.9,64.4-21,96.8
		c-3.1,16.2-5.6,32.5-8.2,48.8c-0.6,3.9-1,7.8-1.6,11.6c-0.4,2.8,0,8.3-1.5,10.7c-1.5,2.4-5,1.8-7.5,2.3c-4.6,0.9-8.9,2.4-12.2,5.8
		c-4.6,4.7-5.5,13-6.4,19.4c-1.4,9.2-2.7,18.7-3.1,28c-0.7,16.8,1.7,34.1,4.9,50.5c1.5,7.6,2.8,14.9,5.1,22.3
		c2.2,7,3.2,15,12.1,16.7c8.9,1.6,8.3-8.6,8.8-14.8c0.8-9.6,1.8-19.2,2.8-28.8c1.9-18.4,4.7-36.9,5.9-55.4c0.3-4.5,0.7-9.1,1.2-13.6
		c0.4-3.8-0.2-11.9,1.5-15.3c2.9-5.6,20.1-1.9,26-1.6c3.2,0.2,9.3,1.3,12.2-0.6c4-2.6,2.8-5.4-0.7-6.9c-9-3.9-19-4.7-28.6-5.7
		c-5.2-0.5-6.6,0.2-6.3-5.2c0.3-4.8,1.1-9.5,1.8-14.3c0.8-5.1,1.6-10.2,2.4-15.3C694.2,431.5,693.8,425.4,696.4,422z M881.3,481.3
		c-2-8.6,0.4-19.9,0.7-28.8c0.3-8.5,2.3-22.4-3.1-29.8c-2.2-3-6.4-5.5-10.2-4.8c-6.2,1.2-3.8,5.8-3,10.1c1.8,9.3,1.1,19.4,0.9,28.7
		c-0.5,21.1-2.1,42.4-3,63.6c-0.1,3.3-1.7,7.9-1,10.9c0.7,2.8,3.6,6,6.2,7.3c2.1,1.1,7.9,2.3,9.9,0.3c2.7-2.6,2.5-10.6,3.3-14.1
		c4.5-18,13-36.6,23.3-52c9.9-14.9,20.9-30.5,36.2-40.3c5.5-3.6,18.1-10.9,22.6-2.6c4.3,8,3.3,20.2,3.4,28.9
		c0.1,20.2-3.9,40.3-5.1,60.4c-1.1,20.8,4.1,43.6,29.3,42.5c9.2-0.4,17.1-6,24.1-11.3c4.2-3.1,6.4-7.3,9.7-11.3
		c2.9-3.5,5.9-6.6,6.4-11.3c-4.3-1.4-8.9,3.3-12.2,5.5c-4.6,3-9,6.3-13.9,8.9c-5.8,3.2-17.9,11.4-23.5,4.6c-6.3-7.6-4.3-23-3.8-32.1
		c0.6-10.5,2.2-21,3.5-31.5c1.3-10.2,1.1-20.7,1-31c-0.1-10.4-1.7-23.3-8.4-31.6c-14.6-18.3-38-7-52,5.7
		c-8.6,7.8-16.8,17.3-23.6,26.7c-3.4,4.7-6.6,9.6-9.4,14.6C887.6,471.7,885.4,478.9,881.3,481.3z M812.7,482.8
		c3.4,12.9,4.8,25.3,12.1,36.8c5.8,9,13.5,19.6,24.5,22.3c3.6,0.9,11.3,0.6,9.4-5.3c-1-3.1-3.9-2.3-6.4-3.3
		c-3.4-1.4-6.9-4.9-9.2-7.6c-8.8-10.5-12.6-24.6-14.4-37.9c-1-7.3-1.1-14.6-1-21.9c0-6.9,1.2-15.3,0-22.2c-0.7-4.1-5.5-7.8-9.5-8.4
		c-6.9-1-8,5.6-9.6,10.6c-4.2,13.8-9.6,27.7-15.3,40.9c-5.2,12-10.9,24.4-19.1,34.6c-3.6,4.5-8.7,10.1-14.5,11.6
		c-7.4,2-10.1-7.5-11.6-13.3c-3.3-12.9,0-27,3.6-39.5c3.6-12.7,8.3-26,14.9-37.5c6.1-10.6,14.6-24.8,27.5-28.1
		c7-1.8,11.8,0.2,18.5,1.5c6.4,1.2,7.7-3.9,4.3-8.7c-3.3-4.6-12.9-7.1-18.2-7.4c-7.1-0.4-14,1.6-20.1,4.9
		c-22.5,12.1-32.7,44-40,66.6c-7.6,23.6-12.8,69.2,20.9,75.2c13.9,2.5,27.5-14,33.8-24.4c3.8-6.3,6.9-12.9,10.1-19.5
		c1.5-3,3-6,4.2-9.1C808.6,491.1,809.9,484.5,812.7,482.8z"/>
	<path fill="#EF7B31" d="M509.4,387.1c10.2-0.9,20.3-3.9,30.4-5.6c5.7-1,11.1-2,16.8-1c3.3,0.6,6.2,2.6,2.8,6.7
		c-2.1,2.6-9.9,4.1-12.9,5.4c-4.9,2-10.3,3-15.4,4.4c-5.8,1.6-11.5,3.1-17.3,4.6c-2.1,0.5-5.6,0.6-7.5,1.7c-2.6,1.6-2.4,3.9-3.1,6.8
		c-4.8,22.7-9.7,45-12.3,68.1c-1.3,11.4-2,23.2-1.5,34.7c0.5,10.5,0.9,23.2,7,32.1c13.2,19.4,37.1-36.5,38.2-45.9
		c-4.5,0.2-7.1,2.6-11.7,0.5c-2.7-1.2-8.9-5.2-7.4-9c1.1-2.9,7.3-3.1,9.7-3.7c5.1-1.2,11-2.6,15.5-5.3c3.9-2.3,4.7-7.7,6.4-11.8
		c2.4-5.6,5-11.1,7.5-16.6c4.6-9.9,10-19.9,16.1-29.1c10.3-15.4,24.3-36.5,42.7-42.9c9.2-3.2,19.9-2.4,27.5,4.1
		c8.1,7,8.6,15.1,5.7,24.7c-5.8,18.9-21.3,30.7-35.6,43.1c-15.6,13.4-33.8,22.8-50.9,33.8c-7.7,5-9.1,20.3-9.3,28.8
		c-0.2,9.6,6.2,16.9,15.2,19.3c20,5.3,43.7-6.7,60.6-16.2c2.5-1.4,10.4-7.4,12-4.1c1.5,3.2-2.9,8.9-4.6,11.4
		c-6.3,8.8-19,13.1-28.7,16.7c-12.3,4.6-23.5,7-36.6,5c-6.4-1-11.6-3.3-17-6.9c-4.5-3-7.6-9.6-12.2-11.9
		c-8.2,13-17.3,37.1-36.8,33.5c-19.3-3.5-26-25-27.8-41.8c-2.1-19.4,0.3-38.4,2.6-57.6c1.1-9.2,2.7-18.5,4.5-27.6
		c1-5,2.2-9.9,3.2-14.9c0.9-4.2,2.8-8.6,2.5-12.8c-3.6,0-8.1,1.8-11.6,2.7c-4.5,1.1-9.1,2.7-13.4,4.4c-3.7,1.5-8,2.8-11.5,4.7
		c-3.5,1.8-5.7,4.8-9.5,5.8c-1.1,9-2.5,17.5-7,25.6c-5,9-10.4,17.4-17,25.4c-12.9,15.7-27.8,30.2-43.2,43.5
		c-31,26.9-64.9,50.4-100.5,70.7c-9.9,5.7-20.1,10.3-30.5,15c-5.2,2.4-10.5,5.1-16,6.7c-4.8,1.4-9.5,0.8-14.3,0.5
		c1.2-7.2,15.2-12,21.2-15.2c10.3-5.6,20.5-11.5,30.5-17.6c20.5-12.6,40.3-25.9,59.5-40.4c19-14.3,37.6-29.1,54.6-45.8
		c14.9-14.7,30.7-30.3,40.7-48.9c5.3-9.9,9.6-21.4,6-32.6c-3.1-9.7-12.7-18.6-21.3-23.5c-20-11.6-42.8-20-64.1-29
		c-11.7-4.9-23.2-9.9-33.9-16.8c-10-6.4-15.4-13.1-19.4-24.2c-1.8-5-4.1-10.1-3.5-15.5c0.7-6.1,4-12.3,7.5-17.2
		c6.5-9,14.9-16.5,23.3-23.7c18.7-15.8,39-29.6,60.9-40.6c21.4-10.8,45.5-20.8,69.2-24.9c10-1.7,21.4-2.2,27.9,6.7
		c6.6,9.1-12,5.1-16.8,5.6c-21.8,2.1-44,12.7-63.6,21.9c-20.9,9.8-40.4,22.3-58.5,36.5c-13.2,10.4-44.3,32.3-33.8,52.5
		c4.8,9.3,18.1,15.1,27.1,19.2c11,5,22.1,9.9,33.2,14.6c21.7,9.3,44.7,18.9,62.6,34.6c4,3.5,7.3,7.6,10.5,11.8c1,1.4,2.5,5.2,4,5.9
		c2.2,1,4.9-0.8,7.2-1.7c10.6-4.1,21.8-6.6,32.8-9.6c4-1.1,11.6-1.3,14.6-4.2c3.2-3,3.7-12.2,4.9-16.4c3.1-11.3,5.6-22.7,8.9-33.9
		c3.5-11.9,7.7-23.3,11.9-34.9c2.4-6.7,8.2-21.8,17-11.5c3.2,3.8,3,7.6,0.9,11.7c-3,5.8-5.2,11.8-7.6,17.8
		c-3.9,9.6-6.9,19.6-9.7,29.6c-1.7,5.8-3.1,11.7-4.6,17.5C512,375.1,508.1,382.7,509.4,387.1z M565.7,467.6c0.2,0.1,0.4,0.3,0.6,0.4
		c15.7-8.8,31.9-20.9,44.5-33.7c6-6.1,12.7-12.7,17.1-20.1c2.5-4.2,9.7-16.8,4.2-20.1c-7-4.2-18.4,5-23,9.3
		c-6.4,5.8-12.3,12.4-17.5,19.4c-5.3,7.2-10.4,14.6-14.9,22.3C572.7,452,567.6,459.8,565.7,467.6z"/>
	<path fill="#EF7B31" d="M696.4,422c-2.3,2.9-2,7.6-2.5,11.1c-0.6,4.3-1.3,8.5-2,12.8c-0.6,3.8-5.4,20.9-2.2,23.7
		c1.8,1.6,7.8,0.9,10.3,1.3c4.1,0.5,8.4,0.9,12.4,1.7c4,0.7,8,2,11.7,3.5c2.6,1.1,3,0.5,3.1,3c0.1,2.3-1.6,3.5-3.2,4.2
		c-6.7,2.9-18.1-0.1-25.2-0.4c-2.4-0.1-8.8-1.4-11.1,0.1c-2.2,1.5-1.8,9.9-2.1,12.4c-1.6,16.1-3.1,32.1-4.8,48.2
		c-1.9,18.2-4.1,36.4-5.6,54.7c-0.5,6.3,0.2,16.5-8.8,14.8c-9-1.7-9.9-9.6-12.1-16.7c-10.1-32.2-12.1-67.6-6.9-100.8
		c1-6.2,1.9-14.8,6.4-19.4c2.7-2.8,6-4.3,9.8-5.3c2.8-0.7,7.9-0.1,9.7-2.5c1.6-2.1,1.3-7.4,1.6-9.9c0.5-3.9,1-7.8,1.6-11.7
		c1.2-8,2.5-16.1,4-24c3.2-16.5,6.4-33.1,9-49.6c2.7-17.1,6.2-35.1,10.7-51.8c8.5-31.3,14.9-64.4,36.6-89.8
		c9.9-11.6,22.8-21.1,38.2-13c14.1,7.5,17.6,24.7,19.8,39.3c5.7,38-2,74.9-21.3,107.8c-9.6,16.4-21.8,30.4-35.9,43.1
		c-6.8,6.2-14,11.7-21.6,17c-3.7,2.6-5.8,4.4-10.3,2.9C701.6,427.3,699.3,425.1,696.4,422z M696.8,418.9c5.8-2.3,11-6.6,16-10.4
		c5.4-4.1,11.7-7.9,16.4-12.9c10.3-10.7,20.7-20.8,28.8-33.4c8.1-12.6,14.6-25.3,19.6-39.4c2.4-6.9,3.9-13.9,5.7-20.9
		c0.7-2.9,1-5.4,1.1-8.4c0.2-4,1.6-8.2,1.4-12.2c-0.7-12-0.4-24.1-3.1-36.2c-1.4-6.4-3.3-12-10.1-14.3c-7.3-2.5-12.5,1-18,5.9
		c-23.7,21.1-30.2,54.3-38.4,83.5c-4.6,16.4-8.2,33.4-11.1,50.2C702.4,386.1,696.8,402.9,696.8,418.9z M661.7,567.6
		c0.1,0,0.3,0,0.4,0c2.3-5.7,2.1-13,2.8-19.1c0.8-7,1.8-14.1,2.4-21.1c1.2-13.9,4.5-28.2,4.3-42.1c-9.8-3.2-12.2,30.2-12.6,35.2
		C657.6,535.4,656.9,553.2,661.7,567.6z"/>
	<path fill="#EF7B31" d="M881.3,481.3c3.3-1.9,5.5-7.8,7.3-11c2.5-4.6,5.1-9,8-13.3c5.7-8.6,12.6-16.2,19.6-23.8
		c12.9-14,35.1-31,53.9-17c16.6,12.4,13.7,40.7,12.9,59c-1,20.8-7.8,42.5-3.8,63.3c0.8,4.2,2.4,9.9,7.1,10.8
		c5.2,1,11.3-2.5,15.6-4.9c5.3-2.9,10.2-5.9,15.2-9.3c3.7-2.5,10.1-8.9,14.9-7.3c-0.7,6.8-8.3,15.3-12.9,20.1
		c-5.5,5.6-13.2,10.2-20.7,12.7c-19.2,6.3-33.6-7.6-35.7-25.8c-2.2-20.2,2.2-42,4.3-62c0.9-9,0.9-18.3,0.2-27.3
		c-0.7-9.8-1.7-22-14.4-18.4c-17,4.8-31.5,22.2-41,36.2c-10.2,15-18.9,31-25.5,47.9c-1.7,4.5-3.1,9.1-4.3,13.7
		c-0.8,3.4-0.5,10.5-2.7,13.2c-4.6,5.8-15.4-0.9-16.8-6.7c-0.7-3,0.9-7.7,1-10.9c0.2-5.4,0.4-10.8,0.6-16.2
		c0.4-10.9,0.9-21.9,1.4-32.8c0.5-10,1.4-20.1,1.1-30.2c-0.1-2.6-0.2-5.3-0.4-8c-0.3-3.2-2.1-7.2-2-10.2c0.2-5.3,5.7-6,9.9-4.1
		c9.9,4.5,8,19.4,7.9,28.3c-0.1,6.1-0.4,12.2-0.6,18.2C881.3,470.6,880.1,476.2,881.3,481.3z"/>
	<path fill="#EF7B31" d="M812.7,482.8c-4.1,2.4-5.9,13-8,17.3c-3,6.3-6.1,12.6-9.5,18.7c-5.8,10.3-14.9,21.8-25.9,26.9
		c-11.1,5.2-24.5-3.4-30-13c-7.1-12.3-7.8-25-6-38.8c1.9-15,7.2-29.7,12.7-43.6c4.5-11.4,10.4-22.7,18-32.4
		c8.4-10.7,20.5-18.7,34.6-17.8c5.3,0.3,14.3,2.7,17.8,6.9c3.3,3.9,3.4,10.2-2.9,9.4c-3.4-0.4-6.2-2.4-9.7-2.7
		c-2.9-0.3-6,0.2-8.8,0.9c-6.4,1.4-12.1,6.1-16.6,10.8c-9.1,9.3-15.3,22.9-19.8,34.9c-4.8,12.8-10.3,26.2-11.3,39.9
		c-0.5,7.5-1.1,35.2,11.4,33.2c11.8-1.8,21.1-19,26-28.4c6.7-12.9,12.3-26.4,17.2-40.1c2.1-5.9,4.4-11.8,6.3-17.8
		c1.6-5,2.2-12.3,9.2-11.9c14.2,0.8,10.3,20,10.3,29.4c0,16.4,0.8,33.9,8,48.9c3.3,6.9,7.5,13.7,14,18.1c2.2,1.4,7,2,8.4,3.6
		c1.7,2,0.9,4.8-1.1,6.2c-4.6,3.3-13.1-1.5-16.8-4.2c-5.1-3.6-9.8-8.9-13.1-14.1c-4-6.3-7.6-12.4-9.7-19.6
		C815.5,496.8,814.5,489.7,812.7,482.8z"/>
	<path fill="#FFFFFF" d="M565.7,467.6c1.9-7.9,7-15.6,11-22.6c4.3-7.4,9.1-14.4,14.2-21.3c5.1-7,11-13.7,17.4-19.6
		c4.8-4.4,16.6-14.4,23.9-10c5.4,3.2-1.3,15.1-3.7,19.2c-4.3,7.5-10.8,14-16.8,20.2c-12.8,13.2-29.4,25.6-45.4,34.6
		C566.1,467.9,565.9,467.8,565.7,467.6z"/>
	<path fill="#FFFFFF" d="M696.8,418.9c0-13.6,4.3-28.2,6.9-41.5c3.1-15.5,6.1-31,9.6-46.5c6.7-29.4,14.3-62.1,33.6-86.1
		c7.4-9.2,22.5-23.1,32.5-8.9c6.5,9.1,6.5,26.7,6.1,37.4c-0.1,2.6-0.1,4.6,0.1,7.1c0.3,3.5-0.8,6.9-1.1,10.5
		c-0.7,7.5-1.7,14.4-3.6,21.8c-3.9,14.9-10.4,28.5-18.2,41.6c-8.3,14-17.7,25.5-29.4,36.9C723,401.3,710.3,413.5,696.8,418.9z"/>
	<path fill="#FFFFFF" d="M661.7,567.6c-4.8-14.4-4.1-32.2-2.7-47.2c0.5-5,2.8-38.4,12.6-35.2c0.2,13.9-3.1,28.2-4.3,42.1
		c-0.6,6.6-1.5,13.2-2.2,19.8c-0.7,6.4-0.5,14.4-2.9,20.4C662,567.6,661.8,567.6,661.7,567.6z"/>
</g>
<g id="Laag_2" display="none">
	<rect x="-1097.5" y="-614.5" display="inline" fill="none" stroke="#FF0000" stroke-miterlimit="10" width="870" height="402"/>
	<rect x="202.5" y="-614.5" display="inline" fill="none" stroke="#FF0000" stroke-miterlimit="10" width="870" height="402"/>
	<rect x="1502.5" y="-614.5" display="inline" fill="none" stroke="#FF0000" stroke-miterlimit="10" width="870" height="402"/>
	<rect x="-1097.5" y="205.5" display="inline" fill="none" stroke="#FF0000" stroke-miterlimit="10" width="870" height="402"/>
	<rect x="202.5" y="205.5" display="inline" fill="none" stroke="#FF0000" stroke-miterlimit="10" width="870" height="402"/>
	<rect x="1502.5" y="205.5" display="inline" fill="none" stroke="#FF0000" stroke-miterlimit="10" width="870" height="402"/>
	<rect x="-1097.5" y="1025.5" display="inline" fill="none" stroke="#FF0000" stroke-miterlimit="10" width="870" height="402"/>
	<rect x="202.5" y="1025.5" display="inline" fill="none" stroke="#FF0000" stroke-miterlimit="10" width="870" height="402"/>
	<rect x="1502.5" y="1025.5" display="inline" fill="none" stroke="#FF0000" stroke-miterlimit="10" width="870" height="402"/>
</g>
</svg>
