<?xml version="1.0" encoding="utf-8"?>
<!-- Generator: Adobe Illustrator 19.2.0, SVG Export Plug-In . SVG Version: 6.00 Build 0)  -->
<svg version="1.2" baseProfile="tiny" id="Layer_1" xmlns="http://www.w3.org/2000/svg" xmlns:xlink="http://www.w3.org/1999/xlink"
	 x="0px" y="0px" viewBox="0 0 1280 800" xml:space="preserve">
<g id="Laag_1">
	<g>
		<path fill="#EF7B31" d="M1004.3,406.8c-3.6,2.5-5.4,6.1-8.4,9.1c-3.3,3.3-6.5,7-9.7,10.7c-3.6,1.5-1.5,0.6-3.3,3.6
			c-1.8,3.1-4.8,3.3-7.5,5.9c-0.4,2.3,0.1,6.1-4.4,5.4c-1.7,1.7-2.1,3.7-3.3,5.8c-1.3,2.3-3,3.1-4.7,4.9c-2.4,2.6-3.6,6.1-6.2,8.7
			c-2.5,2.5-3.8,3.1-5.4,6.2c-2.4,4.9-6.4,9.4-9.5,14c-4,6-7.4,12.3-11.2,18.5c-2.9,4.8-8.4,7.1-13.8,4c-5.5-3.2-5.6-9.6-5.2-15.2
			c0.6-7.5,0.3-15.1,0.4-22.6c0.1-6.9,1.3-14,0.9-20.9c-4.9,5.3-8.3,13-12.3,19.2c-1.8,2.8-4,5-6.3,7.4c-3.4,3.7-6,8.3-9.6,12.1
			c-9.2,9.6-20.9,16.5-31.8,24c-12.1,8.4-26.3,16.1-40.1,21.3c-15.6,5.9-32.9,9.7-49.5,6.1c-15.9-3.4-29.6-15.7-34.4-31.4
			c-1.3-4.1-0.6-5.7-4.1-8c-2.7-1.7-5.5-1.8-7.6-4.9c-6.5-9.8,8.2-6.6,11.7-9.6c1.7-1.5,1.9-5.6,2.7-7.7c1.7-4.3,3.6-8.7,5.5-12.9
			c3-6.7,7.3-13.8,11.8-19.6c9.3-11.9,21.4-22.3,34-30.6c13.5-8.8,33.1-17.5,49.4-13.1c8.7,2.3,14.3,7.4,16.8,15.9
			c2.6,8.9-1.9,15.7-4.1,24.1c-4.3,5.6-8,11.7-12.8,17c-2.2,2.4-4.8,3-7.4,5c-3.1,2.4-6.4,4.8-9.4,7.2
			c-10.5,8.5-22.1,14.8-34.7,20.4c-6.5,2.9-12.9,4.9-19.7,7c-3.9,1.2-7.8,1.9-11.8,2.7c-4.2,0.9-5.6,1.4-4.3,5.9
			c4.6,16.2,24.7,21.1,39.2,19.9c15.7-1.3,30.3-8,44-15.4c13.2-7.2,25.7-15.2,37.3-24.8c22.8-18.7,39.7-48.2,50-75.5
			c1.2-3.1,1-8.2,4.5-9.7c2.4-1,8.6-0.6,10.7,0.6c6.2,3.5,1.9,13.4,1.2,19c-1.2,8.9-1.8,17.8-2.5,26.7c-0.3,3.6-3.7,25.6-0.3,26.9
			c4.3-2.1,7.7-8.5,10.5-12.2c3.2-4.3,6.6-8.6,10.2-12.6c7.6-8.6,15.2-17.3,23-25.8c6.7-7.4,14-15,21.3-21.7
			c7.5-6.9,15.8-14.9,25-19.4c8.6-4.2,17.2-10.9,25.7-15.9c8.1-4.8,16.5-8.5,24.9-12.4c9.4-4.4,18.9-8,28.6-11.7
			c5.2-2,10.9-2.8,16.2-4.5c4.4-1.5,11.1-2.5,14.9,0.7c-2.2,2-2.2,2.2-2.5,5c-1.3,0.4-2.3,0-3.2-1c-0.8,0.4,0,1-0.2,1.4
			c-2.4,2.9-8.4,4.4-11.8,5.5c-3.9,1.2-7.5,2.8-11.3,4.4c-8.2,3.3-16.1,6.9-24.2,10.3c-7.5,3.2-15.2,7-22.2,11.2
			c-5.7,3.4-11.7,6.2-17.1,10.3c0.2,0.4,0.5,0.8,0.7,1.2c-0.6,1.8-3.3,2.3-4.8,2.9c-2.8,1-4.6,1.6-7.2,3.5c-0.2,3-0.9,1.9-2.9,3.1
			c-1,0.6-2.3,1.7-3.1,2.2c-0.6,0.4-0.8,1.7-1.8,2.3c-1.6,0.9-3.4-1-4.6,2c0.2,0.4,0.5,0.9,0.7,1.4c-0.7,1.5-1.6,0.6-2.5,0.2
			C1009.3,401.9,1005.1,403.8,1004.3,406.8L1004.3,406.8z M745.9,481.1c3.6,1.8,9.1-0.6,12.7-1.4c4.6-1,9-2.2,13.4-4
			c8.4-3.4,16.9-7.5,24.6-12.4c14.4-9.3,30.2-20,37.7-36c3-6.4,6.7-17-2.5-19.8c-8.5-2.6-17.5,1.3-25.1,4.7
			c-6.1,2.8-12.5,6.2-18,9.9c-2.7,1.8-5.6,4.2-8,6.5c-2.3,2.1-6,4.7-7.8,7.2c-7.3,4.7-12.4,13.1-16.6,20.4
			C752.3,463.2,745.6,472.8,745.9,481.1z M1119.3,340.3c1.4-0.7-0.4-1.9-1.2-1C1118.3,340,1118.7,340.3,1119.3,340.3z M973.6,439.4
			c-0.4-0.3-0.6-0.2-0.6,0.3C973.3,440,973.5,439.9,973.6,439.4z"/>
		<path fill="#EF7B31" d="M263.2,451.9c-1.4-1.8-3.9,3.3-3.9,4.3c-2,3.3-3.6,9-4.7,12.6c-1.4,4.8-2.5,9.9-3.9,14.8
			c-3,10.1-6.6,20-10.3,29.7c-7.1,18.3-12.1,37.8-19.9,56.2c-3.5,8.2-8.8,22.5-19,24.5c-14,2.8-16.6-12-16.4-22.2
			c0.3-22.1,4.3-45.3,10.6-66.4c0.3,0,0.8-0.1,1.2-0.2c0.8-2.2-1.1-5.4-0.4-8c1-3.4,2.5-4.8,2.8-8.5c0.6-7.5,2.3-15.4,4.6-22.6
			c2-6.1,3.1-11.4,4.3-17.7c1.4-7.1,2.8-17.5,7.4-23.1c-0.5-6.8,1.4-14.8,5.2-20.6c-0.4-6.5,2.3-12.3,3.8-18.6
			c0.8-3.6,2.7-6.5,3.7-9.9c1-3.5,1-6.9,2.2-10.5c2.3-7,3.2-14.5,5.6-21.4c1.7-4.8,2-14.4,6.5-17.8c-2.9-4.6,3.8-12.8,4.7-17.2
			c1.9-9,3.4-18.6,7.2-27c-1.1-5.5,2.6-11.4,3.1-16.8c0.6-7,0.9-14.4,0.9-21.5c0-3.8-1-7.5,2.7-9.6c1.8-1,5.6-1.6,7.5-1.3
			c8,1.4,3,14,2.1,19.2c-2.5,14.8-4.6,29.7-9,44.1c-4,13.1-8.4,26.2-12.1,39.3c-3.8,13.3-7.4,26.6-11.4,39.8
			c-2,6.4-4.1,12.6-5.5,19.2c-1.3,6.3-3.6,12.2-5,18.5c-2.7,12.4-6.2,24.6-8.5,37.2c-1,5.5-2.9,10.8-4,16.2
			c-1.2,6.2-2.9,12.6-4.6,18.6c-4.3,15-7.2,31-9.5,46.6c-1.1,7.5-2.7,14.9-2.6,22.5c0.1,8.2-1.7,16.4,1.1,24.4
			c7.9,2.4,24.1-55.4,29-61.5c-0.3-6.1,2.8-11.9,4.6-17.8c0.9-2.9,1.7-6.4,3.7-8.8s2-0.1,3-3.7c1.4-4.6,1.8-8.6,3.8-12.8
			c1.8-3.9,1.5-10.6,5.7-12c-0.1-1.3-1.2-0.6-1.6-1.2c-0.8-3,2.5-6.5,3.5-8.9c0.7-1.8,0.3-3.9,1.1-5.7c0.7-1.8,2.2-2.9,3-4.5
			c-3.7-5.7,4.8-13.4,6.4-18.2c1.1-3.3,1-7.3,2.2-11.2c1.5-4.9,3.2-9.5,5.2-14.2c1.8-4.3,7.5-15,14.3-10.2c2.9,2,1.6,5.2,0.9,7.6
			c-1.4,4.5-2.5,9.1-3.7,13.7c-3.7,15.3-7,30.7-8.1,46.3c-1.2,18.5-0.8,36.7-1.2,55.3c-0.2,8.5,0.1,16.6,0.6,25
			c0.3,4.8-0.6,22.1,6.7,23.4c5.9,1.1,11.5-11.5,13.6-15.7c4.2-8.2,7.7-16.6,11.5-25c7-15.4,10.7-31.9,17-47.4
			c3-7.3,5.2-15.8,7.3-23.5c2.3-8.1,4.6-16.2,6.7-24.3c4.8-19.1,9.7-38.3,14.8-57.3c2.6-9.4,4.2-18.9,4.5-28.6
			c0.1-3.2,0.7-7.1-3-7.8c-4.2-0.7-7.5,4.2-11.7,3.8c-5.2-12.7,16.1-20.9,24.8-13.4c4.1,3.6,3.3,12.3,3.1,17.1
			c-0.2,7.2-2.4,13.8-3.8,20.7c-1.3,6.1-2,12.1-3.7,18.3c-2,7.3-3.7,14.7-5.5,22c-2.8,11-6,21.8-8.7,33c-6.1,25.1-14,50.1-22.6,74.4
			c-4.5,12.6-9,26.5-15.4,38.3c-5.2,9.5-9.9,21.7-20.3,27.3c-14.5,7.7-26.5-4.6-28-18.5c-0.9-8.5-0.8-17.5-0.7-26
			c0-3.9,0.2-7.9,0.4-11.8c0.2-3.4-0.9-9.1,0.6-12.2C259.8,485.9,261,469,263.2,451.9z"/>
		<path fill="#EF7B31" d="M570.7,464.7c-0.8-3.3,2.2-6.4,3.5-9.1c1.2-2.5,1.8-5.2,2.7-7.8c2-5.6,4.3-11.2,7-16.5
			c3.1-6.1,5.6-12.9,7-19.6c0.7-3.4,0.6-6.1,3.8-7.8c3.3-1.8,8.5-2.1,11.5,0.2c1.5,8.3-1.6,15.2-3.3,23.3
			c-1.6,7.7-3.6,15.4-5.1,23.2c-2.8,14.6-4,29.6-3.8,44.4c0.2,15.1-0.9,31.8,3.8,46.3c0.7,2.2,0.9,5,3.5,4.7
			c1.4-0.2,5.5-4.6,6.6-5.7c4.1-3.9,6.3-9.8,10.6-13.6c0.3,0.4,0.6,0.6,0.8,0.9c4.4-0.1,7.2-15,12.8-13.1c0.3,5.9-3.7,12.2-6.3,17.3
			c-3.4,6.4-6,13.5-10.6,19.2c-4,4.8-10.7,11.8-17.5,11.3c-6.5-0.5-10.9-6-13-11.5c-4.9-12.6-4.2-27.4-4.7-40.8
			c-0.3-8.1-0.2-16.1,0.1-24.3c0.1-2.7,2.8-18-2.3-16.1c0,4.8-1.3,8.2-4.3,12c0.7,5.1-4.6,13.9-6.6,18.7c-1.4,3.4-4.1,6.2-5.7,9.5
			c-1.5,3-2.1,6.9-5,9c-1.4,3.7-2.8,6.5-4.8,9.7c-1.7,2.7-4.9,6.7-5.8,9.5c-3.8,2-6,8.5-9.2,11.5c-3.8,3.6-9.5,5.4-14.5,6.6
			c-10.1,2.4-19.6-3.3-25.2-11.7c-11.2-16.6-8.5-43.3-5.4-61.8c1.8-10.7,3.7-21.3,6.8-31.8c2.9-10.1,5.4-20.6,6.2-31.1
			c0.6-6.9,1.7-24,13.5-19.2c5.2,2.1,3.6,8.5,2.2,12.6c-2.1,6.2-3.1,12.6-4.4,19c-2,3.5-1.7,8.4-2.4,12.3c-0.9,4.9-2.8,9.7-3.9,14.6
			c-2.3,9.5-4,19.1-5.2,28.9c-1.8,14.4-5.1,45.2,11.2,53.1c8.2,4,15-5,19.6-10.7c5.8-7.3,11.3-15.7,15.4-24c2.3-4.8,5-9.6,7.2-14.5
			c1.6-3.5,2.5-7.2,4.9-10.2c1.4-1.8,2-0.5,3.6-3.2c1.2-2,0.6-2.8,0.8-4.8C566.9,469.9,567.8,467.7,570.7,464.7z"/>
		<path fill="#EF7B31" d="M415.5,428.8c7.6-10.7,19.1-26.7,34.6-20.9c9.9,3.7,13.3,21.9,13.3,31.1c-0.2,28.5-7.1,58-22.1,82.6
			c-6.3,10.3-12.8,20.4-22,28.5c-10.5,9.2-21.5,17.2-36.6,17.3c-14.8,0-26.6-10-29.6-24.4c-3.1-15.1,0.6-33.2,3.6-48.2
			c0.8-4.2,1.8-8.2,3.1-12.2c1.2-4,3.9-7.2,5.1-11.1c2.4-7.7,5.9-14.4,10.5-21.4c4.6-7.1,9.2-13.2,16.9-17.4c3.9-2.1,8.5-3.6,12.8-4
			C408.4,428.2,412.3,429.5,415.5,428.8z M382.4,554.2c19.7-0.1,33.6-18,43.6-32.8c11.5-17.1,16.9-34.6,22.9-54
			c2.5-8,2.4-18,2.7-26.4c0.2-5.9,0.1-17.2-6.1-20.7c-2.7-1.5-5.2-0.3-8.1-0.3c-2,0-2.8-0.9-5.1,0.1c-2.3,1-3.9,2.8-5.6,4.6
			c-1.8,1.9-5.4,4.3-4.2,7c0.4,0.9,2.5,1.6,3.2,2.6c0.8,1.3,1.2,3.5,1.1,5c-0.8,11.9-15.2,2.7-21.9,3.3c-10.5,1-16.7,10.3-22.5,17.9
			c-0.7,3.9-3.8,6-5.6,8.9c-1.4,2.3-2.1,5.5-3,7.9c-3.4,9.2-6.4,17.6-7.9,27.4C363.6,518.5,358.2,555.9,382.4,554.2z"/>
		<path fill="#EF7B31" d="M687.1,554.6c-3.2-1.8-7.7-2.3-9-6.5s1.1-11.6,1.2-16.2c0.3-13,0.5-26,1-38.9c0.5-13.5,1-27,1.5-40.5
			c0.1-3.1,2.4-11.4,0.4-13.9c-1.7-2.2-12.2,1.4-15,1.9c-7.8,1.5-26.3,7.3-30.8-2.5c-5.2-11.2,18.1-10.3,24.2-10.7
			c5.8-0.4,11.6-1.2,17.4-2c2.3-0.3,3.8-0.1,4.9-2.2c1.2-2.2,0.9-7.6,1.1-10.2c0.8-11.1,2.3-22.2,3.3-33.3c2.2-22.9,4.8-45.9,9-68.4
			c1.1-5.8,2.4-11.3,2.8-17.2c0.4-4.7-0.9-10.2,5.1-11c4.8-0.7,11.2,1.2,11.4,6.8c0.2,3.9-2.5,8.4-3.4,12.2
			c-2.6,9.9-3.8,19.9-5.5,30c-2,12.6-1.1,25.8-3.5,38.4c-2,10.8-2.9,22.1-3.9,33.2c-0.3,3.5-3.3,15.9-1,18.6
			c2.7,3.2,12.4-0.8,15.9,3.2c2.9,3.2-0.9,5.9-3.8,7c-4.4,1.7-12.2,1.4-13.8,6c-0.9,2.6-0.2,7.3-0.4,10.1c-0.2,3.6-0.6,7.2-0.8,10.9
			c-0.3,6.6-0.1,13.2-0.3,19.8c-0.3,13.4-1.4,26.7-1.1,40.1c0.2,7.2-0.3,14.5,0.2,21.7C694.8,548.5,693.8,551.2,687.1,554.6z"/>
		<path fill="#EF7B31" d="M1004.3,406.8c0,0.2,0,0.3,0,0.5C1004.3,407.2,1004.3,407,1004.3,406.8L1004.3,406.8z"/>
	</g>
</g>
<g id="Laag_2" display="none">
	<rect x="202.5" y="205.5" display="inline" fill="none" stroke="#FF0000" stroke-miterlimit="10" width="870" height="402"/>
</g>
</svg>
